G04*
G04 #@! TF.GenerationSoftware,Altium Limited,Altium Designer,20.2.6 (244)*
G04*
G04 Layer_Color=8388736*
%FSLAX24Y24*%
%MOIN*%
G70*
G04*
G04 #@! TF.SameCoordinates,8D7CF149-CDE5-45B4-86FF-19C455488765*
G04*
G04*
G04 #@! TF.FilePolarity,Negative*
G04*
G01*
G75*
%ADD47R,0.0395X0.0395*%
G04:AMPARAMS|DCode=48|XSize=59.2mil|YSize=86.7mil|CornerRadius=0mil|HoleSize=0mil|Usage=FLASHONLY|Rotation=67.500|XOffset=0mil|YOffset=0mil|HoleType=Round|Shape=Rectangle|*
%AMROTATEDRECTD48*
4,1,4,0.0287,-0.0439,-0.0514,-0.0107,-0.0287,0.0439,0.0514,0.0107,0.0287,-0.0439,0.0*
%
%ADD48ROTATEDRECTD48*%

G04:AMPARAMS|DCode=49|XSize=74.9mil|YSize=86.7mil|CornerRadius=0mil|HoleSize=0mil|Usage=FLASHONLY|Rotation=67.500|XOffset=0mil|YOffset=0mil|HoleType=Round|Shape=Rectangle|*
%AMROTATEDRECTD49*
4,1,4,0.0257,-0.0512,-0.0544,-0.0180,-0.0257,0.0512,0.0544,0.0180,0.0257,-0.0512,0.0*
%
%ADD49ROTATEDRECTD49*%

G04:AMPARAMS|DCode=50|XSize=59.2mil|YSize=86.7mil|CornerRadius=0mil|HoleSize=0mil|Usage=FLASHONLY|Rotation=337.500|XOffset=0mil|YOffset=0mil|HoleType=Round|Shape=Rectangle|*
%AMROTATEDRECTD50*
4,1,4,-0.0439,-0.0287,-0.0107,0.0514,0.0439,0.0287,0.0107,-0.0514,-0.0439,-0.0287,0.0*
%
%ADD50ROTATEDRECTD50*%

G04:AMPARAMS|DCode=51|XSize=74.9mil|YSize=86.7mil|CornerRadius=0mil|HoleSize=0mil|Usage=FLASHONLY|Rotation=337.500|XOffset=0mil|YOffset=0mil|HoleType=Round|Shape=Rectangle|*
%AMROTATEDRECTD51*
4,1,4,-0.0512,-0.0257,-0.0180,0.0544,0.0512,0.0257,0.0180,-0.0544,-0.0512,-0.0257,0.0*
%
%ADD51ROTATEDRECTD51*%

G04:AMPARAMS|DCode=52|XSize=59.2mil|YSize=86.7mil|CornerRadius=0mil|HoleSize=0mil|Usage=FLASHONLY|Rotation=45.000|XOffset=0mil|YOffset=0mil|HoleType=Round|Shape=Rectangle|*
%AMROTATEDRECTD52*
4,1,4,0.0097,-0.0516,-0.0516,0.0097,-0.0097,0.0516,0.0516,-0.0097,0.0097,-0.0516,0.0*
%
%ADD52ROTATEDRECTD52*%

G04:AMPARAMS|DCode=53|XSize=74.9mil|YSize=86.7mil|CornerRadius=0mil|HoleSize=0mil|Usage=FLASHONLY|Rotation=45.000|XOffset=0mil|YOffset=0mil|HoleType=Round|Shape=Rectangle|*
%AMROTATEDRECTD53*
4,1,4,0.0042,-0.0572,-0.0572,0.0042,-0.0042,0.0572,0.0572,-0.0042,0.0042,-0.0572,0.0*
%
%ADD53ROTATEDRECTD53*%

G04:AMPARAMS|DCode=54|XSize=59.2mil|YSize=86.7mil|CornerRadius=0mil|HoleSize=0mil|Usage=FLASHONLY|Rotation=315.000|XOffset=0mil|YOffset=0mil|HoleType=Round|Shape=Rectangle|*
%AMROTATEDRECTD54*
4,1,4,-0.0516,-0.0097,0.0097,0.0516,0.0516,0.0097,-0.0097,-0.0516,-0.0516,-0.0097,0.0*
%
%ADD54ROTATEDRECTD54*%

G04:AMPARAMS|DCode=55|XSize=74.9mil|YSize=86.7mil|CornerRadius=0mil|HoleSize=0mil|Usage=FLASHONLY|Rotation=315.000|XOffset=0mil|YOffset=0mil|HoleType=Round|Shape=Rectangle|*
%AMROTATEDRECTD55*
4,1,4,-0.0572,-0.0042,0.0042,0.0572,0.0572,0.0042,-0.0042,-0.0572,-0.0572,-0.0042,0.0*
%
%ADD55ROTATEDRECTD55*%

G04:AMPARAMS|DCode=56|XSize=59.2mil|YSize=86.7mil|CornerRadius=0mil|HoleSize=0mil|Usage=FLASHONLY|Rotation=22.500|XOffset=0mil|YOffset=0mil|HoleType=Round|Shape=Rectangle|*
%AMROTATEDRECTD56*
4,1,4,-0.0107,-0.0514,-0.0439,0.0287,0.0107,0.0514,0.0439,-0.0287,-0.0107,-0.0514,0.0*
%
%ADD56ROTATEDRECTD56*%

G04:AMPARAMS|DCode=57|XSize=74.9mil|YSize=86.7mil|CornerRadius=0mil|HoleSize=0mil|Usage=FLASHONLY|Rotation=22.500|XOffset=0mil|YOffset=0mil|HoleType=Round|Shape=Rectangle|*
%AMROTATEDRECTD57*
4,1,4,-0.0180,-0.0544,-0.0512,0.0257,0.0180,0.0544,0.0512,-0.0257,-0.0180,-0.0544,0.0*
%
%ADD57ROTATEDRECTD57*%

G04:AMPARAMS|DCode=58|XSize=59.2mil|YSize=86.7mil|CornerRadius=0mil|HoleSize=0mil|Usage=FLASHONLY|Rotation=292.500|XOffset=0mil|YOffset=0mil|HoleType=Round|Shape=Rectangle|*
%AMROTATEDRECTD58*
4,1,4,-0.0514,0.0107,0.0287,0.0439,0.0514,-0.0107,-0.0287,-0.0439,-0.0514,0.0107,0.0*
%
%ADD58ROTATEDRECTD58*%

G04:AMPARAMS|DCode=59|XSize=74.9mil|YSize=86.7mil|CornerRadius=0mil|HoleSize=0mil|Usage=FLASHONLY|Rotation=292.500|XOffset=0mil|YOffset=0mil|HoleType=Round|Shape=Rectangle|*
%AMROTATEDRECTD59*
4,1,4,-0.0544,0.0180,0.0257,0.0512,0.0544,-0.0180,-0.0257,-0.0512,-0.0544,0.0180,0.0*
%
%ADD59ROTATEDRECTD59*%

%ADD60R,0.0592X0.0867*%
%ADD61R,0.0749X0.0867*%
%ADD62R,0.0867X0.0592*%
%ADD63R,0.0867X0.0749*%
%ADD64R,0.0395X0.0395*%
%ADD65R,0.0237X0.0277*%
G04:AMPARAMS|DCode=66|XSize=23.7mil|YSize=27.7mil|CornerRadius=0mil|HoleSize=0mil|Usage=FLASHONLY|Rotation=60.000|XOffset=0mil|YOffset=0mil|HoleType=Round|Shape=Rectangle|*
%AMROTATEDRECTD66*
4,1,4,0.0061,-0.0172,-0.0179,-0.0034,-0.0061,0.0172,0.0179,0.0034,0.0061,-0.0172,0.0*
%
%ADD66ROTATEDRECTD66*%

G04:AMPARAMS|DCode=67|XSize=23.7mil|YSize=27.7mil|CornerRadius=0mil|HoleSize=0mil|Usage=FLASHONLY|Rotation=300.000|XOffset=0mil|YOffset=0mil|HoleType=Round|Shape=Rectangle|*
%AMROTATEDRECTD67*
4,1,4,-0.0179,0.0034,0.0061,0.0172,0.0179,-0.0034,-0.0061,-0.0172,-0.0179,0.0034,0.0*
%
%ADD67ROTATEDRECTD67*%

%ADD68O,0.0395X0.0178*%
%ADD69O,0.0178X0.0395*%
%ADD70R,0.0919X0.0919*%
G04:AMPARAMS|DCode=71|XSize=17.8mil|YSize=39.5mil|CornerRadius=0mil|HoleSize=0mil|Usage=FLASHONLY|Rotation=330.000|XOffset=0mil|YOffset=0mil|HoleType=Round|Shape=Round|*
%AMOVALD71*
21,1,0.0217,0.0178,0.0000,0.0000,60.0*
1,1,0.0178,-0.0054,-0.0094*
1,1,0.0178,0.0054,0.0094*
%
%ADD71OVALD71*%

G04:AMPARAMS|DCode=72|XSize=17.8mil|YSize=39.5mil|CornerRadius=0mil|HoleSize=0mil|Usage=FLASHONLY|Rotation=240.000|XOffset=0mil|YOffset=0mil|HoleType=Round|Shape=Round|*
%AMOVALD72*
21,1,0.0217,0.0178,0.0000,0.0000,330.0*
1,1,0.0178,-0.0094,0.0054*
1,1,0.0178,0.0094,-0.0054*
%
%ADD72OVALD72*%

%ADD73P,0.1299X4X285.0*%
G04:AMPARAMS|DCode=74|XSize=17.8mil|YSize=39.5mil|CornerRadius=0mil|HoleSize=0mil|Usage=FLASHONLY|Rotation=210.000|XOffset=0mil|YOffset=0mil|HoleType=Round|Shape=Round|*
%AMOVALD74*
21,1,0.0217,0.0178,0.0000,0.0000,300.0*
1,1,0.0178,-0.0054,0.0094*
1,1,0.0178,0.0054,-0.0094*
%
%ADD74OVALD74*%

G04:AMPARAMS|DCode=75|XSize=17.8mil|YSize=39.5mil|CornerRadius=0mil|HoleSize=0mil|Usage=FLASHONLY|Rotation=120.000|XOffset=0mil|YOffset=0mil|HoleType=Round|Shape=Round|*
%AMOVALD75*
21,1,0.0217,0.0178,0.0000,0.0000,210.0*
1,1,0.0178,0.0094,0.0054*
1,1,0.0178,-0.0094,-0.0054*
%
%ADD75OVALD75*%

%ADD76P,0.1299X4X165.0*%
%ADD77R,0.0297X0.0297*%
%ADD78P,0.0419X4X375.0*%
%ADD79P,0.0419X4X255.0*%
%ADD80C,0.0080*%
%ADD81C,0.0277*%
G36*
X-2650Y6708D02*
X-2648Y6708D01*
X-2646Y6707D01*
X-2643Y6705D01*
X-2641Y6702D01*
X-2640Y6699D01*
X-2639Y6694D01*
Y6693D01*
Y6693D01*
Y6691D01*
X-2639Y6689D01*
X-2640Y6685D01*
X-2640Y6681D01*
X-2641Y6676D01*
X-2642Y6670D01*
X-2633D01*
X-2628Y6670D01*
X-2621D01*
X-2614Y6671D01*
X-2607Y6671D01*
X-2601Y6672D01*
X-2600D01*
X-2598Y6673D01*
X-2595Y6673D01*
X-2592Y6673D01*
X-2588Y6674D01*
X-2585Y6674D01*
X-2582Y6675D01*
X-2581Y6675D01*
X-2580D01*
X-2578Y6675D01*
X-2574Y6676D01*
X-2570Y6677D01*
X-2566Y6677D01*
X-2562Y6677D01*
X-2558Y6678D01*
X-2553D01*
X-2551Y6677D01*
X-2547Y6676D01*
X-2542Y6674D01*
X-2542D01*
X-2542Y6674D01*
X-2540Y6672D01*
X-2539Y6670D01*
X-2538Y6669D01*
Y6666D01*
X-2539Y6664D01*
X-2539Y6663D01*
X-2540Y6662D01*
X-2541Y6660D01*
X-2543Y6657D01*
X-2545Y6654D01*
X-2548Y6651D01*
X-2551Y6647D01*
X-2555Y6644D01*
X-2556Y6643D01*
X-2558Y6642D01*
X-2560Y6641D01*
X-2563Y6639D01*
X-2566Y6637D01*
X-2570Y6635D01*
X-2574Y6634D01*
X-2578Y6632D01*
X-2579D01*
X-2580Y6632D01*
X-2582Y6632D01*
X-2585Y6631D01*
X-2588Y6631D01*
X-2592Y6630D01*
X-2597Y6629D01*
X-2602Y6628D01*
X-2607Y6628D01*
X-2613Y6627D01*
X-2626Y6626D01*
X-2640Y6625D01*
X-2654Y6624D01*
X-2656Y6612D01*
Y6611D01*
Y6611D01*
X-2656Y6610D01*
X-2656Y6609D01*
X-2657Y6605D01*
X-2658Y6600D01*
X-2659Y6594D01*
X-2661Y6587D01*
X-2662Y6579D01*
X-2664Y6570D01*
X-2666Y6560D01*
X-2669Y6550D01*
X-2671Y6539D01*
X-2673Y6528D01*
X-2678Y6505D01*
X-2684Y6481D01*
Y6481D01*
X-2685Y6479D01*
X-2685Y6475D01*
X-2686Y6471D01*
X-2688Y6465D01*
X-2689Y6459D01*
X-2692Y6451D01*
X-2694Y6443D01*
X-2696Y6434D01*
X-2698Y6425D01*
X-2701Y6415D01*
X-2704Y6405D01*
X-2711Y6384D01*
X-2718Y6362D01*
Y6362D01*
X-2718Y6362D01*
X-2718Y6361D01*
X-2719Y6359D01*
X-2720Y6356D01*
X-2722Y6351D01*
X-2724Y6345D01*
X-2727Y6339D01*
X-2731Y6332D01*
X-2734Y6324D01*
X-2739Y6316D01*
X-2743Y6308D01*
X-2748Y6299D01*
X-2753Y6291D01*
X-2759Y6283D01*
X-2765Y6276D01*
X-2772Y6269D01*
X-2779Y6263D01*
X-2779Y6263D01*
X-2781Y6262D01*
X-2783Y6261D01*
X-2785Y6259D01*
X-2789Y6256D01*
X-2794Y6254D01*
X-2799Y6251D01*
X-2805Y6249D01*
X-2812Y6246D01*
X-2819Y6243D01*
X-2827Y6241D01*
X-2835Y6239D01*
X-2845Y6237D01*
X-2854Y6235D01*
X-2865Y6234D01*
X-2876Y6234D01*
X-2879D01*
X-2882Y6234D01*
X-2886D01*
X-2890Y6235D01*
X-2895Y6235D01*
X-2900Y6236D01*
X-2906Y6237D01*
X-2912Y6238D01*
X-2918Y6239D01*
X-2925Y6241D01*
X-2940Y6246D01*
X-2948Y6248D01*
X-2956Y6251D01*
X-2956Y6251D01*
X-2958Y6252D01*
X-2960Y6253D01*
X-2963Y6254D01*
X-2966Y6256D01*
X-2971Y6258D01*
X-2975Y6260D01*
X-2980Y6263D01*
X-2991Y6269D01*
X-3003Y6277D01*
X-3014Y6285D01*
X-3020Y6289D01*
X-3025Y6294D01*
X-3025Y6294D01*
X-3026Y6295D01*
X-3027Y6297D01*
X-3029Y6298D01*
X-3030Y6301D01*
X-3033Y6303D01*
X-3035Y6307D01*
X-3037Y6310D01*
X-3041Y6318D01*
X-3042Y6322D01*
X-3044Y6326D01*
X-3044Y6331D01*
X-3045Y6335D01*
X-3044Y6340D01*
X-3043Y6345D01*
X-3043Y6345D01*
X-3042Y6347D01*
X-3041Y6349D01*
X-3039Y6352D01*
X-3037Y6355D01*
X-3034Y6359D01*
X-3030Y6363D01*
X-3025Y6366D01*
X-3024Y6367D01*
X-3022Y6368D01*
X-3020Y6370D01*
X-3016Y6372D01*
X-3012Y6375D01*
X-3007Y6377D01*
X-3001Y6380D01*
X-2996Y6383D01*
X-2995Y6383D01*
X-2993Y6384D01*
X-2991Y6385D01*
X-2987Y6386D01*
X-2980Y6389D01*
X-2977Y6389D01*
X-2974Y6390D01*
X-2972D01*
X-2970Y6389D01*
X-2968Y6389D01*
X-2965Y6388D01*
X-2963Y6387D01*
X-2962Y6385D01*
X-2961Y6382D01*
Y6382D01*
X-2960Y6381D01*
Y6380D01*
X-2960Y6379D01*
X-2959Y6375D01*
X-2960Y6372D01*
Y6371D01*
X-2960Y6371D01*
X-2961Y6370D01*
X-2962Y6368D01*
X-2964Y6366D01*
X-2966Y6364D01*
X-2969Y6362D01*
X-2972Y6361D01*
X-2973Y6360D01*
X-2974Y6360D01*
X-2976Y6359D01*
X-2978Y6358D01*
X-2982Y6356D01*
X-2984Y6355D01*
X-2986Y6354D01*
X-2986Y6354D01*
X-2987Y6353D01*
X-2989Y6351D01*
X-2990Y6349D01*
Y6349D01*
X-2990Y6347D01*
Y6344D01*
X-2989Y6341D01*
X-2988Y6337D01*
X-2986Y6331D01*
X-2984Y6329D01*
X-2982Y6326D01*
X-2979Y6323D01*
X-2976Y6319D01*
X-2976Y6319D01*
X-2975Y6319D01*
X-2974Y6318D01*
X-2973Y6317D01*
X-2971Y6315D01*
X-2969Y6313D01*
X-2966Y6311D01*
X-2963Y6309D01*
X-2960Y6307D01*
X-2956Y6304D01*
X-2948Y6299D01*
X-2938Y6294D01*
X-2927Y6289D01*
X-2927D01*
X-2926Y6289D01*
X-2924Y6288D01*
X-2922Y6287D01*
X-2919Y6286D01*
X-2915Y6285D01*
X-2912Y6284D01*
X-2907Y6283D01*
X-2898Y6280D01*
X-2888Y6278D01*
X-2876Y6277D01*
X-2865Y6276D01*
X-2859D01*
X-2856Y6277D01*
X-2850Y6277D01*
X-2843Y6278D01*
X-2836Y6278D01*
X-2829Y6280D01*
X-2822Y6282D01*
X-2822D01*
X-2822Y6282D01*
X-2819Y6283D01*
X-2816Y6284D01*
X-2812Y6287D01*
X-2807Y6290D01*
X-2801Y6294D01*
X-2796Y6299D01*
X-2790Y6306D01*
X-2790Y6306D01*
X-2789Y6306D01*
X-2789Y6307D01*
X-2788Y6309D01*
X-2786Y6311D01*
X-2785Y6314D01*
X-2783Y6317D01*
X-2781Y6320D01*
X-2779Y6323D01*
X-2777Y6328D01*
X-2775Y6333D01*
X-2772Y6338D01*
X-2769Y6343D01*
X-2767Y6350D01*
X-2765Y6356D01*
X-2762Y6363D01*
Y6363D01*
X-2762Y6364D01*
X-2761Y6365D01*
X-2761Y6366D01*
X-2761Y6368D01*
X-2760Y6370D01*
X-2759Y6373D01*
X-2758Y6376D01*
X-2757Y6380D01*
X-2756Y6384D01*
X-2755Y6388D01*
X-2753Y6393D01*
X-2752Y6398D01*
X-2750Y6403D01*
X-2749Y6409D01*
X-2747Y6416D01*
X-2745Y6423D01*
X-2743Y6430D01*
X-2741Y6438D01*
X-2739Y6446D01*
X-2737Y6456D01*
X-2734Y6465D01*
X-2732Y6475D01*
X-2730Y6485D01*
X-2727Y6496D01*
X-2725Y6507D01*
X-2722Y6519D01*
X-2719Y6531D01*
X-2717Y6543D01*
X-2714Y6556D01*
X-2711Y6570D01*
X-2708Y6584D01*
Y6585D01*
X-2708Y6587D01*
X-2707Y6590D01*
X-2706Y6593D01*
X-2705Y6597D01*
X-2705Y6602D01*
X-2703Y6610D01*
Y6611D01*
X-2702Y6612D01*
X-2702Y6614D01*
X-2701Y6616D01*
X-2700Y6621D01*
X-2700Y6623D01*
X-2699Y6625D01*
X-2741D01*
X-2752Y6625D01*
X-2766D01*
X-2769Y6626D01*
X-2773D01*
X-2778Y6626D01*
X-2783Y6626D01*
X-2789Y6627D01*
X-2801Y6627D01*
X-2815Y6628D01*
X-2828Y6630D01*
X-2834Y6630D01*
X-2840Y6631D01*
X-2840D01*
X-2842Y6631D01*
X-2844Y6632D01*
X-2846Y6633D01*
X-2849Y6634D01*
X-2851Y6635D01*
X-2854Y6637D01*
X-2856Y6640D01*
X-2856Y6640D01*
X-2857Y6641D01*
X-2858Y6643D01*
X-2858Y6645D01*
X-2858Y6648D01*
Y6651D01*
X-2858Y6655D01*
X-2857Y6659D01*
Y6659D01*
X-2856Y6660D01*
X-2856Y6661D01*
X-2855Y6663D01*
X-2854Y6665D01*
X-2852Y6667D01*
X-2850Y6669D01*
X-2847Y6671D01*
X-2847Y6671D01*
X-2846Y6671D01*
X-2845Y6673D01*
X-2843Y6674D01*
X-2838Y6675D01*
X-2835Y6676D01*
X-2832Y6676D01*
X-2828D01*
X-2824Y6676D01*
X-2820D01*
X-2815Y6675D01*
X-2809Y6675D01*
X-2803Y6674D01*
X-2801D01*
X-2799Y6674D01*
X-2796Y6674D01*
X-2792Y6673D01*
X-2787Y6673D01*
X-2782Y6673D01*
X-2776Y6672D01*
X-2769Y6672D01*
X-2762Y6671D01*
X-2754Y6671D01*
X-2746Y6671D01*
X-2737Y6670D01*
X-2728D01*
X-2709Y6670D01*
X-2690D01*
Y6670D01*
X-2690Y6672D01*
Y6674D01*
X-2689Y6676D01*
X-2689Y6679D01*
X-2688Y6682D01*
X-2685Y6689D01*
Y6689D01*
X-2685Y6690D01*
X-2684Y6691D01*
X-2682Y6693D01*
X-2681Y6695D01*
X-2678Y6697D01*
X-2675Y6700D01*
X-2672Y6702D01*
X-2671Y6702D01*
X-2670Y6703D01*
X-2668Y6704D01*
X-2665Y6705D01*
X-2662Y6706D01*
X-2659Y6707D01*
X-2655Y6708D01*
X-2652Y6709D01*
X-2652D01*
X-2650Y6708D01*
D02*
G37*
G36*
X590Y6711D02*
X590D01*
X591Y6710D01*
X592Y6710D01*
X594Y6709D01*
X595D01*
X595Y6709D01*
X596Y6708D01*
X598Y6707D01*
X599Y6706D01*
X601Y6704D01*
X603Y6702D01*
X604Y6699D01*
Y6699D01*
X605Y6698D01*
X606Y6697D01*
X607Y6695D01*
X608Y6693D01*
X609Y6691D01*
X610Y6688D01*
X611Y6685D01*
Y6685D01*
X612Y6683D01*
X612Y6682D01*
X613Y6680D01*
X614Y6676D01*
X615Y6674D01*
X614Y6672D01*
X614Y6671D01*
X613Y6670D01*
X611Y6667D01*
X608Y6665D01*
X604Y6662D01*
X601Y6660D01*
X598Y6659D01*
X595Y6658D01*
X591Y6657D01*
X587Y6657D01*
X582Y6657D01*
X580D01*
X578Y6657D01*
X574Y6658D01*
X571Y6659D01*
X567Y6661D01*
X563Y6663D01*
X560Y6667D01*
X559Y6667D01*
X558Y6669D01*
X557Y6670D01*
X555Y6673D01*
X554Y6676D01*
X553Y6679D01*
Y6682D01*
X553Y6686D01*
Y6686D01*
X554Y6687D01*
X555Y6689D01*
X556Y6691D01*
X558Y6694D01*
X560Y6697D01*
X564Y6700D01*
X567Y6703D01*
X568Y6703D01*
X569Y6704D01*
X571Y6706D01*
X574Y6707D01*
X578Y6709D01*
X581Y6710D01*
X585Y6711D01*
X589Y6711D01*
X590Y6711D01*
D02*
G37*
G36*
X-762Y6693D02*
X-760Y6693D01*
X-758Y6691D01*
X-756Y6690D01*
X-755Y6687D01*
X-754Y6684D01*
X-755Y6682D01*
X-755Y6679D01*
Y6679D01*
X-756Y6678D01*
X-757Y6675D01*
X-759Y6673D01*
X-762Y6670D01*
X-765Y6667D01*
X-770Y6664D01*
X-775Y6661D01*
X-775D01*
X-776Y6661D01*
X-777Y6660D01*
X-779Y6659D01*
X-781Y6659D01*
X-784Y6658D01*
X-787Y6657D01*
X-791Y6655D01*
X-795Y6654D01*
X-799Y6652D01*
X-805Y6650D01*
X-810Y6649D01*
X-816Y6646D01*
X-822Y6644D01*
X-829Y6643D01*
X-836Y6640D01*
X-837D01*
X-838Y6640D01*
X-840Y6639D01*
X-843Y6639D01*
X-846Y6638D01*
X-850Y6637D01*
X-854Y6636D01*
X-859Y6635D01*
X-869Y6632D01*
X-880Y6630D01*
X-891Y6627D01*
X-901Y6626D01*
X-902D01*
X-903Y6625D01*
X-905Y6625D01*
X-908Y6624D01*
X-912Y6624D01*
X-916Y6623D01*
X-920Y6622D01*
X-925Y6622D01*
X-931Y6621D01*
X-937Y6620D01*
X-950Y6618D01*
X-964Y6616D01*
X-978Y6614D01*
X-979D01*
X-981Y6614D01*
X-984Y6614D01*
X-987Y6613D01*
X-990D01*
X-997Y6612D01*
X-1005Y6612D01*
X-1012Y6611D01*
X-1015Y6611D01*
X-1017D01*
X-1019Y6610D01*
X-1020D01*
Y6610D01*
X-1021Y6609D01*
X-1022Y6607D01*
X-1022Y6605D01*
X-1023Y6602D01*
X-1024Y6599D01*
X-1026Y6595D01*
X-1027Y6590D01*
X-1028Y6586D01*
X-1030Y6580D01*
X-1032Y6575D01*
X-1034Y6568D01*
X-1038Y6556D01*
X-1042Y6541D01*
Y6541D01*
X-1043Y6540D01*
X-1043Y6538D01*
X-1044Y6535D01*
X-1045Y6532D01*
X-1046Y6529D01*
X-1048Y6521D01*
X-1051Y6513D01*
X-1053Y6506D01*
X-1054Y6503D01*
X-1055Y6500D01*
X-1056Y6497D01*
X-1056Y6495D01*
X-1055D01*
X-1054Y6496D01*
X-1052Y6496D01*
X-1050Y6496D01*
X-1047Y6497D01*
X-1044Y6497D01*
X-1040Y6498D01*
X-1035Y6499D01*
X-1030Y6499D01*
X-1024Y6500D01*
X-1018Y6501D01*
X-1010Y6503D01*
X-1002Y6504D01*
X-993Y6505D01*
X-984Y6507D01*
X-964Y6510D01*
X-963D01*
X-962Y6511D01*
X-960Y6511D01*
X-957Y6512D01*
X-953Y6512D01*
X-949Y6513D01*
X-944Y6515D01*
X-939Y6516D01*
X-929Y6519D01*
X-917Y6523D01*
X-906Y6528D01*
X-901Y6531D01*
X-896Y6535D01*
X-895D01*
X-895Y6535D01*
X-893Y6536D01*
X-890Y6538D01*
X-887Y6540D01*
X-883Y6541D01*
X-879Y6543D01*
X-876Y6544D01*
X-873Y6544D01*
X-871D01*
X-870Y6544D01*
X-868Y6544D01*
X-867Y6543D01*
X-865Y6541D01*
X-864Y6540D01*
X-863Y6537D01*
Y6537D01*
X-862Y6536D01*
Y6535D01*
X-862Y6533D01*
Y6528D01*
X-862Y6526D01*
X-863Y6524D01*
X-864Y6523D01*
X-865Y6521D01*
X-866Y6518D01*
X-868Y6516D01*
X-870Y6515D01*
X-872Y6512D01*
X-874Y6510D01*
X-878Y6508D01*
X-881Y6505D01*
X-885Y6503D01*
X-890Y6500D01*
X-895Y6497D01*
X-901Y6495D01*
X-901D01*
X-902Y6494D01*
X-904Y6493D01*
X-906Y6492D01*
X-909Y6491D01*
X-912Y6489D01*
X-916Y6488D01*
X-921Y6487D01*
X-925Y6485D01*
X-931Y6483D01*
X-941Y6480D01*
X-953Y6476D01*
X-965Y6474D01*
X-965D01*
X-966Y6473D01*
X-968Y6473D01*
X-970Y6473D01*
X-973Y6472D01*
X-976Y6472D01*
X-980Y6471D01*
X-984Y6470D01*
X-988Y6469D01*
X-993Y6468D01*
X-1004Y6467D01*
X-1015Y6464D01*
X-1028Y6463D01*
X-1028D01*
X-1029Y6462D01*
X-1031D01*
X-1033Y6462D01*
X-1035Y6461D01*
X-1038Y6461D01*
X-1045Y6460D01*
X-1051Y6459D01*
X-1058Y6459D01*
X-1060Y6458D01*
X-1063Y6458D01*
X-1064Y6457D01*
X-1066D01*
Y6457D01*
X-1066Y6456D01*
X-1067Y6455D01*
X-1067Y6453D01*
X-1068Y6451D01*
X-1069Y6448D01*
X-1070Y6445D01*
X-1071Y6441D01*
X-1073Y6433D01*
X-1075Y6423D01*
X-1078Y6413D01*
X-1081Y6401D01*
X-1084Y6390D01*
X-1086Y6377D01*
X-1091Y6353D01*
X-1093Y6341D01*
X-1095Y6330D01*
X-1095Y6319D01*
X-1096Y6309D01*
X-1095Y6309D01*
X-1094Y6309D01*
X-1091Y6307D01*
X-1087Y6307D01*
X-1083Y6305D01*
X-1078Y6304D01*
X-1073Y6303D01*
X-1067Y6302D01*
X-1066D01*
X-1064Y6301D01*
X-1060Y6301D01*
X-1056Y6301D01*
X-1050Y6300D01*
X-1042Y6299D01*
X-1034Y6299D01*
X-1019D01*
X-1017Y6299D01*
X-1014D01*
X-1011Y6300D01*
X-1007D01*
X-999Y6301D01*
X-991Y6302D01*
X-981Y6303D01*
X-971Y6306D01*
X-971D01*
X-970Y6306D01*
X-969Y6306D01*
X-967Y6307D01*
X-965Y6307D01*
X-962Y6308D01*
X-956Y6310D01*
X-949Y6313D01*
X-942Y6315D01*
X-935Y6319D01*
X-928Y6322D01*
X-928D01*
X-928Y6322D01*
X-926Y6323D01*
X-923Y6325D01*
X-920Y6327D01*
X-916Y6330D01*
X-913Y6333D01*
X-911Y6335D01*
X-909Y6338D01*
X-909Y6338D01*
X-909Y6340D01*
X-908Y6342D01*
Y6345D01*
Y6345D01*
Y6346D01*
X-909Y6347D01*
X-909Y6350D01*
X-910Y6354D01*
Y6354D01*
X-910Y6355D01*
X-911Y6358D01*
X-912Y6361D01*
Y6361D01*
X-913Y6361D01*
Y6363D01*
X-913Y6366D01*
X-912Y6369D01*
X-912Y6370D01*
X-911Y6371D01*
X-910Y6373D01*
X-908Y6376D01*
X-904Y6378D01*
X-900Y6380D01*
X-895Y6381D01*
X-892Y6382D01*
X-886D01*
X-884Y6381D01*
X-881Y6380D01*
X-878Y6379D01*
X-875Y6377D01*
X-872Y6375D01*
X-870Y6371D01*
X-869Y6371D01*
X-869Y6369D01*
X-868Y6367D01*
X-868Y6365D01*
X-867Y6361D01*
X-867Y6357D01*
X-868Y6353D01*
X-869Y6349D01*
Y6349D01*
X-869Y6348D01*
X-869Y6347D01*
X-870Y6345D01*
X-871Y6343D01*
X-872Y6341D01*
X-876Y6335D01*
X-880Y6329D01*
X-883Y6325D01*
X-886Y6321D01*
X-889Y6317D01*
X-893Y6314D01*
X-897Y6310D01*
X-902Y6306D01*
X-902Y6305D01*
X-903Y6305D01*
X-905Y6304D01*
X-907Y6302D01*
X-909Y6301D01*
X-912Y6299D01*
X-916Y6296D01*
X-920Y6294D01*
X-924Y6291D01*
X-929Y6289D01*
X-934Y6286D01*
X-940Y6283D01*
X-952Y6278D01*
X-965Y6273D01*
X-965D01*
X-966Y6273D01*
X-968Y6272D01*
X-971Y6271D01*
X-974Y6270D01*
X-978Y6269D01*
X-983Y6268D01*
X-988Y6267D01*
X-993Y6265D01*
X-999Y6264D01*
X-1012Y6262D01*
X-1026Y6261D01*
X-1040Y6260D01*
X-1050D01*
X-1054Y6260D01*
X-1058D01*
X-1062Y6261D01*
X-1072Y6261D01*
X-1083Y6262D01*
X-1093Y6263D01*
X-1098Y6264D01*
X-1103Y6264D01*
X-1103D01*
X-1104Y6265D01*
X-1105D01*
X-1107Y6265D01*
X-1111Y6266D01*
X-1116Y6268D01*
X-1121Y6270D01*
X-1127Y6273D01*
X-1132Y6277D01*
X-1136Y6281D01*
Y6281D01*
X-1136Y6282D01*
X-1137Y6283D01*
X-1137Y6285D01*
X-1138Y6287D01*
X-1139Y6289D01*
X-1139Y6292D01*
X-1140Y6296D01*
X-1140Y6300D01*
X-1141Y6305D01*
X-1141Y6309D01*
Y6315D01*
X-1141Y6321D01*
X-1140Y6327D01*
X-1139Y6335D01*
X-1138Y6342D01*
Y6343D01*
X-1137Y6344D01*
X-1137Y6347D01*
X-1136Y6350D01*
X-1135Y6354D01*
X-1134Y6359D01*
X-1133Y6365D01*
X-1131Y6372D01*
X-1129Y6379D01*
X-1127Y6387D01*
X-1125Y6396D01*
X-1123Y6406D01*
X-1120Y6416D01*
X-1117Y6426D01*
X-1114Y6438D01*
X-1111Y6450D01*
X-1111D01*
X-1112Y6449D01*
X-1114Y6449D01*
X-1116Y6448D01*
X-1119Y6447D01*
X-1123Y6446D01*
X-1127Y6445D01*
X-1133Y6444D01*
X-1134D01*
X-1135Y6444D01*
X-1138Y6444D01*
X-1142Y6443D01*
X-1145Y6443D01*
X-1149Y6442D01*
X-1153Y6442D01*
X-1158D01*
X-1160Y6442D01*
X-1162Y6443D01*
X-1165Y6444D01*
X-1167Y6445D01*
X-1169Y6446D01*
X-1171Y6449D01*
Y6449D01*
X-1172Y6450D01*
X-1172Y6451D01*
X-1173Y6453D01*
X-1173Y6456D01*
Y6458D01*
X-1173Y6461D01*
X-1172Y6465D01*
Y6465D01*
X-1171Y6466D01*
X-1171Y6467D01*
X-1170Y6468D01*
X-1169Y6472D01*
X-1166Y6476D01*
X-1165Y6476D01*
X-1165Y6476D01*
X-1164Y6477D01*
X-1163Y6478D01*
X-1159Y6480D01*
X-1157Y6481D01*
X-1154Y6482D01*
X-1153D01*
X-1152Y6482D01*
X-1151D01*
X-1147Y6483D01*
X-1143Y6483D01*
X-1138Y6484D01*
X-1133Y6484D01*
X-1128Y6485D01*
X-1124Y6485D01*
X-1101Y6488D01*
Y6488D01*
X-1101Y6488D01*
X-1101Y6489D01*
X-1100Y6491D01*
X-1099Y6495D01*
X-1098Y6500D01*
X-1095Y6506D01*
X-1093Y6513D01*
X-1091Y6521D01*
X-1088Y6530D01*
X-1085Y6540D01*
X-1082Y6550D01*
X-1076Y6569D01*
X-1074Y6579D01*
X-1071Y6589D01*
X-1068Y6598D01*
X-1066Y6607D01*
X-1067D01*
X-1070Y6606D01*
X-1074Y6606D01*
X-1103Y6606D01*
X-1105D01*
X-1106Y6606D01*
X-1108Y6606D01*
X-1112Y6608D01*
X-1114Y6609D01*
X-1115Y6610D01*
Y6611D01*
X-1115Y6611D01*
X-1116Y6612D01*
X-1117Y6614D01*
X-1117Y6617D01*
Y6619D01*
X-1116Y6622D01*
Y6622D01*
X-1116Y6622D01*
X-1115Y6625D01*
X-1113Y6628D01*
X-1109Y6632D01*
X-1105Y6636D01*
X-1102Y6639D01*
X-1099Y6641D01*
X-1095Y6643D01*
X-1091Y6644D01*
X-1087Y6646D01*
X-1082Y6647D01*
X-1082D01*
X-1081Y6648D01*
X-1079Y6648D01*
X-1077Y6649D01*
X-1074Y6649D01*
X-1071Y6649D01*
X-1067Y6650D01*
X-1062Y6650D01*
X-1062D01*
X-1060Y6651D01*
X-1058Y6651D01*
X-1056Y6651D01*
X-1053D01*
X-1051Y6652D01*
X-1049Y6652D01*
X-1048D01*
X-1047Y6653D01*
X-1045Y6654D01*
X-1042Y6656D01*
X-1038Y6659D01*
X-1033Y6661D01*
X-1027Y6663D01*
X-1021Y6665D01*
X-1015Y6665D01*
X-1014D01*
X-1011Y6665D01*
X-1010Y6663D01*
X-1009Y6662D01*
X-1008Y6661D01*
X-1007Y6658D01*
Y6658D01*
Y6657D01*
X-1007Y6655D01*
Y6655D01*
X-1007Y6654D01*
X-1006D01*
X-1006Y6655D01*
X-1004D01*
X-1002Y6655D01*
X-1000D01*
X-996Y6656D01*
X-992Y6656D01*
X-987Y6657D01*
X-981Y6657D01*
X-975Y6658D01*
X-968Y6658D01*
X-960Y6659D01*
X-952Y6660D01*
X-943Y6661D01*
X-933Y6662D01*
X-923Y6663D01*
X-912Y6665D01*
X-912D01*
X-910Y6665D01*
X-908Y6665D01*
X-905Y6666D01*
X-901Y6666D01*
X-896Y6667D01*
X-890Y6668D01*
X-882Y6669D01*
X-875Y6671D01*
X-866Y6672D01*
X-856Y6674D01*
X-845Y6677D01*
X-833Y6679D01*
X-820Y6682D01*
X-806Y6685D01*
X-791Y6688D01*
X-764Y6693D01*
X-763D01*
X-762Y6693D01*
D02*
G37*
G36*
X1478Y6591D02*
X1482Y6590D01*
X1486Y6589D01*
X1491Y6588D01*
X1495Y6586D01*
X1500Y6584D01*
X1500Y6584D01*
X1501Y6583D01*
X1504Y6581D01*
X1506Y6579D01*
X1509Y6576D01*
X1512Y6574D01*
X1514Y6570D01*
X1516Y6566D01*
X1516Y6566D01*
X1517Y6564D01*
X1517Y6562D01*
X1518Y6559D01*
X1518Y6556D01*
X1518Y6552D01*
X1518Y6548D01*
X1517Y6544D01*
Y6544D01*
X1516Y6543D01*
X1516Y6541D01*
X1514Y6539D01*
X1512Y6536D01*
X1509Y6533D01*
X1506Y6530D01*
X1502Y6527D01*
X1501Y6527D01*
X1500Y6525D01*
X1497Y6524D01*
X1494Y6523D01*
X1491Y6521D01*
X1488Y6520D01*
X1484Y6519D01*
X1481Y6518D01*
X1480D01*
X1478Y6519D01*
X1477Y6519D01*
X1473Y6520D01*
X1472Y6521D01*
X1470Y6523D01*
Y6523D01*
X1469Y6523D01*
X1469Y6524D01*
X1468Y6526D01*
X1467Y6528D01*
X1466Y6530D01*
X1465Y6533D01*
X1464Y6536D01*
Y6536D01*
X1463Y6537D01*
X1462Y6539D01*
X1460Y6541D01*
X1457Y6544D01*
X1457D01*
X1457Y6545D01*
X1454Y6546D01*
X1451Y6547D01*
X1447Y6548D01*
X1446D01*
X1445Y6547D01*
X1444Y6547D01*
X1442Y6546D01*
X1440Y6545D01*
X1437Y6544D01*
X1434Y6542D01*
X1430Y6540D01*
X1426Y6536D01*
X1421Y6533D01*
X1416Y6528D01*
X1410Y6523D01*
X1403Y6517D01*
X1395Y6510D01*
X1387Y6502D01*
X1387Y6501D01*
X1385Y6500D01*
X1383Y6497D01*
X1380Y6493D01*
X1375Y6489D01*
X1370Y6484D01*
X1365Y6477D01*
X1358Y6470D01*
X1351Y6462D01*
X1344Y6453D01*
X1336Y6444D01*
X1327Y6433D01*
X1319Y6422D01*
X1309Y6410D01*
X1300Y6398D01*
X1290Y6385D01*
Y6384D01*
X1289Y6383D01*
X1288Y6380D01*
X1287Y6376D01*
X1286Y6371D01*
X1284Y6365D01*
X1282Y6358D01*
X1280Y6351D01*
Y6350D01*
X1280Y6350D01*
Y6349D01*
X1279Y6347D01*
X1278Y6343D01*
X1277Y6338D01*
X1275Y6333D01*
X1274Y6328D01*
X1272Y6323D01*
X1271Y6318D01*
X1264Y6292D01*
Y6291D01*
X1264Y6290D01*
X1263Y6289D01*
X1262Y6286D01*
X1260Y6283D01*
X1258Y6281D01*
X1256Y6277D01*
X1253Y6274D01*
X1253Y6274D01*
X1252Y6273D01*
X1250Y6271D01*
X1247Y6270D01*
X1244Y6268D01*
X1240Y6267D01*
X1236Y6266D01*
X1231Y6265D01*
X1231D01*
X1229Y6266D01*
X1227Y6267D01*
X1224Y6269D01*
X1223Y6271D01*
X1222Y6273D01*
X1221Y6275D01*
X1221Y6278D01*
X1220Y6282D01*
Y6286D01*
X1221Y6290D01*
X1222Y6296D01*
Y6296D01*
X1223Y6297D01*
X1223Y6299D01*
X1224Y6302D01*
X1224Y6305D01*
X1225Y6309D01*
X1227Y6313D01*
X1228Y6318D01*
X1230Y6324D01*
X1232Y6330D01*
X1233Y6337D01*
X1236Y6345D01*
X1238Y6353D01*
X1241Y6362D01*
X1244Y6371D01*
X1247Y6381D01*
X1248Y6382D01*
X1248Y6384D01*
X1249Y6387D01*
X1250Y6392D01*
X1252Y6397D01*
X1254Y6404D01*
X1257Y6412D01*
X1260Y6421D01*
Y6421D01*
X1260Y6422D01*
X1260Y6423D01*
X1261Y6425D01*
X1262Y6428D01*
X1263Y6430D01*
X1264Y6434D01*
X1265Y6438D01*
X1267Y6442D01*
X1268Y6447D01*
X1269Y6452D01*
X1271Y6457D01*
X1275Y6469D01*
X1279Y6482D01*
X1279Y6483D01*
X1280Y6484D01*
X1280Y6487D01*
X1282Y6491D01*
X1283Y6495D01*
X1284Y6500D01*
X1286Y6505D01*
X1288Y6512D01*
X1292Y6524D01*
X1296Y6537D01*
X1298Y6543D01*
X1300Y6549D01*
X1302Y6554D01*
X1303Y6559D01*
Y6559D01*
X1304Y6559D01*
X1304Y6560D01*
X1305Y6562D01*
X1307Y6565D01*
X1310Y6569D01*
X1314Y6573D01*
X1319Y6576D01*
X1322Y6578D01*
X1326Y6579D01*
X1330Y6579D01*
X1334Y6579D01*
X1336D01*
X1339Y6579D01*
X1342Y6578D01*
X1344Y6576D01*
X1347Y6574D01*
X1348Y6571D01*
X1348Y6570D01*
Y6567D01*
Y6567D01*
X1348Y6565D01*
X1348Y6562D01*
X1347Y6558D01*
X1346Y6553D01*
X1344Y6547D01*
X1341Y6539D01*
X1338Y6529D01*
X1307Y6437D01*
X1307Y6437D01*
X1308Y6438D01*
X1309Y6441D01*
X1311Y6444D01*
X1313Y6448D01*
X1315Y6453D01*
X1318Y6458D01*
X1322Y6463D01*
X1326Y6469D01*
X1330Y6476D01*
X1335Y6482D01*
X1339Y6489D01*
X1350Y6503D01*
X1363Y6516D01*
X1363Y6517D01*
X1364Y6518D01*
X1366Y6520D01*
X1369Y6522D01*
X1371Y6525D01*
X1375Y6529D01*
X1379Y6532D01*
X1383Y6537D01*
X1393Y6546D01*
X1404Y6555D01*
X1415Y6563D01*
X1420Y6568D01*
X1426Y6571D01*
X1426Y6572D01*
X1427Y6572D01*
X1429Y6573D01*
X1430Y6574D01*
X1433Y6576D01*
X1436Y6578D01*
X1442Y6581D01*
X1450Y6585D01*
X1458Y6588D01*
X1466Y6590D01*
X1469Y6591D01*
X1473Y6591D01*
X1476D01*
X1478Y6591D01*
D02*
G37*
G36*
X441D02*
X445Y6590D01*
X449Y6589D01*
X454Y6588D01*
X458Y6586D01*
X463Y6584D01*
X463Y6584D01*
X464Y6583D01*
X467Y6581D01*
X469Y6579D01*
X472Y6576D01*
X475Y6574D01*
X477Y6570D01*
X479Y6566D01*
X479Y6566D01*
X480Y6564D01*
X480Y6562D01*
X481Y6559D01*
X481Y6556D01*
X481Y6552D01*
X481Y6548D01*
X480Y6544D01*
Y6544D01*
X479Y6543D01*
X479Y6541D01*
X477Y6539D01*
X475Y6536D01*
X472Y6533D01*
X469Y6530D01*
X465Y6527D01*
X464Y6527D01*
X463Y6525D01*
X460Y6524D01*
X457Y6523D01*
X454Y6521D01*
X450Y6520D01*
X447Y6519D01*
X444Y6518D01*
X442D01*
X441Y6519D01*
X440Y6519D01*
X436Y6520D01*
X434Y6521D01*
X433Y6523D01*
Y6523D01*
X432Y6523D01*
X432Y6524D01*
X431Y6526D01*
X430Y6528D01*
X429Y6530D01*
X428Y6533D01*
X426Y6536D01*
Y6536D01*
X426Y6537D01*
X425Y6539D01*
X423Y6541D01*
X420Y6544D01*
X420D01*
X420Y6545D01*
X417Y6546D01*
X414Y6547D01*
X410Y6548D01*
X409D01*
X408Y6547D01*
X407Y6547D01*
X405Y6546D01*
X403Y6545D01*
X400Y6544D01*
X397Y6542D01*
X393Y6540D01*
X389Y6536D01*
X384Y6533D01*
X379Y6528D01*
X373Y6523D01*
X366Y6517D01*
X358Y6510D01*
X350Y6502D01*
X350Y6501D01*
X348Y6500D01*
X346Y6497D01*
X343Y6493D01*
X338Y6489D01*
X333Y6484D01*
X328Y6477D01*
X321Y6470D01*
X314Y6462D01*
X307Y6453D01*
X299Y6444D01*
X290Y6433D01*
X282Y6422D01*
X272Y6410D01*
X263Y6398D01*
X253Y6385D01*
Y6384D01*
X252Y6383D01*
X251Y6380D01*
X250Y6376D01*
X249Y6371D01*
X247Y6365D01*
X245Y6358D01*
X243Y6351D01*
Y6350D01*
X243Y6350D01*
Y6349D01*
X242Y6347D01*
X241Y6343D01*
X240Y6338D01*
X238Y6333D01*
X237Y6328D01*
X235Y6323D01*
X234Y6318D01*
X227Y6292D01*
Y6291D01*
X227Y6290D01*
X226Y6289D01*
X225Y6286D01*
X223Y6283D01*
X221Y6281D01*
X219Y6277D01*
X216Y6274D01*
X216Y6274D01*
X215Y6273D01*
X213Y6271D01*
X210Y6270D01*
X207Y6268D01*
X203Y6267D01*
X199Y6266D01*
X194Y6265D01*
X194D01*
X192Y6266D01*
X190Y6267D01*
X187Y6269D01*
X186Y6271D01*
X185Y6273D01*
X184Y6275D01*
X184Y6278D01*
X183Y6282D01*
Y6286D01*
X184Y6290D01*
X185Y6296D01*
Y6296D01*
X186Y6297D01*
X186Y6299D01*
X187Y6302D01*
X187Y6305D01*
X188Y6309D01*
X190Y6313D01*
X191Y6318D01*
X193Y6324D01*
X195Y6330D01*
X196Y6337D01*
X199Y6345D01*
X201Y6353D01*
X204Y6362D01*
X207Y6371D01*
X210Y6381D01*
X211Y6382D01*
X211Y6384D01*
X212Y6387D01*
X213Y6392D01*
X215Y6397D01*
X217Y6404D01*
X220Y6412D01*
X223Y6421D01*
Y6421D01*
X223Y6422D01*
X223Y6423D01*
X224Y6425D01*
X225Y6428D01*
X226Y6430D01*
X227Y6434D01*
X228Y6438D01*
X230Y6442D01*
X231Y6447D01*
X232Y6452D01*
X234Y6457D01*
X238Y6469D01*
X242Y6482D01*
X242Y6483D01*
X243Y6484D01*
X243Y6487D01*
X244Y6491D01*
X246Y6495D01*
X247Y6500D01*
X249Y6505D01*
X251Y6512D01*
X255Y6524D01*
X259Y6537D01*
X261Y6543D01*
X263Y6549D01*
X265Y6554D01*
X266Y6559D01*
Y6559D01*
X267Y6559D01*
X267Y6560D01*
X268Y6562D01*
X270Y6565D01*
X273Y6569D01*
X277Y6573D01*
X282Y6576D01*
X285Y6578D01*
X289Y6579D01*
X293Y6579D01*
X297Y6579D01*
X299D01*
X302Y6579D01*
X305Y6578D01*
X307Y6576D01*
X310Y6574D01*
X311Y6571D01*
X311Y6570D01*
Y6567D01*
Y6567D01*
X311Y6565D01*
X311Y6562D01*
X310Y6558D01*
X309Y6553D01*
X307Y6547D01*
X304Y6539D01*
X301Y6529D01*
X270Y6437D01*
X270Y6437D01*
X271Y6438D01*
X272Y6441D01*
X274Y6444D01*
X276Y6448D01*
X278Y6453D01*
X281Y6458D01*
X285Y6463D01*
X289Y6469D01*
X293Y6476D01*
X298Y6482D01*
X302Y6489D01*
X313Y6503D01*
X326Y6516D01*
X326Y6517D01*
X327Y6518D01*
X329Y6520D01*
X331Y6522D01*
X334Y6525D01*
X338Y6529D01*
X342Y6532D01*
X346Y6537D01*
X356Y6546D01*
X367Y6555D01*
X378Y6563D01*
X383Y6568D01*
X389Y6571D01*
X389Y6572D01*
X390Y6572D01*
X392Y6573D01*
X393Y6574D01*
X396Y6576D01*
X399Y6578D01*
X405Y6581D01*
X413Y6585D01*
X421Y6588D01*
X429Y6590D01*
X432Y6591D01*
X436Y6591D01*
X438D01*
X441Y6591D01*
D02*
G37*
G36*
X-2341Y6588D02*
X-2339Y6588D01*
X-2337Y6587D01*
X-2334Y6586D01*
X-2331Y6584D01*
X-2328Y6581D01*
X-2328Y6581D01*
X-2327Y6580D01*
X-2326Y6579D01*
X-2325Y6576D01*
X-2324Y6574D01*
X-2323Y6571D01*
X-2322Y6568D01*
X-2323Y6565D01*
Y6564D01*
X-2324Y6563D01*
X-2324Y6561D01*
X-2325Y6559D01*
X-2326Y6555D01*
X-2328Y6551D01*
X-2330Y6545D01*
X-2332Y6539D01*
X-2334Y6533D01*
X-2336Y6525D01*
X-2339Y6516D01*
X-2342Y6507D01*
X-2345Y6497D01*
X-2349Y6486D01*
X-2352Y6474D01*
X-2356Y6461D01*
Y6461D01*
X-2357Y6460D01*
Y6459D01*
X-2357Y6458D01*
X-2358Y6454D01*
X-2360Y6450D01*
X-2361Y6444D01*
X-2364Y6437D01*
X-2366Y6430D01*
X-2368Y6422D01*
X-2373Y6406D01*
X-2377Y6390D01*
X-2380Y6383D01*
X-2381Y6376D01*
X-2383Y6369D01*
X-2384Y6364D01*
Y6363D01*
X-2385Y6363D01*
Y6362D01*
X-2385Y6360D01*
X-2386Y6358D01*
X-2386Y6355D01*
X-2387Y6350D01*
X-2388Y6344D01*
X-2389Y6337D01*
X-2389Y6331D01*
X-2389Y6326D01*
Y6325D01*
X-2388Y6324D01*
X-2388Y6322D01*
X-2387Y6319D01*
X-2387Y6315D01*
X-2386Y6312D01*
X-2384Y6308D01*
X-2383Y6305D01*
Y6305D01*
X-2383Y6303D01*
X-2382Y6302D01*
X-2381Y6300D01*
X-2380Y6296D01*
X-2380Y6294D01*
X-2380Y6293D01*
X-2381Y6292D01*
X-2381Y6291D01*
X-2382Y6289D01*
X-2384Y6286D01*
X-2386Y6282D01*
X-2388Y6279D01*
X-2391Y6276D01*
X-2395Y6273D01*
X-2395Y6273D01*
X-2397Y6272D01*
X-2399Y6271D01*
X-2401Y6269D01*
X-2405Y6268D01*
X-2409Y6267D01*
X-2413Y6266D01*
X-2417Y6266D01*
X-2418D01*
X-2420Y6266D01*
X-2423Y6267D01*
X-2426Y6269D01*
X-2428Y6271D01*
X-2429Y6273D01*
X-2431Y6275D01*
X-2432Y6278D01*
X-2433Y6281D01*
X-2435Y6285D01*
X-2435Y6289D01*
X-2436Y6294D01*
Y6294D01*
Y6295D01*
Y6297D01*
Y6299D01*
Y6302D01*
Y6305D01*
Y6308D01*
X-2435Y6312D01*
X-2435Y6321D01*
X-2434Y6330D01*
X-2432Y6341D01*
X-2430Y6351D01*
Y6352D01*
X-2429Y6353D01*
X-2429Y6354D01*
X-2428Y6357D01*
X-2428Y6360D01*
X-2426Y6364D01*
X-2425Y6369D01*
X-2423Y6375D01*
X-2421Y6382D01*
X-2419Y6390D01*
X-2416Y6398D01*
X-2413Y6408D01*
X-2409Y6419D01*
X-2406Y6432D01*
X-2401Y6445D01*
X-2397Y6460D01*
X-2396Y6460D01*
X-2396Y6462D01*
X-2395Y6465D01*
X-2394Y6468D01*
X-2393Y6472D01*
X-2392Y6476D01*
X-2388Y6486D01*
X-2388Y6487D01*
X-2388Y6488D01*
X-2387Y6491D01*
X-2386Y6493D01*
X-2385Y6496D01*
X-2383Y6499D01*
X-2383Y6501D01*
X-2381Y6503D01*
X-2382Y6503D01*
X-2383Y6501D01*
X-2384Y6499D01*
X-2385Y6496D01*
X-2388Y6493D01*
X-2391Y6488D01*
X-2394Y6483D01*
X-2398Y6477D01*
X-2403Y6470D01*
X-2408Y6463D01*
X-2414Y6455D01*
X-2420Y6447D01*
X-2427Y6438D01*
X-2435Y6429D01*
X-2444Y6419D01*
X-2453Y6409D01*
X-2453Y6408D01*
X-2455Y6406D01*
X-2458Y6403D01*
X-2462Y6400D01*
X-2466Y6394D01*
X-2471Y6389D01*
X-2477Y6383D01*
X-2484Y6376D01*
X-2491Y6369D01*
X-2498Y6361D01*
X-2506Y6353D01*
X-2515Y6345D01*
X-2532Y6329D01*
X-2549Y6313D01*
X-2550Y6313D01*
X-2551Y6311D01*
X-2554Y6309D01*
X-2557Y6307D01*
X-2561Y6303D01*
X-2565Y6300D01*
X-2570Y6297D01*
X-2575Y6293D01*
X-2586Y6285D01*
X-2592Y6282D01*
X-2598Y6279D01*
X-2604Y6276D01*
X-2609Y6274D01*
X-2614Y6273D01*
X-2619Y6273D01*
X-2621D01*
X-2623Y6273D01*
X-2627Y6274D01*
X-2631Y6275D01*
X-2636Y6278D01*
X-2638Y6280D01*
X-2639Y6283D01*
X-2641Y6285D01*
X-2642Y6289D01*
X-2643Y6292D01*
Y6297D01*
Y6297D01*
Y6298D01*
X-2643Y6299D01*
Y6301D01*
X-2642Y6304D01*
X-2642Y6307D01*
X-2641Y6310D01*
X-2641Y6315D01*
X-2639Y6319D01*
X-2638Y6325D01*
X-2637Y6331D01*
X-2635Y6338D01*
X-2633Y6345D01*
X-2631Y6352D01*
X-2629Y6361D01*
X-2626Y6369D01*
X-2625Y6370D01*
X-2625Y6371D01*
X-2624Y6374D01*
X-2623Y6377D01*
X-2621Y6381D01*
X-2619Y6386D01*
X-2617Y6392D01*
X-2614Y6399D01*
X-2611Y6406D01*
X-2608Y6414D01*
X-2604Y6422D01*
X-2600Y6431D01*
X-2595Y6440D01*
X-2590Y6450D01*
X-2585Y6460D01*
X-2579Y6471D01*
X-2579Y6472D01*
X-2578Y6473D01*
X-2577Y6476D01*
X-2574Y6480D01*
X-2571Y6485D01*
X-2568Y6491D01*
X-2565Y6496D01*
X-2561Y6503D01*
X-2552Y6517D01*
X-2543Y6531D01*
X-2538Y6539D01*
X-2533Y6545D01*
X-2528Y6552D01*
X-2523Y6558D01*
X-2523Y6558D01*
X-2521Y6560D01*
X-2519Y6562D01*
X-2516Y6565D01*
X-2510Y6572D01*
X-2507Y6575D01*
X-2504Y6578D01*
X-2503Y6578D01*
X-2502Y6579D01*
X-2501Y6579D01*
X-2499Y6581D01*
X-2496Y6582D01*
X-2494Y6583D01*
X-2491Y6583D01*
X-2488Y6584D01*
X-2486D01*
X-2485Y6583D01*
X-2481Y6583D01*
X-2478Y6582D01*
X-2474Y6580D01*
X-2471Y6578D01*
X-2470Y6577D01*
X-2470Y6575D01*
Y6573D01*
X-2470Y6571D01*
Y6571D01*
X-2470Y6570D01*
X-2471Y6569D01*
X-2472Y6568D01*
X-2474Y6566D01*
X-2475Y6563D01*
X-2478Y6560D01*
X-2481Y6557D01*
X-2482Y6557D01*
X-2483Y6556D01*
X-2484Y6554D01*
X-2486Y6551D01*
X-2489Y6548D01*
X-2492Y6544D01*
X-2495Y6540D01*
X-2499Y6535D01*
X-2503Y6529D01*
X-2507Y6524D01*
X-2512Y6517D01*
X-2517Y6511D01*
X-2527Y6496D01*
X-2537Y6480D01*
X-2537Y6480D01*
X-2538Y6479D01*
X-2539Y6476D01*
X-2541Y6473D01*
X-2544Y6468D01*
X-2547Y6463D01*
X-2550Y6457D01*
X-2553Y6450D01*
X-2557Y6442D01*
X-2561Y6433D01*
X-2565Y6424D01*
X-2570Y6414D01*
X-2574Y6403D01*
X-2579Y6391D01*
X-2583Y6378D01*
X-2588Y6365D01*
Y6365D01*
X-2589Y6363D01*
X-2590Y6361D01*
X-2590Y6358D01*
X-2591Y6355D01*
X-2593Y6351D01*
X-2594Y6343D01*
X-2596Y6335D01*
X-2597Y6332D01*
X-2597Y6329D01*
X-2598Y6326D01*
X-2597Y6324D01*
X-2597Y6322D01*
X-2595Y6322D01*
X-2595D01*
X-2594Y6322D01*
X-2593Y6323D01*
X-2591Y6323D01*
X-2589Y6324D01*
X-2587Y6325D01*
X-2584Y6326D01*
X-2581Y6328D01*
X-2577Y6330D01*
X-2573Y6333D01*
X-2568Y6337D01*
X-2563Y6340D01*
X-2557Y6345D01*
X-2551Y6350D01*
X-2544Y6356D01*
X-2544Y6357D01*
X-2542Y6358D01*
X-2540Y6360D01*
X-2538Y6362D01*
X-2534Y6366D01*
X-2530Y6370D01*
X-2525Y6374D01*
X-2519Y6380D01*
X-2514Y6386D01*
X-2507Y6392D01*
X-2500Y6399D01*
X-2493Y6406D01*
X-2486Y6414D01*
X-2478Y6422D01*
X-2470Y6431D01*
X-2462Y6440D01*
X-2462Y6441D01*
X-2460Y6442D01*
X-2457Y6445D01*
X-2455Y6449D01*
X-2451Y6453D01*
X-2447Y6458D01*
X-2442Y6464D01*
X-2436Y6469D01*
X-2431Y6476D01*
X-2425Y6483D01*
X-2413Y6497D01*
X-2402Y6512D01*
X-2396Y6519D01*
X-2391Y6526D01*
X-2391Y6527D01*
X-2390Y6528D01*
X-2388Y6531D01*
X-2385Y6535D01*
X-2382Y6540D01*
X-2378Y6547D01*
X-2373Y6554D01*
X-2368Y6563D01*
X-2368Y6563D01*
X-2367Y6565D01*
X-2366Y6567D01*
X-2364Y6570D01*
X-2361Y6575D01*
X-2359Y6578D01*
X-2357Y6581D01*
X-2357Y6582D01*
X-2356Y6582D01*
X-2355Y6583D01*
X-2353Y6585D01*
X-2349Y6587D01*
X-2347Y6588D01*
X-2345Y6588D01*
X-2343D01*
X-2341Y6588D01*
D02*
G37*
G36*
X13Y6690D02*
X17D01*
X21Y6689D01*
X26D01*
X32Y6689D01*
X37Y6689D01*
X50Y6688D01*
X63Y6687D01*
X77Y6685D01*
X92Y6683D01*
X107Y6681D01*
X122Y6679D01*
X136Y6676D01*
X151Y6672D01*
X164Y6668D01*
X177Y6663D01*
X178D01*
X178Y6663D01*
X180Y6662D01*
X183Y6661D01*
X187Y6658D01*
X192Y6655D01*
X196Y6651D01*
X202Y6647D01*
X207Y6642D01*
X212Y6636D01*
X216Y6629D01*
X220Y6622D01*
X223Y6614D01*
X224Y6604D01*
X225Y6599D01*
X224Y6594D01*
X224Y6589D01*
X223Y6583D01*
X222Y6578D01*
X220Y6572D01*
X220Y6571D01*
X219Y6570D01*
X218Y6567D01*
X217Y6563D01*
X215Y6559D01*
X212Y6554D01*
X210Y6548D01*
X206Y6541D01*
X202Y6534D01*
X198Y6527D01*
X193Y6519D01*
X187Y6511D01*
X181Y6502D01*
X174Y6494D01*
X167Y6485D01*
X159Y6477D01*
X159Y6476D01*
X157Y6475D01*
X154Y6472D01*
X151Y6469D01*
X146Y6465D01*
X140Y6460D01*
X133Y6454D01*
X125Y6447D01*
X116Y6440D01*
X106Y6432D01*
X95Y6424D01*
X82Y6415D01*
X69Y6405D01*
X54Y6395D01*
X38Y6385D01*
X21Y6374D01*
X21Y6374D01*
X20Y6373D01*
X17Y6371D01*
X14Y6369D01*
X11Y6366D01*
X6Y6362D01*
X1Y6359D01*
X-4Y6354D01*
X-11Y6350D01*
X-18Y6345D01*
X-25Y6339D01*
X-33Y6334D01*
X-42Y6329D01*
X-50Y6323D01*
X-69Y6312D01*
X-69Y6311D01*
X-71Y6310D01*
X-73Y6309D01*
X-77Y6307D01*
X-81Y6305D01*
X-86Y6302D01*
X-92Y6299D01*
X-97Y6295D01*
X-110Y6289D01*
X-123Y6282D01*
X-136Y6276D01*
X-142Y6273D01*
X-148Y6271D01*
Y6270D01*
X-148Y6270D01*
X-149Y6268D01*
X-150Y6267D01*
X-153Y6264D01*
X-158Y6260D01*
X-158Y6260D01*
X-159Y6259D01*
X-161Y6259D01*
X-163Y6258D01*
X-165Y6256D01*
X-168Y6256D01*
X-172Y6255D01*
X-175Y6255D01*
X-177D01*
X-178Y6255D01*
X-180D01*
X-183Y6257D01*
X-185Y6258D01*
X-187Y6259D01*
Y6259D01*
X-187Y6260D01*
X-187Y6260D01*
X-188Y6262D01*
Y6264D01*
Y6266D01*
X-187Y6268D01*
X-187Y6271D01*
Y6272D01*
X-186Y6273D01*
X-185Y6274D01*
X-184Y6277D01*
X-184Y6279D01*
X-182Y6281D01*
X-181Y6283D01*
X-180Y6286D01*
X-179Y6290D01*
X-177Y6294D01*
X-175Y6298D01*
X-173Y6303D01*
Y6303D01*
X-172Y6304D01*
X-172Y6306D01*
X-171Y6307D01*
X-170Y6310D01*
X-168Y6313D01*
X-167Y6317D01*
X-165Y6321D01*
X-164Y6325D01*
X-161Y6330D01*
X-160Y6335D01*
X-157Y6341D01*
X-153Y6353D01*
X-148Y6366D01*
Y6366D01*
X-148Y6367D01*
X-147Y6369D01*
X-146Y6372D01*
X-145Y6377D01*
X-143Y6382D01*
X-141Y6388D01*
X-138Y6396D01*
X-136Y6404D01*
X-133Y6412D01*
X-130Y6421D01*
X-127Y6430D01*
X-124Y6440D01*
X-118Y6459D01*
X-112Y6479D01*
X-112Y6479D01*
X-112Y6481D01*
X-110Y6484D01*
X-109Y6488D01*
X-108Y6493D01*
X-106Y6498D01*
X-104Y6504D01*
X-102Y6511D01*
X-97Y6524D01*
X-93Y6538D01*
X-91Y6545D01*
X-89Y6551D01*
X-87Y6556D01*
X-85Y6561D01*
Y6562D01*
X-85Y6563D01*
X-84Y6565D01*
X-83Y6567D01*
X-82Y6571D01*
X-80Y6574D01*
X-79Y6579D01*
X-77Y6583D01*
X-73Y6593D01*
X-68Y6603D01*
X-62Y6613D01*
X-57Y6622D01*
Y6622D01*
X-56Y6623D01*
X-55Y6624D01*
X-54Y6625D01*
X-51Y6628D01*
X-47Y6632D01*
X-42Y6636D01*
X-37Y6639D01*
X-34Y6641D01*
X-31Y6642D01*
X-27Y6642D01*
X-24Y6643D01*
X-22D01*
X-20Y6642D01*
X-16Y6641D01*
X-12Y6639D01*
X-12D01*
X-11Y6639D01*
X-10Y6637D01*
X-9Y6635D01*
X-8Y6634D01*
Y6631D01*
X-9Y6629D01*
Y6628D01*
X-10Y6628D01*
X-10Y6626D01*
X-12Y6624D01*
X-14Y6621D01*
X-17Y6617D01*
X-20Y6612D01*
X-24Y6606D01*
Y6605D01*
X-24Y6605D01*
X-26Y6603D01*
X-28Y6599D01*
X-30Y6595D01*
X-33Y6590D01*
X-36Y6584D01*
X-39Y6578D01*
X-41Y6572D01*
Y6571D01*
X-42Y6570D01*
X-43Y6567D01*
X-44Y6563D01*
X-45Y6559D01*
X-47Y6553D01*
X-49Y6547D01*
X-51Y6540D01*
X-54Y6533D01*
X-56Y6525D01*
X-59Y6517D01*
X-62Y6508D01*
X-67Y6489D01*
X-74Y6470D01*
Y6470D01*
X-74Y6469D01*
X-74Y6468D01*
X-75Y6467D01*
X-76Y6463D01*
X-78Y6458D01*
X-79Y6452D01*
X-82Y6445D01*
X-84Y6437D01*
X-87Y6429D01*
X-93Y6412D01*
X-95Y6404D01*
X-98Y6396D01*
X-100Y6388D01*
X-102Y6382D01*
X-105Y6376D01*
X-106Y6371D01*
Y6371D01*
X-107Y6369D01*
X-108Y6367D01*
X-109Y6364D01*
X-110Y6361D01*
X-111Y6357D01*
X-114Y6348D01*
X-117Y6339D01*
X-118Y6335D01*
X-120Y6331D01*
X-121Y6327D01*
X-122Y6325D01*
X-123Y6323D01*
X-124Y6321D01*
X-123D01*
X-123Y6322D01*
X-122Y6322D01*
X-120Y6323D01*
X-118Y6324D01*
X-116Y6325D01*
X-113Y6327D01*
X-110Y6329D01*
X-106Y6331D01*
X-101Y6333D01*
X-96Y6336D01*
X-90Y6339D01*
X-84Y6343D01*
X-77Y6347D01*
X-69Y6352D01*
X-61Y6357D01*
X-60Y6357D01*
X-58Y6358D01*
X-56Y6359D01*
X-53Y6361D01*
X-49Y6363D01*
X-44Y6366D01*
X-38Y6370D01*
X-33Y6373D01*
X-26Y6377D01*
X-20Y6381D01*
X-6Y6389D01*
X7Y6397D01*
X20Y6406D01*
X20D01*
X21Y6406D01*
X22Y6407D01*
X23Y6408D01*
X26Y6410D01*
X31Y6414D01*
X37Y6418D01*
X44Y6423D01*
X51Y6428D01*
X59Y6434D01*
X68Y6441D01*
X76Y6448D01*
X94Y6462D01*
X103Y6469D01*
X111Y6477D01*
X119Y6484D01*
X126Y6491D01*
X127Y6492D01*
X128Y6493D01*
X130Y6495D01*
X132Y6498D01*
X135Y6501D01*
X139Y6505D01*
X143Y6510D01*
X147Y6515D01*
X151Y6521D01*
X155Y6527D01*
X159Y6533D01*
X163Y6540D01*
X167Y6547D01*
X171Y6554D01*
X174Y6562D01*
X177Y6569D01*
Y6569D01*
X178Y6571D01*
X178Y6573D01*
X179Y6576D01*
X179Y6580D01*
X179Y6584D01*
X179Y6589D01*
X178Y6594D01*
X177Y6599D01*
X175Y6604D01*
X171Y6610D01*
X167Y6615D01*
X162Y6620D01*
X156Y6624D01*
X152Y6626D01*
X148Y6628D01*
X143Y6630D01*
X138Y6632D01*
X137Y6632D01*
X136Y6633D01*
X132Y6634D01*
X128Y6635D01*
X123Y6636D01*
X116Y6638D01*
X108Y6639D01*
X98Y6641D01*
X88Y6643D01*
X76Y6644D01*
X63Y6646D01*
X49Y6647D01*
X34Y6649D01*
X18Y6650D01*
X1Y6650D01*
X-18Y6650D01*
X-23D01*
X-26Y6650D01*
X-30D01*
X-34Y6650D01*
X-39Y6649D01*
X-45Y6649D01*
X-51Y6649D01*
X-58Y6648D01*
X-66Y6647D01*
X-74Y6646D01*
X-83Y6645D01*
X-92Y6644D01*
X-102Y6643D01*
X-104D01*
X-106Y6642D01*
X-110Y6642D01*
X-114Y6641D01*
X-120Y6640D01*
X-127Y6639D01*
X-134Y6637D01*
X-135D01*
X-136Y6636D01*
X-138Y6636D01*
X-141Y6635D01*
X-146Y6634D01*
X-149Y6634D01*
X-152D01*
X-154Y6634D01*
X-156Y6635D01*
X-157Y6636D01*
X-159Y6638D01*
X-161Y6640D01*
X-162Y6644D01*
Y6644D01*
X-162Y6646D01*
Y6647D01*
X-163Y6650D01*
Y6653D01*
X-162Y6657D01*
X-162Y6660D01*
X-161Y6664D01*
Y6664D01*
X-161Y6665D01*
X-160Y6666D01*
X-159Y6667D01*
X-158Y6669D01*
X-156Y6671D01*
X-154Y6673D01*
X-151Y6674D01*
X-151Y6675D01*
X-150Y6675D01*
X-148Y6676D01*
X-146Y6677D01*
X-143Y6678D01*
X-140Y6678D01*
X-136Y6679D01*
X-132Y6680D01*
X-132D01*
X-130Y6680D01*
X-129D01*
X-126Y6681D01*
X-122Y6681D01*
X-119Y6682D01*
X-114Y6682D01*
X-110Y6683D01*
X-99Y6684D01*
X-88Y6685D01*
X-77Y6686D01*
X-66Y6687D01*
X-64D01*
X-63Y6688D01*
X-61D01*
X-58Y6688D01*
X-55D01*
X-51Y6689D01*
X-47Y6689D01*
X-43D01*
X-38Y6689D01*
X-27Y6690D01*
X-15Y6690D01*
X9D01*
X13Y6690D01*
D02*
G37*
G36*
X-586Y6690D02*
X-582D01*
X-577Y6689D01*
X-572D01*
X-567Y6689D01*
X-561Y6689D01*
X-549Y6688D01*
X-535Y6687D01*
X-521Y6685D01*
X-506Y6683D01*
X-492Y6681D01*
X-477Y6679D01*
X-462Y6676D01*
X-447Y6672D01*
X-434Y6668D01*
X-421Y6663D01*
X-421D01*
X-421Y6663D01*
X-418Y6662D01*
X-415Y6661D01*
X-411Y6658D01*
X-407Y6655D01*
X-402Y6651D01*
X-397Y6647D01*
X-391Y6642D01*
X-387Y6636D01*
X-382Y6629D01*
X-378Y6622D01*
X-376Y6614D01*
X-374Y6604D01*
X-374Y6599D01*
X-374Y6594D01*
X-374Y6589D01*
X-375Y6583D01*
X-377Y6578D01*
X-378Y6572D01*
X-379Y6571D01*
X-379Y6570D01*
X-380Y6567D01*
X-382Y6563D01*
X-384Y6559D01*
X-386Y6554D01*
X-389Y6548D01*
X-393Y6541D01*
X-396Y6534D01*
X-401Y6527D01*
X-406Y6519D01*
X-411Y6511D01*
X-418Y6502D01*
X-424Y6494D01*
X-431Y6485D01*
X-439Y6477D01*
X-440Y6476D01*
X-442Y6475D01*
X-444Y6472D01*
X-448Y6469D01*
X-453Y6465D01*
X-458Y6460D01*
X-465Y6454D01*
X-473Y6447D01*
X-482Y6440D01*
X-492Y6432D01*
X-504Y6424D01*
X-516Y6415D01*
X-530Y6405D01*
X-544Y6395D01*
X-560Y6385D01*
X-577Y6374D01*
X-577Y6374D01*
X-579Y6373D01*
X-581Y6371D01*
X-584Y6369D01*
X-588Y6366D01*
X-592Y6362D01*
X-597Y6359D01*
X-603Y6354D01*
X-609Y6350D01*
X-616Y6345D01*
X-624Y6339D01*
X-632Y6334D01*
X-640Y6329D01*
X-648Y6323D01*
X-667Y6312D01*
X-668Y6311D01*
X-669Y6310D01*
X-672Y6309D01*
X-675Y6307D01*
X-679Y6305D01*
X-684Y6302D01*
X-690Y6299D01*
X-696Y6295D01*
X-708Y6289D01*
X-722Y6282D01*
X-734Y6276D01*
X-741Y6273D01*
X-746Y6271D01*
Y6270D01*
X-747Y6270D01*
X-747Y6268D01*
X-749Y6267D01*
X-752Y6264D01*
X-757Y6260D01*
X-757Y6260D01*
X-758Y6259D01*
X-759Y6259D01*
X-761Y6258D01*
X-764Y6256D01*
X-767Y6256D01*
X-770Y6255D01*
X-774Y6255D01*
X-775D01*
X-776Y6255D01*
X-778D01*
X-782Y6257D01*
X-783Y6258D01*
X-785Y6259D01*
Y6259D01*
X-785Y6260D01*
X-786Y6260D01*
X-786Y6262D01*
Y6264D01*
Y6266D01*
X-786Y6268D01*
X-785Y6271D01*
Y6272D01*
X-785Y6273D01*
X-784Y6274D01*
X-783Y6277D01*
X-782Y6279D01*
X-781Y6281D01*
X-780Y6283D01*
X-779Y6286D01*
X-777Y6290D01*
X-775Y6294D01*
X-774Y6298D01*
X-771Y6303D01*
Y6303D01*
X-771Y6304D01*
X-770Y6306D01*
X-769Y6307D01*
X-768Y6310D01*
X-767Y6313D01*
X-765Y6317D01*
X-764Y6321D01*
X-762Y6325D01*
X-760Y6330D01*
X-758Y6335D01*
X-756Y6341D01*
X-751Y6353D01*
X-747Y6366D01*
Y6366D01*
X-746Y6367D01*
X-746Y6369D01*
X-745Y6372D01*
X-743Y6377D01*
X-741Y6382D01*
X-739Y6388D01*
X-737Y6396D01*
X-734Y6404D01*
X-731Y6412D01*
X-728Y6421D01*
X-726Y6430D01*
X-723Y6440D01*
X-716Y6459D01*
X-711Y6479D01*
X-710Y6479D01*
X-710Y6481D01*
X-709Y6484D01*
X-707Y6488D01*
X-706Y6493D01*
X-704Y6498D01*
X-702Y6504D01*
X-700Y6511D01*
X-696Y6524D01*
X-691Y6538D01*
X-689Y6545D01*
X-687Y6551D01*
X-685Y6556D01*
X-684Y6561D01*
Y6562D01*
X-683Y6563D01*
X-682Y6565D01*
X-682Y6567D01*
X-680Y6571D01*
X-679Y6574D01*
X-677Y6579D01*
X-675Y6583D01*
X-671Y6593D01*
X-666Y6603D01*
X-661Y6613D01*
X-655Y6622D01*
Y6622D01*
X-655Y6623D01*
X-654Y6624D01*
X-653Y6625D01*
X-650Y6628D01*
X-646Y6632D01*
X-641Y6636D01*
X-635Y6639D01*
X-632Y6641D01*
X-629Y6642D01*
X-625Y6642D01*
X-622Y6643D01*
X-620D01*
X-619Y6642D01*
X-615Y6641D01*
X-611Y6639D01*
X-610D01*
X-610Y6639D01*
X-608Y6637D01*
X-607Y6635D01*
X-607Y6634D01*
Y6631D01*
X-607Y6629D01*
Y6628D01*
X-608Y6628D01*
X-609Y6626D01*
X-610Y6624D01*
X-612Y6621D01*
X-615Y6617D01*
X-618Y6612D01*
X-622Y6606D01*
Y6605D01*
X-623Y6605D01*
X-624Y6603D01*
X-626Y6599D01*
X-629Y6595D01*
X-632Y6590D01*
X-634Y6584D01*
X-637Y6578D01*
X-639Y6572D01*
Y6571D01*
X-640Y6570D01*
X-641Y6567D01*
X-642Y6563D01*
X-644Y6559D01*
X-645Y6553D01*
X-647Y6547D01*
X-650Y6540D01*
X-652Y6533D01*
X-655Y6525D01*
X-658Y6517D01*
X-660Y6508D01*
X-666Y6489D01*
X-672Y6470D01*
Y6470D01*
X-672Y6469D01*
X-673Y6468D01*
X-673Y6467D01*
X-674Y6463D01*
X-676Y6458D01*
X-678Y6452D01*
X-680Y6445D01*
X-683Y6437D01*
X-686Y6429D01*
X-691Y6412D01*
X-694Y6404D01*
X-696Y6396D01*
X-699Y6388D01*
X-701Y6382D01*
X-703Y6376D01*
X-704Y6371D01*
Y6371D01*
X-705Y6369D01*
X-706Y6367D01*
X-707Y6364D01*
X-708Y6361D01*
X-710Y6357D01*
X-712Y6348D01*
X-715Y6339D01*
X-717Y6335D01*
X-718Y6331D01*
X-719Y6327D01*
X-720Y6325D01*
X-721Y6323D01*
X-722Y6321D01*
X-722D01*
X-721Y6322D01*
X-720Y6322D01*
X-719Y6323D01*
X-717Y6324D01*
X-715Y6325D01*
X-712Y6327D01*
X-708Y6329D01*
X-704Y6331D01*
X-700Y6333D01*
X-695Y6336D01*
X-689Y6339D01*
X-683Y6343D01*
X-675Y6347D01*
X-667Y6352D01*
X-659Y6357D01*
X-658Y6357D01*
X-657Y6358D01*
X-654Y6359D01*
X-651Y6361D01*
X-647Y6363D01*
X-642Y6366D01*
X-637Y6370D01*
X-631Y6373D01*
X-625Y6377D01*
X-618Y6381D01*
X-605Y6389D01*
X-591Y6397D01*
X-579Y6406D01*
X-578D01*
X-578Y6406D01*
X-577Y6407D01*
X-576Y6408D01*
X-572Y6410D01*
X-567Y6414D01*
X-561Y6418D01*
X-554Y6423D01*
X-547Y6428D01*
X-539Y6434D01*
X-531Y6441D01*
X-522Y6448D01*
X-504Y6462D01*
X-496Y6469D01*
X-488Y6477D01*
X-480Y6484D01*
X-472Y6491D01*
X-472Y6492D01*
X-471Y6493D01*
X-469Y6495D01*
X-466Y6498D01*
X-463Y6501D01*
X-460Y6505D01*
X-456Y6510D01*
X-452Y6515D01*
X-448Y6521D01*
X-443Y6527D01*
X-439Y6533D01*
X-435Y6540D01*
X-431Y6547D01*
X-427Y6554D01*
X-424Y6562D01*
X-421Y6569D01*
Y6569D01*
X-421Y6571D01*
X-420Y6573D01*
X-420Y6576D01*
X-419Y6580D01*
X-419Y6584D01*
X-419Y6589D01*
X-420Y6594D01*
X-422Y6599D01*
X-424Y6604D01*
X-427Y6610D01*
X-431Y6615D01*
X-436Y6620D01*
X-443Y6624D01*
X-447Y6626D01*
X-451Y6628D01*
X-455Y6630D01*
X-460Y6632D01*
X-461Y6632D01*
X-463Y6633D01*
X-466Y6634D01*
X-470Y6635D01*
X-476Y6636D01*
X-483Y6638D01*
X-491Y6639D01*
X-500Y6641D01*
X-510Y6643D01*
X-522Y6644D01*
X-535Y6646D01*
X-549Y6647D01*
X-564Y6649D01*
X-580Y6650D01*
X-597Y6650D01*
X-616Y6650D01*
X-621D01*
X-625Y6650D01*
X-628D01*
X-633Y6650D01*
X-638Y6649D01*
X-644Y6649D01*
X-650Y6649D01*
X-657Y6648D01*
X-664Y6647D01*
X-672Y6646D01*
X-681Y6645D01*
X-691Y6644D01*
X-700Y6643D01*
X-702D01*
X-705Y6642D01*
X-708Y6642D01*
X-713Y6641D01*
X-719Y6640D01*
X-725Y6639D01*
X-733Y6637D01*
X-733D01*
X-735Y6636D01*
X-737Y6636D01*
X-739Y6635D01*
X-745Y6634D01*
X-747Y6634D01*
X-751D01*
X-752Y6634D01*
X-754Y6635D01*
X-756Y6636D01*
X-758Y6638D01*
X-759Y6640D01*
X-761Y6644D01*
Y6644D01*
X-761Y6646D01*
Y6647D01*
X-761Y6650D01*
Y6653D01*
X-761Y6657D01*
X-761Y6660D01*
X-759Y6664D01*
Y6664D01*
X-759Y6665D01*
X-758Y6666D01*
X-757Y6667D01*
X-756Y6669D01*
X-754Y6671D01*
X-752Y6673D01*
X-750Y6674D01*
X-749Y6675D01*
X-748Y6675D01*
X-746Y6676D01*
X-744Y6677D01*
X-742Y6678D01*
X-738Y6678D01*
X-735Y6679D01*
X-731Y6680D01*
X-730D01*
X-729Y6680D01*
X-727D01*
X-724Y6681D01*
X-721Y6681D01*
X-717Y6682D01*
X-713Y6682D01*
X-708Y6683D01*
X-698Y6684D01*
X-686Y6685D01*
X-675Y6686D01*
X-664Y6687D01*
X-663D01*
X-661Y6688D01*
X-659D01*
X-656Y6688D01*
X-653D01*
X-650Y6689D01*
X-645Y6689D01*
X-641D01*
X-636Y6689D01*
X-625Y6690D01*
X-613Y6690D01*
X-590D01*
X-586Y6690D01*
D02*
G37*
G36*
X2574Y6718D02*
X2579D01*
X2585Y6717D01*
X2592Y6717D01*
X2599Y6716D01*
X2606Y6715D01*
X2614Y6715D01*
X2631Y6712D01*
X2648Y6709D01*
X2655Y6707D01*
X2663Y6705D01*
X2663D01*
X2665Y6704D01*
X2667Y6703D01*
X2669Y6702D01*
X2672Y6701D01*
X2676Y6699D01*
X2684Y6695D01*
X2693Y6689D01*
X2702Y6682D01*
X2706Y6679D01*
X2710Y6675D01*
X2713Y6670D01*
X2716Y6666D01*
Y6665D01*
X2717Y6665D01*
X2717Y6663D01*
X2718Y6661D01*
X2719Y6659D01*
X2720Y6656D01*
X2721Y6653D01*
X2722Y6649D01*
X2723Y6645D01*
X2723Y6640D01*
X2724Y6636D01*
Y6631D01*
X2723Y6625D01*
X2723Y6620D01*
X2721Y6614D01*
X2719Y6608D01*
Y6607D01*
X2719Y6606D01*
X2718Y6604D01*
X2717Y6601D01*
X2715Y6597D01*
X2713Y6593D01*
X2711Y6588D01*
X2708Y6583D01*
X2705Y6578D01*
X2701Y6572D01*
X2698Y6567D01*
X2693Y6561D01*
X2689Y6555D01*
X2683Y6549D01*
X2678Y6543D01*
X2672Y6537D01*
X2671Y6537D01*
X2670Y6536D01*
X2668Y6534D01*
X2666Y6532D01*
X2663Y6529D01*
X2659Y6527D01*
X2654Y6523D01*
X2649Y6520D01*
X2644Y6516D01*
X2638Y6512D01*
X2631Y6508D01*
X2624Y6503D01*
X2617Y6499D01*
X2609Y6495D01*
X2593Y6487D01*
X2593Y6486D01*
X2591Y6485D01*
X2588Y6484D01*
X2585Y6483D01*
X2580Y6481D01*
X2575Y6479D01*
X2569Y6476D01*
X2562Y6473D01*
X2553Y6469D01*
X2545Y6466D01*
X2535Y6462D01*
X2525Y6458D01*
X2513Y6454D01*
X2501Y6449D01*
X2489Y6444D01*
X2475Y6440D01*
X2475D01*
X2475Y6439D01*
X2474Y6439D01*
X2473Y6438D01*
X2469Y6437D01*
X2464Y6435D01*
X2459Y6433D01*
X2453Y6431D01*
X2446Y6429D01*
X2439Y6426D01*
X2439D01*
X2439Y6426D01*
X2436Y6425D01*
X2434Y6424D01*
X2430Y6423D01*
X2427Y6422D01*
X2425Y6421D01*
X2425Y6421D01*
X2430Y6420D01*
X2435Y6418D01*
X2442Y6417D01*
X2449Y6415D01*
X2457Y6413D01*
X2466Y6410D01*
X2475Y6408D01*
X2485Y6405D01*
X2495Y6402D01*
X2506Y6399D01*
X2518Y6396D01*
X2540Y6388D01*
X2551Y6385D01*
X2552Y6384D01*
X2553Y6384D01*
X2557Y6383D01*
X2561Y6381D01*
X2566Y6380D01*
X2571Y6378D01*
X2578Y6376D01*
X2584Y6373D01*
X2599Y6368D01*
X2614Y6362D01*
X2621Y6360D01*
X2628Y6357D01*
X2635Y6355D01*
X2641Y6352D01*
X2641D01*
X2642Y6352D01*
X2644Y6351D01*
X2645Y6350D01*
X2650Y6348D01*
X2656Y6345D01*
X2661Y6341D01*
X2663Y6339D01*
X2665Y6337D01*
X2666Y6335D01*
X2667Y6333D01*
X2668Y6330D01*
X2667Y6328D01*
Y6328D01*
X2667Y6327D01*
X2666Y6325D01*
X2664Y6322D01*
X2663Y6319D01*
X2660Y6315D01*
X2656Y6311D01*
X2652Y6306D01*
X2652Y6306D01*
X2650Y6304D01*
X2648Y6302D01*
X2645Y6300D01*
X2641Y6297D01*
X2638Y6295D01*
X2634Y6294D01*
X2630Y6293D01*
X2627D01*
X2625Y6294D01*
X2621Y6294D01*
X2617Y6296D01*
X2616D01*
X2616Y6296D01*
X2614Y6297D01*
X2613Y6298D01*
X2610Y6299D01*
X2608Y6301D01*
X2604Y6303D01*
X2600Y6306D01*
X2600Y6306D01*
X2599Y6307D01*
X2597Y6308D01*
X2595Y6309D01*
X2592Y6311D01*
X2588Y6314D01*
X2584Y6316D01*
X2578Y6319D01*
X2573Y6322D01*
X2566Y6326D01*
X2560Y6329D01*
X2552Y6333D01*
X2544Y6337D01*
X2535Y6341D01*
X2525Y6345D01*
X2515Y6349D01*
X2515D01*
X2514Y6349D01*
X2513Y6350D01*
X2511Y6351D01*
X2508Y6351D01*
X2505Y6353D01*
X2502Y6354D01*
X2498Y6355D01*
X2494Y6356D01*
X2490Y6358D01*
X2480Y6361D01*
X2469Y6365D01*
X2456Y6369D01*
X2456D01*
X2455Y6369D01*
X2453Y6370D01*
X2451Y6370D01*
X2448Y6371D01*
X2445Y6372D01*
X2438Y6374D01*
X2430Y6377D01*
X2422Y6380D01*
X2415Y6382D01*
X2412Y6383D01*
X2409Y6384D01*
X2388Y6310D01*
X2388Y6309D01*
X2387Y6307D01*
X2387Y6304D01*
X2386Y6301D01*
X2385Y6296D01*
X2384Y6291D01*
X2383Y6287D01*
X2383Y6282D01*
Y6282D01*
Y6280D01*
Y6278D01*
Y6276D01*
X2382Y6271D01*
X2382Y6269D01*
X2382Y6267D01*
Y6267D01*
X2381Y6265D01*
X2380Y6263D01*
X2379Y6261D01*
X2376Y6259D01*
X2374Y6256D01*
X2371Y6253D01*
X2367Y6251D01*
X2367Y6250D01*
X2365Y6250D01*
X2363Y6249D01*
X2360Y6248D01*
X2357Y6246D01*
X2353Y6246D01*
X2350Y6245D01*
X2346Y6244D01*
X2345D01*
X2344Y6245D01*
X2342Y6246D01*
X2339Y6247D01*
X2337Y6249D01*
X2335Y6252D01*
X2335Y6254D01*
X2334Y6257D01*
Y6260D01*
X2335Y6263D01*
Y6263D01*
X2335Y6264D01*
Y6265D01*
X2335Y6266D01*
X2336Y6268D01*
X2336Y6271D01*
X2337Y6274D01*
Y6274D01*
X2337Y6276D01*
X2338Y6278D01*
X2339Y6281D01*
X2340Y6285D01*
X2341Y6290D01*
X2343Y6296D01*
X2345Y6303D01*
X2345Y6303D01*
X2346Y6305D01*
X2346Y6306D01*
X2347Y6308D01*
X2348Y6311D01*
X2348Y6313D01*
X2349Y6316D01*
X2350Y6320D01*
X2351Y6324D01*
X2353Y6329D01*
X2354Y6334D01*
X2356Y6339D01*
X2358Y6346D01*
X2360Y6353D01*
Y6353D01*
X2360Y6355D01*
X2361Y6357D01*
X2362Y6361D01*
X2363Y6365D01*
X2364Y6369D01*
X2367Y6378D01*
Y6378D01*
X2368Y6380D01*
X2368Y6382D01*
X2369Y6385D01*
X2371Y6391D01*
X2372Y6394D01*
X2373Y6397D01*
X2372Y6398D01*
X2372Y6399D01*
X2370Y6400D01*
X2370Y6401D01*
X2369Y6402D01*
X2368Y6405D01*
X2368Y6409D01*
Y6409D01*
Y6410D01*
Y6411D01*
X2368Y6413D01*
X2368Y6417D01*
X2369Y6421D01*
Y6422D01*
X2369Y6422D01*
Y6424D01*
X2370Y6425D01*
X2370Y6429D01*
X2371Y6432D01*
Y6433D01*
X2371Y6433D01*
X2372Y6435D01*
X2373Y6436D01*
X2375Y6440D01*
X2378Y6443D01*
X2379D01*
X2379Y6444D01*
X2381Y6445D01*
X2384Y6446D01*
X2386Y6448D01*
Y6448D01*
X2387Y6450D01*
X2387Y6452D01*
X2388Y6454D01*
X2390Y6458D01*
X2391Y6462D01*
X2392Y6467D01*
X2394Y6472D01*
X2396Y6478D01*
X2398Y6484D01*
X2400Y6491D01*
X2402Y6497D01*
X2407Y6512D01*
X2411Y6527D01*
X2416Y6542D01*
X2421Y6558D01*
X2426Y6572D01*
X2430Y6586D01*
X2432Y6592D01*
X2434Y6598D01*
X2436Y6604D01*
X2438Y6609D01*
X2439Y6613D01*
X2440Y6617D01*
X2442Y6620D01*
X2442Y6623D01*
Y6623D01*
X2443Y6624D01*
X2443Y6625D01*
X2443Y6626D01*
X2445Y6630D01*
X2446Y6635D01*
X2448Y6641D01*
X2450Y6647D01*
X2455Y6660D01*
Y6660D01*
X2455Y6661D01*
X2456Y6662D01*
X2457Y6665D01*
X2458Y6668D01*
X2459Y6671D01*
X2461Y6674D01*
X2461Y6675D01*
X2461D01*
X2459Y6675D01*
X2458Y6675D01*
X2456Y6674D01*
X2454Y6674D01*
X2452Y6674D01*
X2449Y6673D01*
X2446Y6673D01*
X2445D01*
X2444Y6673D01*
X2442D01*
X2439Y6672D01*
X2434Y6671D01*
X2430Y6671D01*
X2425Y6670D01*
X2420Y6669D01*
X2416Y6668D01*
X2416D01*
X2414Y6668D01*
X2412Y6667D01*
X2409Y6667D01*
X2405Y6666D01*
X2401Y6665D01*
X2396Y6664D01*
X2391Y6662D01*
X2380Y6660D01*
X2369Y6657D01*
X2358Y6654D01*
X2353Y6652D01*
X2348Y6650D01*
X2348D01*
X2347Y6650D01*
X2346Y6650D01*
X2344Y6649D01*
X2343Y6648D01*
X2340Y6647D01*
X2334Y6645D01*
X2327Y6642D01*
X2320Y6639D01*
X2311Y6636D01*
X2303Y6632D01*
X2303D01*
X2302Y6631D01*
X2300Y6630D01*
X2299Y6630D01*
X2294Y6627D01*
X2289Y6625D01*
X2288D01*
X2288Y6625D01*
X2286Y6624D01*
X2284Y6624D01*
X2280Y6623D01*
X2275Y6623D01*
X2274D01*
X2273Y6623D01*
X2271Y6624D01*
X2269Y6624D01*
X2267Y6626D01*
X2265Y6627D01*
X2264Y6629D01*
X2264Y6628D01*
X2262Y6625D01*
X2258Y6622D01*
X2255Y6618D01*
Y6618D01*
X2254Y6616D01*
X2254Y6614D01*
X2254Y6610D01*
X2253Y6606D01*
X2252Y6601D01*
X2250Y6596D01*
X2249Y6590D01*
Y6590D01*
X2249Y6588D01*
X2248Y6586D01*
X2247Y6583D01*
X2246Y6578D01*
X2244Y6573D01*
X2242Y6566D01*
X2240Y6559D01*
X2237Y6550D01*
X2234Y6540D01*
X2232Y6528D01*
X2228Y6515D01*
X2226Y6508D01*
X2224Y6501D01*
X2222Y6493D01*
X2220Y6485D01*
X2217Y6477D01*
X2215Y6468D01*
X2213Y6459D01*
X2210Y6449D01*
Y6449D01*
X2210Y6448D01*
X2209Y6446D01*
X2209Y6445D01*
X2208Y6442D01*
X2208Y6439D01*
X2207Y6436D01*
X2206Y6432D01*
X2204Y6424D01*
X2201Y6414D01*
X2198Y6404D01*
X2196Y6393D01*
X2193Y6381D01*
X2190Y6369D01*
X2187Y6358D01*
X2184Y6346D01*
X2182Y6336D01*
X2180Y6326D01*
X2177Y6318D01*
X2177Y6314D01*
X2176Y6310D01*
Y6310D01*
X2175Y6308D01*
X2175Y6304D01*
X2175Y6302D01*
X2174Y6299D01*
X2174Y6296D01*
X2174Y6293D01*
X2173Y6289D01*
X2173Y6285D01*
X2172Y6281D01*
X2171Y6275D01*
X2171Y6270D01*
X2170Y6264D01*
Y6264D01*
Y6263D01*
Y6262D01*
X2170Y6260D01*
X2170Y6258D01*
Y6255D01*
X2169Y6251D01*
X2169Y6247D01*
Y6247D01*
X2168Y6245D01*
Y6243D01*
X2168Y6241D01*
X2167Y6238D01*
X2167Y6236D01*
X2166Y6234D01*
X2166Y6233D01*
Y6232D01*
X2165Y6231D01*
X2164Y6229D01*
X2163Y6227D01*
X2161Y6224D01*
X2158Y6221D01*
X2154Y6218D01*
X2150Y6215D01*
X2150Y6215D01*
X2148Y6214D01*
X2146Y6213D01*
X2142Y6212D01*
X2139Y6210D01*
X2135Y6209D01*
X2130Y6208D01*
X2126Y6208D01*
X2126D01*
X2125Y6208D01*
X2123Y6208D01*
X2121Y6210D01*
X2119Y6211D01*
X2117Y6213D01*
X2115Y6216D01*
X2114Y6221D01*
Y6222D01*
X2114Y6223D01*
Y6226D01*
X2114Y6230D01*
Y6234D01*
X2114Y6239D01*
X2114Y6244D01*
X2115Y6251D01*
Y6251D01*
Y6251D01*
X2116Y6252D01*
X2116Y6254D01*
Y6255D01*
X2117Y6258D01*
X2117Y6260D01*
X2118Y6263D01*
X2118Y6266D01*
X2119Y6270D01*
X2120Y6274D01*
X2121Y6279D01*
X2122Y6283D01*
X2123Y6289D01*
X2124Y6295D01*
X2126Y6301D01*
X2127Y6307D01*
X2129Y6314D01*
X2130Y6321D01*
X2132Y6329D01*
X2134Y6337D01*
X2136Y6346D01*
X2138Y6355D01*
X2141Y6364D01*
X2143Y6374D01*
X2146Y6384D01*
X2149Y6395D01*
X2151Y6406D01*
X2154Y6417D01*
X2158Y6429D01*
X2161Y6441D01*
X2165Y6454D01*
X2200Y6581D01*
X2199Y6581D01*
X2197Y6579D01*
X2194Y6577D01*
X2190Y6573D01*
X2185Y6569D01*
X2179Y6564D01*
X2172Y6559D01*
X2165Y6554D01*
X2156Y6547D01*
X2147Y6541D01*
X2137Y6534D01*
X2127Y6527D01*
X2116Y6520D01*
X2105Y6513D01*
X2081Y6500D01*
X2080D01*
X2080Y6500D01*
X2078Y6499D01*
X2075Y6497D01*
X2071Y6495D01*
X2066Y6493D01*
X2062Y6492D01*
X2058Y6491D01*
X2055Y6490D01*
X2053D01*
X2052Y6491D01*
X2050Y6491D01*
X2048Y6492D01*
X2046Y6493D01*
X2044Y6494D01*
X2042Y6496D01*
Y6496D01*
X2042Y6497D01*
X2042Y6498D01*
X2041Y6500D01*
X2040Y6504D01*
Y6506D01*
X2041Y6508D01*
X2042Y6509D01*
X2042Y6510D01*
X2043Y6512D01*
X2046Y6515D01*
X2049Y6519D01*
X2053Y6523D01*
X2056Y6525D01*
X2059Y6527D01*
X2062Y6529D01*
X2066Y6531D01*
X2066Y6531D01*
X2068Y6532D01*
X2070Y6533D01*
X2072Y6535D01*
X2076Y6536D01*
X2079Y6539D01*
X2084Y6541D01*
X2089Y6544D01*
X2094Y6547D01*
X2100Y6550D01*
X2112Y6558D01*
X2124Y6566D01*
X2137Y6574D01*
X2137Y6575D01*
X2138Y6575D01*
X2140Y6576D01*
X2143Y6578D01*
X2146Y6580D01*
X2150Y6583D01*
X2154Y6586D01*
X2159Y6589D01*
X2164Y6593D01*
X2169Y6597D01*
X2181Y6605D01*
X2195Y6615D01*
X2209Y6624D01*
X2213Y6630D01*
X2213Y6628D01*
X2216Y6637D01*
X2218Y6643D01*
Y6644D01*
X2218Y6644D01*
X2219Y6646D01*
X2220Y6647D01*
X2222Y6651D01*
X2224Y6653D01*
X2225Y6654D01*
X2226Y6654D01*
X2228Y6655D01*
X2229Y6656D01*
X2231Y6657D01*
X2232D01*
X2232Y6657D01*
X2234Y6658D01*
X2238Y6658D01*
X2242Y6658D01*
X2244D01*
X2247Y6658D01*
X2250Y6658D01*
X2254Y6657D01*
X2257Y6656D01*
X2261Y6655D01*
X2264Y6653D01*
X2265Y6653D01*
X2265Y6652D01*
X2267Y6651D01*
X2267Y6650D01*
X2269Y6651D01*
X2271Y6653D01*
X2273Y6655D01*
X2276Y6658D01*
X2280Y6660D01*
X2284Y6663D01*
X2289Y6666D01*
X2295Y6669D01*
X2301Y6671D01*
X2309Y6675D01*
X2317Y6678D01*
X2318Y6678D01*
X2319Y6678D01*
X2322Y6679D01*
X2325Y6681D01*
X2330Y6682D01*
X2335Y6683D01*
X2341Y6685D01*
X2347Y6687D01*
X2354Y6689D01*
X2362Y6691D01*
X2370Y6694D01*
X2379Y6696D01*
X2397Y6700D01*
X2415Y6704D01*
X2416D01*
X2417Y6705D01*
X2418D01*
X2420Y6705D01*
X2423Y6706D01*
X2427Y6706D01*
X2431Y6707D01*
X2435Y6707D01*
X2440Y6708D01*
X2445Y6709D01*
X2451Y6710D01*
X2457Y6710D01*
X2464Y6711D01*
X2471Y6712D01*
X2479Y6713D01*
X2486Y6714D01*
X2487D01*
X2488Y6714D01*
X2490D01*
X2494Y6714D01*
X2497Y6715D01*
X2502Y6715D01*
X2507Y6715D01*
X2512Y6716D01*
X2518Y6716D01*
X2524Y6717D01*
X2537Y6717D01*
X2550Y6718D01*
X2569D01*
X2574Y6718D01*
D02*
G37*
G36*
X2082Y6691D02*
X2083Y6690D01*
X2085Y6689D01*
X2087Y6686D01*
X2088Y6683D01*
X2090Y6679D01*
X2091Y6679D01*
X2091Y6678D01*
X2092Y6675D01*
X2092Y6673D01*
X2093Y6667D01*
Y6665D01*
X2093Y6663D01*
Y6662D01*
X2093Y6662D01*
X2092Y6661D01*
X2090Y6659D01*
X2088Y6657D01*
X2086Y6655D01*
X2082Y6652D01*
X2078Y6649D01*
X2077Y6648D01*
X2075Y6647D01*
X2072Y6645D01*
X2069Y6642D01*
X2065Y6639D01*
X2061Y6635D01*
X2056Y6630D01*
X2052Y6625D01*
X2051Y6624D01*
X2051Y6623D01*
X2050Y6622D01*
X2047Y6619D01*
X2043Y6614D01*
X2039Y6607D01*
X2033Y6600D01*
X2027Y6591D01*
X2020Y6580D01*
X2020Y6580D01*
X2020Y6579D01*
X2019Y6578D01*
X2017Y6575D01*
X2015Y6572D01*
X2013Y6568D01*
X2010Y6564D01*
X2007Y6559D01*
X2003Y6553D01*
X1999Y6547D01*
X1995Y6539D01*
X1990Y6531D01*
X1984Y6523D01*
X1979Y6513D01*
X1972Y6504D01*
X1966Y6493D01*
X1926Y6429D01*
Y6428D01*
X1925Y6428D01*
X1924Y6426D01*
X1923Y6424D01*
X1921Y6421D01*
X1920Y6418D01*
X1917Y6414D01*
X1915Y6411D01*
X1912Y6406D01*
X1909Y6402D01*
X1903Y6391D01*
X1897Y6380D01*
X1889Y6367D01*
X1882Y6355D01*
X1874Y6341D01*
X1866Y6328D01*
X1859Y6315D01*
X1852Y6303D01*
X1845Y6291D01*
X1840Y6280D01*
X1834Y6270D01*
X1834Y6270D01*
X1833Y6268D01*
X1832Y6266D01*
X1830Y6263D01*
X1828Y6260D01*
X1824Y6257D01*
X1820Y6254D01*
X1816Y6250D01*
X1815Y6250D01*
X1814Y6249D01*
X1811Y6247D01*
X1807Y6246D01*
X1802Y6244D01*
X1797Y6243D01*
X1791Y6242D01*
X1784Y6242D01*
X1784D01*
X1783Y6242D01*
X1782Y6243D01*
X1782Y6244D01*
X1781Y6246D01*
X1780Y6248D01*
X1779Y6252D01*
X1778Y6255D01*
X1777Y6260D01*
X1776Y6265D01*
X1775Y6272D01*
X1774Y6279D01*
X1773Y6288D01*
X1772Y6298D01*
Y6299D01*
X1771Y6301D01*
Y6304D01*
X1771Y6308D01*
X1771Y6314D01*
X1770Y6321D01*
X1770Y6329D01*
X1769Y6337D01*
X1768Y6347D01*
X1767Y6358D01*
X1766Y6370D01*
X1765Y6383D01*
X1764Y6397D01*
X1763Y6412D01*
X1762Y6427D01*
X1761Y6444D01*
Y6444D01*
X1761Y6446D01*
X1760Y6448D01*
X1760Y6451D01*
X1759Y6456D01*
X1759Y6460D01*
X1758Y6466D01*
X1757Y6472D01*
X1756Y6479D01*
X1755Y6486D01*
X1754Y6493D01*
X1753Y6501D01*
X1750Y6517D01*
X1747Y6534D01*
Y6534D01*
X1747Y6536D01*
X1747Y6538D01*
X1746Y6541D01*
X1746Y6544D01*
X1745Y6548D01*
X1743Y6557D01*
X1741Y6566D01*
X1740Y6571D01*
X1739Y6575D01*
X1738Y6578D01*
X1737Y6582D01*
X1735Y6584D01*
X1734Y6586D01*
X1734Y6586D01*
X1733Y6587D01*
X1732Y6589D01*
X1730Y6592D01*
X1729Y6595D01*
X1728Y6599D01*
Y6603D01*
X1730Y6607D01*
Y6608D01*
X1730Y6608D01*
X1731Y6610D01*
X1733Y6612D01*
X1734Y6614D01*
X1737Y6617D01*
X1741Y6620D01*
X1745Y6623D01*
X1746Y6624D01*
X1747Y6625D01*
X1750Y6626D01*
X1753Y6628D01*
X1757Y6630D01*
X1761Y6631D01*
X1766Y6632D01*
X1770Y6633D01*
X1773D01*
X1774Y6632D01*
X1778Y6631D01*
X1779Y6631D01*
X1781Y6630D01*
X1781Y6629D01*
X1782Y6627D01*
X1784Y6624D01*
X1786Y6619D01*
X1786Y6619D01*
Y6618D01*
X1786Y6617D01*
X1787Y6615D01*
X1787Y6613D01*
X1788Y6611D01*
X1789Y6608D01*
X1789Y6605D01*
X1790Y6601D01*
X1791Y6597D01*
X1791Y6592D01*
X1792Y6587D01*
X1793Y6580D01*
X1794Y6574D01*
X1795Y6567D01*
Y6566D01*
X1795Y6565D01*
Y6563D01*
X1796Y6560D01*
X1797Y6556D01*
X1797Y6551D01*
X1798Y6546D01*
X1798Y6541D01*
X1799Y6535D01*
X1799Y6528D01*
X1800Y6521D01*
X1801Y6513D01*
X1802Y6497D01*
X1804Y6481D01*
X1810Y6348D01*
Y6348D01*
X1811Y6346D01*
X1811Y6343D01*
X1811Y6341D01*
X1812Y6337D01*
X1812Y6332D01*
X1813Y6323D01*
X1813Y6313D01*
Y6309D01*
Y6304D01*
X1813Y6301D01*
X1812Y6300D01*
X1811Y6298D01*
X1811Y6296D01*
X1810Y6295D01*
X1810Y6294D01*
Y6293D01*
X1811Y6295D01*
X1812Y6297D01*
X1813Y6301D01*
X1813Y6302D01*
X1815Y6305D01*
X1817Y6309D01*
X1818Y6313D01*
X1821Y6317D01*
X1824Y6323D01*
X1827Y6329D01*
X1831Y6336D01*
X1836Y6343D01*
X1836Y6344D01*
X1837Y6345D01*
X1838Y6348D01*
X1840Y6351D01*
X1842Y6355D01*
X1845Y6360D01*
X1849Y6366D01*
X1852Y6373D01*
X1857Y6380D01*
X1861Y6387D01*
X1866Y6396D01*
X1871Y6405D01*
X1877Y6414D01*
X1882Y6424D01*
X1889Y6434D01*
X1895Y6444D01*
Y6445D01*
X1896Y6445D01*
X1896Y6446D01*
X1897Y6448D01*
X1898Y6450D01*
X1900Y6452D01*
X1903Y6458D01*
X1907Y6465D01*
X1912Y6473D01*
X1917Y6481D01*
X1923Y6491D01*
X1929Y6501D01*
X1936Y6511D01*
X1948Y6532D01*
X1955Y6543D01*
X1961Y6553D01*
X1967Y6563D01*
X1973Y6572D01*
X1973Y6572D01*
X1974Y6574D01*
X1976Y6576D01*
X1977Y6579D01*
X1980Y6583D01*
X1983Y6588D01*
X1987Y6593D01*
X1990Y6598D01*
X1998Y6610D01*
X2006Y6623D01*
X2015Y6635D01*
X2019Y6640D01*
X2023Y6646D01*
X2024Y6646D01*
X2024Y6647D01*
X2025Y6649D01*
X2027Y6650D01*
X2030Y6654D01*
X2035Y6660D01*
X2040Y6666D01*
X2045Y6671D01*
X2050Y6677D01*
X2055Y6681D01*
X2056Y6682D01*
X2057Y6683D01*
X2060Y6685D01*
X2063Y6686D01*
X2066Y6688D01*
X2071Y6690D01*
X2075Y6691D01*
X2079Y6691D01*
X2080D01*
X2082Y6691D01*
D02*
G37*
G36*
X981Y6626D02*
X983Y6625D01*
X984Y6624D01*
X986Y6622D01*
X988Y6619D01*
X990Y6615D01*
X990Y6614D01*
X990Y6613D01*
X991Y6611D01*
X992Y6608D01*
X992Y6603D01*
X993Y6600D01*
X992Y6598D01*
Y6598D01*
X992Y6597D01*
X991Y6596D01*
X990Y6594D01*
X988Y6592D01*
X986Y6590D01*
X983Y6588D01*
X979Y6585D01*
X978Y6585D01*
X977Y6584D01*
X975Y6583D01*
X973Y6582D01*
X970Y6580D01*
X968Y6579D01*
X966Y6578D01*
X965Y6577D01*
X965Y6577D01*
X963Y6575D01*
X961Y6574D01*
X958Y6571D01*
X954Y6567D01*
X948Y6562D01*
X943Y6557D01*
X937Y6551D01*
X930Y6544D01*
X923Y6536D01*
X915Y6527D01*
X907Y6518D01*
X898Y6508D01*
X889Y6497D01*
X880Y6485D01*
X870Y6473D01*
Y6473D01*
X869Y6472D01*
X869Y6471D01*
X868Y6470D01*
X865Y6466D01*
X861Y6461D01*
X857Y6455D01*
X852Y6448D01*
X846Y6439D01*
X839Y6429D01*
X832Y6419D01*
X825Y6408D01*
X817Y6396D01*
X809Y6383D01*
X801Y6369D01*
X793Y6355D01*
X785Y6341D01*
X777Y6326D01*
X776Y6326D01*
X776Y6325D01*
X774Y6322D01*
X773Y6319D01*
X772Y6317D01*
X770Y6314D01*
X769Y6311D01*
X767Y6307D01*
X765Y6303D01*
X763Y6299D01*
X760Y6294D01*
X758Y6289D01*
X748Y6269D01*
X748Y6268D01*
X746Y6267D01*
X745Y6264D01*
X743Y6262D01*
X740Y6258D01*
X737Y6255D01*
X734Y6252D01*
X730Y6249D01*
X730Y6248D01*
X728Y6248D01*
X726Y6247D01*
X722Y6245D01*
X718Y6244D01*
X713Y6243D01*
X707Y6242D01*
X701Y6242D01*
X700D01*
X699Y6242D01*
X698Y6244D01*
X697Y6245D01*
X697Y6247D01*
X695Y6249D01*
X694Y6251D01*
X694Y6255D01*
X693Y6259D01*
X691Y6263D01*
X690Y6268D01*
X689Y6275D01*
X688Y6282D01*
Y6282D01*
X688Y6284D01*
Y6286D01*
X687Y6289D01*
X687Y6293D01*
X686Y6297D01*
X686Y6302D01*
X685Y6307D01*
X684Y6313D01*
X683Y6319D01*
X682Y6326D01*
X681Y6333D01*
X679Y6348D01*
X678Y6363D01*
X671Y6422D01*
Y6423D01*
X670Y6424D01*
X670Y6427D01*
X670Y6431D01*
X669Y6435D01*
X668Y6440D01*
X667Y6446D01*
X667Y6452D01*
X665Y6465D01*
X663Y6479D01*
X661Y6491D01*
X659Y6497D01*
X658Y6503D01*
Y6503D01*
X658Y6504D01*
Y6505D01*
X658Y6507D01*
X657Y6512D01*
X655Y6517D01*
X654Y6522D01*
X652Y6527D01*
X651Y6529D01*
X651Y6530D01*
X650Y6531D01*
X650Y6530D01*
X649Y6529D01*
X648Y6528D01*
X648Y6528D01*
X646Y6527D01*
X643Y6525D01*
X640Y6525D01*
X639D01*
X636Y6526D01*
X634Y6527D01*
X632Y6528D01*
X631Y6530D01*
Y6530D01*
X631Y6531D01*
X631Y6533D01*
X630Y6536D01*
X631Y6538D01*
X631Y6540D01*
X631Y6540D01*
X632Y6542D01*
X633Y6544D01*
X635Y6547D01*
X637Y6551D01*
X641Y6555D01*
X645Y6560D01*
X650Y6565D01*
X651Y6566D01*
X651Y6566D01*
X653Y6568D01*
X656Y6570D01*
X660Y6573D01*
X664Y6576D01*
X669Y6578D01*
X673Y6580D01*
X678Y6580D01*
X681D01*
X683Y6580D01*
X686Y6579D01*
X688Y6578D01*
X689Y6577D01*
X690Y6576D01*
X691Y6575D01*
X693Y6572D01*
X694Y6570D01*
X695Y6569D01*
X695Y6567D01*
X696Y6566D01*
X697Y6564D01*
Y6563D01*
X697Y6563D01*
X698Y6562D01*
X698Y6560D01*
X699Y6557D01*
X700Y6554D01*
X701Y6550D01*
X702Y6545D01*
X703Y6539D01*
X704Y6532D01*
X706Y6525D01*
X707Y6516D01*
X708Y6506D01*
X710Y6495D01*
X711Y6483D01*
X712Y6469D01*
Y6469D01*
X713Y6468D01*
X713Y6466D01*
X713Y6463D01*
X714Y6459D01*
X715Y6453D01*
X715Y6447D01*
X717Y6440D01*
X717Y6435D01*
X718Y6430D01*
X718Y6425D01*
X719Y6420D01*
X720Y6414D01*
X721Y6408D01*
X721Y6401D01*
X722Y6393D01*
X723Y6386D01*
X724Y6378D01*
X725Y6369D01*
X726Y6360D01*
X727Y6350D01*
X728Y6341D01*
X729Y6330D01*
X730Y6319D01*
X722Y6290D01*
X722Y6290D01*
X723Y6292D01*
X724Y6295D01*
X726Y6299D01*
X728Y6302D01*
X729Y6305D01*
X730Y6308D01*
X732Y6312D01*
X734Y6316D01*
X737Y6321D01*
X740Y6326D01*
X742Y6331D01*
Y6331D01*
X743Y6332D01*
X744Y6333D01*
X744Y6335D01*
X745Y6337D01*
X746Y6339D01*
X748Y6342D01*
X750Y6345D01*
X754Y6352D01*
X758Y6360D01*
X764Y6370D01*
X770Y6380D01*
X776Y6392D01*
X783Y6404D01*
X791Y6416D01*
X799Y6429D01*
X808Y6442D01*
X817Y6456D01*
X836Y6484D01*
Y6484D01*
X837Y6484D01*
X837Y6485D01*
X839Y6487D01*
X841Y6491D01*
X845Y6496D01*
X850Y6502D01*
X856Y6509D01*
X862Y6517D01*
X869Y6526D01*
X877Y6536D01*
X885Y6546D01*
X894Y6556D01*
X903Y6566D01*
X923Y6587D01*
X932Y6596D01*
X943Y6606D01*
X943Y6606D01*
X944Y6608D01*
X947Y6610D01*
X949Y6612D01*
X955Y6617D01*
X958Y6619D01*
X961Y6621D01*
X962Y6622D01*
X963Y6622D01*
X964Y6623D01*
X966Y6624D01*
X969Y6625D01*
X972Y6626D01*
X975Y6626D01*
X979Y6627D01*
X980D01*
X981Y6626D01*
D02*
G37*
G36*
X-1374Y6698D02*
X-1372Y6697D01*
X-1371Y6697D01*
X-1369Y6696D01*
X-1368Y6694D01*
X-1367Y6693D01*
Y6692D01*
X-1366Y6691D01*
X-1366Y6690D01*
X-1365Y6689D01*
Y6687D01*
Y6685D01*
X-1366Y6679D01*
Y6678D01*
Y6678D01*
X-1366Y6677D01*
Y6674D01*
X-1367Y6672D01*
X-1367Y6669D01*
X-1368Y6665D01*
X-1368Y6661D01*
X-1370Y6656D01*
X-1371Y6650D01*
X-1372Y6644D01*
X-1374Y6636D01*
X-1376Y6628D01*
X-1378Y6620D01*
X-1380Y6610D01*
X-1383Y6600D01*
Y6599D01*
X-1384Y6597D01*
X-1385Y6594D01*
X-1386Y6590D01*
X-1388Y6584D01*
X-1390Y6578D01*
X-1392Y6571D01*
X-1394Y6563D01*
X-1396Y6555D01*
X-1399Y6545D01*
X-1402Y6536D01*
X-1406Y6525D01*
X-1409Y6515D01*
X-1412Y6504D01*
X-1420Y6481D01*
Y6481D01*
X-1420Y6479D01*
X-1421Y6477D01*
X-1423Y6473D01*
X-1424Y6469D01*
X-1426Y6464D01*
X-1428Y6459D01*
X-1430Y6453D01*
X-1432Y6446D01*
X-1435Y6439D01*
X-1437Y6432D01*
X-1440Y6424D01*
X-1446Y6407D01*
X-1452Y6390D01*
Y6390D01*
X-1452Y6389D01*
X-1453Y6386D01*
X-1454Y6383D01*
X-1455Y6380D01*
X-1457Y6376D01*
X-1459Y6371D01*
X-1460Y6366D01*
X-1464Y6356D01*
X-1467Y6346D01*
X-1469Y6341D01*
X-1470Y6337D01*
X-1471Y6333D01*
X-1473Y6330D01*
X-1472D01*
X-1471Y6330D01*
X-1469Y6331D01*
X-1466D01*
X-1464Y6331D01*
X-1462D01*
X-1459Y6331D01*
X-1456Y6332D01*
X-1452D01*
X-1448Y6332D01*
X-1446D01*
X-1444Y6333D01*
X-1442D01*
X-1439Y6333D01*
X-1433Y6333D01*
X-1426Y6334D01*
X-1418Y6334D01*
X-1409Y6335D01*
X-1400Y6335D01*
X-1400D01*
X-1398Y6336D01*
X-1396D01*
X-1394Y6336D01*
X-1390Y6337D01*
X-1386Y6337D01*
X-1381Y6338D01*
X-1375Y6339D01*
X-1370Y6339D01*
X-1363Y6341D01*
X-1356Y6341D01*
X-1349Y6342D01*
X-1334Y6345D01*
X-1317Y6348D01*
X-1317D01*
X-1316Y6348D01*
X-1313Y6349D01*
X-1311Y6349D01*
X-1307Y6350D01*
X-1303Y6350D01*
X-1295Y6352D01*
X-1286Y6353D01*
X-1281Y6354D01*
X-1277Y6354D01*
X-1274Y6355D01*
X-1270Y6355D01*
X-1268Y6355D01*
X-1264D01*
X-1262Y6355D01*
X-1260Y6354D01*
X-1258Y6353D01*
X-1256Y6351D01*
X-1255Y6349D01*
X-1255Y6346D01*
Y6346D01*
Y6345D01*
X-1255Y6343D01*
X-1256Y6341D01*
X-1256Y6338D01*
X-1257Y6335D01*
X-1258Y6328D01*
Y6328D01*
X-1259Y6326D01*
X-1260Y6324D01*
X-1262Y6322D01*
X-1264Y6319D01*
X-1266Y6316D01*
X-1270Y6313D01*
X-1274Y6310D01*
X-1274Y6310D01*
X-1276Y6309D01*
X-1278Y6309D01*
X-1281Y6307D01*
X-1284Y6306D01*
X-1288Y6305D01*
X-1293Y6304D01*
X-1297Y6303D01*
X-1406Y6295D01*
X-1483Y6289D01*
X-1523Y6286D01*
X-1525D01*
X-1526Y6286D01*
X-1528Y6287D01*
X-1530Y6288D01*
X-1531Y6290D01*
X-1533Y6291D01*
X-1534Y6294D01*
Y6295D01*
X-1535Y6296D01*
X-1535Y6297D01*
X-1535Y6299D01*
Y6305D01*
X-1535Y6307D01*
X-1534Y6310D01*
Y6311D01*
X-1534Y6311D01*
X-1533Y6313D01*
X-1533Y6314D01*
X-1530Y6318D01*
X-1528Y6319D01*
X-1526Y6321D01*
X-1526D01*
X-1525Y6322D01*
X-1523Y6323D01*
X-1520Y6324D01*
X-1517Y6325D01*
X-1516D01*
X-1515Y6326D01*
Y6326D01*
X-1515Y6327D01*
X-1514Y6329D01*
X-1513Y6332D01*
X-1512Y6336D01*
X-1510Y6341D01*
X-1508Y6348D01*
X-1505Y6355D01*
X-1503Y6360D01*
X-1502Y6365D01*
X-1500Y6370D01*
X-1498Y6376D01*
X-1496Y6382D01*
X-1494Y6388D01*
X-1491Y6395D01*
X-1489Y6402D01*
X-1486Y6410D01*
X-1483Y6418D01*
X-1481Y6427D01*
X-1477Y6436D01*
X-1474Y6446D01*
X-1471Y6456D01*
X-1467Y6467D01*
X-1463Y6478D01*
Y6479D01*
X-1463Y6479D01*
X-1462Y6480D01*
X-1462Y6482D01*
X-1461Y6484D01*
X-1460Y6487D01*
X-1459Y6490D01*
X-1458Y6493D01*
X-1456Y6501D01*
X-1453Y6509D01*
X-1450Y6519D01*
X-1447Y6529D01*
X-1443Y6541D01*
X-1440Y6552D01*
X-1433Y6575D01*
X-1430Y6587D01*
X-1427Y6598D01*
X-1425Y6608D01*
X-1423Y6618D01*
Y6619D01*
X-1422Y6620D01*
X-1422Y6623D01*
X-1421Y6626D01*
X-1420Y6630D01*
X-1419Y6634D01*
X-1417Y6644D01*
X-1415Y6654D01*
X-1414Y6658D01*
X-1414Y6663D01*
X-1412Y6666D01*
X-1412Y6670D01*
X-1411Y6672D01*
X-1411Y6673D01*
X-1411Y6674D01*
X-1410Y6675D01*
X-1409Y6677D01*
X-1408Y6680D01*
X-1406Y6683D01*
X-1403Y6686D01*
X-1400Y6689D01*
X-1396Y6691D01*
X-1396Y6692D01*
X-1394Y6693D01*
X-1392Y6694D01*
X-1390Y6695D01*
X-1387Y6696D01*
X-1383Y6697D01*
X-1380Y6698D01*
X-1376Y6698D01*
X-1375D01*
X-1374Y6698D01*
D02*
G37*
G36*
X1178Y6591D02*
X1180Y6591D01*
X1186Y6590D01*
X1192Y6589D01*
X1199Y6587D01*
X1205Y6584D01*
X1211Y6580D01*
X1212Y6579D01*
X1213Y6578D01*
X1215Y6575D01*
X1217Y6571D01*
X1219Y6566D01*
X1220Y6560D01*
Y6557D01*
X1219Y6554D01*
X1219Y6550D01*
X1217Y6546D01*
Y6545D01*
X1217Y6544D01*
X1216Y6543D01*
X1216Y6541D01*
X1215Y6539D01*
X1213Y6537D01*
X1211Y6534D01*
X1209Y6531D01*
X1207Y6527D01*
X1204Y6524D01*
X1200Y6520D01*
X1196Y6516D01*
X1192Y6512D01*
X1187Y6508D01*
X1181Y6503D01*
X1176Y6499D01*
X1175Y6499D01*
X1174Y6498D01*
X1172Y6497D01*
X1170Y6496D01*
X1166Y6494D01*
X1162Y6492D01*
X1158Y6489D01*
X1153Y6487D01*
X1148Y6484D01*
X1141Y6480D01*
X1135Y6477D01*
X1128Y6474D01*
X1121Y6471D01*
X1113Y6468D01*
X1096Y6461D01*
X1096D01*
X1094Y6461D01*
X1092Y6460D01*
X1089Y6459D01*
X1085Y6457D01*
X1080Y6456D01*
X1074Y6454D01*
X1069Y6453D01*
X1062Y6451D01*
X1055Y6449D01*
X1041Y6445D01*
X1026Y6442D01*
X1011Y6439D01*
Y6439D01*
X1010Y6438D01*
X1009Y6437D01*
X1009Y6435D01*
X1007Y6433D01*
X1006Y6430D01*
X1004Y6427D01*
X1002Y6424D01*
X999Y6417D01*
X995Y6408D01*
X991Y6398D01*
X987Y6389D01*
Y6388D01*
X987Y6387D01*
X986Y6385D01*
X985Y6383D01*
X984Y6380D01*
X984Y6377D01*
X982Y6369D01*
X981Y6361D01*
Y6352D01*
Y6348D01*
X982Y6344D01*
X983Y6340D01*
X984Y6337D01*
Y6336D01*
X985Y6336D01*
X986Y6334D01*
X989Y6331D01*
X993Y6328D01*
X995Y6326D01*
X998Y6325D01*
X1001Y6323D01*
X1005Y6322D01*
X1009Y6321D01*
X1013Y6319D01*
X1018Y6319D01*
X1023Y6319D01*
X1025D01*
X1027Y6319D01*
X1030D01*
X1034Y6320D01*
X1039Y6321D01*
X1045Y6322D01*
X1050Y6323D01*
X1057Y6325D01*
X1063Y6327D01*
X1070Y6329D01*
X1078Y6333D01*
X1085Y6336D01*
X1093Y6341D01*
X1100Y6346D01*
X1108Y6351D01*
X1108Y6352D01*
X1109Y6353D01*
X1112Y6355D01*
X1114Y6357D01*
X1118Y6361D01*
X1122Y6364D01*
X1127Y6369D01*
X1132Y6373D01*
X1137Y6379D01*
X1143Y6385D01*
X1149Y6391D01*
X1156Y6397D01*
X1169Y6412D01*
X1182Y6427D01*
X1182Y6428D01*
X1183Y6428D01*
X1184Y6429D01*
X1185Y6431D01*
X1187Y6433D01*
X1188Y6436D01*
X1191Y6438D01*
X1191Y6439D01*
X1192Y6440D01*
X1193Y6441D01*
X1195Y6443D01*
X1197Y6444D01*
X1199Y6446D01*
X1202Y6447D01*
X1204Y6447D01*
X1205D01*
X1206Y6447D01*
X1207Y6446D01*
X1209Y6445D01*
X1210Y6444D01*
X1211Y6441D01*
X1211Y6437D01*
X1211Y6434D01*
X1210Y6432D01*
X1209Y6431D01*
X1209Y6430D01*
X1209Y6429D01*
X1208Y6428D01*
X1207Y6426D01*
X1205Y6423D01*
X1204Y6421D01*
X1202Y6417D01*
X1200Y6413D01*
X1197Y6409D01*
X1193Y6405D01*
X1190Y6399D01*
X1185Y6393D01*
X1181Y6387D01*
X1175Y6380D01*
X1175Y6380D01*
X1174Y6378D01*
X1172Y6376D01*
X1170Y6373D01*
X1167Y6370D01*
X1163Y6366D01*
X1159Y6361D01*
X1154Y6356D01*
X1149Y6351D01*
X1143Y6345D01*
X1137Y6339D01*
X1130Y6333D01*
X1123Y6327D01*
X1116Y6320D01*
X1107Y6314D01*
X1099Y6307D01*
X1098Y6307D01*
X1097Y6306D01*
X1094Y6305D01*
X1091Y6302D01*
X1086Y6300D01*
X1081Y6297D01*
X1076Y6294D01*
X1069Y6291D01*
X1062Y6287D01*
X1055Y6285D01*
X1047Y6282D01*
X1038Y6279D01*
X1029Y6277D01*
X1020Y6275D01*
X1011Y6274D01*
X1001Y6274D01*
X999D01*
X997Y6274D01*
X994D01*
X991Y6275D01*
X987Y6275D01*
X982Y6276D01*
X978Y6277D01*
X973Y6279D01*
X968Y6281D01*
X962Y6282D01*
X957Y6285D01*
X952Y6288D01*
X948Y6291D01*
X943Y6295D01*
X939Y6300D01*
X939Y6301D01*
X939Y6301D01*
X938Y6303D01*
X936Y6305D01*
X935Y6308D01*
X934Y6311D01*
X933Y6315D01*
X932Y6320D01*
X931Y6326D01*
X931Y6332D01*
X930Y6338D01*
X931Y6346D01*
X931Y6354D01*
X933Y6362D01*
X935Y6371D01*
X938Y6381D01*
X939Y6382D01*
X939Y6384D01*
X940Y6386D01*
X942Y6390D01*
X943Y6394D01*
X946Y6400D01*
X948Y6406D01*
X952Y6412D01*
X955Y6420D01*
X960Y6427D01*
X964Y6436D01*
X970Y6444D01*
X975Y6453D01*
X981Y6462D01*
X988Y6471D01*
X995Y6480D01*
X995Y6481D01*
X997Y6482D01*
X999Y6485D01*
X1002Y6488D01*
X1006Y6492D01*
X1010Y6497D01*
X1015Y6503D01*
X1021Y6508D01*
X1027Y6515D01*
X1034Y6521D01*
X1041Y6528D01*
X1049Y6535D01*
X1057Y6541D01*
X1065Y6548D01*
X1074Y6554D01*
X1083Y6560D01*
X1084Y6561D01*
X1085Y6562D01*
X1088Y6563D01*
X1091Y6565D01*
X1095Y6568D01*
X1100Y6570D01*
X1106Y6573D01*
X1112Y6576D01*
X1118Y6579D01*
X1126Y6582D01*
X1133Y6584D01*
X1141Y6587D01*
X1148Y6589D01*
X1156Y6590D01*
X1164Y6591D01*
X1172Y6592D01*
X1176D01*
X1178Y6591D01*
D02*
G37*
G36*
X-1854Y6568D02*
X-1853D01*
X-1849Y6567D01*
X-1846Y6566D01*
X-1844Y6564D01*
X-1844D01*
X-1843Y6563D01*
X-1842Y6562D01*
X-1842Y6561D01*
X-1841Y6559D01*
X-1840Y6558D01*
Y6555D01*
X-1841Y6552D01*
X-1841Y6552D01*
X-1842Y6550D01*
X-1843Y6549D01*
X-1845Y6548D01*
X-1846Y6546D01*
X-1848Y6544D01*
X-1849Y6543D01*
X-1849Y6543D01*
X-1851Y6541D01*
X-1854Y6538D01*
X-1855Y6537D01*
X-1856Y6536D01*
X-1856Y6536D01*
X-1857Y6535D01*
X-1859Y6533D01*
X-1861Y6532D01*
X-1863Y6529D01*
X-1867Y6527D01*
X-1870Y6523D01*
X-1874Y6520D01*
X-1882Y6512D01*
X-1891Y6503D01*
X-1900Y6494D01*
X-1909Y6484D01*
X-1909Y6484D01*
X-1910Y6483D01*
X-1911Y6481D01*
X-1913Y6479D01*
X-1916Y6476D01*
X-1918Y6473D01*
X-1921Y6469D01*
X-1924Y6466D01*
X-1932Y6457D01*
X-1939Y6446D01*
X-1947Y6436D01*
X-1955Y6424D01*
X-1955Y6424D01*
X-1956Y6423D01*
X-1957Y6421D01*
X-1958Y6419D01*
X-1960Y6416D01*
X-1962Y6413D01*
X-1964Y6409D01*
X-1966Y6405D01*
X-1969Y6400D01*
X-1971Y6395D01*
X-1976Y6384D01*
X-1982Y6371D01*
X-1986Y6358D01*
Y6358D01*
X-1987Y6356D01*
X-1988Y6354D01*
X-1988Y6351D01*
X-1988Y6348D01*
Y6345D01*
X-1988Y6341D01*
X-1987Y6337D01*
X-1986Y6333D01*
X-1984Y6329D01*
X-1980Y6325D01*
X-1976Y6322D01*
X-1971Y6319D01*
X-1965Y6317D01*
X-1961Y6316D01*
X-1957Y6315D01*
X-1953Y6315D01*
X-1945D01*
X-1944Y6315D01*
X-1941D01*
X-1938Y6316D01*
X-1935Y6317D01*
X-1931Y6317D01*
X-1923Y6319D01*
X-1914Y6322D01*
X-1904Y6325D01*
X-1894Y6330D01*
X-1894Y6331D01*
X-1893Y6331D01*
X-1891Y6332D01*
X-1889Y6333D01*
X-1887Y6335D01*
X-1884Y6336D01*
X-1878Y6341D01*
X-1870Y6346D01*
X-1862Y6353D01*
X-1853Y6359D01*
X-1845Y6367D01*
X-1845Y6368D01*
X-1844Y6369D01*
X-1843Y6370D01*
X-1842Y6371D01*
X-1838Y6376D01*
X-1834Y6381D01*
X-1829Y6387D01*
X-1825Y6394D01*
X-1821Y6401D01*
X-1818Y6407D01*
Y6408D01*
X-1818Y6408D01*
X-1818Y6409D01*
X-1817Y6410D01*
X-1816Y6414D01*
X-1816Y6419D01*
Y6424D01*
X-1816Y6430D01*
X-1817Y6436D01*
X-1820Y6442D01*
X-1820Y6442D01*
X-1821Y6444D01*
X-1823Y6448D01*
X-1826Y6452D01*
X-1830Y6456D01*
X-1834Y6462D01*
X-1840Y6468D01*
X-1846Y6475D01*
X-1847Y6475D01*
X-1849Y6477D01*
X-1851Y6479D01*
X-1853Y6482D01*
X-1857Y6485D01*
X-1859Y6488D01*
X-1862Y6492D01*
X-1865Y6495D01*
X-1865Y6496D01*
X-1865Y6497D01*
X-1866Y6498D01*
X-1867Y6500D01*
X-1868Y6503D01*
X-1868Y6505D01*
Y6508D01*
X-1867Y6511D01*
X-1867Y6512D01*
X-1867Y6513D01*
X-1865Y6515D01*
X-1863Y6518D01*
X-1861Y6521D01*
X-1858Y6523D01*
X-1854Y6526D01*
X-1849Y6528D01*
X-1848Y6529D01*
X-1846Y6529D01*
X-1843Y6530D01*
X-1839Y6531D01*
X-1834Y6532D01*
X-1829Y6533D01*
X-1824Y6534D01*
X-1818Y6534D01*
X-1815D01*
X-1813Y6534D01*
X-1808Y6533D01*
X-1806Y6533D01*
X-1804Y6532D01*
X-1804D01*
X-1804Y6532D01*
X-1802Y6530D01*
X-1802Y6529D01*
X-1802Y6528D01*
Y6526D01*
X-1802Y6524D01*
X-1802Y6523D01*
X-1803Y6522D01*
X-1804Y6520D01*
X-1806Y6517D01*
X-1807Y6517D01*
X-1808Y6516D01*
X-1809Y6515D01*
X-1809Y6515D01*
X-1809D01*
X-1808Y6515D01*
X-1807Y6513D01*
X-1806Y6512D01*
X-1804Y6510D01*
X-1802Y6508D01*
X-1802Y6507D01*
X-1802Y6507D01*
X-1800Y6505D01*
X-1799Y6504D01*
X-1798Y6502D01*
X-1796Y6500D01*
X-1792Y6494D01*
X-1787Y6488D01*
X-1782Y6480D01*
X-1778Y6472D01*
X-1774Y6464D01*
Y6464D01*
X-1773Y6463D01*
X-1773Y6462D01*
X-1772Y6460D01*
X-1771Y6458D01*
X-1771Y6455D01*
X-1770Y6452D01*
X-1770Y6449D01*
X-1769Y6441D01*
Y6432D01*
X-1770Y6428D01*
X-1771Y6422D01*
X-1772Y6417D01*
X-1774Y6411D01*
Y6411D01*
X-1774Y6410D01*
X-1775Y6409D01*
X-1775Y6407D01*
X-1776Y6404D01*
X-1778Y6401D01*
X-1780Y6398D01*
X-1782Y6394D01*
X-1784Y6390D01*
X-1787Y6385D01*
X-1790Y6381D01*
X-1794Y6376D01*
X-1798Y6370D01*
X-1802Y6364D01*
X-1807Y6358D01*
X-1812Y6352D01*
X-1813Y6352D01*
X-1814Y6351D01*
X-1815Y6349D01*
X-1818Y6347D01*
X-1821Y6344D01*
X-1824Y6341D01*
X-1829Y6337D01*
X-1833Y6333D01*
X-1838Y6328D01*
X-1843Y6324D01*
X-1850Y6319D01*
X-1856Y6314D01*
X-1863Y6310D01*
X-1870Y6305D01*
X-1885Y6295D01*
X-1886Y6295D01*
X-1887Y6294D01*
X-1889Y6293D01*
X-1893Y6292D01*
X-1897Y6290D01*
X-1901Y6288D01*
X-1906Y6286D01*
X-1912Y6284D01*
X-1918Y6282D01*
X-1925Y6279D01*
X-1932Y6278D01*
X-1940Y6276D01*
X-1948Y6274D01*
X-1956Y6273D01*
X-1964Y6273D01*
X-1972Y6272D01*
X-1976D01*
X-1980Y6273D01*
X-1983Y6273D01*
X-1987Y6274D01*
X-1992Y6274D01*
X-1996Y6275D01*
X-2006Y6278D01*
X-2010Y6280D01*
X-2015Y6283D01*
X-2020Y6286D01*
X-2024Y6289D01*
X-2027Y6293D01*
X-2030Y6297D01*
Y6297D01*
X-2030Y6298D01*
X-2031Y6299D01*
X-2032Y6301D01*
X-2032Y6304D01*
X-2033Y6307D01*
X-2034Y6310D01*
X-2035Y6314D01*
X-2035Y6318D01*
X-2036Y6323D01*
X-2036Y6328D01*
X-2036Y6333D01*
X-2035Y6339D01*
X-2034Y6345D01*
X-2033Y6351D01*
X-2031Y6358D01*
Y6358D01*
X-2030Y6359D01*
X-2029Y6361D01*
X-2028Y6363D01*
X-2027Y6366D01*
X-2026Y6370D01*
X-2024Y6374D01*
X-2022Y6379D01*
X-2020Y6384D01*
X-2017Y6390D01*
X-2014Y6396D01*
X-2010Y6403D01*
X-2007Y6410D01*
X-2003Y6418D01*
X-1998Y6425D01*
X-1994Y6434D01*
X-1993Y6434D01*
X-1993Y6436D01*
X-1991Y6438D01*
X-1989Y6441D01*
X-1987Y6445D01*
X-1984Y6450D01*
X-1980Y6455D01*
X-1977Y6461D01*
X-1973Y6467D01*
X-1968Y6473D01*
X-1958Y6486D01*
X-1947Y6500D01*
X-1936Y6513D01*
X-1935Y6514D01*
X-1934Y6515D01*
X-1933Y6517D01*
X-1930Y6519D01*
X-1927Y6523D01*
X-1923Y6527D01*
X-1918Y6533D01*
X-1918Y6533D01*
X-1917Y6533D01*
X-1916Y6536D01*
X-1912Y6539D01*
X-1909Y6543D01*
X-1904Y6547D01*
X-1898Y6551D01*
X-1893Y6555D01*
X-1887Y6559D01*
X-1887D01*
X-1886Y6559D01*
X-1885Y6560D01*
X-1881Y6562D01*
X-1877Y6564D01*
X-1873Y6566D01*
X-1868Y6567D01*
X-1862Y6568D01*
X-1857Y6568D01*
X-1856D01*
X-1854Y6568D01*
D02*
G37*
G36*
X564Y6592D02*
X568Y6592D01*
X571Y6591D01*
X575Y6589D01*
X578Y6587D01*
X580Y6583D01*
X580Y6581D01*
Y6578D01*
Y6578D01*
X580Y6576D01*
X580Y6572D01*
X579Y6568D01*
X578Y6562D01*
X576Y6554D01*
X574Y6546D01*
X570Y6536D01*
X545Y6462D01*
Y6462D01*
X544Y6461D01*
X544Y6460D01*
X544Y6459D01*
X543Y6456D01*
X541Y6451D01*
X539Y6445D01*
X537Y6438D01*
X534Y6431D01*
X532Y6422D01*
X529Y6414D01*
X526Y6405D01*
X521Y6388D01*
X519Y6378D01*
X516Y6370D01*
X514Y6362D01*
X512Y6354D01*
X512Y6354D01*
X511Y6352D01*
Y6351D01*
X511Y6349D01*
X510Y6347D01*
X510Y6345D01*
X509Y6342D01*
X508Y6338D01*
X508Y6334D01*
X507Y6329D01*
X505Y6323D01*
X504Y6317D01*
Y6317D01*
X504Y6316D01*
Y6314D01*
X504Y6313D01*
X503Y6310D01*
X503Y6308D01*
X502Y6302D01*
X500Y6296D01*
X499Y6290D01*
X498Y6285D01*
X497Y6282D01*
X497Y6280D01*
Y6280D01*
X496Y6279D01*
X495Y6277D01*
X494Y6275D01*
X492Y6273D01*
X490Y6270D01*
X487Y6268D01*
X484Y6266D01*
X484Y6266D01*
X483Y6266D01*
X480Y6265D01*
X478Y6264D01*
X475Y6263D01*
X472Y6262D01*
X469Y6262D01*
X465D01*
X463Y6263D01*
X461Y6264D01*
X459Y6266D01*
X459Y6268D01*
X458Y6270D01*
X457Y6273D01*
X457Y6275D01*
X456Y6279D01*
X457Y6283D01*
X457Y6287D01*
X458Y6293D01*
Y6293D01*
X458Y6294D01*
X459Y6296D01*
X459Y6298D01*
X460Y6302D01*
X461Y6306D01*
X462Y6311D01*
X464Y6317D01*
X465Y6324D01*
X467Y6331D01*
X469Y6340D01*
X472Y6350D01*
X475Y6361D01*
X478Y6373D01*
X482Y6386D01*
X486Y6400D01*
Y6400D01*
X487Y6402D01*
X487Y6405D01*
X488Y6408D01*
X490Y6413D01*
X491Y6418D01*
X493Y6424D01*
X495Y6430D01*
X497Y6438D01*
X499Y6445D01*
X502Y6453D01*
X504Y6462D01*
X509Y6480D01*
X515Y6498D01*
Y6499D01*
X516Y6500D01*
X516Y6503D01*
X517Y6506D01*
X519Y6510D01*
X520Y6515D01*
X521Y6520D01*
X523Y6525D01*
X527Y6537D01*
X531Y6550D01*
X535Y6562D01*
X536Y6568D01*
X538Y6573D01*
Y6573D01*
X539Y6574D01*
X539Y6576D01*
X540Y6578D01*
X543Y6583D01*
X546Y6587D01*
X547Y6587D01*
X547Y6588D01*
X548Y6589D01*
X550Y6590D01*
X552Y6591D01*
X555Y6592D01*
X558Y6592D01*
X562Y6593D01*
X562D01*
X564Y6592D01*
D02*
G37*
G36*
X-2203Y6583D02*
X-2202Y6581D01*
X-2201Y6580D01*
X-2200Y6579D01*
X-2199Y6577D01*
X-2199Y6575D01*
X-2198Y6572D01*
X-2198Y6569D01*
X-2198Y6566D01*
X-2199Y6561D01*
X-2199Y6556D01*
X-2201Y6550D01*
Y6550D01*
X-2201Y6549D01*
X-2202Y6547D01*
X-2202Y6544D01*
X-2203Y6541D01*
X-2205Y6536D01*
X-2206Y6532D01*
X-2207Y6526D01*
X-2209Y6519D01*
X-2211Y6512D01*
X-2213Y6504D01*
X-2216Y6495D01*
X-2219Y6485D01*
X-2222Y6475D01*
X-2225Y6463D01*
X-2229Y6451D01*
X-2237Y6419D01*
Y6418D01*
X-2238Y6416D01*
X-2238Y6413D01*
X-2239Y6409D01*
X-2241Y6404D01*
X-2242Y6398D01*
X-2244Y6392D01*
X-2246Y6386D01*
X-2249Y6373D01*
X-2251Y6366D01*
X-2251Y6365D01*
X-2250Y6367D01*
X-2248Y6370D01*
X-2246Y6373D01*
X-2240Y6381D01*
X-2234Y6389D01*
X-2226Y6399D01*
X-2218Y6410D01*
X-2210Y6421D01*
X-2201Y6433D01*
X-2191Y6445D01*
X-2182Y6458D01*
X-2162Y6483D01*
X-2152Y6495D01*
X-2142Y6506D01*
X-2142Y6507D01*
X-2140Y6509D01*
X-2137Y6512D01*
X-2134Y6516D01*
X-2130Y6520D01*
X-2124Y6525D01*
X-2119Y6531D01*
X-2113Y6536D01*
X-2107Y6542D01*
X-2100Y6547D01*
X-2093Y6552D01*
X-2086Y6557D01*
X-2079Y6561D01*
X-2072Y6564D01*
X-2066Y6566D01*
X-2060Y6566D01*
X-2059D01*
X-2058Y6566D01*
X-2056D01*
X-2052Y6564D01*
X-2050Y6563D01*
X-2048Y6562D01*
X-2046Y6560D01*
X-2044Y6558D01*
X-2043Y6555D01*
X-2041Y6551D01*
X-2040Y6547D01*
X-2039Y6542D01*
Y6537D01*
X-2040Y6531D01*
Y6530D01*
X-2040Y6529D01*
Y6527D01*
X-2041Y6524D01*
X-2041Y6521D01*
X-2042Y6517D01*
X-2043Y6512D01*
X-2044Y6507D01*
X-2045Y6500D01*
X-2047Y6494D01*
X-2048Y6487D01*
X-2050Y6479D01*
X-2052Y6471D01*
X-2054Y6462D01*
X-2057Y6453D01*
X-2060Y6444D01*
X-2060Y6443D01*
X-2060Y6441D01*
X-2061Y6437D01*
X-2063Y6433D01*
X-2065Y6426D01*
X-2067Y6419D01*
X-2070Y6410D01*
X-2073Y6401D01*
X-2077Y6389D01*
X-2081Y6377D01*
X-2085Y6363D01*
X-2091Y6349D01*
X-2096Y6333D01*
X-2102Y6315D01*
X-2108Y6297D01*
X-2114Y6278D01*
Y6278D01*
X-2115Y6276D01*
X-2116Y6274D01*
X-2117Y6272D01*
X-2119Y6269D01*
X-2122Y6266D01*
X-2125Y6264D01*
X-2128Y6261D01*
X-2129Y6260D01*
X-2130Y6260D01*
X-2132Y6259D01*
X-2135Y6258D01*
X-2138Y6256D01*
X-2142Y6255D01*
X-2146Y6254D01*
X-2150Y6254D01*
X-2151D01*
X-2153Y6254D01*
X-2155Y6255D01*
X-2159Y6256D01*
X-2161Y6257D01*
X-2163Y6258D01*
X-2164Y6259D01*
X-2164Y6259D01*
X-2165Y6260D01*
X-2166Y6261D01*
X-2166Y6263D01*
Y6265D01*
Y6268D01*
X-2166Y6271D01*
Y6271D01*
X-2165Y6272D01*
X-2164Y6273D01*
X-2164Y6275D01*
X-2163Y6278D01*
X-2162Y6282D01*
X-2160Y6286D01*
X-2158Y6290D01*
X-2156Y6295D01*
X-2154Y6301D01*
X-2152Y6308D01*
X-2149Y6315D01*
X-2146Y6322D01*
X-2142Y6331D01*
X-2139Y6340D01*
X-2135Y6350D01*
X-2134Y6350D01*
X-2134Y6352D01*
X-2132Y6355D01*
X-2131Y6359D01*
X-2129Y6364D01*
X-2127Y6370D01*
X-2124Y6376D01*
X-2122Y6383D01*
X-2119Y6390D01*
X-2116Y6398D01*
X-2110Y6414D01*
X-2104Y6430D01*
X-2101Y6437D01*
X-2099Y6445D01*
Y6445D01*
X-2098Y6446D01*
X-2097Y6448D01*
X-2097Y6450D01*
X-2096Y6454D01*
X-2095Y6457D01*
X-2093Y6461D01*
X-2092Y6465D01*
X-2089Y6474D01*
X-2086Y6484D01*
X-2084Y6493D01*
X-2083Y6497D01*
X-2081Y6501D01*
Y6501D01*
X-2081Y6502D01*
Y6503D01*
X-2081Y6504D01*
X-2080Y6508D01*
X-2079Y6512D01*
X-2079Y6515D01*
X-2078Y6519D01*
X-2078Y6520D01*
X-2078Y6521D01*
Y6521D01*
X-2079Y6522D01*
X-2079D01*
X-2080Y6521D01*
X-2082Y6521D01*
X-2084Y6520D01*
X-2086Y6519D01*
X-2089Y6517D01*
X-2092Y6516D01*
X-2096Y6513D01*
X-2100Y6509D01*
X-2105Y6505D01*
X-2111Y6500D01*
X-2116Y6495D01*
X-2123Y6488D01*
X-2130Y6480D01*
X-2138Y6471D01*
X-2138Y6470D01*
X-2139Y6469D01*
X-2142Y6466D01*
X-2145Y6462D01*
X-2149Y6457D01*
X-2154Y6450D01*
X-2159Y6443D01*
X-2166Y6435D01*
X-2173Y6426D01*
X-2181Y6416D01*
X-2189Y6404D01*
X-2198Y6392D01*
X-2208Y6379D01*
X-2218Y6365D01*
X-2229Y6350D01*
X-2241Y6335D01*
X-2259Y6308D01*
X-2259Y6308D01*
X-2260Y6307D01*
X-2261Y6306D01*
X-2263Y6304D01*
X-2265Y6303D01*
X-2267Y6301D01*
X-2270Y6299D01*
X-2273Y6297D01*
X-2274Y6297D01*
X-2275Y6296D01*
X-2277Y6295D01*
X-2279Y6295D01*
X-2282Y6294D01*
X-2285Y6293D01*
X-2288Y6293D01*
X-2291Y6292D01*
X-2294D01*
X-2296Y6293D01*
X-2300Y6293D01*
X-2302Y6294D01*
X-2304Y6294D01*
X-2304Y6295D01*
X-2305Y6296D01*
X-2305Y6297D01*
X-2306Y6298D01*
X-2306Y6301D01*
Y6303D01*
X-2305Y6306D01*
X-2293Y6357D01*
X-2272Y6447D01*
Y6448D01*
X-2271Y6449D01*
X-2270Y6452D01*
X-2270Y6456D01*
X-2269Y6460D01*
X-2267Y6466D01*
X-2266Y6472D01*
X-2264Y6479D01*
X-2262Y6486D01*
X-2261Y6493D01*
X-2257Y6509D01*
X-2254Y6525D01*
X-2250Y6541D01*
Y6541D01*
X-2250Y6543D01*
Y6544D01*
X-2250Y6546D01*
X-2249Y6551D01*
X-2247Y6556D01*
X-2247Y6556D01*
X-2246Y6558D01*
X-2245Y6560D01*
X-2243Y6563D01*
X-2241Y6566D01*
X-2238Y6569D01*
X-2235Y6572D01*
X-2230Y6575D01*
X-2230Y6576D01*
X-2228Y6576D01*
X-2226Y6578D01*
X-2222Y6579D01*
X-2218Y6580D01*
X-2214Y6582D01*
X-2210Y6583D01*
X-2205Y6583D01*
X-2205D01*
X-2203Y6583D01*
D02*
G37*
G36*
X3009Y6690D02*
X3012Y6689D01*
X3017Y6689D01*
X3021Y6688D01*
X3027Y6687D01*
X3037Y6685D01*
X3043Y6683D01*
X3048Y6681D01*
X3053Y6679D01*
X3059Y6676D01*
X3063Y6673D01*
X3067Y6669D01*
X3067Y6669D01*
X3068Y6668D01*
X3069Y6667D01*
X3070Y6666D01*
X3071Y6663D01*
X3072Y6661D01*
X3074Y6658D01*
X3075Y6654D01*
X3076Y6650D01*
X3077Y6646D01*
X3078Y6641D01*
X3078Y6635D01*
X3078Y6630D01*
X3077Y6623D01*
X3076Y6616D01*
X3073Y6609D01*
Y6609D01*
X3073Y6608D01*
X3072Y6606D01*
X3071Y6603D01*
X3069Y6600D01*
X3068Y6597D01*
X3065Y6593D01*
X3062Y6588D01*
X3059Y6583D01*
X3055Y6578D01*
X3050Y6572D01*
X3045Y6566D01*
X3039Y6560D01*
X3032Y6553D01*
X3025Y6546D01*
X3016Y6539D01*
X3016Y6539D01*
X3014Y6538D01*
X3012Y6536D01*
X3008Y6533D01*
X3004Y6530D01*
X3000Y6527D01*
X2994Y6523D01*
X2988Y6519D01*
X2981Y6514D01*
X2974Y6510D01*
X2967Y6505D01*
X2960Y6501D01*
X2944Y6493D01*
X2947Y6493D01*
X2952Y6494D01*
X2957Y6495D01*
X2958D01*
X2960Y6495D01*
X2963Y6496D01*
X2967Y6496D01*
X2972Y6496D01*
X2978Y6497D01*
X2985Y6497D01*
X2997D01*
X3001Y6497D01*
X3005Y6496D01*
X3009Y6496D01*
X3014Y6495D01*
X3020Y6494D01*
X3025Y6492D01*
X3031Y6491D01*
X3037Y6488D01*
X3043Y6485D01*
X3049Y6483D01*
X3055Y6479D01*
X3059Y6475D01*
X3064Y6470D01*
X3064Y6469D01*
X3065Y6469D01*
X3066Y6467D01*
X3067Y6465D01*
X3069Y6462D01*
X3071Y6459D01*
X3072Y6454D01*
X3073Y6450D01*
X3075Y6445D01*
X3076Y6439D01*
X3076Y6433D01*
Y6426D01*
X3076Y6419D01*
X3075Y6411D01*
X3073Y6403D01*
X3071Y6394D01*
Y6394D01*
X3070Y6393D01*
X3070Y6392D01*
X3069Y6391D01*
X3068Y6387D01*
X3065Y6382D01*
X3063Y6376D01*
X3059Y6369D01*
X3054Y6361D01*
X3049Y6352D01*
X3043Y6342D01*
X3036Y6333D01*
X3028Y6323D01*
X3019Y6313D01*
X3008Y6303D01*
X2997Y6293D01*
X2985Y6284D01*
X2972Y6275D01*
X2971D01*
X2971Y6274D01*
X2970Y6274D01*
X2968Y6273D01*
X2966Y6271D01*
X2964Y6270D01*
X2961Y6269D01*
X2958Y6267D01*
X2955Y6265D01*
X2951Y6263D01*
X2942Y6259D01*
X2933Y6254D01*
X2921Y6248D01*
X2909Y6243D01*
X2895Y6237D01*
X2880Y6231D01*
X2863Y6226D01*
X2846Y6220D01*
X2829Y6214D01*
X2810Y6209D01*
X2790Y6204D01*
X2789D01*
X2787Y6204D01*
X2783Y6203D01*
X2779Y6203D01*
X2774Y6202D01*
X2770Y6202D01*
X2765Y6201D01*
X2758D01*
X2756Y6201D01*
X2753Y6202D01*
X2750Y6203D01*
X2747Y6204D01*
X2744Y6206D01*
X2742Y6208D01*
Y6209D01*
X2742Y6210D01*
X2741Y6211D01*
X2741Y6214D01*
Y6216D01*
Y6219D01*
X2741Y6222D01*
X2742Y6226D01*
Y6226D01*
X2743Y6227D01*
X2744Y6229D01*
X2746Y6232D01*
X2747Y6234D01*
X2749Y6235D01*
X2752Y6237D01*
X2754Y6239D01*
X2758Y6241D01*
X2761Y6243D01*
X2765Y6244D01*
X2770Y6246D01*
X2775Y6247D01*
X2781Y6248D01*
X2782D01*
X2783Y6248D01*
X2785Y6249D01*
X2787Y6249D01*
X2790Y6250D01*
X2793Y6250D01*
X2796Y6251D01*
X2804Y6252D01*
X2812Y6254D01*
X2823Y6256D01*
X2834Y6259D01*
X2845Y6262D01*
X2858Y6265D01*
X2871Y6269D01*
X2884Y6274D01*
X2897Y6278D01*
X2910Y6284D01*
X2924Y6290D01*
X2936Y6296D01*
X2937D01*
X2937Y6296D01*
X2939Y6298D01*
X2942Y6299D01*
X2947Y6302D01*
X2953Y6306D01*
X2959Y6310D01*
X2965Y6315D01*
X2973Y6321D01*
X2980Y6327D01*
X2987Y6335D01*
X2995Y6343D01*
X3002Y6351D01*
X3008Y6360D01*
X3015Y6370D01*
X3020Y6380D01*
X3024Y6391D01*
Y6392D01*
X3024Y6392D01*
X3025Y6394D01*
X3025Y6397D01*
X3026Y6401D01*
X3027Y6406D01*
X3027Y6412D01*
X3027Y6417D01*
X3025Y6424D01*
X3023Y6430D01*
X3020Y6436D01*
X3016Y6441D01*
X3013Y6444D01*
X3009Y6446D01*
X3006Y6448D01*
X3002Y6450D01*
X2998Y6452D01*
X2993Y6453D01*
X2987Y6454D01*
X2981Y6455D01*
X2975Y6456D01*
X2961D01*
X2958Y6456D01*
X2952D01*
X2944Y6455D01*
X2936Y6454D01*
X2926Y6453D01*
X2917Y6452D01*
X2916D01*
X2914Y6452D01*
X2913Y6451D01*
X2910Y6451D01*
X2907Y6450D01*
X2903Y6450D01*
X2900Y6449D01*
X2895Y6448D01*
X2891Y6447D01*
X2886Y6446D01*
X2881Y6445D01*
X2869Y6443D01*
X2856Y6440D01*
X2856Y6440D01*
X2854Y6439D01*
X2853Y6438D01*
X2850Y6437D01*
X2846Y6436D01*
X2843Y6434D01*
X2834Y6430D01*
X2826Y6426D01*
X2817Y6422D01*
X2812Y6420D01*
X2808Y6418D01*
X2805Y6417D01*
X2802Y6416D01*
X2802Y6415D01*
X2800Y6415D01*
X2797Y6414D01*
X2794Y6413D01*
X2790Y6412D01*
X2786Y6411D01*
X2782Y6411D01*
X2778Y6410D01*
X2776D01*
X2775Y6411D01*
X2773Y6412D01*
X2771Y6412D01*
X2769Y6414D01*
X2767Y6416D01*
X2766Y6418D01*
Y6419D01*
X2765Y6420D01*
X2765Y6421D01*
X2764Y6424D01*
Y6426D01*
Y6429D01*
X2765Y6433D01*
X2766Y6436D01*
X2766Y6437D01*
X2767Y6438D01*
X2768Y6441D01*
X2771Y6445D01*
X2774Y6448D01*
X2778Y6452D01*
X2784Y6456D01*
X2790Y6459D01*
X2791D01*
X2791Y6459D01*
X2792Y6459D01*
X2794Y6460D01*
X2797Y6461D01*
X2802Y6463D01*
X2807Y6465D01*
X2813Y6467D01*
X2819Y6469D01*
X2825Y6471D01*
X2825D01*
X2826Y6471D01*
X2827Y6472D01*
X2829Y6472D01*
X2831Y6473D01*
X2833Y6474D01*
X2839Y6476D01*
X2846Y6478D01*
X2854Y6481D01*
X2862Y6484D01*
X2871Y6488D01*
X2871D01*
X2871Y6488D01*
X2874Y6489D01*
X2877Y6491D01*
X2881Y6493D01*
X2886Y6495D01*
X2893Y6498D01*
X2899Y6502D01*
X2907Y6505D01*
X2915Y6509D01*
X2923Y6514D01*
X2941Y6523D01*
X2958Y6534D01*
X2966Y6539D01*
X2974Y6544D01*
X2974Y6545D01*
X2976Y6546D01*
X2978Y6547D01*
X2980Y6550D01*
X2984Y6552D01*
X2987Y6555D01*
X2991Y6559D01*
X2996Y6563D01*
X3004Y6571D01*
X3013Y6581D01*
X3017Y6587D01*
X3020Y6592D01*
X3023Y6598D01*
X3025Y6603D01*
Y6603D01*
X3025Y6604D01*
X3026Y6605D01*
X3026Y6607D01*
X3027Y6611D01*
X3028Y6616D01*
X3027Y6621D01*
X3026Y6627D01*
X3025Y6629D01*
X3024Y6631D01*
X3022Y6634D01*
X3020Y6635D01*
X3019Y6636D01*
X3017Y6637D01*
X3014Y6638D01*
X3012Y6639D01*
X3009Y6640D01*
X3007Y6641D01*
X3003Y6642D01*
X3000Y6642D01*
X2996Y6643D01*
X2991Y6644D01*
X2986Y6644D01*
X2981Y6644D01*
X2971D01*
X2967Y6644D01*
X2963Y6644D01*
X2957Y6643D01*
X2951Y6642D01*
X2945Y6641D01*
X2937Y6640D01*
X2929Y6638D01*
X2921Y6635D01*
X2912Y6633D01*
X2902Y6630D01*
X2893Y6626D01*
X2883Y6622D01*
X2873Y6617D01*
X2872Y6616D01*
X2870Y6615D01*
X2867Y6614D01*
X2864Y6612D01*
X2860Y6610D01*
X2855Y6607D01*
X2846Y6600D01*
X2846Y6600D01*
X2845Y6599D01*
X2842Y6597D01*
X2840Y6595D01*
X2835Y6590D01*
X2832Y6588D01*
X2830Y6586D01*
X2830Y6585D01*
X2828Y6584D01*
X2826Y6582D01*
X2822Y6580D01*
X2819Y6578D01*
X2814Y6576D01*
X2810Y6575D01*
X2805Y6574D01*
X2803D01*
X2801Y6575D01*
X2798Y6575D01*
X2794Y6577D01*
X2790Y6580D01*
X2788Y6582D01*
X2787Y6584D01*
X2786Y6587D01*
Y6590D01*
X2787Y6593D01*
X2788Y6597D01*
X2788Y6598D01*
X2789Y6600D01*
X2791Y6603D01*
X2792Y6605D01*
X2794Y6607D01*
X2796Y6610D01*
X2799Y6612D01*
X2802Y6615D01*
X2806Y6619D01*
X2810Y6622D01*
X2815Y6626D01*
X2821Y6630D01*
X2826Y6634D01*
X2827Y6634D01*
X2828Y6635D01*
X2830Y6636D01*
X2833Y6638D01*
X2836Y6640D01*
X2840Y6642D01*
X2844Y6644D01*
X2849Y6647D01*
X2855Y6650D01*
X2861Y6654D01*
X2868Y6657D01*
X2875Y6660D01*
X2883Y6663D01*
X2890Y6667D01*
X2907Y6673D01*
X2908Y6674D01*
X2910Y6674D01*
X2912Y6675D01*
X2916Y6676D01*
X2920Y6677D01*
X2925Y6679D01*
X2930Y6680D01*
X2937Y6682D01*
X2944Y6683D01*
X2951Y6685D01*
X2959Y6686D01*
X2967Y6687D01*
X2984Y6689D01*
X2992Y6690D01*
X3005D01*
X3009Y6690D01*
D02*
G37*
%LPC*%
G36*
X2462Y6676D02*
X2461D01*
Y6675D01*
X2462D01*
Y6676D01*
D02*
G37*
G36*
X2554Y6679D02*
X2518D01*
X2511Y6679D01*
X2506D01*
X2504Y6678D01*
X2502D01*
Y6678D01*
X2502Y6678D01*
X2502Y6676D01*
X2501Y6674D01*
X2499Y6672D01*
X2498Y6668D01*
X2496Y6663D01*
X2496Y6662D01*
X2495Y6661D01*
X2494Y6657D01*
X2493Y6653D01*
X2490Y6648D01*
X2488Y6642D01*
X2486Y6635D01*
X2483Y6627D01*
X2453Y6531D01*
X2431Y6460D01*
X2431Y6461D01*
X2432Y6461D01*
X2434Y6462D01*
X2437Y6463D01*
X2439Y6463D01*
X2441Y6464D01*
X2444Y6465D01*
X2447Y6466D01*
X2447D01*
X2447Y6466D01*
X2450Y6467D01*
X2453Y6468D01*
X2457Y6469D01*
X2462Y6471D01*
X2467Y6472D01*
X2473Y6474D01*
X2478Y6476D01*
X2478D01*
X2479Y6476D01*
X2480Y6477D01*
X2482Y6477D01*
X2484Y6478D01*
X2486Y6479D01*
X2489Y6480D01*
X2493Y6481D01*
X2500Y6484D01*
X2509Y6488D01*
X2518Y6491D01*
X2528Y6496D01*
X2539Y6500D01*
X2550Y6505D01*
X2573Y6515D01*
X2584Y6521D01*
X2595Y6527D01*
X2605Y6532D01*
X2614Y6538D01*
X2615Y6539D01*
X2617Y6540D01*
X2619Y6541D01*
X2622Y6544D01*
X2626Y6547D01*
X2630Y6550D01*
X2635Y6554D01*
X2640Y6559D01*
X2645Y6563D01*
X2651Y6569D01*
X2656Y6575D01*
X2661Y6580D01*
X2665Y6587D01*
X2669Y6594D01*
X2673Y6600D01*
X2676Y6608D01*
Y6608D01*
X2676Y6608D01*
X2676Y6611D01*
X2677Y6614D01*
X2677Y6619D01*
X2677Y6624D01*
X2676Y6630D01*
X2674Y6635D01*
X2672Y6639D01*
X2670Y6642D01*
Y6642D01*
X2670Y6642D01*
X2668Y6644D01*
X2665Y6647D01*
X2663Y6649D01*
X2661Y6651D01*
X2658Y6653D01*
X2655Y6655D01*
X2652Y6657D01*
X2648Y6659D01*
X2643Y6662D01*
X2639Y6664D01*
X2633Y6666D01*
X2628Y6668D01*
X2627D01*
X2626Y6669D01*
X2624Y6669D01*
X2622Y6670D01*
X2619Y6671D01*
X2615Y6672D01*
X2610Y6673D01*
X2605Y6674D01*
X2600Y6675D01*
X2594Y6676D01*
X2587Y6677D01*
X2580Y6677D01*
X2572Y6678D01*
X2564Y6679D01*
X2554Y6679D01*
D02*
G37*
G36*
X650Y6531D02*
X649D01*
X650Y6531D01*
X650Y6531D01*
D02*
G37*
G36*
X1151Y6554D02*
X1149D01*
X1148Y6554D01*
X1145D01*
X1143Y6553D01*
X1137Y6552D01*
X1130Y6550D01*
X1122Y6548D01*
X1114Y6544D01*
X1104Y6539D01*
X1104D01*
X1103Y6538D01*
X1102Y6537D01*
X1100Y6536D01*
X1098Y6535D01*
X1095Y6533D01*
X1089Y6529D01*
X1082Y6524D01*
X1074Y6518D01*
X1066Y6511D01*
X1058Y6503D01*
X1057Y6503D01*
X1057Y6503D01*
X1056Y6501D01*
X1054Y6500D01*
X1051Y6496D01*
X1046Y6492D01*
X1042Y6487D01*
X1037Y6483D01*
X1033Y6478D01*
X1030Y6475D01*
X1031D01*
X1032Y6475D01*
X1034Y6475D01*
X1036Y6476D01*
X1039Y6476D01*
X1042Y6477D01*
X1045Y6477D01*
X1049Y6479D01*
X1053Y6480D01*
X1058Y6481D01*
X1063Y6483D01*
X1069Y6484D01*
X1074Y6486D01*
X1087Y6490D01*
X1087D01*
X1088Y6491D01*
X1090Y6492D01*
X1093Y6492D01*
X1096Y6494D01*
X1100Y6495D01*
X1104Y6497D01*
X1108Y6499D01*
X1117Y6503D01*
X1127Y6507D01*
X1137Y6512D01*
X1147Y6517D01*
X1148D01*
X1148Y6518D01*
X1149Y6519D01*
X1151Y6520D01*
X1155Y6523D01*
X1160Y6525D01*
X1165Y6529D01*
X1169Y6532D01*
X1171Y6534D01*
X1173Y6536D01*
X1174Y6537D01*
X1174Y6539D01*
Y6539D01*
X1175Y6540D01*
Y6541D01*
X1174Y6542D01*
X1174Y6544D01*
X1173Y6546D01*
X1172Y6547D01*
X1170Y6549D01*
X1169Y6550D01*
X1169Y6550D01*
X1167Y6551D01*
X1165Y6552D01*
X1162Y6552D01*
X1159Y6553D01*
X1156Y6554D01*
X1151Y6554D01*
D02*
G37*
%LPD*%
D47*
X293Y-8661D02*
D03*
X-298Y-8661D02*
D03*
X293Y8661D02*
D03*
X-298D02*
D03*
D48*
X4821Y9072D02*
D03*
X3002Y9825D02*
D03*
X-4825Y-9072D02*
D03*
X-3007Y-9825D02*
D03*
D49*
X5122Y9800D02*
D03*
X4519Y8345D02*
D03*
X2701Y9098D02*
D03*
X3303Y10553D02*
D03*
X-5127Y-9800D02*
D03*
X-4524Y-8345D02*
D03*
X-2705Y-9098D02*
D03*
X-3308Y-10553D02*
D03*
D50*
X9070Y-4823D02*
D03*
X9823Y-3004D02*
D03*
X-9075Y4823D02*
D03*
X-9828Y3004D02*
D03*
D51*
X9797Y-5124D02*
D03*
X8342Y-4522D02*
D03*
X9096Y-2703D02*
D03*
X10551Y-3306D02*
D03*
X-9802Y5124D02*
D03*
X-8347Y4522D02*
D03*
X-9100Y2703D02*
D03*
X-10555Y3306D02*
D03*
D52*
X7938Y6548D02*
D03*
X6546Y7940D02*
D03*
X-7942Y-6548D02*
D03*
X-6550Y-7940D02*
D03*
D53*
X8494Y7105D02*
D03*
X7381Y5991D02*
D03*
X5989Y7383D02*
D03*
X7103Y8497D02*
D03*
X-8499Y-7105D02*
D03*
X-7386Y-5991D02*
D03*
X-5994Y-7383D02*
D03*
X-7107Y-8497D02*
D03*
D54*
X6546Y-7940D02*
D03*
X7938Y-6548D02*
D03*
X-6550Y7940D02*
D03*
X-7942Y6548D02*
D03*
D55*
X7103Y-8497D02*
D03*
X5989Y-7383D02*
D03*
X7381Y-5991D02*
D03*
X8494Y-7105D02*
D03*
X-7107Y8497D02*
D03*
X-5994Y7383D02*
D03*
X-7386Y5991D02*
D03*
X-8499Y7105D02*
D03*
D56*
X9823Y3004D02*
D03*
X9070Y4823D02*
D03*
X-9828Y-3004D02*
D03*
X-9075Y-4823D02*
D03*
D57*
X10551Y3306D02*
D03*
X9096Y2703D02*
D03*
X8342Y4522D02*
D03*
X9797Y5124D02*
D03*
X-10555Y-3306D02*
D03*
X-9100Y-2703D02*
D03*
X-8347Y-4522D02*
D03*
X-9802Y-5124D02*
D03*
D58*
X3002Y-9825D02*
D03*
X4821Y-9072D02*
D03*
X-3007Y9825D02*
D03*
X-4825Y9072D02*
D03*
D59*
X3303Y-10553D02*
D03*
X2701Y-9098D02*
D03*
X4519Y-8345D02*
D03*
X5122Y-9800D02*
D03*
X-3308Y10553D02*
D03*
X-2705Y9098D02*
D03*
X-4524Y8345D02*
D03*
X-5127Y9800D02*
D03*
D60*
X10234Y-984D02*
D03*
Y984D02*
D03*
X-10239D02*
D03*
Y-984D02*
D03*
D61*
X11021Y-984D02*
D03*
X9446Y-984D02*
D03*
X9446Y984D02*
D03*
X11021Y984D02*
D03*
X-11026Y984D02*
D03*
X-9451Y984D02*
D03*
Y-984D02*
D03*
X-11026Y-984D02*
D03*
D62*
X-987Y-10236D02*
D03*
X982Y-10236D02*
D03*
X982Y10236D02*
D03*
X-987Y10236D02*
D03*
D63*
X-987Y-11024D02*
D03*
Y-9449D02*
D03*
X982D02*
D03*
X982Y-11024D02*
D03*
X982Y11024D02*
D03*
X982Y9449D02*
D03*
X-987Y9449D02*
D03*
X-987Y11024D02*
D03*
D64*
X8659Y-295D02*
D03*
X8659Y295D02*
D03*
X-8664Y295D02*
D03*
X-8664Y-295D02*
D03*
D65*
X155Y-1535D02*
D03*
X-160Y-1535D02*
D03*
D66*
X-1411Y631D02*
D03*
X-1253Y904D02*
D03*
D67*
X1249Y904D02*
D03*
X1406Y631D02*
D03*
D68*
X-750Y-2264D02*
D03*
Y-2461D02*
D03*
Y-2657D02*
D03*
Y-2854D02*
D03*
Y-3051D02*
D03*
X-750Y-3248D02*
D03*
X746D02*
D03*
X746Y-3051D02*
D03*
Y-2854D02*
D03*
X746Y-2657D02*
D03*
X746Y-2461D02*
D03*
X746Y-2264D02*
D03*
D69*
X-494Y-3504D02*
D03*
X-298Y-3504D02*
D03*
X-101Y-3504D02*
D03*
X96Y-3504D02*
D03*
X293Y-3504D02*
D03*
X490Y-3504D02*
D03*
Y-2008D02*
D03*
X293Y-2008D02*
D03*
X96Y-2008D02*
D03*
X-101Y-2008D02*
D03*
X-298Y-2008D02*
D03*
X-494Y-2008D02*
D03*
D70*
X-2Y-2756D02*
D03*
D71*
X-1589Y1780D02*
D03*
X-1759Y1878D02*
D03*
X-1930Y1977D02*
D03*
X-2100Y2075D02*
D03*
X-2271Y2173D02*
D03*
X-2441Y2272D02*
D03*
X-3189Y976D02*
D03*
X-3019Y878D02*
D03*
X-2848Y779D02*
D03*
X-2678Y681D02*
D03*
X-2507Y582D02*
D03*
X-2337Y484D02*
D03*
D72*
X-2791Y2178D02*
D03*
X-2889Y2008D02*
D03*
X-2988Y1837D02*
D03*
X-3086Y1667D02*
D03*
X-3184Y1496D02*
D03*
X-3283Y1326D02*
D03*
X-1987Y578D02*
D03*
X-1889Y748D02*
D03*
X-1790Y919D02*
D03*
X-1692Y1089D02*
D03*
X-1594Y1260D02*
D03*
X-1495Y1430D02*
D03*
D73*
X-2389Y1378D02*
D03*
D74*
X2332Y484D02*
D03*
X2503Y582D02*
D03*
X2673Y681D02*
D03*
X2844Y779D02*
D03*
X3014Y878D02*
D03*
X3185Y976D02*
D03*
X2437Y2272D02*
D03*
X2266Y2173D02*
D03*
X2096Y2075D02*
D03*
X1925Y1977D02*
D03*
X1755Y1878D02*
D03*
X1584Y1780D02*
D03*
D75*
X3278Y1326D02*
D03*
X3180Y1496D02*
D03*
X3081Y1667D02*
D03*
X2983Y1837D02*
D03*
X2885Y2008D02*
D03*
X2786Y2178D02*
D03*
X1490Y1430D02*
D03*
X1589Y1260D02*
D03*
X1687Y1089D02*
D03*
X1786Y919D02*
D03*
X1884Y748D02*
D03*
X1983Y578D02*
D03*
D76*
X2384Y1378D02*
D03*
D77*
X-180Y-1063D02*
D03*
X175Y-1063D02*
D03*
D78*
X-834Y685D02*
D03*
X-1011Y378D02*
D03*
D79*
X1007Y378D02*
D03*
X830Y685D02*
D03*
D80*
X1181Y5118D02*
D03*
X-1181D02*
D03*
D81*
X-219Y-2539D02*
D03*
X214Y-2539D02*
D03*
X-219Y-2972D02*
D03*
X214Y-2972D02*
D03*
X-2093Y1457D02*
D03*
X-2310Y1082D02*
D03*
X-2468Y1674D02*
D03*
X-2685Y1299D02*
D03*
X2305Y1082D02*
D03*
X2089Y1457D02*
D03*
X2680Y1299D02*
D03*
X2464Y1674D02*
D03*
M02*
