G04*
G04 #@! TF.GenerationSoftware,Altium Limited,Altium Designer,20.2.6 (244)*
G04*
G04 Layer_Color=65535*
%FSLAX24Y24*%
%MOIN*%
G70*
G04*
G04 #@! TF.SameCoordinates,8D7CF149-CDE5-45B4-86FF-19C455488765*
G04*
G04*
G04 #@! TF.FilePolarity,Positive*
G04*
G01*
G75*
%ADD10C,0.0394*%
%ADD11C,0.0098*%
%ADD12C,0.0079*%
%ADD13C,0.0080*%
D10*
X2544Y11073D02*
G03*
X2544Y11073I-71J0D01*
G01*
X11141Y-2476D02*
G03*
X11141Y-2476I-71J0D01*
G01*
X-2407Y-11073D02*
G03*
X-2407Y-11073I-71J0D01*
G01*
X-11004Y2476D02*
G03*
X-11004Y2476I-71J0D01*
G01*
X6605Y9295D02*
G03*
X6605Y9295I-71J0D01*
G01*
X9363Y-6537D02*
G03*
X9363Y-6537I-71J0D01*
G01*
X-6469Y-9295D02*
G03*
X-6469Y-9295I-71J0D01*
G01*
X-9226Y6537D02*
G03*
X-9226Y6537I-71J0D01*
G01*
X9649Y6079D02*
G03*
X9649Y6079I-71J0D01*
G01*
X6147Y-9580D02*
G03*
X6147Y-9580I-71J0D01*
G01*
X-9512Y-6079D02*
G03*
X-9512Y-6079I-71J0D01*
G01*
X-6011Y9580D02*
G03*
X-6011Y9580I-71J0D01*
G01*
X11255Y1950D02*
G03*
X11255Y1950I-71J0D01*
G01*
X2018Y-11186D02*
G03*
X2018Y-11186I-71J0D01*
G01*
X-11118Y-1950D02*
G03*
X-11118Y-1950I-71J0D01*
G01*
X-1882Y11186D02*
G03*
X-1882Y11186I-71J0D01*
G01*
D11*
X-1055Y-1969D02*
G03*
X-1055Y-1969I-49J0D01*
G01*
X-1107Y1939D02*
G03*
X-1107Y1939I-49J0D01*
G01*
X2303Y30D02*
G03*
X2303Y30I-49J0D01*
G01*
D12*
X549Y-8937D02*
Y-8386D01*
X-554Y-8937D02*
Y-8386D01*
X549D01*
X-554Y-8937D02*
X549D01*
X8383Y-551D02*
X8935D01*
X8383D02*
X8383Y551D01*
X8935Y551D01*
X8935Y-551D01*
X-8939Y551D02*
X-8388Y551D01*
X-8388Y-551D02*
X-8388Y551D01*
X-8939Y-551D02*
X-8388Y-551D01*
X-8939Y551D02*
X-8939Y-551D01*
X549Y8386D02*
Y8937D01*
X-554Y8386D02*
X549Y8386D01*
X-554Y8386D02*
X-554Y8937D01*
X549Y8937D01*
X-337Y-1339D02*
X332D01*
Y-1732D02*
Y-1339D01*
X-337Y-1732D02*
X332Y-1732D01*
X-337Y-1339D02*
X-337Y-1732D01*
X-1329Y379D02*
X-994Y959D01*
X-1670Y576D02*
X-1329Y379D01*
X-1670Y576D02*
X-1335Y1156D01*
X-994Y959D01*
X990D02*
X1324Y379D01*
X990Y959D02*
X1331Y1156D01*
X1665Y576D01*
X1324Y379D02*
X1665Y576D01*
X-849Y-2057D02*
Y-1909D01*
X-701D01*
X696Y-1909D02*
X844Y-1909D01*
X844Y-2057D02*
X844Y-1909D01*
X844Y-3602D02*
X844Y-3455D01*
X696Y-3602D02*
X844Y-3602D01*
X-849Y-3602D02*
X-849Y-3455D01*
X-849Y-3602D02*
X-701Y-3602D01*
X-1361Y1762D02*
X-1233Y1688D01*
X-1307Y1560D02*
X-1233Y1688D01*
X-2079Y222D02*
X-2005Y350D01*
X-2207Y295D02*
X-2079Y222D01*
X-3545Y1068D02*
X-3417Y994D01*
X-3545Y1068D02*
X-3471Y1196D01*
X-2699Y2534D02*
X-2571Y2460D01*
X-2773Y2406D02*
X-2699Y2534D01*
X2075Y222D02*
X2202Y295D01*
X2001Y350D02*
X2075Y222D01*
X1228Y1688D02*
X1302Y1560D01*
X1228Y1688D02*
X1356Y1762D01*
X2566Y2460D02*
X2694Y2534D01*
X2768Y2406D01*
X3413Y994D02*
X3541Y1068D01*
X3467Y1196D02*
X3541Y1068D01*
X-435Y-827D02*
X431Y-827D01*
Y-1299D02*
Y-827D01*
X-435Y-1299D02*
X431Y-1299D01*
X-435Y-1299D02*
Y-827D01*
X-935Y38D02*
X-502Y788D01*
X-1344Y275D02*
X-935Y38D01*
X-1344Y275D02*
X-911Y1025D01*
X-502Y788D01*
X497Y788D02*
X930Y38D01*
X497Y788D02*
X906Y1025D01*
X1339Y275D01*
X930Y38D02*
X1339Y275D01*
D13*
X3009Y8578D02*
X3933Y8195D01*
X3890Y10703D02*
X4813Y10320D01*
X8193Y-3936D02*
X8575Y-3012D01*
X10318Y-4816D02*
X10700Y-3892D01*
X-3938Y-8195D02*
X-3014Y-8578D01*
X-4818Y-10320D02*
X-3894Y-10703D01*
X-8580Y3012D02*
X-8197Y3936D01*
X-10705Y3892D02*
X-10322Y4816D01*
X6075Y6784D02*
X6782Y6077D01*
X7701Y8411D02*
X8408Y7704D01*
X6075Y-6784D02*
X6782Y-6077D01*
X7701Y-8411D02*
X8408Y-7704D01*
X-6787Y-6077D02*
X-6080Y-6784D01*
X-8413Y-7704D02*
X-7706Y-8411D01*
X-6787Y6077D02*
X-6080Y6784D01*
X-8413Y7704D02*
X-7706Y8411D01*
X8193Y3936D02*
X8575Y3012D01*
X10318Y4816D02*
X10700Y3892D01*
X3009Y-8578D02*
X3933Y-8195D01*
X3890Y-10703D02*
X4813Y-10320D01*
X-8580Y-3012D02*
X-8197Y-3936D01*
X-10705Y-3892D02*
X-10322Y-4816D01*
X-3938Y8195D02*
X-3014Y8578D01*
X-4818Y10320D02*
X-3894Y10703D01*
X9084Y-500D02*
Y500D01*
X11384Y500D02*
X11384Y-500D01*
X-502Y-9086D02*
X498D01*
X-502Y-11386D02*
X498Y-11386D01*
X-9089Y-500D02*
Y500D01*
X-11389Y-500D02*
X-11389Y500D01*
X-502Y9086D02*
X498Y9086D01*
X-502Y11386D02*
X498Y11386D01*
M02*
