G04*
G04 #@! TF.GenerationSoftware,Altium Limited,Altium Designer,18.1.6 (161)*
G04*
G04 Layer_Physical_Order=2*
G04 Layer_Color=16711680*
%FSLAX24Y24*%
%MOIN*%
G70*
G01*
G75*
%ADD83C,0.0100*%
%ADD86C,0.0177*%
%ADD87C,0.0300*%
%ADD88C,0.0394*%
%ADD89C,0.0197*%
%ADD90C,0.0300*%
%ADD91C,0.0200*%
%ADD92C,0.0100*%
%ADD93R,0.0236X0.0906*%
G36*
X331Y11811D02*
X993Y11774D01*
X1652Y11700D01*
X2305Y11589D01*
X2951Y11441D01*
X3588Y11258D01*
X4214Y11039D01*
X4826Y10785D01*
X5423Y10498D01*
X6003Y10177D01*
X6564Y9824D01*
X7105Y9441D01*
X7623Y9028D01*
X8117Y8586D01*
X8586Y8117D01*
X9028Y7623D01*
X9441Y7105D01*
X9824Y6564D01*
X10177Y6003D01*
X10498Y5423D01*
X10785Y4826D01*
X11039Y4214D01*
X11258Y3588D01*
X11441Y2951D01*
X11589Y2305D01*
X11700Y1652D01*
X11774Y993D01*
X11811Y331D01*
Y-0D01*
X11811Y-331D01*
X11774Y-993D01*
X11700Y-1652D01*
X11589Y-2305D01*
X11441Y-2951D01*
X11258Y-3588D01*
X11039Y-4214D01*
X10785Y-4826D01*
X10498Y-5423D01*
X10177Y-6003D01*
X9824Y-6564D01*
X9441Y-7105D01*
X9028Y-7623D01*
X8586Y-8117D01*
X8117Y-8586D01*
X7623Y-9028D01*
X7105Y-9441D01*
X6564Y-9824D01*
X6003Y-10177D01*
X5423Y-10498D01*
X4826Y-10785D01*
X4214Y-11039D01*
X3588Y-11258D01*
X2951Y-11441D01*
X2305Y-11589D01*
X1652Y-11700D01*
X993Y-11774D01*
X331Y-11811D01*
X-331D01*
X-993Y-11774D01*
X-1652Y-11700D01*
X-2305Y-11589D01*
X-2951Y-11441D01*
X-3588Y-11258D01*
X-4214Y-11039D01*
X-4826Y-10785D01*
X-5423Y-10498D01*
X-6003Y-10177D01*
X-6564Y-9824D01*
X-7105Y-9441D01*
X-7623Y-9028D01*
X-8117Y-8586D01*
X-8586Y-8117D01*
X-9028Y-7623D01*
X-9441Y-7105D01*
X-9824Y-6564D01*
X-10177Y-6003D01*
X-10498Y-5423D01*
X-10785Y-4826D01*
X-11039Y-4214D01*
X-11258Y-3588D01*
X-11441Y-2951D01*
X-11589Y-2305D01*
X-11700Y-1652D01*
X-11774Y-993D01*
X-11811Y-331D01*
Y0D01*
Y331D01*
X-11774Y993D01*
X-11700Y1652D01*
X-11589Y2305D01*
X-11441Y2951D01*
X-11258Y3588D01*
X-11039Y4214D01*
X-10785Y4826D01*
X-10498Y5423D01*
X-10177Y6003D01*
X-9824Y6564D01*
X-9441Y7105D01*
X-9028Y7623D01*
X-8586Y8117D01*
X-8117Y8586D01*
X-7623Y9028D01*
X-7105Y9441D01*
X-6564Y9824D01*
X-6003Y10177D01*
X-5423Y10498D01*
X-4826Y10785D01*
X-4214Y11039D01*
X-3588Y11258D01*
X-2951Y11441D01*
X-2305Y11589D01*
X-1652Y11700D01*
X-993Y11774D01*
X-331Y11811D01*
X0D01*
X331Y11811D01*
D02*
G37*
%LPC*%
G36*
X276Y9897D02*
X-276D01*
X-278Y9896D01*
X-279Y9897D01*
X-831Y9866D01*
X-832Y9865D01*
X-834Y9865D01*
X-1382Y9803D01*
X-1384Y9803D01*
X-1385Y9803D01*
X-1930Y9711D01*
X-1931Y9710D01*
X-1933Y9710D01*
X-2471Y9587D01*
X-2473Y9586D01*
X-2474Y9586D01*
X-3005Y9433D01*
X-3006Y9432D01*
X-3008Y9432D01*
X-3529Y9250D01*
X-3531Y9249D01*
X-3532D01*
X-4042Y9038D01*
X-4044Y9036D01*
X-4045Y9036D01*
X-4543Y8797D01*
X-4544Y8796D01*
X-4545Y8795D01*
X-5029Y8528D01*
X-5030Y8527D01*
X-5031Y8527D01*
X-5499Y8233D01*
X-5500Y8231D01*
X-5502Y8231D01*
X-5952Y7912D01*
X-5953Y7910D01*
X-5955Y7910D01*
X-6386Y7565D01*
X-6387Y7564D01*
X-6389Y7563D01*
X-6801Y7195D01*
X-6801Y7194D01*
X-6803Y7193D01*
X-7193Y6803D01*
X-7194Y6801D01*
X-7195Y6801D01*
X-7563Y6389D01*
X-7564Y6387D01*
X-7565Y6386D01*
X-7910Y5955D01*
X-7910Y5953D01*
X-7912Y5952D01*
X-8231Y5502D01*
X-8231Y5500D01*
X-8233Y5499D01*
X-8527Y5031D01*
X-8527Y5030D01*
X-8528Y5029D01*
X-8795Y4545D01*
X-8796Y4544D01*
X-8797Y4543D01*
X-9036Y4045D01*
X-9036Y4044D01*
X-9038Y4042D01*
X-9249Y3532D01*
Y3531D01*
X-9250Y3529D01*
X-9432Y3008D01*
X-9432Y3006D01*
X-9433Y3005D01*
X-9586Y2474D01*
X-9586Y2473D01*
X-9587Y2471D01*
X-9710Y1933D01*
X-9710Y1931D01*
X-9711Y1930D01*
X-9803Y1385D01*
X-9803Y1384D01*
X-9803Y1382D01*
X-9865Y834D01*
X-9865Y832D01*
X-9866Y831D01*
X-9897Y279D01*
X-9896Y278D01*
X-9897Y276D01*
Y0D01*
Y-276D01*
X-9896Y-278D01*
X-9897Y-279D01*
X-9866Y-831D01*
X-9865Y-832D01*
X-9865Y-834D01*
X-9803Y-1382D01*
X-9803Y-1384D01*
X-9803Y-1385D01*
X-9711Y-1930D01*
X-9710Y-1931D01*
X-9710Y-1933D01*
X-9587Y-2471D01*
X-9586Y-2473D01*
X-9586Y-2474D01*
X-9433Y-3005D01*
X-9432Y-3006D01*
X-9432Y-3008D01*
X-9250Y-3529D01*
X-9249Y-3531D01*
Y-3532D01*
X-9038Y-4042D01*
X-9036Y-4044D01*
X-9036Y-4045D01*
X-8797Y-4543D01*
X-8796Y-4544D01*
X-8795Y-4545D01*
X-8528Y-5029D01*
X-8527Y-5030D01*
X-8527Y-5031D01*
X-8233Y-5499D01*
X-8231Y-5500D01*
X-8231Y-5502D01*
X-7912Y-5952D01*
X-7910Y-5953D01*
X-7910Y-5955D01*
X-7565Y-6386D01*
X-7564Y-6387D01*
X-7563Y-6389D01*
X-7195Y-6801D01*
X-7194Y-6801D01*
X-7193Y-6803D01*
X-6803Y-7193D01*
X-6801Y-7194D01*
X-6801Y-7195D01*
X-6389Y-7563D01*
X-6387Y-7564D01*
X-6386Y-7565D01*
X-5955Y-7910D01*
X-5953Y-7910D01*
X-5952Y-7912D01*
X-5502Y-8231D01*
X-5500Y-8231D01*
X-5499Y-8233D01*
X-5031Y-8527D01*
X-5030Y-8527D01*
X-5029Y-8528D01*
X-4545Y-8795D01*
X-4544Y-8796D01*
X-4543Y-8797D01*
X-4045Y-9036D01*
X-4044Y-9036D01*
X-4042Y-9038D01*
X-3532Y-9249D01*
X-3531D01*
X-3529Y-9250D01*
X-3008Y-9432D01*
X-3006Y-9432D01*
X-3005Y-9433D01*
X-2474Y-9586D01*
X-2473Y-9586D01*
X-2471Y-9587D01*
X-1933Y-9710D01*
X-1931Y-9710D01*
X-1930Y-9711D01*
X-1385Y-9803D01*
X-1384Y-9803D01*
X-1382Y-9803D01*
X-834Y-9865D01*
X-832Y-9865D01*
X-831Y-9866D01*
X-279Y-9897D01*
X-278Y-9896D01*
X-276Y-9897D01*
X276D01*
X278Y-9896D01*
X279Y-9897D01*
X831Y-9866D01*
X832Y-9865D01*
X834Y-9865D01*
X1382Y-9803D01*
X1384Y-9803D01*
X1385Y-9803D01*
X1930Y-9711D01*
X1931Y-9710D01*
X1933Y-9710D01*
X2471Y-9587D01*
X2473Y-9586D01*
X2474Y-9586D01*
X3005Y-9433D01*
X3006Y-9432D01*
X3008Y-9432D01*
X3529Y-9250D01*
X3531Y-9249D01*
X3532D01*
X4042Y-9038D01*
X4044Y-9036D01*
X4045Y-9036D01*
X4543Y-8797D01*
X4544Y-8796D01*
X4545Y-8795D01*
X5029Y-8528D01*
X5030Y-8527D01*
X5031Y-8527D01*
X5499Y-8233D01*
X5500Y-8231D01*
X5502Y-8231D01*
X5952Y-7912D01*
X5953Y-7910D01*
X5955Y-7910D01*
X6386Y-7565D01*
X6387Y-7564D01*
X6389Y-7563D01*
X6801Y-7195D01*
X6801Y-7194D01*
X6803Y-7193D01*
X7193Y-6803D01*
X7194Y-6801D01*
X7195Y-6801D01*
X7563Y-6389D01*
X7564Y-6387D01*
X7565Y-6386D01*
X7910Y-5955D01*
X7910Y-5953D01*
X7912Y-5952D01*
X8231Y-5502D01*
X8231Y-5500D01*
X8233Y-5499D01*
X8527Y-5031D01*
X8527Y-5030D01*
X8528Y-5029D01*
X8795Y-4545D01*
X8796Y-4544D01*
X8797Y-4543D01*
X9036Y-4045D01*
X9036Y-4044D01*
X9038Y-4042D01*
X9249Y-3532D01*
Y-3531D01*
X9250Y-3529D01*
X9432Y-3008D01*
X9432Y-3006D01*
X9433Y-3005D01*
X9586Y-2474D01*
X9586Y-2473D01*
X9587Y-2471D01*
X9710Y-1933D01*
X9710Y-1931D01*
X9711Y-1930D01*
X9803Y-1385D01*
X9803Y-1384D01*
X9803Y-1382D01*
X9865Y-834D01*
X9865Y-832D01*
X9866Y-831D01*
X9882Y-539D01*
X9882Y-538D01*
X9882Y-537D01*
X9875Y-518D01*
X9868Y-499D01*
X9868Y-499D01*
X9867Y-498D01*
X9833Y-462D01*
X9832Y-462D01*
X9832Y-461D01*
X9813Y-453D01*
X9795Y-445D01*
X9794Y-445D01*
X9794Y-445D01*
X4135D01*
X4135Y-445D01*
X3991Y-431D01*
X3856Y-390D01*
X3732Y-323D01*
X3620Y-232D01*
X3620Y-232D01*
X3309Y80D01*
X3304Y82D01*
X3304Y82D01*
X3298Y91D01*
X3249Y123D01*
X3239Y125D01*
X3230Y131D01*
X3172Y143D01*
X3162Y141D01*
X3162Y141D01*
X3157Y143D01*
X2849D01*
X2830Y146D01*
X2822Y145D01*
X2813Y147D01*
X2802Y141D01*
X2790Y138D01*
X2785Y131D01*
X2777Y127D01*
X2766Y112D01*
X2763Y102D01*
X2756Y94D01*
X2757Y83D01*
X2754Y72D01*
X2760Y63D01*
X2761Y53D01*
X2777Y23D01*
X2732Y-6D01*
X2702Y-52D01*
X2691Y-106D01*
X2702Y-160D01*
X2715Y-180D01*
X2717Y-190D01*
X2719Y-193D01*
X2720Y-195D01*
X2721Y-198D01*
X2723Y-203D01*
X2724Y-210D01*
X2725Y-218D01*
X2728Y-255D01*
X2728Y-269D01*
X2730Y-274D01*
Y-714D01*
X2730Y-715D01*
X2730Y-764D01*
X2727Y-812D01*
X2714Y-939D01*
X2663Y-1108D01*
X2580Y-1263D01*
X2499Y-1362D01*
X2467Y-1399D01*
X2467Y-1399D01*
X2387Y-1479D01*
X2337Y-1475D01*
X2335Y-1472D01*
X2320Y-1463D01*
X2307Y-1452D01*
X2303Y-1453D01*
X2299Y-1450D01*
X2283Y-1455D01*
X2266Y-1456D01*
X2175Y-1505D01*
X2021Y-1551D01*
X1862Y-1567D01*
X1860Y-1566D01*
X1742D01*
X1739Y-1567D01*
X1616Y-1551D01*
X1500Y-1503D01*
X1402Y-1428D01*
X1316Y-1323D01*
X1264Y-1224D01*
X1252Y-1215D01*
X1244Y-1204D01*
X1237Y-1203D01*
X1231Y-1198D01*
X1217Y-1200D01*
X1203Y-1197D01*
X1166Y-1169D01*
Y-363D01*
X830D01*
Y-1307D01*
X827Y-1312D01*
X828Y-1315D01*
X827Y-1318D01*
X830Y-1325D01*
Y-1369D01*
X804Y-1408D01*
X764Y-1436D01*
X733Y-1481D01*
X723Y-1535D01*
X733Y-1590D01*
X735Y-1593D01*
X695Y-1622D01*
X683Y-1608D01*
X651Y-1567D01*
X613Y-1473D01*
X606Y-1420D01*
X605Y-1419D01*
X649Y-1369D01*
X666D01*
Y-363D01*
X330D01*
Y-1369D01*
X346D01*
X395Y-1372D01*
X406Y-1488D01*
X412Y-1506D01*
X368Y-1535D01*
X320Y-1496D01*
X188Y-1425D01*
X45Y-1382D01*
X-80Y-1370D01*
X-80Y-1369D01*
X-110Y-1337D01*
X-113Y-1333D01*
X-116Y-1319D01*
Y-393D01*
X-112Y-383D01*
X-104Y-365D01*
X-104Y-363D01*
X-104Y-363D01*
X-104Y-363D01*
X-103Y-315D01*
X-103Y-314D01*
X-103Y-313D01*
X-105Y-310D01*
X-104Y-306D01*
X-110Y-259D01*
X-111Y-257D01*
X-111Y-255D01*
X-113Y-241D01*
X-119Y-232D01*
X-122Y-222D01*
X-157Y-169D01*
X-165Y-163D01*
X-171Y-154D01*
X-224Y-119D01*
X-234Y-117D01*
X-243Y-111D01*
X-303Y-99D01*
X-311Y-101D01*
X-316Y-99D01*
X-689D01*
X-690Y-99D01*
X-796Y-85D01*
X-895Y-44D01*
X-981Y21D01*
X-1046Y107D01*
X-1088Y207D01*
X-1101Y304D01*
X-1108Y318D01*
X-1113Y332D01*
X-1118Y335D01*
X-1121Y340D01*
X-1136Y344D01*
X-1150Y351D01*
X-1178Y392D01*
X-1171Y413D01*
X-1159Y538D01*
X-1160D01*
Y1221D01*
X-1160Y1221D01*
X-1160D01*
X-1150Y1272D01*
X-1121Y1315D01*
X-1082Y1343D01*
X-1042Y1370D01*
X-953Y1388D01*
X-948Y1387D01*
X-935D01*
X-888Y1369D01*
Y397D01*
X-894Y383D01*
X-902Y364D01*
X-902Y313D01*
X-901Y309D01*
X-903Y299D01*
X-891Y241D01*
X-885Y232D01*
X-883Y222D01*
X-848Y169D01*
X-839Y163D01*
X-833Y154D01*
X-781Y119D01*
X-770Y117D01*
X-761Y111D01*
X-702Y99D01*
X-694Y101D01*
X-689Y99D01*
X-316D01*
X-315Y99D01*
X-209Y85D01*
X-109Y44D01*
X-24Y-21D01*
X13Y-70D01*
X24Y-76D01*
X31Y-85D01*
X72Y-107D01*
X87Y-108D01*
X101Y-113D01*
X150Y-109D01*
X153Y-107D01*
X156Y-108D01*
X163Y-107D01*
X1016D01*
X1017Y-107D01*
X1121Y-120D01*
X1218Y-161D01*
X1300Y-224D01*
X1355Y-295D01*
X1389Y-376D01*
X1400Y-464D01*
Y-948D01*
X1402Y-952D01*
X1400Y-960D01*
X1414Y-1065D01*
X1417Y-1071D01*
Y-1078D01*
X1460Y-1181D01*
X1465Y-1186D01*
X1467Y-1193D01*
X1531Y-1277D01*
X1535Y-1279D01*
X1537Y-1282D01*
X1542Y-1285D01*
X1544Y-1289D01*
X1548Y-1292D01*
X1548Y-1292D01*
X1552Y-1297D01*
X1622Y-1344D01*
X1633Y-1346D01*
X1642Y-1352D01*
X1725Y-1369D01*
X1735Y-1367D01*
X1738Y-1367D01*
X1742Y-1369D01*
X1745D01*
X1746Y-1369D01*
X1747Y-1369D01*
X1855D01*
X1858Y-1369D01*
X1867Y-1368D01*
X1876Y-1370D01*
X2016Y-1351D01*
X2022Y-1348D01*
X2029D01*
X2168Y-1290D01*
X2173Y-1285D01*
X2180Y-1283D01*
X2292Y-1197D01*
X2296Y-1191D01*
X2297Y-1191D01*
X2298Y-1189D01*
X2304Y-1185D01*
X2307Y-1181D01*
X2308Y-1180D01*
X2382Y-1091D01*
X2383Y-1085D01*
X2388Y-1082D01*
X2443Y-977D01*
X2444Y-972D01*
X2447Y-967D01*
X2482Y-854D01*
X2481Y-849D01*
X2484Y-844D01*
X2495Y-729D01*
X2494Y-724D01*
X2495Y-721D01*
Y-19D01*
X2494Y-18D01*
X2509Y99D01*
X2555Y208D01*
X2624Y299D01*
X2691Y350D01*
X2697Y353D01*
X2708Y364D01*
X2721Y373D01*
X2738Y398D01*
X2786Y430D01*
X2849Y442D01*
X3157D01*
X3157Y443D01*
X3290Y425D01*
X3414Y374D01*
X3520Y292D01*
X3521Y291D01*
X3521Y291D01*
X3831Y-19D01*
X3831Y-19D01*
X3832Y-20D01*
X3835Y-22D01*
X3838Y-24D01*
X3839Y-24D01*
X3843Y-32D01*
X3915Y-87D01*
X3922Y-89D01*
X3927Y-94D01*
X4016Y-131D01*
X4023D01*
X4029Y-135D01*
X4118Y-146D01*
X4127Y-144D01*
X4129Y-144D01*
X4132Y-145D01*
X4135D01*
X4136Y-146D01*
X4137Y-145D01*
X4413D01*
X4426Y-140D01*
X4438Y-145D01*
X9434D01*
X9446Y-140D01*
X9459Y-145D01*
X9843D01*
X9881Y-130D01*
X9897Y-91D01*
Y276D01*
X9896Y278D01*
X9897Y279D01*
X9866Y831D01*
X9865Y832D01*
X9865Y834D01*
X9803Y1382D01*
X9803Y1384D01*
X9803Y1385D01*
X9711Y1930D01*
X9710Y1931D01*
X9710Y1933D01*
X9587Y2471D01*
X9586Y2473D01*
X9586Y2474D01*
X9433Y3005D01*
X9432Y3006D01*
X9432Y3008D01*
X9250Y3529D01*
X9249Y3531D01*
Y3532D01*
X9038Y4042D01*
X9036Y4044D01*
X9036Y4045D01*
X8797Y4543D01*
X8796Y4544D01*
X8795Y4545D01*
X8528Y5029D01*
X8527Y5030D01*
X8527Y5031D01*
X8233Y5499D01*
X8231Y5500D01*
X8231Y5502D01*
X7912Y5952D01*
X7910Y5953D01*
X7910Y5955D01*
X7565Y6386D01*
X7564Y6387D01*
X7563Y6389D01*
X7195Y6801D01*
X7194Y6801D01*
X7193Y6803D01*
X7015Y6981D01*
X6997Y6988D01*
X6988Y6992D01*
X6984Y7001D01*
X6977Y7019D01*
X6803Y7193D01*
X6801Y7194D01*
X6801Y7195D01*
X6389Y7563D01*
X6387Y7564D01*
X6386Y7565D01*
X5955Y7910D01*
X5953Y7910D01*
X5952Y7912D01*
X5502Y8231D01*
X5500Y8231D01*
X5499Y8233D01*
X5031Y8527D01*
X5030Y8527D01*
X5029Y8528D01*
X4545Y8795D01*
X4544Y8796D01*
X4543Y8797D01*
X4045Y9036D01*
X4044Y9036D01*
X4042Y9038D01*
X3532Y9249D01*
X3531D01*
X3529Y9250D01*
X3008Y9432D01*
X3006Y9432D01*
X3005Y9433D01*
X2474Y9586D01*
X2473Y9586D01*
X2471Y9587D01*
X1933Y9710D01*
X1931Y9710D01*
X1930Y9711D01*
X1385Y9803D01*
X1384Y9803D01*
X1382Y9803D01*
X834Y9865D01*
X832Y9865D01*
X831Y9866D01*
X279Y9897D01*
X278Y9896D01*
X276Y9897D01*
D02*
G37*
%LPD*%
G36*
X3415Y8916D02*
X3401Y8911D01*
X3389Y8907D01*
X3378Y8901D01*
X3368Y8895D01*
X3359Y8889D01*
X3351Y8882D01*
X3345Y8874D01*
X3339Y8866D01*
X3335Y8858D01*
X3332Y8849D01*
X3256Y8960D01*
X3349Y8999D01*
X3415Y8916D01*
D02*
G37*
G36*
X1563Y8867D02*
X1566Y8859D01*
X1571Y8851D01*
X1576Y8843D01*
X1583Y8835D01*
X1591Y8826D01*
X1599Y8818D01*
X1609Y8809D01*
X1633Y8793D01*
X1564Y8718D01*
X1550Y8728D01*
X1488Y8765D01*
X1481Y8767D01*
X1476Y8769D01*
X1472Y8770D01*
X1561Y8875D01*
X1563Y8867D01*
D02*
G37*
G36*
X828Y9812D02*
X1376Y9750D01*
X1921Y9657D01*
X2459Y9534D01*
X2990Y9381D01*
X3511Y9199D01*
X4022Y8988D01*
X4519Y8748D01*
X5003Y8481D01*
X5470Y8187D01*
X5921Y7867D01*
X6353Y7523D01*
X6764Y7155D01*
X6939Y6981D01*
X6905Y6944D01*
X6905Y6944D01*
X6831Y7004D01*
X6725Y7061D01*
X6725Y7060D01*
X6715Y7062D01*
X6668Y7082D01*
X6552Y7097D01*
X6550Y7098D01*
X6455Y7097D01*
X6407Y7107D01*
X6353Y7096D01*
X6307Y7066D01*
X6276Y7020D01*
X6265Y6966D01*
X6276Y6912D01*
X6307Y6866D01*
X6334Y6848D01*
X6319Y6798D01*
X4690Y6798D01*
X4685Y6800D01*
X4657Y6801D01*
X4635Y6803D01*
X4626Y6804D01*
X4619Y6806D01*
X4614Y6807D01*
X4611Y6808D01*
X4609Y6809D01*
X4606Y6811D01*
X4596Y6813D01*
X4576Y6826D01*
X4522Y6837D01*
X4468Y6826D01*
X4422Y6796D01*
X4420Y6792D01*
X4370Y6807D01*
Y8012D01*
X4372D01*
X4358Y8185D01*
X4318Y8353D01*
X4251Y8513D01*
X4161Y8661D01*
X4048Y8792D01*
X4047Y8791D01*
X3937Y8902D01*
X3938Y8902D01*
X3845Y8979D01*
X3739Y9035D01*
X3624Y9070D01*
X3504Y9082D01*
Y9083D01*
X3383Y9067D01*
X3339Y9049D01*
X3328Y9049D01*
X3241Y9012D01*
X3192Y9003D01*
X3146Y8972D01*
X3116Y8926D01*
X3105Y8872D01*
X3116Y8818D01*
X3146Y8772D01*
X3168Y8758D01*
X3153Y8708D01*
X2134Y8708D01*
X2133Y8708D01*
X2084Y8708D01*
X2035Y8712D01*
X1935Y8722D01*
X1793Y8765D01*
X1670Y8830D01*
X1669Y8832D01*
X1666Y8834D01*
X1664Y8836D01*
X1643Y8852D01*
X1635Y8858D01*
X1629Y8864D01*
X1624Y8870D01*
X1620Y8875D01*
X1617Y8879D01*
X1615Y8882D01*
X1615Y8884D01*
X1613Y8889D01*
X1608Y8896D01*
X1605Y8912D01*
X1574Y8958D01*
X1528Y8989D01*
X1474Y9000D01*
X1420Y8989D01*
X1374Y8958D01*
X1344Y8912D01*
X1333Y8858D01*
X1344Y8804D01*
X1374Y8758D01*
X1420Y8728D01*
X1457Y8720D01*
X1460Y8717D01*
X1463Y8716D01*
X1464Y8716D01*
X1521Y8682D01*
X1534Y8673D01*
X1536Y8673D01*
X1547Y8664D01*
X1714Y8575D01*
X1895Y8520D01*
X2084Y8501D01*
Y8504D01*
X3196Y8504D01*
X3246Y8502D01*
Y8502D01*
X3348Y8516D01*
X3442Y8555D01*
X3486Y8588D01*
X3524Y8618D01*
X3524Y8618D01*
X3524Y8619D01*
X3573Y8628D01*
X3619Y8659D01*
X3650Y8705D01*
X3660Y8759D01*
X3654Y8791D01*
X3695Y8828D01*
X3709Y8823D01*
X3792Y8759D01*
X3793Y8758D01*
X3903Y8647D01*
X3907Y8645D01*
X4016Y8512D01*
X4099Y8356D01*
X4150Y8188D01*
X4163Y8061D01*
X4166Y8012D01*
X4166D01*
Y6641D01*
X4166D01*
X4176Y6562D01*
X4207Y6487D01*
X4256Y6423D01*
X4255Y6423D01*
X4346Y6353D01*
X4452Y6309D01*
X4566Y6294D01*
Y6294D01*
X4615Y6291D01*
X4673Y6279D01*
X4746Y6230D01*
X4748Y6227D01*
X4751Y6225D01*
X4798Y6155D01*
X4815Y6072D01*
X4814Y6068D01*
Y3095D01*
X4814Y3095D01*
X4813D01*
X4826Y2922D01*
X4867Y2754D01*
X4933Y2594D01*
X5023Y2446D01*
X5136Y2315D01*
X5137Y2316D01*
X5686Y1767D01*
X5688Y1762D01*
X5708Y1741D01*
X5722Y1724D01*
X5727Y1717D01*
X5731Y1711D01*
X5733Y1706D01*
X5735Y1703D01*
X5735Y1701D01*
X5736Y1698D01*
X5742Y1689D01*
X5747Y1666D01*
X5777Y1620D01*
X5823Y1589D01*
X5877Y1579D01*
X5931Y1589D01*
X5942Y1597D01*
X5989Y1568D01*
X5980Y1501D01*
X5922Y1361D01*
X5911Y1346D01*
X5909Y1345D01*
X5908Y1343D01*
X5906Y1340D01*
X5903Y1338D01*
X5896Y1327D01*
X5889Y1318D01*
X5883Y1311D01*
X5877Y1304D01*
X5872Y1299D01*
X5867Y1296D01*
X5863Y1293D01*
X5860Y1292D01*
X5858Y1291D01*
X5853Y1290D01*
X5845Y1284D01*
X5826Y1280D01*
X5781Y1250D01*
X5750Y1204D01*
X5739Y1150D01*
X5750Y1096D01*
X5781Y1050D01*
X5826Y1019D01*
X5880Y1008D01*
X5934Y1019D01*
X5980Y1050D01*
X6011Y1096D01*
X6017Y1127D01*
X6018Y1127D01*
X6057Y1194D01*
X6066Y1207D01*
X6067Y1210D01*
X6071Y1215D01*
X6144Y1351D01*
X6189Y1498D01*
X6199Y1604D01*
X6204Y1652D01*
X6204D01*
X6204Y1652D01*
X6200Y1700D01*
X6190Y1825D01*
X6149Y1994D01*
X6083Y2154D01*
X5993Y2301D01*
X5880Y2433D01*
X5879Y2432D01*
X5481Y2830D01*
X5481Y2830D01*
X5481Y2830D01*
X5449Y2868D01*
X5368Y2966D01*
X5285Y3121D01*
X5234Y3290D01*
X5217Y3461D01*
X5218Y3465D01*
Y5423D01*
X5218D01*
X5228Y5501D01*
X5259Y5574D01*
X5307Y5636D01*
D01*
X5342Y5663D01*
X5348Y5667D01*
X5381Y5689D01*
X5465Y5706D01*
X5468Y5705D01*
X6650D01*
Y5703D01*
X6764Y5718D01*
X6870Y5762D01*
X6961Y5832D01*
X6960Y5833D01*
X7017Y5907D01*
X7053Y5993D01*
X7065Y6085D01*
X7064D01*
X7064Y6690D01*
X7064Y6690D01*
X7056Y6729D01*
X7057Y6729D01*
X7000Y6835D01*
X6940Y6909D01*
X6940Y6909D01*
X6949Y6918D01*
X6977Y6943D01*
X7155Y6764D01*
X7523Y6353D01*
X7867Y5921D01*
X8187Y5470D01*
X8481Y5003D01*
X8748Y4519D01*
X8988Y4022D01*
X9199Y3511D01*
X9381Y2990D01*
X9534Y2459D01*
X9657Y1921D01*
X9750Y1376D01*
X9812Y828D01*
X9843Y276D01*
Y-91D01*
X9459D01*
X9454Y-41D01*
X9501Y-32D01*
X9546Y-1D01*
X9577Y44D01*
X9588Y98D01*
X9577Y152D01*
X9546Y198D01*
X9517Y218D01*
X9515Y221D01*
X9515Y271D01*
X9517Y274D01*
X9546Y294D01*
X9577Y340D01*
X9588Y394D01*
X9577Y448D01*
X9546Y494D01*
X9501Y524D01*
X9446Y535D01*
X9392Y524D01*
X9373Y511D01*
X9363Y509D01*
X9360Y507D01*
X9358Y506D01*
X9355Y505D01*
X9349Y503D01*
X9342Y502D01*
X9335Y501D01*
X9298Y498D01*
X9284Y498D01*
X9279Y496D01*
X5845D01*
X5839Y498D01*
X5794Y497D01*
X5744Y498D01*
D01*
X5711Y496D01*
X5669Y504D01*
X5615Y493D01*
X5569Y462D01*
X5538Y417D01*
X5528Y363D01*
X5538Y309D01*
X5569Y263D01*
X5587Y250D01*
X5572Y200D01*
X4594D01*
X4589Y203D01*
X4560Y203D01*
X4538Y205D01*
X4530Y207D01*
X4523Y208D01*
X4517Y210D01*
X4514Y211D01*
X4513Y212D01*
X4510Y214D01*
X4500Y216D01*
X4480Y229D01*
X4426Y240D01*
X4372Y229D01*
X4326Y198D01*
X4295Y152D01*
X4284Y98D01*
X4295Y44D01*
X4326Y-1D01*
X4372Y-32D01*
X4418Y-41D01*
X4413Y-91D01*
X4132D01*
X4126Y-93D01*
X4036Y-81D01*
X3948Y-44D01*
X3876Y11D01*
X3873Y16D01*
X3559Y330D01*
X3560Y330D01*
X3442Y421D01*
X3304Y478D01*
X3157Y497D01*
Y496D01*
X2843D01*
X2765Y481D01*
X2699Y437D01*
X2676Y403D01*
X2664Y397D01*
X2590Y340D01*
X2589Y341D01*
X2508Y236D01*
X2457Y113D01*
X2439Y-19D01*
X2441D01*
Y-721D01*
X2441Y-723D01*
X2430Y-838D01*
X2396Y-952D01*
X2340Y-1056D01*
X2266Y-1146D01*
X2264Y-1147D01*
X2259Y-1155D01*
X2147Y-1240D01*
X2009Y-1298D01*
X1869Y-1316D01*
X1860Y-1315D01*
X1742D01*
X1735Y-1316D01*
X1652Y-1299D01*
X1582Y-1252D01*
X1578Y-1247D01*
X1574Y-1244D01*
X1510Y-1160D01*
X1467Y-1058D01*
X1453Y-953D01*
X1454Y-948D01*
Y-463D01*
X1455D01*
X1442Y-362D01*
X1402Y-268D01*
X1340Y-187D01*
X1341Y-186D01*
X1246Y-113D01*
X1135Y-67D01*
X1016Y-52D01*
Y-53D01*
X157D01*
X146Y-55D01*
X97Y-59D01*
X56Y-37D01*
X15Y17D01*
X-82Y91D01*
X-195Y138D01*
X-316Y154D01*
Y153D01*
X-689D01*
X-692Y152D01*
X-751Y164D01*
X-803Y199D01*
X-838Y252D01*
X-850Y310D01*
X-848Y313D01*
X-848Y363D01*
X-834D01*
Y1369D01*
X-792Y1387D01*
X-713D01*
X-670Y1369D01*
Y363D01*
X-334D01*
Y1308D01*
X-331Y1314D01*
X-332Y1316D01*
X-331Y1318D01*
X-334Y1325D01*
Y1364D01*
X-317Y1376D01*
X-262Y1387D01*
Y1387D01*
X509Y1387D01*
X548Y1387D01*
X559Y1386D01*
Y1387D01*
X787D01*
X830Y1337D01*
Y363D01*
X1166D01*
Y496D01*
X1215Y520D01*
X1235Y503D01*
X1258Y472D01*
X1262Y465D01*
X1270Y426D01*
X1262Y379D01*
X1243Y351D01*
X1232Y297D01*
X1243Y243D01*
X1273Y197D01*
X1319Y166D01*
X1373Y156D01*
X1427Y166D01*
X1469Y194D01*
X1482Y198D01*
X1524Y193D01*
X1530Y179D01*
X1592Y98D01*
X1674Y35D01*
X1768Y-4D01*
X1870Y-17D01*
Y-16D01*
X1947Y-6D01*
X2018Y23D01*
X2080Y70D01*
X2127Y132D01*
X2156Y203D01*
X2166Y280D01*
X2166D01*
X2166Y280D01*
X2166Y739D01*
X2167Y789D01*
X2167D01*
X2154Y962D01*
X2113Y1130D01*
X2047Y1290D01*
X1957Y1437D01*
X1844Y1569D01*
X1843Y1568D01*
X1687Y1724D01*
X1688Y1725D01*
X1563Y1832D01*
X1422Y1918D01*
X1270Y1981D01*
X1110Y2019D01*
X946Y2032D01*
Y2032D01*
X897Y2036D01*
X842Y2044D01*
X834Y2054D01*
X853Y2109D01*
X878Y2114D01*
X924Y2144D01*
X955Y2190D01*
X966Y2244D01*
X955Y2298D01*
X924Y2344D01*
X878Y2375D01*
X855Y2379D01*
X847Y2385D01*
X843Y2386D01*
X842Y2386D01*
X838Y2388D01*
X833Y2390D01*
X827Y2394D01*
X821Y2399D01*
X793Y2423D01*
X783Y2433D01*
X778Y2435D01*
X639Y2574D01*
X605Y2611D01*
X605Y2611D01*
X475Y2718D01*
X326Y2797D01*
X165Y2846D01*
X-2Y2862D01*
Y2860D01*
X-570D01*
Y2862D01*
X-743Y2848D01*
X-911Y2808D01*
X-1034Y2757D01*
X-1035Y2757D01*
X-1088Y2789D01*
X-1092Y2812D01*
X-1123Y2858D01*
X-1169Y2889D01*
X-1223Y2900D01*
X-1277Y2889D01*
X-1323Y2858D01*
X-1353Y2812D01*
X-1358Y2789D01*
X-1364Y2781D01*
X-1364Y2777D01*
X-1365Y2775D01*
X-1366Y2772D01*
X-1369Y2767D01*
X-1373Y2761D01*
X-1377Y2755D01*
X-1401Y2727D01*
X-1411Y2717D01*
X-1413Y2712D01*
X-1671Y2454D01*
X-1671Y2454D01*
X-1672Y2455D01*
X-1785Y2323D01*
X-1875Y2176D01*
X-1942Y2016D01*
X-1982Y1847D01*
X-1996Y1675D01*
X-1994D01*
X-1994Y1477D01*
X-1994Y1427D01*
X-1998Y1378D01*
X-2010Y1251D01*
X-2061Y1083D01*
X-2144Y927D01*
X-2253Y794D01*
X-2257Y792D01*
X-2266Y783D01*
X-2302Y749D01*
X-2302Y749D01*
X-2415Y617D01*
X-2505Y469D01*
X-2571Y310D01*
X-2612Y141D01*
X-2625Y-31D01*
X-2625D01*
X-2624Y-81D01*
X-2624Y-1239D01*
X-2625D01*
X-2620Y-1310D01*
X-2621Y-1316D01*
X-2618Y-1330D01*
X-2612Y-1412D01*
X-2571Y-1580D01*
X-2505Y-1740D01*
X-2415Y-1888D01*
X-2302Y-2020D01*
X-2301Y-2019D01*
X-2240Y-2079D01*
X-2239Y-2084D01*
X-2219Y-2105D01*
X-2205Y-2122D01*
X-2200Y-2129D01*
X-2196Y-2135D01*
X-2193Y-2140D01*
X-2192Y-2143D01*
X-2191Y-2145D01*
X-2190Y-2148D01*
X-2185Y-2157D01*
X-2180Y-2180D01*
X-2149Y-2226D01*
X-2104Y-2257D01*
X-2068Y-2264D01*
X-2068Y-2264D01*
X-2064Y-2267D01*
X-2061Y-2268D01*
X-2060Y-2268D01*
X-2060Y-2268D01*
X-2058Y-2269D01*
X-2055Y-2271D01*
X-2004Y-2302D01*
X-1991Y-2311D01*
X-1987Y-2312D01*
X-1858Y-2391D01*
X-1707Y-2454D01*
X-1548Y-2492D01*
X-1384Y-2505D01*
Y-2504D01*
X-1384Y-2504D01*
X-678D01*
Y-2505D01*
X-553Y-2492D01*
X-433Y-2456D01*
X-322Y-2397D01*
X-225Y-2317D01*
Y-2317D01*
X-225Y-2316D01*
X-163Y-2269D01*
X-90Y-2239D01*
X-12Y-2228D01*
Y-2228D01*
X1470D01*
Y-2229D01*
X1643Y-2216D01*
X1811Y-2175D01*
X1971Y-2109D01*
X2119Y-2019D01*
X2232Y-1922D01*
X2250Y-1906D01*
X2269Y-1888D01*
X2268Y-1887D01*
X2612Y-1543D01*
X2613Y-1544D01*
X2725Y-1412D01*
X2815Y-1265D01*
X2882Y-1105D01*
X2922Y-936D01*
X2936Y-764D01*
X2934D01*
Y-274D01*
X2936Y-269D01*
X2937Y-241D01*
X2939Y-218D01*
X2941Y-210D01*
X2942Y-203D01*
X2944Y-198D01*
X2945Y-195D01*
X2946Y-193D01*
X2948Y-190D01*
X2950Y-180D01*
X2963Y-160D01*
X2974Y-106D01*
X2963Y-52D01*
X2932Y-6D01*
X2886Y24D01*
X2832Y35D01*
X2808Y79D01*
X2820Y93D01*
X2843Y89D01*
X3157D01*
X3162Y90D01*
X3219Y78D01*
X3268Y46D01*
X3271Y41D01*
X3584Y-272D01*
X3586Y-274D01*
X3702Y-369D01*
X3836Y-440D01*
X3981Y-484D01*
X4130Y-499D01*
X4132Y-499D01*
X9794D01*
X9828Y-536D01*
X9812Y-828D01*
X9750Y-1376D01*
X9657Y-1921D01*
X9534Y-2459D01*
X9381Y-2990D01*
X9199Y-3511D01*
X8988Y-4022D01*
X8748Y-4519D01*
X8481Y-5003D01*
X8187Y-5470D01*
X7867Y-5921D01*
X7523Y-6353D01*
X7155Y-6764D01*
X6764Y-7155D01*
X6353Y-7523D01*
X5921Y-7867D01*
X5470Y-8187D01*
X5003Y-8481D01*
X4519Y-8748D01*
X4022Y-8988D01*
X3511Y-9199D01*
X2990Y-9381D01*
X2459Y-9534D01*
X1921Y-9657D01*
X1376Y-9750D01*
X828Y-9812D01*
X276Y-9843D01*
X-276D01*
X-828Y-9812D01*
X-1376Y-9750D01*
X-1921Y-9657D01*
X-2459Y-9534D01*
X-2990Y-9381D01*
X-3511Y-9199D01*
X-4022Y-8988D01*
X-4519Y-8748D01*
X-5003Y-8481D01*
X-5470Y-8187D01*
X-5921Y-7867D01*
X-6353Y-7523D01*
X-6764Y-7155D01*
X-7155Y-6764D01*
X-7523Y-6353D01*
X-7867Y-5921D01*
X-8187Y-5470D01*
X-8481Y-5003D01*
X-8748Y-4519D01*
X-8988Y-4022D01*
X-9199Y-3511D01*
X-9381Y-2990D01*
X-9534Y-2459D01*
X-9657Y-1921D01*
X-9750Y-1376D01*
X-9812Y-828D01*
X-9843Y-276D01*
Y0D01*
Y276D01*
X-9812Y828D01*
X-9750Y1376D01*
X-9657Y1921D01*
X-9534Y2459D01*
X-9381Y2990D01*
X-9199Y3511D01*
X-8988Y4022D01*
X-8748Y4519D01*
X-8481Y5003D01*
X-8187Y5470D01*
X-7867Y5921D01*
X-7523Y6353D01*
X-7155Y6764D01*
X-6764Y7155D01*
X-6353Y7523D01*
X-5921Y7867D01*
X-5470Y8187D01*
X-5003Y8481D01*
X-4519Y8748D01*
X-4022Y8988D01*
X-3511Y9199D01*
X-2990Y9381D01*
X-2459Y9534D01*
X-1921Y9657D01*
X-1376Y9750D01*
X-828Y9812D01*
X-276Y9843D01*
X276D01*
X828Y9812D01*
D02*
G37*
G36*
X6579Y6942D02*
X6565Y6943D01*
X6552Y6943D01*
X6539Y6942D01*
X6528Y6941D01*
X6517Y6938D01*
X6507Y6935D01*
X6498Y6930D01*
X6490Y6925D01*
X6483Y6919D01*
X6477Y6912D01*
X6449Y7043D01*
X6550Y7043D01*
X6579Y6942D01*
D02*
G37*
G36*
X4582Y6762D02*
X4589Y6759D01*
X4597Y6756D01*
X4606Y6753D01*
X4616Y6751D01*
X4628Y6749D01*
X4654Y6747D01*
X4684Y6746D01*
Y6646D01*
X4668Y6646D01*
X4628Y6643D01*
X4616Y6641D01*
X4606Y6639D01*
X4597Y6636D01*
X4589Y6633D01*
X4582Y6629D01*
X4576Y6626D01*
Y6766D01*
X4582Y6762D01*
D02*
G37*
G36*
X6844Y6699D02*
X6860Y6662D01*
X6860Y6085D01*
X6860D01*
X6848Y6027D01*
X6815Y5978D01*
X6777Y5950D01*
X6740Y5925D01*
X6654Y5908D01*
X6650Y5909D01*
X5468D01*
Y5911D01*
X5357Y5896D01*
X5253Y5853D01*
X5198Y5811D01*
X5160Y5782D01*
X5160Y5782D01*
X5160Y5782D01*
X5080Y5677D01*
X5068Y5649D01*
X5018Y5659D01*
Y6068D01*
X5018Y6068D01*
X5020D01*
X5005Y6180D01*
X4962Y6283D01*
X4894Y6373D01*
X4894Y6373D01*
X4803Y6442D01*
X4697Y6486D01*
X4583Y6501D01*
Y6501D01*
X4534Y6504D01*
X4521Y6507D01*
X4522Y6554D01*
X4576Y6565D01*
X4596Y6579D01*
X4606Y6580D01*
X4609Y6582D01*
X4611Y6583D01*
X4614Y6585D01*
X4619Y6586D01*
X4626Y6588D01*
X4634Y6589D01*
X4671Y6592D01*
X4685Y6592D01*
X4690Y6594D01*
X6418Y6594D01*
X6468Y6593D01*
Y6593D01*
X6548Y6604D01*
X6589Y6621D01*
X6615Y6616D01*
X6669Y6626D01*
X6715Y6657D01*
X6746Y6703D01*
X6753Y6736D01*
X6805Y6750D01*
X6844Y6699D01*
D02*
G37*
G36*
X-1211Y2670D02*
X-1218Y2669D01*
X-1226Y2667D01*
X-1233Y2663D01*
X-1242Y2659D01*
X-1250Y2653D01*
X-1260Y2646D01*
X-1280Y2629D01*
X-1302Y2609D01*
X-1373Y2679D01*
X-1362Y2691D01*
X-1335Y2721D01*
X-1328Y2731D01*
X-1323Y2739D01*
X-1318Y2748D01*
X-1314Y2756D01*
X-1312Y2763D01*
X-1311Y2770D01*
X-1211Y2670D01*
D02*
G37*
G36*
X757Y2383D02*
X788Y2356D01*
X797Y2350D01*
X806Y2344D01*
X814Y2339D01*
X822Y2336D01*
X829Y2333D01*
X836Y2332D01*
X737Y2233D01*
X735Y2239D01*
X733Y2247D01*
X729Y2255D01*
X725Y2263D01*
X719Y2272D01*
X712Y2281D01*
X696Y2301D01*
X675Y2323D01*
X745Y2394D01*
X757Y2383D01*
D02*
G37*
G36*
X-666Y2129D02*
X-659Y2125D01*
X-651Y2122D01*
X-642Y2120D01*
X-632Y2117D01*
X-621Y2116D01*
X-595Y2113D01*
X-564Y2112D01*
Y2012D01*
X-580Y2012D01*
X-621Y2009D01*
X-632Y2007D01*
X-642Y2005D01*
X-651Y2003D01*
X-659Y1999D01*
X-666Y1996D01*
X-672Y1992D01*
Y2133D01*
X-666Y2129D01*
D02*
G37*
G36*
X5085Y3081D02*
X5133Y2964D01*
X5223Y2817D01*
X5336Y2685D01*
X5337Y2686D01*
X5735Y2288D01*
X5739Y2285D01*
X5848Y2152D01*
X5931Y1997D01*
X5964Y1889D01*
X5948Y1871D01*
X5923Y1852D01*
X5908Y1855D01*
X5899Y1861D01*
X5896Y1861D01*
X5894Y1862D01*
X5891Y1863D01*
X5886Y1866D01*
X5880Y1870D01*
X5874Y1875D01*
X5846Y1898D01*
X5836Y1908D01*
X5831Y1910D01*
X5281Y2460D01*
X5277Y2462D01*
X5168Y2595D01*
X5085Y2751D01*
X5034Y2920D01*
X5022Y3046D01*
X5018Y3095D01*
X5023Y3099D01*
X5085Y3081D01*
D02*
G37*
G36*
X-849Y1923D02*
X-844Y1911D01*
X-838Y1900D01*
X-831Y1890D01*
X-824Y1881D01*
X-817Y1874D01*
X-809Y1867D01*
X-801Y1862D01*
X-793Y1858D01*
X-784Y1855D01*
X-894Y1777D01*
X-895Y1778D01*
X-896Y1781D01*
X-935Y1870D01*
X-855Y1936D01*
X-849Y1923D01*
D02*
G37*
G36*
X5809Y1859D02*
X5840Y1832D01*
X5849Y1825D01*
X5858Y1820D01*
X5867Y1815D01*
X5874Y1812D01*
X5882Y1809D01*
X5888Y1808D01*
X5789Y1708D01*
X5788Y1715D01*
X5785Y1723D01*
X5782Y1730D01*
X5777Y1739D01*
X5772Y1747D01*
X5765Y1757D01*
X5748Y1777D01*
X5727Y1799D01*
X5798Y1870D01*
X5809Y1859D01*
D02*
G37*
G36*
X-1000Y2266D02*
X-1019Y2221D01*
X-1030Y2142D01*
X-1030D01*
X-1029Y2142D01*
X-1029Y2061D01*
X-1031Y2061D01*
X-1014Y1928D01*
X-985Y1859D01*
X-985Y1848D01*
X-946Y1760D01*
X-945Y1759D01*
X-937Y1715D01*
X-906Y1670D01*
X-863Y1641D01*
X-862Y1637D01*
X-887Y1591D01*
X-948D01*
Y1593D01*
X-1065Y1578D01*
X-1173Y1533D01*
X-1267Y1461D01*
X-1266Y1460D01*
X-1320Y1390D01*
X-1354Y1309D01*
X-1365Y1221D01*
X-1364Y1221D01*
X-1364Y1221D01*
Y571D01*
X-1412Y549D01*
X-1423Y556D01*
X-1425Y575D01*
X-1425Y589D01*
X-1427Y594D01*
X-1427Y1513D01*
X-1427Y1514D01*
X-1427Y1563D01*
X-1423Y1612D01*
X-1411Y1739D01*
X-1360Y1907D01*
X-1277Y2063D01*
X-1196Y2161D01*
X-1164Y2198D01*
X-1129Y2233D01*
X-1053Y2309D01*
X-1036Y2312D01*
X-1000Y2266D01*
D02*
G37*
G36*
X-400Y1382D02*
X-406Y1370D01*
X-411Y1359D01*
X-413Y1349D01*
X-414Y1341D01*
X-414Y1334D01*
X-411Y1328D01*
X-407Y1323D01*
X-402Y1320D01*
X-394Y1318D01*
X-385Y1318D01*
X-606Y1317D01*
X-596Y1317D01*
X-586Y1320D01*
X-576Y1325D01*
X-566Y1331D01*
X-556Y1340D01*
X-546Y1350D01*
X-536Y1362D01*
X-526Y1376D01*
X-516Y1392D01*
X-506Y1409D01*
X-400Y1382D01*
D02*
G37*
G36*
X6022Y1238D02*
X6012Y1223D01*
X5971Y1155D01*
X5970Y1150D01*
X5969Y1146D01*
X5865Y1237D01*
X5874Y1239D01*
X5882Y1242D01*
X5890Y1246D01*
X5899Y1252D01*
X5907Y1258D01*
X5915Y1266D01*
X5923Y1275D01*
X5932Y1285D01*
X5940Y1296D01*
X5948Y1308D01*
X6022Y1238D01*
D02*
G37*
G36*
X1429Y954D02*
X1431Y949D01*
X1433Y943D01*
X1437Y935D01*
X1447Y917D01*
X1470Y880D01*
X1480Y866D01*
X1405Y798D01*
X1396Y810D01*
X1380Y831D01*
X1372Y840D01*
X1363Y848D01*
X1355Y854D01*
X1347Y860D01*
X1339Y864D01*
X1331Y868D01*
X1323Y870D01*
X1428Y959D01*
X1429Y954D01*
D02*
G37*
G36*
X1114Y790D02*
X1117Y780D01*
X1122Y771D01*
X1129Y761D01*
X1137Y752D01*
X1148Y743D01*
X1160Y735D01*
X1174Y726D01*
X1190Y718D01*
X1208Y710D01*
X1205Y597D01*
X1187Y604D01*
X1172Y609D01*
X1158Y612D01*
X1146Y613D01*
X1136Y613D01*
X1128Y611D01*
X1122Y607D01*
X1117Y601D01*
X1114Y594D01*
X1113Y584D01*
Y800D01*
X1114Y790D01*
D02*
G37*
G36*
X-1479Y573D02*
X-1476Y532D01*
X-1474Y521D01*
X-1472Y511D01*
X-1469Y501D01*
X-1466Y494D01*
X-1463Y487D01*
X-1459Y481D01*
X-1599D01*
X-1595Y487D01*
X-1592Y494D01*
X-1589Y501D01*
X-1586Y511D01*
X-1584Y521D01*
X-1582Y532D01*
X-1580Y558D01*
X-1579Y588D01*
X-1479D01*
X-1479Y573D01*
D02*
G37*
G36*
X1901Y443D02*
X1904Y402D01*
X1906Y391D01*
X1908Y381D01*
X1910Y372D01*
X1913Y364D01*
X1917Y357D01*
X1921Y351D01*
X1780D01*
X1784Y357D01*
X1788Y364D01*
X1791Y372D01*
X1793Y381D01*
X1795Y391D01*
X1797Y402D01*
X1800Y428D01*
X1800Y459D01*
X1900D01*
X1901Y443D01*
D02*
G37*
G36*
X9392Y323D02*
X9387Y327D01*
X9380Y331D01*
X9372Y334D01*
X9363Y336D01*
X9352Y339D01*
X9341Y340D01*
X9315Y343D01*
X9285Y344D01*
Y444D01*
X9301Y444D01*
X9341Y447D01*
X9352Y449D01*
X9363Y451D01*
X9372Y454D01*
X9380Y457D01*
X9387Y460D01*
X9392Y464D01*
Y323D01*
D02*
G37*
G36*
X5844Y344D02*
X5828Y343D01*
X5800Y341D01*
X5789Y339D01*
X5778Y336D01*
X5768Y333D01*
X5760Y330D01*
X5753Y325D01*
X5748Y320D01*
X5744Y315D01*
X5709Y441D01*
X5840Y444D01*
X5844Y344D01*
D02*
G37*
G36*
X9283Y290D02*
X9312Y289D01*
X9334Y287D01*
X9342Y285D01*
X9349Y284D01*
X9355Y282D01*
X9358Y281D01*
X9360Y280D01*
X9363Y278D01*
X9373Y276D01*
X9376Y274D01*
X9378Y271D01*
X9378Y221D01*
X9376Y218D01*
X9373Y216D01*
X9363Y214D01*
X9360Y212D01*
X9358Y211D01*
X9355Y210D01*
X9349Y208D01*
X9342Y207D01*
X9335Y205D01*
X9298Y203D01*
X9284Y203D01*
X9279Y200D01*
X5766D01*
X5750Y250D01*
X5769Y263D01*
X5778Y277D01*
X5782Y279D01*
X5784Y280D01*
X5785Y281D01*
X5786Y281D01*
X5787Y282D01*
X5788Y283D01*
X5793Y284D01*
X5799Y286D01*
X5807Y287D01*
X5831Y289D01*
X5845Y290D01*
X5845Y290D01*
X5846Y290D01*
X5851Y292D01*
X9279D01*
X9283Y290D01*
D02*
G37*
G36*
X-2188Y187D02*
X-2191Y172D01*
X-2196Y146D01*
X-2196Y134D01*
X-2197Y123D01*
X-2196Y112D01*
X-2194Y103D01*
X-2192Y94D01*
X-2188Y85D01*
X-2184Y78D01*
X-2321Y92D01*
X-2319Y95D01*
X-2316Y100D01*
X-2314Y106D01*
X-2311Y113D01*
X-2301Y146D01*
X-2289Y193D01*
X-2188Y187D01*
D02*
G37*
G36*
X9392Y28D02*
X9387Y32D01*
X9380Y36D01*
X9372Y39D01*
X9363Y41D01*
X9352Y43D01*
X9341Y45D01*
X9315Y48D01*
X9285Y48D01*
X9285Y148D01*
X9301Y149D01*
X9341Y152D01*
X9352Y153D01*
X9363Y156D01*
X9372Y158D01*
X9380Y161D01*
X9387Y165D01*
X9392Y169D01*
Y28D01*
D02*
G37*
G36*
X4485Y165D02*
X4492Y161D01*
X4500Y158D01*
X4509Y156D01*
X4520Y153D01*
X4531Y152D01*
X4557Y149D01*
X4587Y148D01*
Y48D01*
X4572Y48D01*
X4531Y45D01*
X4520Y43D01*
X4509Y41D01*
X4500Y39D01*
X4492Y36D01*
X4485Y32D01*
X4480Y28D01*
Y169D01*
X4485Y165D01*
D02*
G37*
G36*
X9283Y-6D02*
X9312Y-6D01*
X9334Y-9D01*
X9342Y-10D01*
X9349Y-11D01*
X9355Y-13D01*
X9358Y-14D01*
X9360Y-15D01*
X9363Y-17D01*
X9373Y-19D01*
X9392Y-32D01*
X9439Y-41D01*
X9434Y-91D01*
X4438D01*
X4433Y-41D01*
X4480Y-32D01*
X4500Y-19D01*
X4510Y-17D01*
X4513Y-15D01*
X4514Y-14D01*
X4517Y-13D01*
X4523Y-11D01*
X4530Y-10D01*
X4537Y-9D01*
X4574Y-6D01*
X4588Y-6D01*
X4593Y-4D01*
X9279D01*
X9283Y-6D01*
D02*
G37*
G36*
X-2192Y-30D02*
X-2195Y-37D01*
X-2198Y-45D01*
X-2201Y-54D01*
X-2203Y-64D01*
X-2205Y-76D01*
X-2207Y-102D01*
X-2208Y-132D01*
X-2308D01*
X-2308Y-116D01*
X-2312Y-76D01*
X-2313Y-64D01*
X-2316Y-54D01*
X-2318Y-45D01*
X-2321Y-37D01*
X-2325Y-30D01*
X-2328Y-24D01*
X-2188D01*
X-2192Y-30D01*
D02*
G37*
G36*
X-1699Y-42D02*
X-1702Y-49D01*
X-1705Y-57D01*
X-1708Y-66D01*
X-1710Y-76D01*
X-1712Y-88D01*
X-1714Y-114D01*
X-1715Y-144D01*
X-1815D01*
X-1815Y-128D01*
X-1818Y-88D01*
X-1820Y-76D01*
X-1822Y-66D01*
X-1825Y-57D01*
X-1828Y-49D01*
X-1831Y-42D01*
X-1835Y-36D01*
X-1695D01*
X-1699Y-42D01*
D02*
G37*
G36*
X2899Y-166D02*
X2895Y-173D01*
X2892Y-181D01*
X2890Y-190D01*
X2887Y-200D01*
X2886Y-212D01*
X2883Y-238D01*
X2882Y-268D01*
X2782D01*
X2782Y-252D01*
X2779Y-212D01*
X2777Y-200D01*
X2775Y-190D01*
X2772Y-181D01*
X2769Y-173D01*
X2766Y-166D01*
X2762Y-160D01*
X2903D01*
X2899Y-166D01*
D02*
G37*
G36*
X-1154Y297D02*
X-1140Y192D01*
X-1094Y80D01*
X-1019Y-17D01*
X-923Y-91D01*
X-810Y-138D01*
X-689Y-154D01*
Y-153D01*
X-316D01*
X-316Y-153D01*
X-313Y-152D01*
X-254Y-164D01*
X-202Y-199D01*
X-167Y-252D01*
X-164Y-266D01*
X-157Y-313D01*
D01*
X-158Y-362D01*
X-158Y-363D01*
X-170D01*
Y-1327D01*
X-208Y-1360D01*
X-234Y-1356D01*
X-325Y-1319D01*
X-334Y-1312D01*
Y-363D01*
X-670D01*
Y-1261D01*
X-717Y-1280D01*
X-738Y-1259D01*
X-742Y-1256D01*
X-812Y-1165D01*
X-819Y-1153D01*
X-825Y-1141D01*
X-830Y-1130D01*
X-833Y-1121D01*
X-834Y-1113D01*
X-834Y-1111D01*
Y-1102D01*
X-834Y-1101D01*
X-832Y-1093D01*
X-834Y-1083D01*
Y-363D01*
X-1170D01*
Y-1369D01*
X-1015D01*
X-966Y-1370D01*
X-966Y-1370D01*
X-964Y-1370D01*
X-953Y-1370D01*
X-924Y-1377D01*
X-902Y-1385D01*
X-886Y-1401D01*
X-883Y-1404D01*
X-847Y-1438D01*
X-756Y-1529D01*
X-757Y-1530D01*
X-714Y-1566D01*
X-717Y-1628D01*
X-731Y-1637D01*
X-761Y-1683D01*
X-765Y-1700D01*
X-809Y-1709D01*
Y-1709D01*
X-809Y-1709D01*
X-923D01*
X-925Y-1707D01*
X-945Y-1659D01*
X-925Y-1629D01*
X-914Y-1575D01*
X-925Y-1521D01*
X-956Y-1475D01*
X-1002Y-1444D01*
X-1046Y-1435D01*
X-1056Y-1434D01*
X-1095Y-1433D01*
X-1095Y-1433D01*
X-1162Y-1424D01*
X-1172Y-1422D01*
X-1188Y-1416D01*
X-1246Y-1393D01*
X-1308Y-1345D01*
D01*
X-1337Y-1309D01*
X-1341Y-1304D01*
X-1374Y-1260D01*
X-1414Y-1165D01*
X-1421Y-1111D01*
X-1427Y-1063D01*
X-1427Y-1013D01*
X-1427Y-1013D01*
Y-106D01*
X-1426D01*
X-1417Y-36D01*
X-1390Y29D01*
X-1376Y47D01*
X-1347Y85D01*
X-1346Y85D01*
X-1316Y122D01*
X-1267Y182D01*
X-1208Y292D01*
X-1205Y301D01*
X-1154Y297D01*
D02*
G37*
G36*
X-888Y-1094D02*
X-889Y-1107D01*
X-888Y-1120D01*
X-885Y-1134D01*
X-881Y-1149D01*
X-875Y-1164D01*
X-867Y-1179D01*
X-857Y-1195D01*
X-846Y-1211D01*
X-833Y-1228D01*
X-845Y-1366D01*
X-862Y-1346D01*
X-892Y-1316D01*
X-905Y-1306D01*
X-916Y-1299D01*
X-926Y-1296D01*
X-935Y-1296D01*
X-942Y-1300D01*
X-947Y-1307D01*
X-951Y-1318D01*
X-885Y-1082D01*
X-888Y-1094D01*
D02*
G37*
G36*
X1081Y-1318D02*
X1072Y-1320D01*
X1062Y-1325D01*
X1053Y-1332D01*
X1045Y-1341D01*
X1036Y-1351D01*
X1028Y-1364D01*
X1021Y-1378D01*
X1013Y-1395D01*
X1006Y-1413D01*
X966Y-1412D01*
X995Y-1437D01*
X952Y-1530D01*
X843Y-1449D01*
X852Y-1447D01*
X860Y-1443D01*
X868Y-1438D01*
X876Y-1432D01*
X883Y-1424D01*
X890Y-1416D01*
X897Y-1406D01*
X898Y-1404D01*
X902Y-1393D01*
X906Y-1377D01*
X909Y-1363D01*
X910Y-1351D01*
X909Y-1341D01*
X907Y-1332D01*
X903Y-1326D01*
X897Y-1321D01*
X890Y-1319D01*
X881Y-1318D01*
X1091Y-1317D01*
X1081Y-1318D01*
D02*
G37*
G36*
X-1187Y-1474D02*
X-1127Y-1489D01*
X-1115Y-1491D01*
X-1105Y-1492D01*
X-1096Y-1492D01*
X-1089Y-1492D01*
X-1083Y-1490D01*
X-1136Y-1613D01*
X-1139Y-1608D01*
X-1143Y-1604D01*
X-1149Y-1599D01*
X-1156Y-1595D01*
X-1165Y-1590D01*
X-1175Y-1585D01*
X-1200Y-1575D01*
X-1231Y-1565D01*
X-1205Y-1468D01*
X-1187Y-1474D01*
D02*
G37*
G36*
X-661Y-1820D02*
X-717Y-1847D01*
X-780Y-1759D01*
X-769Y-1757D01*
X-741Y-1751D01*
X-735Y-1749D01*
X-729Y-1747D01*
X-725Y-1744D01*
X-722Y-1742D01*
X-720Y-1739D01*
X-719Y-1736D01*
X-661Y-1820D01*
D02*
G37*
G36*
X1271Y-1353D02*
X1362Y-1464D01*
X1361Y-1464D01*
X1472Y-1550D01*
X1602Y-1604D01*
X1742Y-1622D01*
Y-1620D01*
X1860D01*
Y-1622D01*
X2032Y-1605D01*
X2196Y-1555D01*
X2291Y-1504D01*
X2322Y-1545D01*
X2158Y-1708D01*
X2123Y-1743D01*
X2123Y-1743D01*
X2123Y-1743D01*
X2123Y-1743D01*
X2107Y-1759D01*
X2105Y-1761D01*
X2103Y-1765D01*
X1970Y-1874D01*
X1814Y-1957D01*
X1646Y-2008D01*
X1611Y-2011D01*
X1574Y-1980D01*
X1559Y-1864D01*
X1514Y-1756D01*
X1443Y-1664D01*
X1444Y-1663D01*
X1361Y-1607D01*
X1263Y-1588D01*
Y-1591D01*
X1139D01*
Y-1591D01*
X1070Y-1600D01*
X1037Y-1613D01*
X1026Y-1607D01*
X997Y-1576D01*
X1002Y-1551D01*
X1044Y-1459D01*
X1045Y-1451D01*
X1049Y-1440D01*
X1057Y-1432D01*
X1063Y-1415D01*
X1069Y-1402D01*
X1075Y-1391D01*
X1080Y-1383D01*
X1085Y-1377D01*
X1089Y-1373D01*
X1091Y-1371D01*
X1092Y-1371D01*
X1097Y-1370D01*
X1099Y-1369D01*
X1166D01*
Y-1262D01*
X1216Y-1250D01*
X1271Y-1353D01*
D02*
G37*
G36*
X-2117Y-1987D02*
X-2086Y-2014D01*
X-2077Y-2021D01*
X-2068Y-2026D01*
X-2060Y-2031D01*
X-2052Y-2034D01*
X-2045Y-2037D01*
X-2038Y-2038D01*
X-2137Y-2137D01*
X-2139Y-2131D01*
X-2141Y-2123D01*
X-2145Y-2115D01*
X-2149Y-2107D01*
X-2155Y-2098D01*
X-2162Y-2089D01*
X-2178Y-2069D01*
X-2199Y-2047D01*
X-2129Y-1976D01*
X-2117Y-1987D01*
D02*
G37*
G36*
X-1961Y-2117D02*
X-1957Y-2125D01*
X-1953Y-2134D01*
X-1948Y-2142D01*
X-1941Y-2150D01*
X-1933Y-2158D01*
X-1925Y-2167D01*
X-1915Y-2176D01*
X-1892Y-2193D01*
X-1960Y-2267D01*
X-1974Y-2257D01*
X-2028Y-2223D01*
X-2036Y-2220D01*
X-2043Y-2217D01*
X-2048Y-2215D01*
X-2053Y-2215D01*
X-1963Y-2109D01*
X-1961Y-2117D01*
D02*
G37*
%LPC*%
G36*
X-101Y9590D02*
X-155Y9579D01*
X-201Y9549D01*
X-221Y9519D01*
X-224Y9518D01*
X-273Y9518D01*
X-276Y9519D01*
X-296Y9549D01*
X-342Y9579D01*
X-396Y9590D01*
X-450Y9579D01*
X-470Y9566D01*
X-480Y9564D01*
X-483Y9562D01*
X-484Y9561D01*
X-488Y9560D01*
X-493Y9559D01*
X-500Y9557D01*
X-508Y9556D01*
X-544Y9553D01*
X-558Y9553D01*
X-563Y9551D01*
X-769D01*
Y9552D01*
X-942Y9539D01*
X-1110Y9498D01*
X-1270Y9432D01*
X-1418Y9341D01*
X-1549Y9229D01*
X-1548Y9228D01*
X-1548Y9228D01*
X-1751Y9026D01*
X-1788Y8992D01*
X-1788Y8992D01*
X-1861Y8896D01*
X-1878Y8854D01*
X-1886Y8847D01*
X-1922Y8760D01*
X-1950Y8718D01*
X-1961Y8664D01*
X-1950Y8610D01*
X-1919Y8564D01*
X-1873Y8533D01*
X-1819Y8522D01*
X-1765Y8533D01*
X-1720Y8564D01*
X-1689Y8610D01*
X-1678Y8664D01*
X-1689Y8718D01*
X-1693Y8725D01*
X-1694Y8731D01*
X-1696Y8737D01*
X-1697Y8739D01*
X-1698Y8741D01*
X-1698Y8745D01*
X-1698Y8749D01*
X-1697Y8755D01*
X-1695Y8761D01*
X-1692Y8769D01*
X-1688Y8778D01*
X-1683Y8788D01*
X-1663Y8818D01*
X-1610Y8807D01*
X-1609Y8804D01*
X-1579Y8758D01*
X-1533Y8728D01*
X-1479Y8717D01*
X-1425Y8728D01*
X-1405Y8741D01*
X-1395Y8743D01*
X-1392Y8745D01*
X-1390Y8746D01*
X-1387Y8747D01*
X-1382Y8748D01*
X-1375Y8750D01*
X-1367Y8751D01*
X-1330Y8754D01*
X-1316Y8754D01*
X-1311Y8756D01*
X-1106Y8756D01*
Y8755D01*
X-933Y8768D01*
X-765Y8809D01*
X-605Y8875D01*
X-457Y8966D01*
X-325Y9078D01*
X-326Y9079D01*
X-326Y9079D01*
X-147Y9258D01*
X-143Y9260D01*
X-122Y9280D01*
X-104Y9294D01*
X-98Y9299D01*
X-92Y9303D01*
X-87Y9305D01*
X-84Y9307D01*
X-82Y9307D01*
X-79Y9308D01*
X-70Y9314D01*
X-47Y9318D01*
X-1Y9349D01*
X30Y9395D01*
X41Y9449D01*
X30Y9503D01*
X-1Y9549D01*
X-47Y9579D01*
X-101Y9590D01*
D02*
G37*
G36*
X-3706Y8825D02*
X-3760Y8814D01*
X-3806Y8784D01*
X-3836Y8738D01*
X-3843Y8703D01*
X-3846Y8700D01*
X-3891Y8681D01*
X-3895Y8681D01*
X-3924Y8701D01*
X-3979Y8712D01*
X-4033Y8701D01*
X-4078Y8671D01*
X-4109Y8625D01*
X-4114Y8601D01*
X-4119Y8593D01*
X-4120Y8589D01*
X-4121Y8588D01*
X-4122Y8584D01*
X-4125Y8580D01*
X-4129Y8574D01*
X-4133Y8567D01*
X-4157Y8540D01*
X-4167Y8529D01*
X-4169Y8524D01*
X-4547Y8147D01*
X-4548Y8148D01*
X-4660Y8016D01*
X-4751Y7868D01*
X-4817Y7708D01*
X-4858Y7540D01*
X-4863Y7473D01*
X-4868Y7465D01*
X-4871Y7433D01*
X-4874Y7410D01*
X-4878Y7392D01*
X-4879Y7388D01*
X-4880Y7385D01*
X-4881Y7384D01*
X-4881Y7383D01*
X-4882Y7381D01*
X-4882Y7378D01*
X-4883Y7374D01*
X-4898Y7351D01*
X-4909Y7297D01*
X-4898Y7243D01*
X-4868Y7197D01*
X-4822Y7167D01*
X-4768Y7156D01*
X-4714Y7167D01*
X-4682Y7188D01*
X-4636Y7170D01*
X-4632Y7166D01*
X-4632Y6762D01*
X-4634Y6758D01*
X-4635Y6729D01*
X-4637Y6707D01*
X-4638Y6699D01*
X-4640Y6692D01*
X-4641Y6686D01*
X-4642Y6683D01*
X-4643Y6681D01*
X-4645Y6678D01*
X-4647Y6668D01*
X-4660Y6649D01*
X-4671Y6594D01*
X-4660Y6540D01*
X-4630Y6495D01*
X-4584Y6464D01*
X-4530Y6453D01*
X-4476Y6464D01*
X-4430Y6495D01*
X-4399Y6540D01*
X-4389Y6594D01*
X-4399Y6649D01*
X-4413Y6668D01*
X-4415Y6678D01*
X-4417Y6681D01*
X-4417Y6683D01*
X-4419Y6686D01*
X-4420Y6692D01*
X-4422Y6699D01*
X-4423Y6706D01*
X-4426Y6743D01*
X-4426Y6757D01*
X-4428Y6762D01*
X-4428Y7161D01*
X-4428Y7162D01*
X-4428Y7211D01*
X-4424Y7260D01*
X-4412Y7386D01*
X-4361Y7555D01*
X-4278Y7711D01*
X-4169Y7844D01*
X-4165Y7846D01*
X-3799Y8212D01*
X-3799Y8212D01*
X-3798Y8211D01*
X-3715Y8312D01*
X-3653Y8428D01*
X-3632Y8498D01*
X-3626Y8506D01*
X-3621Y8523D01*
X-3606Y8574D01*
X-3601Y8588D01*
X-3600Y8590D01*
X-3599Y8592D01*
X-3598Y8595D01*
X-3575Y8630D01*
X-3564Y8684D01*
X-3575Y8738D01*
X-3606Y8784D01*
X-3652Y8814D01*
X-3706Y8825D01*
D02*
G37*
G36*
X-6759Y6759D02*
X-6813Y6748D01*
X-6859Y6718D01*
X-6890Y6672D01*
X-6901Y6618D01*
X-6894Y6582D01*
X-6895Y6580D01*
X-6930Y6545D01*
X-6933Y6543D01*
X-6968Y6550D01*
X-7022Y6539D01*
X-7068Y6509D01*
X-7099Y6463D01*
X-7109Y6409D01*
X-7099Y6355D01*
X-7068Y6309D01*
X-7022Y6278D01*
X-6971Y6268D01*
X-6864Y6138D01*
X-6781Y5982D01*
X-6729Y5814D01*
X-6717Y5687D01*
X-6713Y5638D01*
X-6713Y5638D01*
X-6713Y5589D01*
Y4666D01*
X-6715Y4661D01*
X-6716Y4632D01*
X-6718Y4610D01*
X-6720Y4602D01*
X-6721Y4595D01*
X-6723Y4589D01*
X-6724Y4586D01*
X-6725Y4585D01*
X-6727Y4582D01*
X-6729Y4572D01*
X-6742Y4552D01*
X-6753Y4498D01*
X-6742Y4444D01*
X-6711Y4398D01*
X-6665Y4367D01*
X-6611Y4356D01*
X-6557Y4367D01*
X-6511Y4398D01*
X-6481Y4444D01*
X-6470Y4498D01*
X-6481Y4552D01*
X-6494Y4572D01*
X-6496Y4582D01*
X-6498Y4585D01*
X-6499Y4586D01*
X-6500Y4589D01*
X-6502Y4595D01*
X-6503Y4602D01*
X-6504Y4609D01*
X-6507Y4646D01*
X-6507Y4660D01*
X-6509Y4665D01*
Y5638D01*
X-6508D01*
X-6508Y5643D01*
X-6459Y5655D01*
X-6451Y5636D01*
X-6375Y5537D01*
X-6375Y5537D01*
X-6257Y5440D01*
X-6123Y5369D01*
X-5978Y5325D01*
X-5826Y5310D01*
X-5826Y5311D01*
X-5584D01*
X-5579Y5309D01*
X-5550Y5309D01*
X-5528Y5306D01*
X-5520Y5305D01*
X-5513Y5304D01*
X-5508Y5302D01*
X-5504Y5301D01*
X-5503Y5300D01*
X-5500Y5298D01*
X-5490Y5296D01*
X-5470Y5283D01*
X-5416Y5272D01*
X-5362Y5283D01*
X-5316Y5313D01*
X-5285Y5359D01*
X-5274Y5413D01*
X-5285Y5467D01*
X-5316Y5513D01*
X-5362Y5544D01*
X-5416Y5555D01*
X-5470Y5544D01*
X-5490Y5531D01*
X-5500Y5529D01*
X-5503Y5527D01*
X-5504Y5526D01*
X-5508Y5525D01*
X-5513Y5523D01*
X-5520Y5522D01*
X-5527Y5520D01*
X-5564Y5518D01*
X-5578Y5518D01*
X-5583Y5515D01*
X-5826D01*
X-5826Y5515D01*
Y5515D01*
X-5875Y5520D01*
X-5974Y5533D01*
X-6112Y5590D01*
X-6192Y5651D01*
X-6229Y5683D01*
X-6272Y5739D01*
X-6299Y5805D01*
X-6309Y5875D01*
X-6308Y5875D01*
X-6308D01*
X-6321Y6040D01*
X-6360Y6201D01*
X-6423Y6355D01*
X-6510Y6496D01*
X-6617Y6622D01*
X-6628Y6667D01*
X-6629Y6672D01*
X-6659Y6718D01*
X-6705Y6748D01*
X-6759Y6759D01*
D02*
G37*
G36*
X5411Y5555D02*
X5357Y5544D01*
X5311Y5513D01*
X5281Y5467D01*
X5270Y5413D01*
X5281Y5359D01*
X5311Y5313D01*
X5357Y5283D01*
X5411Y5272D01*
X5465Y5283D01*
X5485Y5296D01*
X5495Y5298D01*
X5498Y5300D01*
X5499Y5301D01*
X5503Y5302D01*
X5508Y5304D01*
X5515Y5305D01*
X5523Y5306D01*
X5559Y5309D01*
X5573Y5309D01*
X5578Y5311D01*
X7133D01*
X7138Y5312D01*
X7309Y5295D01*
X7477Y5244D01*
X7633Y5161D01*
X7731Y5080D01*
X7768Y5048D01*
X7768Y5048D01*
X7768Y5048D01*
X8567Y4250D01*
X8568Y4249D01*
X8632Y4166D01*
X8638Y4152D01*
X8601Y4111D01*
X8568Y4117D01*
X8514Y4107D01*
X8494Y4093D01*
X8484Y4092D01*
X8481Y4090D01*
X8480Y4089D01*
X8477Y4087D01*
X8471Y4086D01*
X8464Y4084D01*
X8457Y4083D01*
X8420Y4080D01*
X8406Y4080D01*
X8401Y4078D01*
X7421D01*
X7421Y4080D01*
X7248Y4066D01*
X7080Y4026D01*
X6921Y3960D01*
X6773Y3869D01*
X6642Y3757D01*
X6641Y3758D01*
X6534Y3627D01*
X6455Y3479D01*
X6406Y3317D01*
X6390Y3150D01*
X6392D01*
X6392Y1782D01*
X6392Y1781D01*
X6392Y1732D01*
X6388Y1683D01*
X6376Y1556D01*
X6325Y1388D01*
X6241Y1232D01*
X6132Y1099D01*
X6129Y1097D01*
X5970Y938D01*
X5970Y938D01*
X5969Y939D01*
X5913Y895D01*
X5904Y891D01*
X5903Y891D01*
X5899Y889D01*
X5877Y880D01*
X5874Y879D01*
X5868Y878D01*
X5862Y877D01*
X5857Y877D01*
X5854Y877D01*
X5851Y877D01*
X5849Y878D01*
X5844Y881D01*
X5837Y881D01*
X5830Y886D01*
X5776Y897D01*
X5721Y886D01*
X5676Y856D01*
X5645Y810D01*
X5634Y756D01*
X5645Y702D01*
X5676Y656D01*
X5721Y625D01*
X5776Y614D01*
X5830Y625D01*
X5869Y652D01*
X5958Y688D01*
X5966Y695D01*
X6016Y716D01*
X6116Y792D01*
X6114Y794D01*
X6273Y953D01*
X6274Y952D01*
X6386Y1083D01*
X6477Y1231D01*
X6543Y1391D01*
X6584Y1559D01*
X6597Y1732D01*
X6596D01*
X6596Y1732D01*
X6596Y3150D01*
X6596Y3150D01*
X6608Y3277D01*
X6645Y3400D01*
X6706Y3513D01*
X6756Y3575D01*
X6787Y3612D01*
D01*
X6824Y3644D01*
X6922Y3724D01*
X7077Y3807D01*
X7246Y3858D01*
X7372Y3871D01*
X7421Y3874D01*
Y3874D01*
X8400D01*
X8405Y3872D01*
X8434Y3871D01*
X8456Y3869D01*
X8464Y3868D01*
X8471Y3866D01*
X8477Y3865D01*
X8480Y3864D01*
X8481Y3863D01*
X8484Y3861D01*
X8494Y3859D01*
X8514Y3846D01*
X8549Y3839D01*
X8552Y3836D01*
X8571Y3791D01*
X8571Y3787D01*
X8551Y3757D01*
X8540Y3703D01*
X8551Y3649D01*
X8581Y3603D01*
X8627Y3573D01*
X8681Y3562D01*
X8735Y3573D01*
X8781Y3603D01*
X8812Y3649D01*
X8822Y3698D01*
X8858Y3785D01*
X8858Y3796D01*
X8876Y3840D01*
X8892Y3961D01*
X8891D01*
X8879Y4081D01*
X8845Y4196D01*
X8788Y4302D01*
X8712Y4395D01*
X8711Y4394D01*
X7912Y5193D01*
X7913Y5194D01*
X7782Y5306D01*
X7634Y5397D01*
X7474Y5463D01*
X7306Y5503D01*
X7133Y5517D01*
Y5515D01*
X7133Y5515D01*
X5579D01*
X5574Y5517D01*
X5546Y5518D01*
X5523Y5520D01*
X5515Y5522D01*
X5508Y5523D01*
X5503Y5525D01*
X5499Y5526D01*
X5498Y5527D01*
X5495Y5529D01*
X5485Y5531D01*
X5465Y5544D01*
X5411Y5555D01*
D02*
G37*
G36*
X-8761Y3663D02*
X-8815Y3652D01*
X-8861Y3621D01*
X-8892Y3576D01*
X-8903Y3522D01*
X-8892Y3467D01*
X-8872Y3438D01*
X-8872Y3434D01*
X-8891Y3389D01*
X-8893Y3386D01*
X-8928Y3379D01*
X-8974Y3349D01*
X-9005Y3303D01*
X-9016Y3249D01*
X-9005Y3195D01*
X-8974Y3149D01*
X-8928Y3118D01*
X-8905Y3114D01*
X-8897Y3108D01*
X-8893Y3107D01*
X-8891Y3107D01*
X-8888Y3105D01*
X-8883Y3102D01*
X-8877Y3099D01*
X-8871Y3094D01*
X-8843Y3070D01*
X-8833Y3060D01*
X-8828Y3058D01*
X-8240Y2470D01*
X-8237Y2468D01*
X-8158Y2366D01*
X-8113Y2258D01*
X-8114Y2254D01*
X-8111Y2241D01*
X-8108Y2230D01*
X-8107Y2221D01*
X-8106Y2212D01*
X-8106Y2205D01*
X-8106Y2200D01*
X-8107Y2195D01*
X-8108Y2192D01*
X-8109Y2190D01*
X-8111Y2185D01*
X-8112Y2177D01*
X-8120Y2165D01*
X-8131Y2111D01*
X-8120Y2057D01*
X-8089Y2011D01*
X-8043Y1980D01*
X-7989Y1970D01*
X-7935Y1980D01*
X-7889Y2011D01*
X-7864Y2049D01*
X-7830Y2056D01*
X-7808Y2056D01*
X-7799Y2043D01*
Y1870D01*
X-7801D01*
X-7787Y1728D01*
X-7746Y1592D01*
X-7679Y1466D01*
X-7588Y1356D01*
X-7587Y1357D01*
X-7343Y1113D01*
X-7344Y1112D01*
X-7212Y1000D01*
X-7065Y909D01*
X-6905Y843D01*
X-6736Y803D01*
X-6564Y789D01*
Y791D01*
X-5084Y791D01*
X-5080Y788D01*
X-5051Y788D01*
X-5029Y786D01*
X-5021Y784D01*
X-5014Y783D01*
X-5008Y781D01*
X-5005Y780D01*
X-5003Y779D01*
X-5000Y777D01*
X-4990Y775D01*
X-4971Y762D01*
X-4917Y751D01*
X-4862Y762D01*
X-4817Y793D01*
X-4786Y838D01*
X-4775Y893D01*
X-4786Y947D01*
X-4817Y992D01*
X-4862Y1023D01*
X-4917Y1034D01*
X-4971Y1023D01*
X-4990Y1010D01*
X-5000Y1008D01*
X-5003Y1006D01*
X-5005Y1005D01*
X-5008Y1004D01*
X-5014Y1002D01*
X-5021Y1001D01*
X-5028Y1000D01*
X-5065Y997D01*
X-5079Y997D01*
X-5084Y994D01*
X-6564Y994D01*
X-6564Y994D01*
X-6564Y994D01*
X-6612Y998D01*
X-6739Y1010D01*
X-6908Y1062D01*
X-7064Y1145D01*
X-7162Y1226D01*
X-7199Y1258D01*
X-7234Y1293D01*
X-7443Y1502D01*
X-7447Y1504D01*
X-7527Y1609D01*
X-7579Y1735D01*
X-7591Y1822D01*
X-7596Y1870D01*
X-7596Y1870D01*
X-7596Y1919D01*
Y2043D01*
X-7596Y2043D01*
X-7594D01*
X-7608Y2216D01*
X-7648Y2384D01*
X-7714Y2544D01*
X-7805Y2692D01*
X-7917Y2824D01*
X-7918Y2823D01*
X-8571Y3475D01*
X-8572Y3480D01*
X-8592Y3501D01*
X-8606Y3518D01*
X-8611Y3524D01*
X-8615Y3530D01*
X-8618Y3535D01*
X-8619Y3539D01*
X-8620Y3540D01*
X-8620Y3544D01*
X-8626Y3552D01*
X-8631Y3576D01*
X-8661Y3621D01*
X-8707Y3652D01*
X-8761Y3663D01*
D02*
G37*
G36*
X-9451Y43D02*
X-9505Y32D01*
X-9551Y1D01*
X-9582Y-44D01*
X-9592Y-98D01*
X-9582Y-153D01*
X-9551Y-198D01*
X-9521Y-218D01*
X-9520Y-221D01*
Y-271D01*
X-9521Y-274D01*
X-9551Y-294D01*
X-9582Y-340D01*
X-9592Y-394D01*
X-9582Y-448D01*
X-9551Y-494D01*
X-9505Y-524D01*
X-9451Y-535D01*
X-9397Y-524D01*
X-9377Y-511D01*
X-9367Y-509D01*
X-9364Y-507D01*
X-9363Y-506D01*
X-9359Y-505D01*
X-9354Y-503D01*
X-9347Y-502D01*
X-9339Y-501D01*
X-9303Y-498D01*
X-9289Y-498D01*
X-9284Y-496D01*
X-8943D01*
X-8943Y-496D01*
Y-496D01*
X-8894Y-499D01*
X-8768Y-512D01*
X-8599Y-563D01*
X-8443Y-646D01*
X-8310Y-755D01*
X-8308Y-759D01*
X-7853Y-1213D01*
X-7851Y-1218D01*
X-7832Y-1239D01*
X-7818Y-1256D01*
X-7813Y-1263D01*
X-7809Y-1269D01*
X-7806Y-1274D01*
X-7805Y-1277D01*
X-7804Y-1279D01*
X-7803Y-1282D01*
X-7798Y-1291D01*
X-7793Y-1314D01*
X-7762Y-1360D01*
X-7717Y-1391D01*
X-7663Y-1401D01*
X-7608Y-1391D01*
X-7563Y-1360D01*
X-7532Y-1314D01*
X-7521Y-1260D01*
X-7521Y-1259D01*
X-7475Y-1234D01*
X-7391Y-1319D01*
X-7357Y-1355D01*
X-7357Y-1355D01*
X-7225Y-1467D01*
X-7077Y-1558D01*
X-6917Y-1624D01*
X-6749Y-1665D01*
X-6576Y-1678D01*
Y-1677D01*
X-5092D01*
X-5087Y-1679D01*
X-5058Y-1680D01*
X-5036Y-1682D01*
X-5028Y-1683D01*
X-5021Y-1685D01*
X-5015Y-1686D01*
X-5012Y-1687D01*
X-5011Y-1688D01*
X-5008Y-1690D01*
X-4998Y-1692D01*
X-4978Y-1705D01*
X-4924Y-1716D01*
X-4870Y-1705D01*
X-4824Y-1675D01*
X-4793Y-1629D01*
X-4782Y-1575D01*
X-4793Y-1521D01*
X-4824Y-1475D01*
X-4870Y-1444D01*
X-4924Y-1434D01*
X-4978Y-1444D01*
X-4998Y-1458D01*
X-5008Y-1459D01*
X-5011Y-1461D01*
X-5012Y-1462D01*
X-5015Y-1464D01*
X-5021Y-1465D01*
X-5028Y-1467D01*
X-5035Y-1468D01*
X-5072Y-1471D01*
X-5086Y-1471D01*
X-5091Y-1473D01*
X-6527D01*
X-6527Y-1473D01*
X-6576Y-1473D01*
X-6625Y-1469D01*
X-6752Y-1457D01*
X-6920Y-1406D01*
X-7076Y-1323D01*
X-7209Y-1213D01*
X-7211Y-1210D01*
X-8102Y-319D01*
X-8101Y-318D01*
X-8233Y-206D01*
X-8380Y-115D01*
X-8540Y-49D01*
X-8709Y-9D01*
X-8881Y5D01*
Y4D01*
X-9283Y4D01*
X-9288Y6D01*
X-9317Y6D01*
X-9339Y9D01*
X-9347Y10D01*
X-9354Y11D01*
X-9359Y13D01*
X-9363Y14D01*
X-9364Y15D01*
X-9367Y17D01*
X-9377Y19D01*
X-9397Y32D01*
X-9451Y43D01*
D02*
G37*
G36*
X-6496Y-2849D02*
X-6669Y-2863D01*
X-6837Y-2903D01*
X-6997Y-2970D01*
X-7145Y-3060D01*
X-7276Y-3173D01*
X-7275Y-3174D01*
X-7275Y-3174D01*
X-7440Y-3338D01*
X-7443Y-3342D01*
X-7576Y-3451D01*
X-7731Y-3534D01*
X-7900Y-3585D01*
X-8071Y-3602D01*
X-8075Y-3601D01*
X-8518D01*
X-8523Y-3599D01*
X-8551Y-3599D01*
X-8574Y-3596D01*
X-8582Y-3595D01*
X-8589Y-3594D01*
X-8594Y-3592D01*
X-8598Y-3591D01*
X-8599Y-3590D01*
X-8602Y-3588D01*
X-8612Y-3586D01*
X-8632Y-3573D01*
X-8686Y-3562D01*
X-8740Y-3573D01*
X-8786Y-3603D01*
X-8817Y-3649D01*
X-8827Y-3703D01*
X-8817Y-3757D01*
X-8786Y-3803D01*
X-8740Y-3834D01*
X-8705Y-3841D01*
X-8703Y-3843D01*
X-8684Y-3889D01*
X-8684Y-3892D01*
X-8704Y-3922D01*
X-8714Y-3976D01*
X-8704Y-4030D01*
X-8673Y-4076D01*
X-8627Y-4107D01*
X-8573Y-4117D01*
X-8519Y-4107D01*
X-8499Y-4093D01*
X-8489Y-4092D01*
X-8486Y-4090D01*
X-8485Y-4089D01*
X-8481Y-4087D01*
X-8476Y-4086D01*
X-8469Y-4084D01*
X-8461Y-4083D01*
X-8425Y-4080D01*
X-8411Y-4080D01*
X-8406Y-4078D01*
X-8000Y-4078D01*
X-7950Y-4080D01*
Y-4080D01*
X-7778Y-4066D01*
X-7609Y-4026D01*
X-7449Y-3959D01*
X-7302Y-3869D01*
X-7170Y-3756D01*
X-7170Y-3756D01*
X-7136Y-3720D01*
X-6844Y-3428D01*
X-6839Y-3426D01*
X-6818Y-3406D01*
X-6801Y-3392D01*
X-6794Y-3387D01*
X-6788Y-3383D01*
X-6783Y-3381D01*
X-6780Y-3379D01*
X-6778Y-3379D01*
X-6775Y-3378D01*
X-6766Y-3372D01*
X-6743Y-3368D01*
X-6697Y-3337D01*
X-6666Y-3291D01*
X-6656Y-3237D01*
X-6666Y-3183D01*
X-6697Y-3137D01*
X-6704Y-3133D01*
X-6696Y-3078D01*
X-6672Y-3071D01*
X-6501Y-3054D01*
X-6496Y-3055D01*
X-4747D01*
X-4743Y-3054D01*
X-4572Y-3071D01*
X-4403Y-3122D01*
X-4248Y-3205D01*
X-4115Y-3314D01*
X-4112Y-3318D01*
X-4080Y-3350D01*
X-4070Y-3401D01*
X-4039Y-3446D01*
X-3993Y-3477D01*
X-3939Y-3488D01*
X-3885Y-3477D01*
X-3839Y-3446D01*
X-3809Y-3401D01*
X-3798Y-3346D01*
X-3809Y-3292D01*
X-3839Y-3247D01*
X-3885Y-3216D01*
X-3931Y-3207D01*
X-3967Y-3173D01*
X-3967Y-3173D01*
X-4099Y-3060D01*
X-4246Y-2970D01*
X-4406Y-2903D01*
X-4575Y-2863D01*
X-4747Y-2849D01*
Y-2851D01*
X-6496D01*
X-6496Y-2851D01*
Y-2849D01*
D02*
G37*
G36*
X4916Y-1434D02*
X4862Y-1444D01*
X4816Y-1475D01*
X4786Y-1521D01*
X4775Y-1575D01*
X4786Y-1629D01*
X4816Y-1675D01*
X4862Y-1705D01*
X4885Y-1710D01*
X4894Y-1716D01*
X4897Y-1716D01*
X4899Y-1717D01*
X4902Y-1718D01*
X4907Y-1721D01*
X4913Y-1725D01*
X4919Y-1729D01*
X4947Y-1753D01*
X4957Y-1763D01*
X4962Y-1765D01*
X6498Y-3301D01*
X6497Y-3302D01*
X6628Y-3414D01*
X6776Y-3505D01*
X6936Y-3571D01*
X7104Y-3611D01*
X7277Y-3625D01*
Y-3623D01*
X8589Y-3623D01*
X8594Y-3626D01*
X8622Y-3626D01*
X8644Y-3628D01*
X8653Y-3630D01*
X8660Y-3631D01*
X8665Y-3633D01*
X8668Y-3634D01*
X8670Y-3635D01*
X8673Y-3637D01*
X8683Y-3639D01*
X8703Y-3652D01*
X8757Y-3663D01*
X8811Y-3652D01*
X8857Y-3621D01*
X8887Y-3576D01*
X8898Y-3522D01*
X8887Y-3467D01*
X8867Y-3438D01*
X8867Y-3434D01*
X8886Y-3389D01*
X8889Y-3386D01*
X8924Y-3379D01*
X8970Y-3349D01*
X9000Y-3303D01*
X9011Y-3249D01*
X9000Y-3195D01*
X8970Y-3149D01*
X8924Y-3118D01*
X8870Y-3107D01*
X8816Y-3118D01*
X8796Y-3131D01*
X8786Y-3133D01*
X8783Y-3135D01*
X8781Y-3136D01*
X8778Y-3137D01*
X8773Y-3139D01*
X8766Y-3140D01*
X8758Y-3142D01*
X8721Y-3144D01*
X8707Y-3145D01*
X8702Y-3147D01*
X7616Y-3147D01*
X7616Y-3147D01*
X7616Y-3147D01*
X7567Y-3143D01*
X7440Y-3131D01*
X7272Y-3080D01*
X7116Y-2996D01*
X7017Y-2916D01*
X6981Y-2884D01*
X6946Y-2849D01*
X6320Y-2223D01*
X6318Y-2218D01*
X6298Y-2197D01*
X6284Y-2180D01*
X6279Y-2173D01*
X6275Y-2167D01*
X6272Y-2162D01*
X6271Y-2159D01*
X6270Y-2157D01*
X6270Y-2154D01*
X6264Y-2145D01*
X6259Y-2122D01*
X6229Y-2076D01*
X6183Y-2045D01*
X6129Y-2035D01*
X6075Y-2045D01*
X6029Y-2076D01*
X5998Y-2122D01*
X5987Y-2176D01*
X5998Y-2230D01*
X6029Y-2276D01*
X6075Y-2306D01*
X6098Y-2311D01*
X6107Y-2317D01*
X6110Y-2318D01*
X6112Y-2318D01*
X6115Y-2320D01*
X6120Y-2322D01*
X6126Y-2326D01*
X6132Y-2331D01*
X6160Y-2355D01*
X6170Y-2364D01*
X6175Y-2366D01*
X6837Y-3028D01*
X6835Y-3029D01*
X6967Y-3141D01*
X7115Y-3232D01*
X7275Y-3298D01*
X7443Y-3339D01*
X7616Y-3352D01*
Y-3351D01*
X8626Y-3351D01*
X8639Y-3357D01*
X8656Y-3401D01*
X8648Y-3411D01*
X8640Y-3415D01*
X8608Y-3417D01*
X8594Y-3417D01*
X8589Y-3420D01*
X7277Y-3420D01*
X7277Y-3420D01*
X7277Y-3420D01*
X7228Y-3416D01*
X7102Y-3404D01*
X6933Y-3352D01*
X6777Y-3269D01*
X6644Y-3160D01*
X6642Y-3157D01*
X5107Y-1621D01*
X5105Y-1617D01*
X5085Y-1596D01*
X5071Y-1579D01*
X5066Y-1572D01*
X5062Y-1566D01*
X5060Y-1561D01*
X5058Y-1558D01*
X5058Y-1556D01*
X5057Y-1553D01*
X5051Y-1544D01*
X5047Y-1521D01*
X5016Y-1475D01*
X4970Y-1444D01*
X4916Y-1434D01*
D02*
G37*
G36*
X-396Y-4288D02*
X-450Y-4298D01*
X-496Y-4329D01*
X-512Y-4353D01*
X-544Y-4366D01*
X-605Y-4413D01*
X-604Y-4413D01*
X-3268Y-7077D01*
X-3304Y-7111D01*
X-3304Y-7111D01*
X-3417Y-7243D01*
X-3507Y-7390D01*
X-3573Y-7550D01*
X-3614Y-7718D01*
X-3627Y-7891D01*
X-3626D01*
X-3626Y-8591D01*
X-3628Y-8596D01*
X-3629Y-8624D01*
X-3631Y-8647D01*
X-3632Y-8655D01*
X-3634Y-8662D01*
X-3635Y-8667D01*
X-3636Y-8671D01*
X-3637Y-8672D01*
X-3639Y-8675D01*
X-3641Y-8685D01*
X-3654Y-8705D01*
X-3665Y-8759D01*
X-3654Y-8813D01*
X-3624Y-8859D01*
X-3578Y-8890D01*
X-3524Y-8900D01*
X-3470Y-8890D01*
X-3440Y-8870D01*
X-3437Y-8870D01*
X-3391Y-8889D01*
X-3389Y-8891D01*
X-3382Y-8926D01*
X-3351Y-8972D01*
X-3305Y-9003D01*
X-3251Y-9013D01*
X-3197Y-9003D01*
X-3151Y-8972D01*
X-3121Y-8926D01*
X-3110Y-8872D01*
X-3121Y-8818D01*
X-3134Y-8798D01*
X-3136Y-8788D01*
X-3138Y-8785D01*
X-3138Y-8784D01*
X-3140Y-8780D01*
X-3141Y-8775D01*
X-3143Y-8768D01*
X-3144Y-8760D01*
X-3147Y-8724D01*
X-3147Y-8710D01*
X-3149Y-8705D01*
Y-7942D01*
X-3150Y-7938D01*
X-3133Y-7767D01*
X-3082Y-7598D01*
X-2999Y-7443D01*
X-2918Y-7344D01*
X-2886Y-7307D01*
X-2851Y-7272D01*
X-2668Y-7089D01*
X-2663Y-7087D01*
X-2642Y-7068D01*
X-2625Y-7053D01*
X-2618Y-7048D01*
X-2612Y-7045D01*
X-2607Y-7042D01*
X-2604Y-7040D01*
X-2603Y-7040D01*
X-2599Y-7039D01*
X-2591Y-7033D01*
X-2567Y-7029D01*
X-2521Y-6998D01*
X-2491Y-6952D01*
X-2480Y-6898D01*
X-2491Y-6844D01*
X-2521Y-6798D01*
X-2567Y-6768D01*
X-2594Y-6762D01*
X-2611Y-6708D01*
X-496Y-4593D01*
X-459Y-4558D01*
X-455Y-4556D01*
X-450Y-4559D01*
X-396Y-4570D01*
X-342Y-4559D01*
X-296Y-4529D01*
X-266Y-4483D01*
X-255Y-4429D01*
X-266Y-4375D01*
X-296Y-4329D01*
X-342Y-4298D01*
X-396Y-4288D01*
D02*
G37*
G36*
X-2266Y-4583D02*
X-2320Y-4594D01*
X-2340Y-4607D01*
X-2350Y-4609D01*
X-2353Y-4611D01*
X-2355Y-4612D01*
X-2358Y-4613D01*
X-2363Y-4615D01*
X-2370Y-4616D01*
X-2378Y-4617D01*
X-2414Y-4620D01*
X-2429Y-4620D01*
X-2434Y-4622D01*
X-4173D01*
X-4173Y-4622D01*
Y-4621D01*
X-4346Y-4635D01*
X-4514Y-4675D01*
X-4674Y-4741D01*
X-4822Y-4832D01*
X-4954Y-4944D01*
X-4953Y-4945D01*
X-4953Y-4945D01*
X-6573Y-6566D01*
X-6578Y-6568D01*
X-6599Y-6588D01*
X-6616Y-6602D01*
X-6623Y-6607D01*
X-6629Y-6611D01*
X-6634Y-6613D01*
X-6637Y-6615D01*
X-6639Y-6615D01*
X-6642Y-6616D01*
X-6651Y-6622D01*
X-6674Y-6626D01*
X-6720Y-6657D01*
X-6751Y-6703D01*
X-6761Y-6757D01*
X-6751Y-6811D01*
X-6720Y-6857D01*
X-6674Y-6887D01*
X-6620Y-6898D01*
X-6585Y-6891D01*
X-6582Y-6893D01*
X-6547Y-6928D01*
X-6546Y-6931D01*
X-6553Y-6966D01*
X-6542Y-7020D01*
X-6511Y-7066D01*
X-6465Y-7096D01*
X-6411Y-7107D01*
X-6357Y-7096D01*
X-6311Y-7066D01*
X-6281Y-7020D01*
X-6276Y-6996D01*
X-6270Y-6988D01*
X-6270Y-6984D01*
X-6269Y-6983D01*
X-6268Y-6979D01*
X-6265Y-6975D01*
X-6261Y-6969D01*
X-6257Y-6962D01*
X-6233Y-6935D01*
X-6223Y-6924D01*
X-6221Y-6919D01*
X-5040Y-5738D01*
X-5034Y-5736D01*
X-5000Y-5701D01*
X-4964Y-5666D01*
Y-5666D01*
X-4928Y-5634D01*
X-4908Y-5620D01*
X-4877Y-5574D01*
X-4867Y-5520D01*
X-4877Y-5466D01*
X-4908Y-5420D01*
X-4954Y-5390D01*
X-5008Y-5379D01*
X-5032Y-5384D01*
X-5057Y-5338D01*
X-4808Y-5089D01*
X-4806Y-5086D01*
X-4673Y-4977D01*
X-4518Y-4894D01*
X-4349Y-4842D01*
X-4178Y-4826D01*
X-4173Y-4826D01*
X-2434D01*
X-2429Y-4829D01*
X-2401Y-4829D01*
X-2378Y-4831D01*
X-2370Y-4833D01*
X-2363Y-4834D01*
X-2358Y-4836D01*
X-2355Y-4837D01*
X-2353Y-4838D01*
X-2350Y-4840D01*
X-2340Y-4842D01*
X-2320Y-4855D01*
X-2266Y-4866D01*
X-2212Y-4855D01*
X-2166Y-4824D01*
X-2136Y-4778D01*
X-2125Y-4724D01*
X-2136Y-4670D01*
X-2166Y-4624D01*
X-2212Y-4594D01*
X-2266Y-4583D01*
D02*
G37*
G36*
X391Y-4288D02*
X337Y-4298D01*
X291Y-4329D01*
X261Y-4375D01*
X250Y-4429D01*
X261Y-4483D01*
X268Y-4494D01*
X269Y-4502D01*
X272Y-4507D01*
X272Y-4509D01*
X273Y-4512D01*
X274Y-4517D01*
X274Y-4522D01*
X274Y-4529D01*
X273Y-4536D01*
X268Y-4557D01*
X265Y-4569D01*
X265Y-4570D01*
X229Y-4657D01*
X186Y-4713D01*
X156Y-4751D01*
X121Y-4786D01*
X-248Y-5154D01*
X-284Y-5189D01*
X-284Y-5189D01*
X-376Y-5300D01*
X-444Y-5427D01*
X-485Y-5565D01*
X-500Y-5709D01*
X-500D01*
X-498Y-5759D01*
X-498Y-8542D01*
X-499D01*
X-486Y-8715D01*
X-445Y-8883D01*
X-379Y-9043D01*
X-289Y-9191D01*
X-176Y-9323D01*
X-175Y-9322D01*
X-95Y-9402D01*
X-93Y-9407D01*
X-73Y-9428D01*
X-59Y-9445D01*
X-54Y-9452D01*
X-50Y-9458D01*
X-48Y-9463D01*
X-46Y-9466D01*
X-46Y-9467D01*
X-45Y-9471D01*
X-39Y-9479D01*
X-34Y-9503D01*
X-4Y-9549D01*
X42Y-9579D01*
X96Y-9590D01*
X150Y-9579D01*
X196Y-9549D01*
X216Y-9519D01*
X219Y-9518D01*
X268Y-9518D01*
X271Y-9519D01*
X291Y-9549D01*
X337Y-9579D01*
X391Y-9590D01*
X445Y-9579D01*
X491Y-9549D01*
X522Y-9503D01*
X533Y-9449D01*
X522Y-9395D01*
X491Y-9349D01*
X445Y-9318D01*
X422Y-9314D01*
X414Y-9308D01*
X410Y-9307D01*
X408Y-9307D01*
X405Y-9305D01*
X400Y-9303D01*
X394Y-9299D01*
X388Y-9294D01*
X360Y-9270D01*
X350Y-9260D01*
X345Y-9258D01*
X200Y-9113D01*
X196Y-9111D01*
X87Y-8978D01*
X4Y-8822D01*
X-47Y-8654D01*
X-64Y-8483D01*
X-63Y-8478D01*
Y-6552D01*
X-61Y-6547D01*
X-60Y-6519D01*
X-58Y-6496D01*
X-57Y-6488D01*
X-55Y-6481D01*
X-54Y-6476D01*
X-52Y-6473D01*
X-52Y-6471D01*
X-50Y-6468D01*
X-48Y-6458D01*
X-35Y-6438D01*
X-24Y-6384D01*
X-35Y-6330D01*
X-65Y-6284D01*
X-111Y-6254D01*
X-165Y-6243D01*
X-219Y-6254D01*
X-244Y-6270D01*
X-294Y-6245D01*
Y-5709D01*
X-295Y-5704D01*
X-277Y-5571D01*
X-224Y-5443D01*
X-143Y-5337D01*
X-139Y-5334D01*
X300Y-4895D01*
X300Y-4895D01*
X301Y-4896D01*
X383Y-4796D01*
X444Y-4681D01*
X464Y-4615D01*
X471Y-4607D01*
X491Y-4538D01*
X496Y-4525D01*
X497Y-4523D01*
X498Y-4521D01*
X499Y-4518D01*
X522Y-4483D01*
X533Y-4429D01*
X522Y-4375D01*
X491Y-4329D01*
X445Y-4298D01*
X391Y-4288D01*
D02*
G37*
G36*
X2261Y-4583D02*
X2207Y-4594D01*
X2162Y-4624D01*
X2131Y-4670D01*
X2120Y-4724D01*
X2131Y-4778D01*
X2162Y-4824D01*
X2207Y-4855D01*
X2231Y-4860D01*
X2239Y-4865D01*
X2243Y-4866D01*
X2244Y-4867D01*
X2248Y-4868D01*
X2252Y-4871D01*
X2259Y-4875D01*
X2265Y-4879D01*
X2293Y-4903D01*
X2303Y-4913D01*
X2308Y-4915D01*
X3419Y-6026D01*
X3389Y-6066D01*
X3222Y-6015D01*
X3049Y-5998D01*
Y-6000D01*
X3049Y-6000D01*
X2771D01*
Y-5999D01*
X2598Y-6013D01*
X2430Y-6053D01*
X2270Y-6119D01*
X2122Y-6210D01*
X1991Y-6322D01*
X1991Y-6322D01*
X1956Y-6359D01*
X1662Y-6653D01*
X1657Y-6655D01*
X1636Y-6675D01*
X1619Y-6689D01*
X1612Y-6694D01*
X1606Y-6698D01*
X1602Y-6700D01*
X1598Y-6702D01*
X1597Y-6702D01*
X1593Y-6703D01*
X1585Y-6709D01*
X1561Y-6713D01*
X1515Y-6744D01*
X1485Y-6790D01*
X1474Y-6844D01*
X1485Y-6898D01*
X1515Y-6944D01*
X1561Y-6974D01*
X1615Y-6985D01*
X1669Y-6974D01*
X1715Y-6944D01*
X1746Y-6898D01*
X1751Y-6874D01*
X1756Y-6866D01*
X1757Y-6863D01*
X1757Y-6861D01*
X1759Y-6858D01*
X1762Y-6853D01*
X1765Y-6847D01*
X1770Y-6841D01*
X1794Y-6813D01*
X1804Y-6803D01*
X1806Y-6798D01*
X2101Y-6503D01*
X2136Y-6467D01*
X2173Y-6435D01*
X2271Y-6355D01*
X2427Y-6271D01*
X2596Y-6220D01*
X2767Y-6203D01*
X2771Y-6204D01*
X3049D01*
X3050Y-6204D01*
X3182Y-6217D01*
X3310Y-6256D01*
X3429Y-6319D01*
X3495Y-6374D01*
X3532Y-6405D01*
X3567Y-6440D01*
X3863Y-6735D01*
X3866Y-6737D01*
X3975Y-6870D01*
X4058Y-7026D01*
X4110Y-7195D01*
X4126Y-7366D01*
X4126Y-7370D01*
Y-7958D01*
X4126Y-7960D01*
X4112Y-8107D01*
X4068Y-8251D01*
X4002Y-8375D01*
X4000Y-8376D01*
X3999Y-8379D01*
X3996Y-8380D01*
X3980Y-8402D01*
X3974Y-8409D01*
X3968Y-8416D01*
X3962Y-8421D01*
X3957Y-8425D01*
X3953Y-8428D01*
X3950Y-8429D01*
X3948Y-8430D01*
X3943Y-8431D01*
X3936Y-8437D01*
X3920Y-8440D01*
X3874Y-8471D01*
X3843Y-8517D01*
X3836Y-8552D01*
X3834Y-8554D01*
X3788Y-8573D01*
X3785Y-8573D01*
X3755Y-8553D01*
X3701Y-8542D01*
X3647Y-8553D01*
X3601Y-8584D01*
X3571Y-8630D01*
X3560Y-8684D01*
X3571Y-8738D01*
X3601Y-8784D01*
X3647Y-8814D01*
X3695Y-8824D01*
X3783Y-8860D01*
X3794Y-8860D01*
X3838Y-8879D01*
X3959Y-8895D01*
Y-8894D01*
X4079Y-8882D01*
X4194Y-8847D01*
X4299Y-8790D01*
X4392Y-8714D01*
X4393Y-8715D01*
X4464Y-8623D01*
X4508Y-8515D01*
X4523Y-8400D01*
X4521D01*
Y-7297D01*
X4523D01*
X4509Y-7124D01*
X4469Y-6956D01*
X4403Y-6796D01*
X4312Y-6648D01*
X4200Y-6516D01*
X4200Y-6516D01*
X4163Y-6482D01*
X2452Y-4771D01*
X2450Y-4766D01*
X2431Y-4745D01*
X2416Y-4728D01*
X2412Y-4721D01*
X2408Y-4715D01*
X2405Y-4711D01*
X2404Y-4707D01*
X2403Y-4706D01*
X2402Y-4702D01*
X2397Y-4694D01*
X2392Y-4670D01*
X2361Y-4624D01*
X2316Y-4594D01*
X2261Y-4583D01*
D02*
G37*
G36*
X3935Y-3205D02*
X3881Y-3216D01*
X3835Y-3247D01*
X3804Y-3292D01*
X3793Y-3346D01*
X3804Y-3401D01*
X3817Y-3420D01*
X3819Y-3430D01*
X3821Y-3433D01*
X3822Y-3435D01*
X3823Y-3438D01*
X3825Y-3444D01*
X3826Y-3451D01*
X3828Y-3458D01*
X3830Y-3495D01*
X3831Y-3509D01*
X3833Y-3514D01*
Y-4346D01*
X3831D01*
X3845Y-4519D01*
X3885Y-4687D01*
X3952Y-4847D01*
X4042Y-4995D01*
X4154Y-5126D01*
X4155Y-5125D01*
X5427Y-6397D01*
X5426Y-6398D01*
X5558Y-6510D01*
X5705Y-6601D01*
X5865Y-6667D01*
X6034Y-6708D01*
X6206Y-6721D01*
Y-6720D01*
X6587D01*
X6591Y-6722D01*
X6620Y-6723D01*
X6642Y-6725D01*
X6650Y-6726D01*
X6657Y-6727D01*
X6663Y-6729D01*
X6666Y-6730D01*
X6668Y-6731D01*
X6671Y-6733D01*
X6681Y-6735D01*
X6701Y-6748D01*
X6755Y-6759D01*
X6809Y-6748D01*
X6854Y-6718D01*
X6885Y-6672D01*
X6896Y-6618D01*
X6889Y-6583D01*
X6890Y-6580D01*
X6925Y-6545D01*
X6928Y-6543D01*
X6963Y-6550D01*
X7017Y-6539D01*
X7063Y-6509D01*
X7094Y-6463D01*
X7105Y-6409D01*
X7094Y-6355D01*
X7063Y-6309D01*
X7017Y-6278D01*
X6963Y-6268D01*
X6909Y-6278D01*
X6889Y-6292D01*
X6879Y-6294D01*
X6876Y-6296D01*
X6875Y-6296D01*
X6872Y-6298D01*
X6866Y-6299D01*
X6859Y-6301D01*
X6852Y-6302D01*
X6815Y-6305D01*
X6801Y-6305D01*
X6796Y-6307D01*
X6303D01*
X6299Y-6308D01*
X6128Y-6291D01*
X5959Y-6240D01*
X5803Y-6157D01*
X5670Y-6048D01*
X5668Y-6044D01*
X4610Y-4986D01*
X4608Y-4981D01*
X4589Y-4961D01*
X4574Y-4943D01*
X4570Y-4937D01*
X4566Y-4931D01*
X4563Y-4926D01*
X4562Y-4923D01*
X4561Y-4921D01*
X4560Y-4917D01*
X4555Y-4909D01*
X4550Y-4886D01*
X4519Y-4840D01*
X4474Y-4809D01*
X4419Y-4798D01*
X4365Y-4809D01*
X4320Y-4840D01*
X4289Y-4886D01*
X4288Y-4890D01*
X4234Y-4904D01*
X4187Y-4846D01*
X4104Y-4690D01*
X4053Y-4522D01*
X4036Y-4350D01*
X4037Y-4346D01*
Y-3514D01*
X4039Y-3510D01*
X4040Y-3481D01*
X4042Y-3459D01*
X4043Y-3451D01*
X4044Y-3444D01*
X4046Y-3438D01*
X4047Y-3435D01*
X4048Y-3433D01*
X4050Y-3430D01*
X4052Y-3420D01*
X4065Y-3401D01*
X4076Y-3346D01*
X4065Y-3292D01*
X4035Y-3247D01*
X3989Y-3216D01*
X3935Y-3205D01*
D02*
G37*
%LPD*%
G36*
X-450Y9379D02*
X-456Y9382D01*
X-463Y9386D01*
X-471Y9389D01*
X-480Y9392D01*
X-490Y9394D01*
X-501Y9396D01*
X-527Y9398D01*
X-558Y9399D01*
Y9499D01*
X-542Y9499D01*
X-501Y9502D01*
X-490Y9504D01*
X-480Y9506D01*
X-471Y9509D01*
X-463Y9512D01*
X-456Y9515D01*
X-450Y9519D01*
Y9379D01*
D02*
G37*
G36*
X-89Y9361D02*
X-96Y9360D01*
X-103Y9357D01*
X-111Y9354D01*
X-120Y9349D01*
X-128Y9343D01*
X-138Y9337D01*
X-158Y9320D01*
X-180Y9299D01*
X-250Y9370D01*
X-239Y9381D01*
X-213Y9412D01*
X-206Y9421D01*
X-201Y9430D01*
X-196Y9438D01*
X-192Y9446D01*
X-190Y9453D01*
X-189Y9460D01*
X-89Y9361D01*
D02*
G37*
G36*
X-769Y9347D02*
X-564D01*
X-559Y9345D01*
X-531Y9344D01*
X-508Y9342D01*
X-500Y9341D01*
X-493Y9339D01*
X-488Y9338D01*
X-484Y9336D01*
X-483Y9335D01*
X-480Y9333D01*
X-470Y9332D01*
X-450Y9318D01*
X-447Y9318D01*
X-430Y9263D01*
X-471Y9223D01*
X-473Y9220D01*
X-606Y9111D01*
X-761Y9027D01*
X-930Y8976D01*
X-1101Y8959D01*
X-1106Y8960D01*
X-1311Y8960D01*
X-1316Y8962D01*
X-1344Y8963D01*
X-1367Y8965D01*
X-1375Y8967D01*
X-1382Y8968D01*
X-1387Y8970D01*
X-1390Y8971D01*
X-1392Y8972D01*
X-1395Y8974D01*
X-1405Y8976D01*
X-1425Y8989D01*
X-1428Y8989D01*
X-1444Y9044D01*
X-1404Y9084D01*
X-1367Y9116D01*
X-1269Y9197D01*
X-1113Y9280D01*
X-945Y9331D01*
X-774Y9348D01*
X-769Y9347D01*
D02*
G37*
G36*
X-1419Y8925D02*
X-1412Y8921D01*
X-1404Y8918D01*
X-1395Y8916D01*
X-1385Y8913D01*
X-1373Y8911D01*
X-1347Y8909D01*
X-1317Y8908D01*
Y8808D01*
X-1333Y8808D01*
X-1373Y8805D01*
X-1385Y8803D01*
X-1395Y8801D01*
X-1404Y8798D01*
X-1412Y8795D01*
X-1419Y8792D01*
X-1425Y8788D01*
Y8928D01*
X-1419Y8925D01*
D02*
G37*
G36*
X-1731Y8814D02*
X-1737Y8801D01*
X-1743Y8789D01*
X-1747Y8777D01*
X-1750Y8766D01*
X-1751Y8755D01*
X-1752Y8745D01*
X-1751Y8735D01*
X-1750Y8725D01*
X-1747Y8716D01*
X-1743Y8708D01*
X-1874Y8733D01*
X-1836Y8826D01*
X-1731Y8814D01*
D02*
G37*
G36*
X-3645Y8619D02*
X-3647Y8617D01*
X-3649Y8613D01*
X-3651Y8607D01*
X-3657Y8591D01*
X-3673Y8538D01*
X-3678Y8521D01*
X-3780Y8528D01*
X-3776Y8542D01*
X-3770Y8568D01*
X-3769Y8579D01*
X-3769Y8591D01*
X-3769Y8601D01*
X-3771Y8611D01*
X-3773Y8620D01*
X-3776Y8629D01*
X-3781Y8636D01*
X-3645Y8619D01*
D02*
G37*
G36*
X-3967Y8483D02*
X-3974Y8481D01*
X-3981Y8479D01*
X-3989Y8475D01*
X-3997Y8471D01*
X-4006Y8465D01*
X-4015Y8459D01*
X-4035Y8442D01*
X-4058Y8421D01*
X-4128Y8492D01*
X-4117Y8503D01*
X-4091Y8534D01*
X-4084Y8543D01*
X-4078Y8552D01*
X-4074Y8560D01*
X-4070Y8568D01*
X-4068Y8575D01*
X-4066Y8582D01*
X-3967Y8483D01*
D02*
G37*
G36*
X-4713Y7459D02*
X-4714Y7444D01*
X-4715Y7417D01*
X-4714Y7405D01*
X-4713Y7394D01*
X-4711Y7383D01*
X-4708Y7374D01*
X-4705Y7365D01*
X-4701Y7357D01*
X-4697Y7350D01*
X-4836Y7354D01*
X-4833Y7358D01*
X-4830Y7364D01*
X-4828Y7371D01*
X-4825Y7379D01*
X-4821Y7400D01*
X-4817Y7427D01*
X-4814Y7459D01*
X-4713Y7459D01*
D02*
G37*
G36*
X-4480Y6740D02*
X-4477Y6700D01*
X-4475Y6689D01*
X-4473Y6678D01*
X-4470Y6669D01*
X-4467Y6661D01*
X-4464Y6654D01*
X-4460Y6649D01*
X-4600D01*
X-4596Y6654D01*
X-4593Y6661D01*
X-4590Y6669D01*
X-4587Y6678D01*
X-4585Y6689D01*
X-4583Y6700D01*
X-4581Y6726D01*
X-4580Y6756D01*
X-4480D01*
X-4480Y6740D01*
D02*
G37*
G36*
X-5470Y5343D02*
X-5476Y5347D01*
X-5482Y5350D01*
X-5490Y5353D01*
X-5500Y5356D01*
X-5510Y5358D01*
X-5521Y5360D01*
X-5547Y5363D01*
X-5577Y5363D01*
Y5463D01*
X-5562Y5464D01*
X-5521Y5467D01*
X-5510Y5468D01*
X-5500Y5471D01*
X-5490Y5473D01*
X-5482Y5476D01*
X-5476Y5480D01*
X-5470Y5484D01*
Y5343D01*
D02*
G37*
G36*
X-6561Y4644D02*
X-6558Y4603D01*
X-6556Y4592D01*
X-6554Y4581D01*
X-6552Y4572D01*
X-6548Y4564D01*
X-6545Y4557D01*
X-6541Y4552D01*
X-6682D01*
X-6678Y4557D01*
X-6674Y4564D01*
X-6671Y4572D01*
X-6669Y4581D01*
X-6666Y4592D01*
X-6665Y4603D01*
X-6662Y4629D01*
X-6661Y4659D01*
X-6561D01*
X-6561Y4644D01*
D02*
G37*
G36*
X5471Y5480D02*
X5478Y5476D01*
X5486Y5473D01*
X5495Y5471D01*
X5505Y5468D01*
X5516Y5467D01*
X5542Y5464D01*
X5573Y5463D01*
Y5363D01*
X5557Y5363D01*
X5516Y5360D01*
X5505Y5358D01*
X5495Y5356D01*
X5486Y5353D01*
X5478Y5350D01*
X5471Y5347D01*
X5465Y5343D01*
Y5484D01*
X5471Y5480D01*
D02*
G37*
G36*
X8514Y3906D02*
X8509Y3910D01*
X8502Y3913D01*
X8494Y3916D01*
X8485Y3919D01*
X8474Y3921D01*
X8463Y3923D01*
X8437Y3925D01*
X8407Y3926D01*
Y4026D01*
X8422Y4026D01*
X8463Y4029D01*
X8474Y4031D01*
X8485Y4033D01*
X8494Y4036D01*
X8502Y4039D01*
X8509Y4043D01*
X8514Y4046D01*
Y3906D01*
D02*
G37*
G36*
X8808Y3806D02*
X8769Y3713D01*
X8658Y3789D01*
X8667Y3792D01*
X8676Y3796D01*
X8684Y3802D01*
X8691Y3808D01*
X8698Y3816D01*
X8705Y3825D01*
X8710Y3835D01*
X8716Y3846D01*
X8721Y3858D01*
X8725Y3872D01*
X8808Y3806D01*
D02*
G37*
G36*
X5938Y738D02*
X5844Y700D01*
X5820Y832D01*
X5828Y828D01*
X5837Y825D01*
X5847Y823D01*
X5857Y822D01*
X5867Y823D01*
X5878Y825D01*
X5889Y827D01*
X5901Y831D01*
X5914Y836D01*
X5926Y843D01*
X5938Y738D01*
D02*
G37*
G36*
X-8672Y3526D02*
X-8670Y3519D01*
X-8666Y3511D01*
X-8662Y3503D01*
X-8656Y3494D01*
X-8649Y3485D01*
X-8633Y3465D01*
X-8612Y3443D01*
X-8682Y3372D01*
X-8694Y3383D01*
X-8724Y3409D01*
X-8734Y3416D01*
X-8743Y3422D01*
X-8751Y3426D01*
X-8759Y3430D01*
X-8766Y3432D01*
X-8773Y3434D01*
X-8674Y3533D01*
X-8672Y3526D01*
D02*
G37*
G36*
X-8785Y3253D02*
X-8783Y3246D01*
X-8779Y3238D01*
X-8775Y3230D01*
X-8769Y3221D01*
X-8762Y3212D01*
X-8746Y3192D01*
X-8725Y3170D01*
X-8795Y3099D01*
X-8807Y3110D01*
X-8837Y3137D01*
X-8847Y3143D01*
X-8856Y3149D01*
X-8864Y3154D01*
X-8872Y3157D01*
X-8879Y3159D01*
X-8886Y3161D01*
X-8787Y3260D01*
X-8785Y3253D01*
D02*
G37*
G36*
X-7955Y2257D02*
X-7930Y2177D01*
X-7928Y2175D01*
X-8064Y2159D01*
X-8060Y2166D01*
X-8056Y2175D01*
X-8054Y2184D01*
X-8052Y2194D01*
X-8052Y2204D01*
X-8052Y2215D01*
X-8053Y2227D01*
X-8055Y2240D01*
X-8058Y2253D01*
X-8062Y2268D01*
X-7960Y2274D01*
X-7955Y2257D01*
D02*
G37*
G36*
X-4971Y822D02*
X-4976Y826D01*
X-4983Y830D01*
X-4991Y833D01*
X-5000Y835D01*
X-5011Y837D01*
X-5022Y839D01*
X-5048Y842D01*
X-5078Y843D01*
Y943D01*
X-5063Y943D01*
X-5022Y946D01*
X-5011Y948D01*
X-5000Y950D01*
X-4991Y952D01*
X-4983Y955D01*
X-4976Y959D01*
X-4971Y963D01*
Y822D01*
D02*
G37*
G36*
X-9391Y-32D02*
X-9384Y-36D01*
X-9376Y-39D01*
X-9367Y-41D01*
X-9357Y-43D01*
X-9346Y-45D01*
X-9320Y-48D01*
X-9289Y-48D01*
Y-148D01*
X-9305Y-149D01*
X-9346Y-152D01*
X-9357Y-153D01*
X-9367Y-156D01*
X-9376Y-158D01*
X-9384Y-161D01*
X-9391Y-165D01*
X-9397Y-169D01*
Y-28D01*
X-9391Y-32D01*
D02*
G37*
G36*
X-9391Y-327D02*
X-9384Y-331D01*
X-9376Y-334D01*
X-9367Y-336D01*
X-9357Y-339D01*
X-9346Y-340D01*
X-9320Y-343D01*
X-9289Y-344D01*
Y-444D01*
X-9305Y-444D01*
X-9346Y-447D01*
X-9357Y-449D01*
X-9367Y-451D01*
X-9376Y-454D01*
X-9384Y-457D01*
X-9391Y-460D01*
X-9397Y-464D01*
Y-324D01*
X-9391Y-327D01*
D02*
G37*
G36*
X-7730Y-1121D02*
X-7699Y-1148D01*
X-7690Y-1155D01*
X-7681Y-1160D01*
X-7673Y-1165D01*
X-7665Y-1168D01*
X-7658Y-1171D01*
X-7651Y-1172D01*
X-7750Y-1271D01*
X-7752Y-1265D01*
X-7754Y-1257D01*
X-7758Y-1249D01*
X-7762Y-1241D01*
X-7768Y-1232D01*
X-7775Y-1223D01*
X-7791Y-1203D01*
X-7812Y-1181D01*
X-7742Y-1110D01*
X-7730Y-1121D01*
D02*
G37*
G36*
X-4978Y-1645D02*
X-4983Y-1641D01*
X-4990Y-1638D01*
X-4998Y-1635D01*
X-5007Y-1632D01*
X-5018Y-1630D01*
X-5029Y-1628D01*
X-5055Y-1626D01*
X-5085Y-1625D01*
Y-1525D01*
X-5070Y-1525D01*
X-5029Y-1522D01*
X-5018Y-1520D01*
X-5007Y-1518D01*
X-4998Y-1515D01*
X-4990Y-1512D01*
X-4983Y-1508D01*
X-4978Y-1505D01*
Y-1645D01*
D02*
G37*
G36*
X-6786Y-3325D02*
X-6792Y-3326D01*
X-6800Y-3329D01*
X-6807Y-3332D01*
X-6816Y-3337D01*
X-6825Y-3343D01*
X-6834Y-3349D01*
X-6854Y-3366D01*
X-6876Y-3387D01*
X-6947Y-3316D01*
X-6936Y-3305D01*
X-6909Y-3274D01*
X-6902Y-3265D01*
X-6897Y-3256D01*
X-6892Y-3248D01*
X-6889Y-3240D01*
X-6886Y-3233D01*
X-6885Y-3226D01*
X-6786Y-3325D01*
D02*
G37*
G36*
X-8626Y-3637D02*
X-8619Y-3640D01*
X-8611Y-3643D01*
X-8602Y-3646D01*
X-8592Y-3648D01*
X-8581Y-3650D01*
X-8555Y-3653D01*
X-8524Y-3653D01*
Y-3753D01*
X-8540Y-3754D01*
X-8581Y-3757D01*
X-8592Y-3758D01*
X-8602Y-3761D01*
X-8611Y-3763D01*
X-8619Y-3766D01*
X-8626Y-3770D01*
X-8632Y-3774D01*
Y-3633D01*
X-8626Y-3637D01*
D02*
G37*
G36*
X-8513Y-3910D02*
X-8506Y-3913D01*
X-8498Y-3916D01*
X-8489Y-3919D01*
X-8479Y-3921D01*
X-8468Y-3923D01*
X-8442Y-3925D01*
X-8411Y-3926D01*
Y-4026D01*
X-8427Y-4026D01*
X-8468Y-4029D01*
X-8479Y-4031D01*
X-8489Y-4033D01*
X-8498Y-4036D01*
X-8506Y-4039D01*
X-8513Y-4043D01*
X-8519Y-4046D01*
Y-3906D01*
X-8513Y-3910D01*
D02*
G37*
G36*
X5005Y-1570D02*
X5008Y-1577D01*
X5011Y-1585D01*
X5016Y-1594D01*
X5022Y-1602D01*
X5028Y-1612D01*
X5045Y-1632D01*
X5066Y-1654D01*
X4995Y-1725D01*
X4984Y-1714D01*
X4953Y-1687D01*
X4944Y-1680D01*
X4935Y-1675D01*
X4927Y-1670D01*
X4919Y-1666D01*
X4911Y-1664D01*
X4905Y-1663D01*
X5004Y-1563D01*
X5005Y-1570D01*
D02*
G37*
G36*
X6218Y-2171D02*
X6220Y-2179D01*
X6224Y-2186D01*
X6229Y-2195D01*
X6234Y-2204D01*
X6241Y-2213D01*
X6258Y-2233D01*
X6278Y-2255D01*
X6208Y-2326D01*
X6196Y-2315D01*
X6166Y-2288D01*
X6156Y-2281D01*
X6148Y-2276D01*
X6139Y-2271D01*
X6131Y-2268D01*
X6124Y-2265D01*
X6117Y-2264D01*
X6217Y-2165D01*
X6218Y-2171D01*
D02*
G37*
G36*
X8816Y-3319D02*
X8810Y-3315D01*
X8803Y-3312D01*
X8795Y-3309D01*
X8786Y-3306D01*
X8776Y-3304D01*
X8764Y-3302D01*
X8738Y-3300D01*
X8708Y-3299D01*
Y-3199D01*
X8724Y-3199D01*
X8764Y-3196D01*
X8776Y-3194D01*
X8786Y-3191D01*
X8795Y-3189D01*
X8803Y-3186D01*
X8810Y-3182D01*
X8816Y-3179D01*
Y-3319D01*
D02*
G37*
G36*
X8703Y-3592D02*
X8697Y-3588D01*
X8690Y-3584D01*
X8682Y-3581D01*
X8673Y-3579D01*
X8663Y-3577D01*
X8651Y-3575D01*
X8625Y-3572D01*
X8595Y-3572D01*
Y-3472D01*
X8611Y-3471D01*
X8651Y-3468D01*
X8663Y-3466D01*
X8673Y-3464D01*
X8682Y-3462D01*
X8690Y-3459D01*
X8697Y-3455D01*
X8703Y-3451D01*
Y-3592D01*
D02*
G37*
G36*
X-2610Y-6986D02*
X-2617Y-6987D01*
X-2624Y-6990D01*
X-2632Y-6993D01*
X-2640Y-6998D01*
X-2649Y-7004D01*
X-2658Y-7010D01*
X-2678Y-7027D01*
X-2700Y-7048D01*
X-2771Y-6977D01*
X-2760Y-6966D01*
X-2733Y-6935D01*
X-2727Y-6926D01*
X-2721Y-6917D01*
X-2716Y-6909D01*
X-2713Y-6901D01*
X-2710Y-6894D01*
X-2709Y-6887D01*
X-2610Y-6986D01*
D02*
G37*
G36*
X-3474Y-8613D02*
X-3471Y-8654D01*
X-3469Y-8665D01*
X-3467Y-8675D01*
X-3464Y-8684D01*
X-3461Y-8692D01*
X-3458Y-8699D01*
X-3454Y-8705D01*
X-3594D01*
X-3590Y-8699D01*
X-3587Y-8692D01*
X-3584Y-8684D01*
X-3581Y-8675D01*
X-3579Y-8665D01*
X-3577Y-8654D01*
X-3575Y-8628D01*
X-3574Y-8597D01*
X-3474D01*
X-3474Y-8613D01*
D02*
G37*
G36*
X-3201Y-8726D02*
X-3198Y-8767D01*
X-3196Y-8778D01*
X-3194Y-8788D01*
X-3191Y-8797D01*
X-3188Y-8805D01*
X-3185Y-8812D01*
X-3181Y-8818D01*
X-3321D01*
X-3317Y-8812D01*
X-3314Y-8805D01*
X-3311Y-8797D01*
X-3308Y-8788D01*
X-3306Y-8778D01*
X-3304Y-8767D01*
X-3302Y-8741D01*
X-3301Y-8710D01*
X-3201D01*
X-3201Y-8726D01*
D02*
G37*
G36*
X-2320Y-4795D02*
X-2326Y-4791D01*
X-2333Y-4787D01*
X-2341Y-4784D01*
X-2350Y-4782D01*
X-2360Y-4779D01*
X-2372Y-4778D01*
X-2397Y-4775D01*
X-2428Y-4774D01*
Y-4674D01*
X-2412Y-4674D01*
X-2372Y-4671D01*
X-2360Y-4669D01*
X-2350Y-4667D01*
X-2341Y-4665D01*
X-2333Y-4661D01*
X-2326Y-4658D01*
X-2320Y-4654D01*
Y-4795D01*
D02*
G37*
G36*
X-4981Y-5605D02*
X-5073Y-5698D01*
X-5146Y-5630D01*
X-5135Y-5618D01*
X-5117Y-5597D01*
X-5110Y-5587D01*
X-5104Y-5578D01*
X-5100Y-5569D01*
X-5096Y-5560D01*
X-5095Y-5552D01*
X-5094Y-5545D01*
X-5095Y-5538D01*
X-4981Y-5605D01*
D02*
G37*
G36*
X-6470Y-6678D02*
X-6481Y-6689D01*
X-6508Y-6720D01*
X-6515Y-6729D01*
X-6520Y-6738D01*
X-6525Y-6746D01*
X-6528Y-6754D01*
X-6531Y-6762D01*
X-6532Y-6768D01*
X-6631Y-6669D01*
X-6625Y-6668D01*
X-6617Y-6665D01*
X-6610Y-6662D01*
X-6601Y-6657D01*
X-6592Y-6651D01*
X-6583Y-6645D01*
X-6563Y-6628D01*
X-6541Y-6607D01*
X-6470Y-6678D01*
D02*
G37*
G36*
X-6262Y-6887D02*
X-6273Y-6898D01*
X-6299Y-6929D01*
X-6306Y-6938D01*
X-6311Y-6947D01*
X-6316Y-6955D01*
X-6320Y-6963D01*
X-6322Y-6970D01*
X-6323Y-6977D01*
X-6423Y-6878D01*
X-6416Y-6876D01*
X-6409Y-6874D01*
X-6401Y-6871D01*
X-6392Y-6866D01*
X-6384Y-6860D01*
X-6374Y-6854D01*
X-6354Y-6837D01*
X-6332Y-6816D01*
X-6262Y-6887D01*
D02*
G37*
G36*
X452Y-4493D02*
X450Y-4496D01*
X448Y-4500D01*
X446Y-4505D01*
X440Y-4522D01*
X419Y-4592D01*
X317Y-4585D01*
X321Y-4571D01*
X326Y-4545D01*
X328Y-4533D01*
X328Y-4522D01*
X328Y-4511D01*
X326Y-4502D01*
X324Y-4492D01*
X321Y-4484D01*
X316Y-4476D01*
X452Y-4493D01*
D02*
G37*
G36*
X-99Y-6444D02*
X-102Y-6451D01*
X-105Y-6459D01*
X-108Y-6468D01*
X-110Y-6478D01*
X-112Y-6490D01*
X-114Y-6516D01*
X-115Y-6546D01*
X-215D01*
X-215Y-6530D01*
X-218Y-6490D01*
X-220Y-6478D01*
X-222Y-6468D01*
X-225Y-6459D01*
X-228Y-6451D01*
X-231Y-6444D01*
X-235Y-6438D01*
X-95D01*
X-99Y-6444D01*
D02*
G37*
G36*
X324Y-9310D02*
X354Y-9337D01*
X364Y-9343D01*
X373Y-9349D01*
X381Y-9354D01*
X389Y-9357D01*
X396Y-9360D01*
X403Y-9361D01*
X304Y-9460D01*
X302Y-9453D01*
X300Y-9446D01*
X296Y-9438D01*
X292Y-9430D01*
X286Y-9421D01*
X279Y-9412D01*
X263Y-9392D01*
X242Y-9370D01*
X312Y-9299D01*
X324Y-9310D01*
D02*
G37*
G36*
X28Y-9310D02*
X59Y-9337D01*
X68Y-9343D01*
X77Y-9349D01*
X86Y-9354D01*
X93Y-9357D01*
X101Y-9360D01*
X108Y-9361D01*
X8Y-9460D01*
X7Y-9453D01*
X4Y-9446D01*
X1Y-9438D01*
X-4Y-9430D01*
X-9Y-9421D01*
X-16Y-9412D01*
X-33Y-9392D01*
X-54Y-9370D01*
X17Y-9299D01*
X28Y-9310D01*
D02*
G37*
G36*
X2351Y-4720D02*
X2353Y-4727D01*
X2357Y-4735D01*
X2361Y-4743D01*
X2367Y-4752D01*
X2374Y-4761D01*
X2390Y-4781D01*
X2411Y-4803D01*
X2340Y-4874D01*
X2329Y-4863D01*
X2298Y-4837D01*
X2289Y-4830D01*
X2280Y-4824D01*
X2272Y-4820D01*
X2264Y-4816D01*
X2257Y-4814D01*
X2250Y-4812D01*
X2349Y-4713D01*
X2351Y-4720D01*
D02*
G37*
G36*
X1765Y-6765D02*
X1754Y-6776D01*
X1727Y-6807D01*
X1721Y-6816D01*
X1715Y-6825D01*
X1710Y-6833D01*
X1707Y-6841D01*
X1705Y-6848D01*
X1703Y-6855D01*
X1604Y-6756D01*
X1611Y-6755D01*
X1618Y-6752D01*
X1626Y-6749D01*
X1634Y-6744D01*
X1643Y-6738D01*
X1652Y-6732D01*
X1672Y-6715D01*
X1694Y-6694D01*
X1765Y-6765D01*
D02*
G37*
G36*
X4114Y-8481D02*
X4104Y-8495D01*
X4067Y-8557D01*
X4065Y-8563D01*
X4063Y-8569D01*
X4062Y-8573D01*
X3957Y-8484D01*
X3965Y-8482D01*
X3973Y-8478D01*
X3981Y-8474D01*
X3989Y-8469D01*
X3998Y-8462D01*
X4006Y-8454D01*
X4014Y-8445D01*
X4023Y-8435D01*
X4040Y-8412D01*
X4114Y-8481D01*
D02*
G37*
G36*
X3790Y-8670D02*
X3794Y-8678D01*
X3799Y-8686D01*
X3806Y-8693D01*
X3814Y-8700D01*
X3822Y-8707D01*
X3832Y-8713D01*
X3844Y-8718D01*
X3856Y-8723D01*
X3870Y-8728D01*
X3804Y-8810D01*
X3711Y-8772D01*
X3787Y-8661D01*
X3790Y-8670D01*
D02*
G37*
G36*
X4001Y-3406D02*
X3998Y-3413D01*
X3995Y-3421D01*
X3992Y-3430D01*
X3990Y-3441D01*
X3988Y-3452D01*
X3985Y-3478D01*
X3985Y-3508D01*
X3885D01*
X3884Y-3492D01*
X3881Y-3452D01*
X3880Y-3441D01*
X3877Y-3430D01*
X3875Y-3421D01*
X3872Y-3413D01*
X3868Y-3406D01*
X3864Y-3401D01*
X4005D01*
X4001Y-3406D01*
D02*
G37*
G36*
X4509Y-4935D02*
X4511Y-4942D01*
X4515Y-4950D01*
X4519Y-4958D01*
X4525Y-4967D01*
X4532Y-4976D01*
X4548Y-4997D01*
X4569Y-5019D01*
X4498Y-5089D01*
X4487Y-5078D01*
X4456Y-5052D01*
X4447Y-5045D01*
X4438Y-5039D01*
X4430Y-5035D01*
X4422Y-5031D01*
X4415Y-5029D01*
X4408Y-5027D01*
X4507Y-4928D01*
X4509Y-4935D01*
D02*
G37*
G36*
X6909Y-6479D02*
X6904Y-6475D01*
X6897Y-6472D01*
X6889Y-6469D01*
X6880Y-6466D01*
X6869Y-6464D01*
X6858Y-6462D01*
X6832Y-6460D01*
X6802Y-6459D01*
Y-6359D01*
X6817Y-6359D01*
X6858Y-6356D01*
X6869Y-6354D01*
X6880Y-6352D01*
X6889Y-6349D01*
X6897Y-6346D01*
X6904Y-6343D01*
X6909Y-6339D01*
Y-6479D01*
D02*
G37*
G36*
X6701Y-6688D02*
X6695Y-6684D01*
X6688Y-6681D01*
X6680Y-6678D01*
X6671Y-6675D01*
X6661Y-6673D01*
X6649Y-6671D01*
X6623Y-6669D01*
X6593Y-6668D01*
Y-6568D01*
X6609Y-6568D01*
X6649Y-6564D01*
X6661Y-6563D01*
X6671Y-6560D01*
X6680Y-6558D01*
X6688Y-6555D01*
X6695Y-6551D01*
X6701Y-6548D01*
Y-6688D01*
D02*
G37*
D83*
X-2258Y-1192D02*
G03*
X-1965Y-1899I1000J0D01*
G01*
X-1953Y-1912D02*
G03*
X-1246Y-2205I707J707D01*
G01*
X1302Y583D02*
G03*
X998Y709I-304J-304D01*
G01*
X1373Y426D02*
G03*
X1313Y571I-206J0D01*
G01*
X2064Y789D02*
G03*
X1771Y1496I-1000J-0D01*
G01*
X1615Y1652D02*
G03*
X946Y1929I-670J-670D01*
G01*
X537Y2098D02*
G03*
X946Y1929I408J408D01*
G01*
X1580Y376D02*
G03*
X1870Y86I290J0D01*
G01*
X1580Y376D02*
G03*
X1340Y957I-822J-0D01*
G01*
X155Y-1746D02*
G03*
X-73Y-1652I-228J-228D01*
G01*
X-750Y2542D02*
G03*
X-1115Y2391I0J-515D01*
G01*
X-1236Y2270D02*
G03*
X-1529Y1563I707J-707D01*
G01*
X-684Y-1457D02*
G03*
X-214Y-1652I471J471D01*
G01*
X-174D02*
G03*
X-413Y-1828I468J-884D01*
G01*
X-816Y-2008D02*
G03*
X-435Y-1850I0J538D01*
G01*
X-1622Y427D02*
G03*
X-1892Y315I0J-382D01*
G01*
X-1892Y315D02*
G03*
X-1971Y125I190J-190D01*
G01*
X-1804Y-1742D02*
G03*
X-1162Y-2008I642J642D01*
G01*
X1870Y86D02*
G03*
X2064Y280I0J194D01*
G01*
X1580Y1378D02*
G03*
X1312Y1489I-268J-268D01*
G01*
X1850Y726D02*
G03*
X1580Y1378I-922J0D01*
G01*
X-1193Y1388D02*
G03*
X-1262Y1221I167J-167D01*
G01*
X-1419Y158D02*
G03*
X-1262Y538I-381J380D01*
G01*
X-435Y1417D02*
G03*
X-502Y1256I162J-162D01*
G01*
X157Y1770D02*
G03*
X-550Y2062I-707J-707D01*
G01*
X-262Y1489D02*
G03*
X-435Y1417I0J-245D01*
G01*
X352Y1574D02*
G03*
X559Y1489I207J208D01*
G01*
X-1529Y-1063D02*
G03*
X-1383Y-1414I497J0D01*
G01*
X-1380Y-1417D02*
G03*
X-1095Y-1535I285J285D01*
G01*
X864Y-1535D02*
G03*
X998Y-1212I-323J323D01*
G01*
X-868Y2283D02*
G03*
X-927Y2142I141J-141D01*
G01*
X-927Y2061D02*
G03*
X-806Y1770I413J0D01*
G01*
X309Y2067D02*
G03*
X-399Y2360I-707J-707D01*
G01*
X-678Y-2402D02*
G03*
X-298Y-2244I0J538D01*
G01*
X-2050Y-2126D02*
G03*
X-1384Y-2402I665J665D01*
G01*
X1174Y-1946D02*
G03*
X1258Y-1912I0J118D01*
G01*
X1470Y-1980D02*
G03*
X1370Y-1737I-343J0D01*
G01*
X498Y-1372D02*
G03*
X641Y-1719I490J0D01*
G01*
X1370Y-1737D02*
G03*
X1263Y-1693I-107J-107D01*
G01*
X641Y-1719D02*
G03*
X769Y-1772I128J128D01*
G01*
X1139Y-1693D02*
G03*
X1021Y-1742I0J-167D01*
G01*
X949Y-1772D02*
G03*
X1021Y-1742I0J102D01*
G01*
X1470Y-2126D02*
G03*
X2177Y-1833I0J1000D01*
G01*
X531Y-1946D02*
G03*
X451Y-1752I-274J0D01*
G01*
X-12Y-2126D02*
G03*
X-298Y-2244I0J-403D01*
G01*
X-153Y-1946D02*
G03*
X-396Y-2047I0J-344D01*
G01*
X-776Y-2205D02*
G03*
X-396Y-2047I0J538D01*
G01*
X362Y-1664D02*
G03*
X-103Y-1471I-465J-465D01*
G01*
X-475Y-1331D02*
G03*
X-137Y-1471I338J338D01*
G01*
X-502Y-1265D02*
G03*
X-475Y-1331I94J0D01*
G01*
X-1002Y-866D02*
G03*
X-810Y-1331I658J0D01*
G01*
X-948Y1489D02*
G03*
X-1193Y1388I0J-346D01*
G01*
X-1420Y157D02*
G03*
X-1529Y-106I264J-264D01*
G01*
X-809Y-1811D02*
G03*
X-631Y-1737I0J253D01*
G01*
X2539Y-1471D02*
G03*
X2832Y-764I-707J707D01*
G01*
X-1599Y2382D02*
G03*
X-1892Y1675I707J-707D01*
G01*
X-2185Y720D02*
G03*
X-1892Y1427I-707J707D01*
G01*
X-2229Y676D02*
G03*
X-2522Y-31I707J-707D01*
G01*
X531Y2537D02*
G03*
X-2Y2758I-534J-534D01*
G01*
X-570D02*
G03*
X-1277Y2465I0J-1000D01*
G01*
X-1421Y2321D02*
G03*
X-1714Y1614I707J-707D01*
G01*
X-2007Y555D02*
G03*
X-1714Y1262I-707J707D01*
G01*
X-2065Y497D02*
G03*
X-2258Y30I467J-467D01*
G01*
X-2519Y-1316D02*
G03*
X-2229Y-1946I997J77D01*
G01*
X-2522Y-1239D02*
G03*
X-2519Y-1316I1000J0D01*
G01*
X-1971Y-1339D02*
G03*
X-1804Y-1742I570J0D01*
G01*
X-1765Y-1255D02*
G03*
X-1617Y-1614I507J0D01*
G01*
X-1617D02*
G03*
X-1141Y-1811I475J475D01*
G01*
X273Y2362D02*
G03*
X-162Y2542I-435J-435D01*
G01*
X-684Y2360D02*
G03*
X-868Y2283I0J-261D01*
G01*
X-1420Y157D02*
G03*
X-1419Y158I-380J380D01*
G01*
X352Y1575D02*
G03*
X352Y1574I207J207D01*
G01*
X-3871Y8284D02*
G03*
X-3706Y8684I-400J400D01*
G01*
X-4237Y7918D02*
G03*
X-4530Y7211I707J-707D01*
G01*
X-4475Y8074D02*
G03*
X-4768Y7367I707J-707D01*
G01*
X-6411Y5875D02*
G03*
X-6302Y5610I375J0D01*
G01*
X-6411Y5875D02*
G03*
X-6690Y6549I-953J0D01*
G01*
X-6302Y5610D02*
G03*
X-5826Y5413I475J475D01*
G01*
X-6611Y5638D02*
G03*
X-6904Y6345I-1000J0D01*
G01*
X-7271Y1185D02*
G03*
X-6564Y893I707J707D01*
G01*
X-7698Y1870D02*
G03*
X-7515Y1429I623J0D01*
G01*
X-7698Y2043D02*
G03*
X-7990Y2751I-1000J0D01*
G01*
X-7989Y2111D02*
G03*
X-8168Y2542I-610J0D01*
G01*
X-7283Y-1282D02*
G03*
X-6576Y-1575I707J707D01*
G01*
X-8174Y-391D02*
G03*
X-8881Y-98I-707J-707D01*
G01*
X-8236Y-687D02*
G03*
X-8943Y-394I-707J-707D01*
G01*
X2771Y-6102D02*
G03*
X2064Y-6395I0J-1000D01*
G01*
X3604Y-6332D02*
G03*
X3049Y-6102I-555J-555D01*
G01*
X4228Y-7370D02*
G03*
X3935Y-6663I-1000J0D01*
G01*
X3974Y-8571D02*
G03*
X4228Y-7958I-613J613D01*
G01*
X-4040Y-3246D02*
G03*
X-4747Y-2953I-707J-707D01*
G01*
X-6496Y-2953D02*
G03*
X-7203Y-3246I0J-1000D01*
G01*
X-8075Y-3703D02*
G03*
X-7368Y-3410I0J1000D01*
G01*
X-7950Y-3976D02*
G03*
X-7243Y-3683I0J1000D01*
G01*
X-4173Y-4724D02*
G03*
X-4880Y-5017I0J-1000D01*
G01*
X-5038Y-5592D02*
G03*
X-5008Y-5520I-72J72D01*
G01*
X-3231Y-7184D02*
G03*
X-3524Y-7891I707J-707D01*
G01*
X-396Y-4429D02*
G03*
X-532Y-4485I0J-193D01*
G01*
X-2958Y-7235D02*
G03*
X-3251Y-7942I707J-707D01*
G01*
X-165Y-8478D02*
G03*
X128Y-9185I1000J0D01*
G01*
X-211Y-5262D02*
G03*
X-396Y-5709I447J-447D01*
G01*
X-396Y-8542D02*
G03*
X-103Y-9250I1000J0D01*
G01*
X228Y-4823D02*
G03*
X391Y-4429I-394J394D01*
G01*
X4419Y-7297D02*
G03*
X4127Y-6590I-1000J0D01*
G01*
X4320Y-8641D02*
G03*
X4419Y-8400I-241J241D01*
G01*
X3959Y-8791D02*
G03*
X4320Y-8641I0J510D01*
G01*
X3701Y-8684D02*
G03*
X3959Y-8791I258J258D01*
G01*
X5596Y-6116D02*
G03*
X6303Y-6409I707J707D01*
G01*
X5499Y-6325D02*
G03*
X6206Y-6618I707J707D01*
G01*
X3935Y-4346D02*
G03*
X4228Y-5053I1000J0D01*
G01*
X6570Y-3229D02*
G03*
X7277Y-3522I707J707D01*
G01*
X6909Y-2956D02*
G03*
X7616Y-3249I707J707D01*
G01*
X5744Y394D02*
G03*
X5669Y363I0J-106D01*
G01*
X6650Y5807D02*
G03*
X6887Y5906I0J336D01*
G01*
X6962Y6690D02*
G03*
X6686Y6966I-471J-195D01*
G01*
X6887Y5906D02*
G03*
X6962Y6085I-180J180D01*
G01*
X5900Y1170D02*
G03*
X6100Y1652I-482J482D01*
G01*
Y1653D02*
G03*
X5807Y2360I-1000J0D01*
G01*
X5116Y3465D02*
G03*
X5409Y2758I1000J0D01*
G01*
X5234Y5709D02*
G03*
X5116Y5423I286J-286D01*
G01*
X5468Y5807D02*
G03*
X5237Y5711I0J-327D01*
G01*
X4916Y3095D02*
G03*
X5209Y2388I1000J0D01*
G01*
X4916Y6068D02*
G03*
X4820Y6299I-326J0D01*
G01*
D02*
G03*
X4583Y6398I-238J-238D01*
G01*
X4328Y6496D02*
G03*
X4566Y6398I238J238D01*
G01*
X7840Y5120D02*
G03*
X7133Y5413I-707J-707D01*
G01*
X8788Y3961D02*
G03*
X8639Y4322I-510J0D01*
G01*
X8681Y3703D02*
G03*
X8788Y3961I-258J258D01*
G01*
X7421Y3976D02*
G03*
X6715Y3684I0J-998D01*
G01*
X6715D02*
G03*
X6494Y3150I534J-534D01*
G01*
X6201Y1025D02*
G03*
X6494Y1732I-707J707D01*
G01*
X5776Y756D02*
G03*
X6042Y866I0J377D01*
G01*
X3865Y8830D02*
G03*
X3504Y8979I-360J-360D01*
G01*
X4268Y8012D02*
G03*
X3975Y8719I-1000J0D01*
G01*
X4268Y6641D02*
G03*
X4328Y6496I206J0D01*
G01*
X6686Y6966D02*
G03*
X6407Y6966I-140J-337D01*
G01*
X6468Y6696D02*
G03*
X6615Y6757I0J209D01*
G01*
X3504Y8979D02*
G03*
X3246Y8872I0J-365D01*
G01*
X3246Y8606D02*
G03*
X3451Y8691I0J290D01*
G01*
X1474Y8858D02*
G03*
X2084Y8606I610J610D01*
G01*
X-769Y9449D02*
G03*
X-1476Y9156I0J-1000D01*
G01*
X-1714Y8918D02*
G03*
X-1819Y8664I255J-255D01*
G01*
X-1106Y8858D02*
G03*
X-398Y9151I0J1000D01*
G01*
X-2258Y-1192D02*
Y-1098D01*
X-2258Y30D02*
X-2258Y-1098D01*
X-1965Y-1899D02*
X-1953Y-1912D01*
X-1246Y-2205D02*
X-776D01*
X1302Y583D02*
X1313Y571D01*
X1373Y297D02*
Y426D01*
X1615Y1652D02*
X1771Y1496D01*
X2064Y789D02*
Y789D01*
Y789D02*
Y789D01*
X1580Y376D02*
Y376D01*
X273Y2362D02*
X537Y2098D01*
X2064Y789D02*
Y789D01*
Y789D02*
X2064Y280D01*
X-174Y-1652D02*
X-73D01*
X-174D02*
X-174D01*
X-214Y-1652D02*
X-174Y-1652D01*
X-750Y2542D02*
X-162D01*
X-1236Y2270D02*
X-1115Y2391D01*
X-1529Y1563D02*
X-1529Y427D01*
X-1622D02*
X-1622Y427D01*
X-1529Y427D01*
X-1622Y427D02*
X-1622D01*
X-810Y-1331D02*
X-684Y-1457D01*
X-435Y-1850D02*
X-413Y-1828D01*
X-1162Y-2008D02*
X-816D01*
X-1971Y125D02*
Y125D01*
Y-1339D02*
Y125D01*
X-1162Y-2008D02*
X-1162D01*
X1850Y297D02*
Y726D01*
X-1262Y538D02*
Y1221D01*
X-948Y1489D02*
X-262D01*
X157Y1770D02*
X352Y1575D01*
X-262Y1489D02*
X559Y1489D01*
X-1383Y-1414D02*
X-1380Y-1417D01*
X-1529Y-1063D02*
Y-106D01*
X-1095Y-1535D02*
X-1056Y-1575D01*
X559Y1489D02*
X1312Y1489D01*
X683Y1693D02*
X824D01*
X998Y-1212D02*
Y-866D01*
X-927Y2061D02*
X-927Y2142D01*
X309Y2067D02*
X683Y1693D01*
X2832Y-764D02*
Y-106D01*
X-1599Y2382D02*
X-1223Y2758D01*
X-1384Y-2402D02*
X-678D01*
X-2229Y-1946D02*
X-2050Y-2126D01*
X531Y-1946D02*
X1174Y-1946D01*
X1139Y-1693D02*
X1263D01*
X769Y-1772D02*
X949Y-1772D01*
X498Y-1372D02*
Y-866D01*
X-12Y-2126D02*
X1470D01*
X1470Y-1980D02*
X1470Y-2126D01*
X-153Y-1946D02*
X531D01*
X2177Y-1833D02*
X2195Y-1815D01*
X2195Y-1815D02*
X2539Y-1471D01*
X-137D02*
X-103Y-1471D01*
X362Y-1664D02*
X451Y-1752D01*
X-502Y-866D02*
X-502Y-1265D01*
X-726Y2062D02*
X-550D01*
X-502Y866D02*
Y1256D01*
X-1141Y-1811D02*
X-809Y-1811D01*
X-1892Y1675D02*
X-1892Y1427D01*
X-2229Y676D02*
X-2185Y720D01*
X-2522Y-1239D02*
X-2522Y-31D01*
X531Y2537D02*
X824Y2244D01*
X-570Y2758D02*
X-2D01*
X-1421Y2321D02*
X-1277Y2465D01*
X-1714Y1262D02*
X-1714Y1614D01*
X-2065Y497D02*
X-2007Y555D01*
X-1765Y18D02*
X-1765Y-1255D01*
X-684Y2360D02*
X-399D01*
X-4237Y7918D02*
X-3871Y8284D01*
X-4530Y7211D02*
X-4530Y6594D01*
X-4475Y8074D02*
X-3979Y8571D01*
X-4768Y7367D02*
X-4768Y7297D01*
X-6759Y6618D02*
X-6690Y6549D01*
X-5826Y5413D02*
X-5416D01*
X-6611Y4498D02*
Y5638D01*
X-6968Y6409D02*
X-6904Y6345D01*
X-6564Y893D02*
X-4917Y893D01*
X-7515Y1429D02*
X-7271Y1185D01*
X-7698Y1870D02*
Y2043D01*
X-8761Y3522D02*
X-7990Y2751D01*
X-8874Y3249D02*
X-8168Y2542D01*
X-6576Y-1575D02*
X-4924D01*
X-8174Y-391D02*
X-7283Y-1282D01*
X-9451Y-98D02*
X-8881Y-98D01*
X-8236Y-687D02*
X-7663Y-1260D01*
X-9451Y-394D02*
X-8943D01*
X1615Y-6844D02*
X2064Y-6395D01*
X2771Y-6102D02*
X3049D01*
X3604Y-6332D02*
X3935Y-6663D01*
X4228Y-7958D02*
Y-7370D01*
X-4040Y-3246D02*
X-3939Y-3346D01*
X-6496Y-2953D02*
X-4747D01*
X-7368Y-3410D02*
X-7203Y-3246D01*
X-8686Y-3703D02*
X-8075D01*
X-7243Y-3683D02*
X-6797Y-3237D01*
X-8573Y-3976D02*
X-7950Y-3976D01*
X-4173Y-4724D02*
X-2266D01*
X-6620Y-6757D02*
X-4880Y-5017D01*
X-6411Y-6966D02*
X-5038Y-5592D01*
X-3231Y-7184D02*
X-532Y-4485D01*
X-3524Y-7891D02*
X-3524Y-8759D01*
X-2958Y-7235D02*
X-2621Y-6898D01*
X-3251Y-8872D02*
Y-7942D01*
X128Y-9185D02*
X391Y-9449D01*
X-165Y-8478D02*
Y-6384D01*
X-211Y-5262D02*
X228Y-4823D01*
X-396Y-8542D02*
X-396Y-5709D01*
X-103Y-9250D02*
X96Y-9449D01*
X2261Y-4724D02*
X4127Y-6590D01*
X4419Y-8400D02*
Y-7297D01*
X6303Y-6409D02*
X6963D01*
X4419Y-4940D02*
X5596Y-6116D01*
X6206Y-6618D02*
X6755D01*
X4228Y-5053D02*
X5499Y-6325D01*
X3935Y-4346D02*
Y-3346D01*
X7277Y-3522D02*
X8757Y-3522D01*
X4916Y-1575D02*
X6570Y-3229D01*
X7616Y-3249D02*
X8870Y-3249D01*
X6129Y-2176D02*
X6909Y-2956D01*
X9446Y98D02*
X9446Y98D01*
X4426Y98D02*
X9446D01*
X5744Y394D02*
X9446D01*
X5468Y5807D02*
X6650D01*
X6962Y6690D02*
X6962Y6690D01*
X6962Y6690D02*
X6962Y6085D01*
X6100Y1652D02*
Y1653D01*
X5409Y2758D02*
X5807Y2360D01*
X5116Y3465D02*
Y5423D01*
X5234Y5709D02*
X5237Y5711D01*
X5209Y2388D02*
X5877Y1720D01*
X4916Y3095D02*
Y6068D01*
X4566Y6398D02*
X4583D01*
X5411Y5413D02*
X7133D01*
X7840Y5120D02*
X8639Y4322D01*
X7421Y3976D02*
X8568D01*
X6494Y3150D02*
X6494Y1732D01*
X6042Y866D02*
X6201Y1025D01*
X3865Y8830D02*
X3975Y8719D01*
X4268Y6641D02*
Y8012D01*
X4522Y6696D02*
X6468Y6696D01*
X5880Y1150D02*
X5900Y1170D01*
X6393Y6952D02*
X6407Y6966D01*
X3451Y8691D02*
X3519Y8759D01*
X3451Y8691D02*
X3451Y8691D01*
X2084Y8606D02*
X3246Y8606D01*
X-769Y9449D02*
X-396D01*
X-1714Y8918D02*
X-1476Y9156D01*
X-398Y9151D02*
X-101Y9449D01*
X-1479Y8858D02*
X-1106Y8858D01*
D86*
X1373Y297D02*
D03*
X1850D02*
D03*
X824Y1693D02*
D03*
X1258Y-1912D02*
D03*
X155Y-1746D02*
D03*
X-1056Y-1575D02*
D03*
X-631Y-1737D02*
D03*
X2832Y-106D02*
D03*
X-2050Y-2126D02*
D03*
X-1223Y2758D02*
D03*
X-806Y1770D02*
D03*
X-726Y2062D02*
D03*
X-2258Y30D02*
D03*
X1340Y957D02*
D03*
X-1529Y427D02*
D03*
X824Y2244D02*
D03*
X-1765Y18D02*
D03*
X864Y-1535D02*
D03*
X-3979Y8571D02*
D03*
X-3706Y8684D02*
D03*
X-6968Y6409D02*
D03*
X-6759Y6618D02*
D03*
X-8874Y3249D02*
D03*
X-8761Y3522D02*
D03*
X-9451Y-394D02*
D03*
X-9451Y-98D02*
D03*
X-8573Y-3976D02*
D03*
X-8686Y-3703D02*
D03*
X-6411Y-6966D02*
D03*
X-6620Y-6757D02*
D03*
X-3251Y-8872D02*
D03*
X-3524Y-8759D02*
D03*
X391Y-9449D02*
D03*
X96Y-9449D02*
D03*
X3974Y-8571D02*
D03*
X3701Y-8684D02*
D03*
X6963Y-6409D02*
D03*
X6755Y-6618D02*
D03*
X8870Y-3249D02*
D03*
X8757Y-3522D02*
D03*
X9446Y394D02*
D03*
X9446Y98D02*
D03*
X8568Y3976D02*
D03*
X8681Y3703D02*
D03*
X6407Y6966D02*
D03*
X6615Y6757D02*
D03*
X3246Y8872D02*
D03*
X3519Y8759D02*
D03*
X-101Y9449D02*
D03*
X-396Y9449D02*
D03*
X-2266Y-4724D02*
D03*
X2261Y-4724D02*
D03*
X5411Y5413D02*
D03*
X1474Y8858D02*
D03*
X4522Y6696D02*
D03*
X-1479Y8858D02*
D03*
X-4530Y6594D02*
D03*
X-5416Y5413D02*
D03*
X4426Y98D02*
D03*
X4916Y-1575D02*
D03*
X3935Y-3346D02*
D03*
X391Y-4429D02*
D03*
X-4917Y893D02*
D03*
X-4924Y-1575D02*
D03*
X-3939Y-3346D02*
D03*
X-396Y-4429D02*
D03*
X5877Y1720D02*
D03*
X5880Y1150D02*
D03*
X5776Y756D02*
D03*
X5669Y363D02*
D03*
X-1819Y8664D02*
D03*
X-4768Y7297D02*
D03*
X-6611Y4498D02*
D03*
X-2621Y-6898D02*
D03*
X6129Y-2176D02*
D03*
X4419Y-4940D02*
D03*
X1615Y-6844D02*
D03*
X-165Y-6384D02*
D03*
X-5008Y-5520D02*
D03*
X-6797Y-3237D02*
D03*
X-7663Y-1260D02*
D03*
X-7989Y2111D02*
D03*
D87*
X8758Y787D02*
D03*
X-8762Y-787D02*
D03*
X588Y-8661D02*
D03*
X-593Y8661D02*
D03*
D88*
X-3945Y10289D02*
D03*
X-3643Y9562D02*
D03*
X-7594Y8010D02*
D03*
X-7038Y7453D02*
D03*
X-10066Y4488D02*
D03*
X-9338Y4187D02*
D03*
X-11026Y295D02*
D03*
X-10239D02*
D03*
X-10292Y-3942D02*
D03*
X-9564Y-3641D02*
D03*
X-8012Y-7592D02*
D03*
X-7455Y-7035D02*
D03*
X-4490Y-10063D02*
D03*
X-4189Y-9336D02*
D03*
X-298Y-11024D02*
D03*
Y-10236D02*
D03*
X3940Y-10289D02*
D03*
X3639Y-9562D02*
D03*
X7590Y-8010D02*
D03*
X7033Y-7453D02*
D03*
X10061Y-4488D02*
D03*
X9333Y-4187D02*
D03*
X11021Y-295D02*
D03*
X10234Y-295D02*
D03*
X10287Y3942D02*
D03*
X9559Y3641D02*
D03*
X8007Y7592D02*
D03*
X7451Y7035D02*
D03*
X4486Y10063D02*
D03*
X4184Y9336D02*
D03*
X293Y10236D02*
D03*
X293Y11024D02*
D03*
D89*
X-219Y-2539D02*
D03*
X214Y-2539D02*
D03*
X-219Y-2972D02*
D03*
X214Y-2972D02*
D03*
X-2093Y1457D02*
D03*
X-2310Y1082D02*
D03*
X-2468Y1674D02*
D03*
X-2685Y1299D02*
D03*
X2305Y1082D02*
D03*
X2089Y1457D02*
D03*
X2680Y1299D02*
D03*
X2464Y1674D02*
D03*
D90*
X3415Y185D02*
G03*
X3157Y292I-258J-258D01*
G01*
X3729Y-128D02*
G03*
X4132Y-295I403J403D01*
G01*
X2843Y292D02*
X3157D01*
X4132Y-295D02*
X10234D01*
X3415Y185D02*
X3729Y-128D01*
D91*
X2843Y292D02*
G03*
X2698Y232I0J-206D01*
G01*
D02*
G03*
X2594Y-19I251J-251D01*
G01*
X2372Y-1255D02*
G03*
X2594Y-721I-535J535D01*
G01*
X1302Y-463D02*
G03*
X1232Y-295I-237J0D01*
G01*
X1860Y-1467D02*
G03*
X2372Y-1255I0J724D01*
G01*
X1470Y-1355D02*
G03*
X1742Y-1467I271J271D01*
G01*
X1302Y-948D02*
G03*
X1470Y-1355I576J0D01*
G01*
X-2Y-313D02*
G03*
X-316Y-0I-313J0D01*
G01*
X1232Y-295D02*
G03*
X1016Y-206I-216J-216D01*
G01*
X97Y-214D02*
G03*
X-2Y-313I0J-100D01*
G01*
X-1002Y313D02*
G03*
X-689Y0I313J0D01*
G01*
X2594Y-721D02*
Y-19D01*
X1742Y-1467D02*
X1860D01*
X1302Y-948D02*
Y-463D01*
X-2Y-866D02*
Y-313D01*
X157Y-206D02*
X1016D01*
X-689Y0D02*
X-316D01*
X-1002Y313D02*
Y866D01*
X-316Y-0D02*
Y0D01*
D92*
X2195Y-1815D02*
D03*
X3451Y8691D02*
D03*
D93*
X998Y-866D02*
D03*
Y866D02*
D03*
X-502Y866D02*
D03*
X-2Y866D02*
D03*
X-1002D02*
D03*
X498Y866D02*
D03*
X-1002Y-866D02*
D03*
X498Y-866D02*
D03*
X-502Y-866D02*
D03*
X-2Y-866D02*
D03*
M02*
