G04*
G04 #@! TF.GenerationSoftware,Altium Limited,Altium Designer,18.1.6 (161)*
G04*
G04 Layer_Color=8388736*
%FSLAX24Y24*%
%MOIN*%
G70*
G01*
G75*
%ADD47R,0.0395X0.0395*%
G04:AMPARAMS|DCode=48|XSize=59.2mil|YSize=86.7mil|CornerRadius=0mil|HoleSize=0mil|Usage=FLASHONLY|Rotation=67.500|XOffset=0mil|YOffset=0mil|HoleType=Round|Shape=Rectangle|*
%AMROTATEDRECTD48*
4,1,4,0.0287,-0.0439,-0.0514,-0.0107,-0.0287,0.0439,0.0514,0.0107,0.0287,-0.0439,0.0*
%
%ADD48ROTATEDRECTD48*%

G04:AMPARAMS|DCode=49|XSize=74.9mil|YSize=86.7mil|CornerRadius=0mil|HoleSize=0mil|Usage=FLASHONLY|Rotation=67.500|XOffset=0mil|YOffset=0mil|HoleType=Round|Shape=Rectangle|*
%AMROTATEDRECTD49*
4,1,4,0.0257,-0.0512,-0.0544,-0.0180,-0.0257,0.0512,0.0544,0.0180,0.0257,-0.0512,0.0*
%
%ADD49ROTATEDRECTD49*%

G04:AMPARAMS|DCode=50|XSize=59.2mil|YSize=86.7mil|CornerRadius=0mil|HoleSize=0mil|Usage=FLASHONLY|Rotation=337.500|XOffset=0mil|YOffset=0mil|HoleType=Round|Shape=Rectangle|*
%AMROTATEDRECTD50*
4,1,4,-0.0439,-0.0287,-0.0107,0.0514,0.0439,0.0287,0.0107,-0.0514,-0.0439,-0.0287,0.0*
%
%ADD50ROTATEDRECTD50*%

G04:AMPARAMS|DCode=51|XSize=74.9mil|YSize=86.7mil|CornerRadius=0mil|HoleSize=0mil|Usage=FLASHONLY|Rotation=337.500|XOffset=0mil|YOffset=0mil|HoleType=Round|Shape=Rectangle|*
%AMROTATEDRECTD51*
4,1,4,-0.0512,-0.0257,-0.0180,0.0544,0.0512,0.0257,0.0180,-0.0544,-0.0512,-0.0257,0.0*
%
%ADD51ROTATEDRECTD51*%

G04:AMPARAMS|DCode=52|XSize=59.2mil|YSize=86.7mil|CornerRadius=0mil|HoleSize=0mil|Usage=FLASHONLY|Rotation=45.000|XOffset=0mil|YOffset=0mil|HoleType=Round|Shape=Rectangle|*
%AMROTATEDRECTD52*
4,1,4,0.0097,-0.0516,-0.0516,0.0097,-0.0097,0.0516,0.0516,-0.0097,0.0097,-0.0516,0.0*
%
%ADD52ROTATEDRECTD52*%

G04:AMPARAMS|DCode=53|XSize=74.9mil|YSize=86.7mil|CornerRadius=0mil|HoleSize=0mil|Usage=FLASHONLY|Rotation=45.000|XOffset=0mil|YOffset=0mil|HoleType=Round|Shape=Rectangle|*
%AMROTATEDRECTD53*
4,1,4,0.0042,-0.0572,-0.0572,0.0042,-0.0042,0.0572,0.0572,-0.0042,0.0042,-0.0572,0.0*
%
%ADD53ROTATEDRECTD53*%

G04:AMPARAMS|DCode=54|XSize=59.2mil|YSize=86.7mil|CornerRadius=0mil|HoleSize=0mil|Usage=FLASHONLY|Rotation=315.000|XOffset=0mil|YOffset=0mil|HoleType=Round|Shape=Rectangle|*
%AMROTATEDRECTD54*
4,1,4,-0.0516,-0.0097,0.0097,0.0516,0.0516,0.0097,-0.0097,-0.0516,-0.0516,-0.0097,0.0*
%
%ADD54ROTATEDRECTD54*%

G04:AMPARAMS|DCode=55|XSize=74.9mil|YSize=86.7mil|CornerRadius=0mil|HoleSize=0mil|Usage=FLASHONLY|Rotation=315.000|XOffset=0mil|YOffset=0mil|HoleType=Round|Shape=Rectangle|*
%AMROTATEDRECTD55*
4,1,4,-0.0572,-0.0042,0.0042,0.0572,0.0572,0.0042,-0.0042,-0.0572,-0.0572,-0.0042,0.0*
%
%ADD55ROTATEDRECTD55*%

G04:AMPARAMS|DCode=56|XSize=59.2mil|YSize=86.7mil|CornerRadius=0mil|HoleSize=0mil|Usage=FLASHONLY|Rotation=22.500|XOffset=0mil|YOffset=0mil|HoleType=Round|Shape=Rectangle|*
%AMROTATEDRECTD56*
4,1,4,-0.0107,-0.0514,-0.0439,0.0287,0.0107,0.0514,0.0439,-0.0287,-0.0107,-0.0514,0.0*
%
%ADD56ROTATEDRECTD56*%

G04:AMPARAMS|DCode=57|XSize=74.9mil|YSize=86.7mil|CornerRadius=0mil|HoleSize=0mil|Usage=FLASHONLY|Rotation=22.500|XOffset=0mil|YOffset=0mil|HoleType=Round|Shape=Rectangle|*
%AMROTATEDRECTD57*
4,1,4,-0.0180,-0.0544,-0.0512,0.0257,0.0180,0.0544,0.0512,-0.0257,-0.0180,-0.0544,0.0*
%
%ADD57ROTATEDRECTD57*%

G04:AMPARAMS|DCode=58|XSize=59.2mil|YSize=86.7mil|CornerRadius=0mil|HoleSize=0mil|Usage=FLASHONLY|Rotation=292.500|XOffset=0mil|YOffset=0mil|HoleType=Round|Shape=Rectangle|*
%AMROTATEDRECTD58*
4,1,4,-0.0514,0.0107,0.0287,0.0439,0.0514,-0.0107,-0.0287,-0.0439,-0.0514,0.0107,0.0*
%
%ADD58ROTATEDRECTD58*%

G04:AMPARAMS|DCode=59|XSize=74.9mil|YSize=86.7mil|CornerRadius=0mil|HoleSize=0mil|Usage=FLASHONLY|Rotation=292.500|XOffset=0mil|YOffset=0mil|HoleType=Round|Shape=Rectangle|*
%AMROTATEDRECTD59*
4,1,4,-0.0544,0.0180,0.0257,0.0512,0.0544,-0.0180,-0.0257,-0.0512,-0.0544,0.0180,0.0*
%
%ADD59ROTATEDRECTD59*%

%ADD60R,0.0592X0.0867*%
%ADD61R,0.0749X0.0867*%
%ADD62R,0.0867X0.0592*%
%ADD63R,0.0867X0.0749*%
%ADD64R,0.0395X0.0395*%
%ADD65R,0.0237X0.0277*%
G04:AMPARAMS|DCode=66|XSize=23.7mil|YSize=27.7mil|CornerRadius=0mil|HoleSize=0mil|Usage=FLASHONLY|Rotation=60.000|XOffset=0mil|YOffset=0mil|HoleType=Round|Shape=Rectangle|*
%AMROTATEDRECTD66*
4,1,4,0.0061,-0.0172,-0.0179,-0.0034,-0.0061,0.0172,0.0179,0.0034,0.0061,-0.0172,0.0*
%
%ADD66ROTATEDRECTD66*%

G04:AMPARAMS|DCode=67|XSize=23.7mil|YSize=27.7mil|CornerRadius=0mil|HoleSize=0mil|Usage=FLASHONLY|Rotation=300.000|XOffset=0mil|YOffset=0mil|HoleType=Round|Shape=Rectangle|*
%AMROTATEDRECTD67*
4,1,4,-0.0179,0.0034,0.0061,0.0172,0.0179,-0.0034,-0.0061,-0.0172,-0.0179,0.0034,0.0*
%
%ADD67ROTATEDRECTD67*%

%ADD68O,0.0395X0.0178*%
%ADD69O,0.0178X0.0395*%
%ADD70R,0.0919X0.0919*%
G04:AMPARAMS|DCode=71|XSize=17.8mil|YSize=39.5mil|CornerRadius=0mil|HoleSize=0mil|Usage=FLASHONLY|Rotation=330.000|XOffset=0mil|YOffset=0mil|HoleType=Round|Shape=Round|*
%AMOVALD71*
21,1,0.0217,0.0178,0.0000,0.0000,60.0*
1,1,0.0178,-0.0054,-0.0094*
1,1,0.0178,0.0054,0.0094*
%
%ADD71OVALD71*%

G04:AMPARAMS|DCode=72|XSize=17.8mil|YSize=39.5mil|CornerRadius=0mil|HoleSize=0mil|Usage=FLASHONLY|Rotation=240.000|XOffset=0mil|YOffset=0mil|HoleType=Round|Shape=Round|*
%AMOVALD72*
21,1,0.0217,0.0178,0.0000,0.0000,330.0*
1,1,0.0178,-0.0094,0.0054*
1,1,0.0178,0.0094,-0.0054*
%
%ADD72OVALD72*%

%ADD73P,0.1299X4X285.0*%
G04:AMPARAMS|DCode=74|XSize=17.8mil|YSize=39.5mil|CornerRadius=0mil|HoleSize=0mil|Usage=FLASHONLY|Rotation=210.000|XOffset=0mil|YOffset=0mil|HoleType=Round|Shape=Round|*
%AMOVALD74*
21,1,0.0217,0.0178,0.0000,0.0000,300.0*
1,1,0.0178,-0.0054,0.0094*
1,1,0.0178,0.0054,-0.0094*
%
%ADD74OVALD74*%

G04:AMPARAMS|DCode=75|XSize=17.8mil|YSize=39.5mil|CornerRadius=0mil|HoleSize=0mil|Usage=FLASHONLY|Rotation=120.000|XOffset=0mil|YOffset=0mil|HoleType=Round|Shape=Round|*
%AMOVALD75*
21,1,0.0217,0.0178,0.0000,0.0000,210.0*
1,1,0.0178,0.0094,0.0054*
1,1,0.0178,-0.0094,-0.0054*
%
%ADD75OVALD75*%

%ADD76P,0.1299X4X165.0*%
%ADD77R,0.0297X0.0297*%
%ADD78P,0.0419X4X375.0*%
%ADD79P,0.0419X4X255.0*%
%ADD80C,0.0380*%
%ADD81C,0.0474*%
%ADD82C,0.0277*%
G36*
X-2652Y6700D02*
X-2650Y6699D01*
X-2647Y6696D01*
X-2646Y6692D01*
X-2645Y6687D01*
Y6686D01*
Y6684D01*
Y6682D01*
X-2646Y6679D01*
Y6675D01*
X-2647Y6670D01*
X-2647Y6664D01*
X-2633D01*
X-2627Y6664D01*
X-2620D01*
X-2607Y6665D01*
X-2606D01*
X-2604Y6666D01*
X-2601D01*
X-2598Y6667D01*
X-2591Y6667D01*
X-2588Y6668D01*
X-2586D01*
X-2584Y6669D01*
X-2580D01*
X-2576Y6670D01*
X-2568Y6670D01*
X-2564Y6671D01*
X-2557D01*
X-2553Y6670D01*
X-2548Y6668D01*
X-2547Y6667D01*
X-2545Y6666D01*
X-2544Y6662D01*
Y6661D01*
X-2545Y6658D01*
Y6657D01*
X-2545Y6656D01*
X-2547Y6654D01*
X-2548Y6651D01*
X-2553Y6644D01*
X-2557Y6640D01*
X-2561Y6637D01*
X-2562D01*
X-2563Y6635D01*
X-2566Y6634D01*
X-2569Y6632D01*
X-2576Y6629D01*
X-2584Y6626D01*
X-2585D01*
X-2588Y6625D01*
X-2590Y6624D01*
X-2598Y6624D01*
X-2607Y6622D01*
X-2619Y6621D01*
X-2632Y6619D01*
X-2646Y6618D01*
X-2660Y6618D01*
X-2661Y6605D01*
Y6605D01*
X-2662Y6602D01*
X-2663Y6599D01*
X-2663Y6594D01*
X-2665Y6588D01*
X-2666Y6581D01*
X-2668Y6573D01*
X-2670Y6564D01*
X-2672Y6554D01*
X-2674Y6543D01*
X-2679Y6522D01*
X-2684Y6498D01*
X-2690Y6475D01*
Y6474D01*
X-2690Y6472D01*
X-2691Y6469D01*
X-2693Y6464D01*
X-2693Y6459D01*
X-2695Y6452D01*
X-2697Y6445D01*
X-2699Y6436D01*
X-2704Y6418D01*
X-2710Y6398D01*
X-2717Y6377D01*
X-2724Y6356D01*
Y6355D01*
X-2725Y6353D01*
X-2726Y6349D01*
X-2728Y6344D01*
X-2730Y6339D01*
X-2733Y6333D01*
X-2740Y6317D01*
X-2749Y6301D01*
X-2760Y6285D01*
X-2771Y6269D01*
X-2778Y6263D01*
X-2785Y6257D01*
X-2786D01*
X-2787Y6255D01*
X-2789Y6254D01*
X-2792Y6253D01*
X-2795Y6250D01*
X-2800Y6247D01*
X-2806Y6245D01*
X-2811Y6242D01*
X-2825Y6237D01*
X-2842Y6231D01*
X-2861Y6228D01*
X-2882Y6227D01*
X-2889D01*
X-2896Y6228D01*
X-2906Y6229D01*
X-2919Y6231D01*
X-2932Y6234D01*
X-2947Y6239D01*
X-2962Y6245D01*
X-2963D01*
X-2964Y6245D01*
X-2967Y6246D01*
X-2970Y6247D01*
X-2977Y6251D01*
X-2987Y6256D01*
X-2998Y6262D01*
X-3010Y6269D01*
X-3021Y6277D01*
X-3031Y6287D01*
X-3032Y6288D01*
X-3035Y6291D01*
X-3040Y6296D01*
X-3044Y6303D01*
X-3048Y6311D01*
X-3050Y6320D01*
X-3051Y6328D01*
Y6333D01*
X-3050Y6338D01*
Y6339D01*
X-3049Y6340D01*
X-3048Y6342D01*
X-3046Y6345D01*
X-3043Y6348D01*
X-3040Y6352D01*
X-3036Y6355D01*
X-3031Y6359D01*
X-3031Y6360D01*
X-3029Y6360D01*
X-3026Y6363D01*
X-3023Y6365D01*
X-3013Y6371D01*
X-3002Y6376D01*
X-3002D01*
X-3000Y6377D01*
X-2997Y6378D01*
X-2994Y6379D01*
X-2986Y6382D01*
X-2983Y6383D01*
X-2978D01*
X-2974Y6382D01*
X-2970Y6380D01*
X-2967Y6378D01*
X-2967Y6376D01*
Y6375D01*
X-2966Y6372D01*
X-2965Y6368D01*
X-2966Y6366D01*
X-2967Y6364D01*
X-2968Y6361D01*
X-2972Y6358D01*
X-2975Y6355D01*
X-2978Y6353D01*
X-2979D01*
X-2980Y6352D01*
X-2984Y6351D01*
X-2988Y6349D01*
X-2991Y6347D01*
X-2992Y6347D01*
X-2994Y6346D01*
X-2996Y6342D01*
Y6341D01*
X-2997Y6340D01*
Y6337D01*
X-2996Y6334D01*
X-2994Y6330D01*
X-2992Y6325D01*
X-2988Y6319D01*
X-2983Y6312D01*
X-2982Y6312D01*
X-2979Y6309D01*
X-2975Y6306D01*
X-2970Y6302D01*
X-2962Y6297D01*
X-2954Y6292D01*
X-2944Y6287D01*
X-2933Y6282D01*
X-2932D01*
X-2932Y6281D01*
X-2928Y6280D01*
X-2921Y6278D01*
X-2913Y6276D01*
X-2904Y6273D01*
X-2894Y6271D01*
X-2883Y6270D01*
X-2871Y6269D01*
X-2862D01*
X-2857Y6270D01*
X-2849Y6271D01*
X-2843Y6271D01*
X-2835Y6273D01*
X-2829Y6274D01*
X-2828D01*
X-2826Y6276D01*
X-2822Y6277D01*
X-2818Y6280D01*
X-2814Y6283D01*
X-2808Y6287D01*
X-2803Y6292D01*
X-2797Y6298D01*
X-2796Y6299D01*
X-2794Y6302D01*
X-2791Y6306D01*
X-2787Y6313D01*
X-2783Y6321D01*
X-2779Y6331D01*
X-2773Y6343D01*
X-2768Y6357D01*
Y6358D01*
X-2768Y6360D01*
X-2766Y6364D01*
X-2764Y6370D01*
X-2762Y6377D01*
X-2760Y6386D01*
X-2757Y6397D01*
X-2753Y6410D01*
X-2749Y6424D01*
X-2745Y6441D01*
X-2741Y6459D01*
X-2736Y6479D01*
X-2731Y6500D01*
X-2725Y6524D01*
X-2720Y6551D01*
X-2714Y6578D01*
Y6579D01*
X-2714Y6581D01*
X-2713Y6584D01*
X-2712Y6586D01*
X-2710Y6594D01*
X-2709Y6603D01*
Y6604D01*
X-2708Y6605D01*
X-2707Y6610D01*
X-2706Y6614D01*
X-2706Y6616D01*
Y6618D01*
X-2747D01*
X-2757Y6618D01*
X-2776D01*
X-2779Y6619D01*
X-2784D01*
X-2795Y6620D01*
X-2808Y6621D01*
X-2821Y6621D01*
X-2834Y6623D01*
X-2846Y6624D01*
X-2847D01*
X-2848Y6625D01*
X-2852Y6626D01*
X-2858Y6629D01*
X-2862Y6633D01*
Y6634D01*
X-2863Y6635D01*
X-2865Y6639D01*
Y6645D01*
Y6648D01*
X-2863Y6653D01*
X-2862Y6654D01*
X-2861Y6656D01*
X-2858Y6660D01*
X-2854Y6664D01*
X-2852Y6664D01*
X-2849Y6667D01*
X-2844Y6669D01*
X-2838Y6670D01*
X-2830D01*
X-2826Y6669D01*
X-2821D01*
X-2809Y6667D01*
X-2805D01*
X-2802Y6667D01*
X-2798D01*
X-2793Y6666D01*
X-2781D01*
X-2768Y6665D01*
X-2752Y6664D01*
X-2734Y6664D01*
X-2696D01*
Y6664D01*
Y6665D01*
X-2695Y6670D01*
X-2694Y6675D01*
X-2692Y6681D01*
Y6682D01*
X-2691Y6683D01*
X-2689Y6686D01*
X-2684Y6691D01*
X-2678Y6696D01*
X-2677D01*
X-2676Y6697D01*
X-2674Y6698D01*
X-2671Y6699D01*
X-2665Y6702D01*
X-2658Y6702D01*
X-2655D01*
X-2652Y6700D01*
D02*
G37*
G36*
X593Y6704D02*
X596Y6702D01*
X597Y6702D01*
X600Y6700D01*
X603Y6697D01*
X606Y6692D01*
X607Y6691D01*
X608Y6688D01*
X611Y6684D01*
X613Y6678D01*
X614Y6677D01*
X616Y6673D01*
X616Y6670D01*
Y6666D01*
Y6665D01*
X615Y6664D01*
X613Y6661D01*
X611Y6658D01*
X606Y6655D01*
X600Y6652D01*
X593Y6651D01*
X584Y6650D01*
X581D01*
X579Y6651D01*
X576Y6651D01*
X569Y6654D01*
X565Y6656D01*
X562Y6660D01*
X561Y6661D01*
X560Y6662D01*
X557Y6667D01*
X555Y6673D01*
X554Y6676D01*
X555Y6680D01*
Y6680D01*
X556Y6681D01*
X558Y6685D01*
X562Y6691D01*
X565Y6694D01*
X569Y6697D01*
X570Y6697D01*
X571Y6698D01*
X573Y6699D01*
X576Y6701D01*
X583Y6703D01*
X587Y6705D01*
X592D01*
X593Y6704D01*
D02*
G37*
G36*
X-760Y6685D02*
X-758Y6683D01*
X-756Y6680D01*
Y6678D01*
X-757Y6673D01*
Y6672D01*
X-758Y6671D01*
X-759Y6669D01*
X-761Y6667D01*
X-764Y6664D01*
X-767Y6660D01*
X-771Y6657D01*
X-777Y6654D01*
X-777Y6654D01*
X-780Y6653D01*
X-785Y6651D01*
X-793Y6648D01*
X-801Y6645D01*
X-812Y6642D01*
X-824Y6638D01*
X-838Y6634D01*
X-839D01*
X-839Y6633D01*
X-842D01*
X-844Y6632D01*
X-852Y6630D01*
X-861Y6628D01*
X-871Y6626D01*
X-882Y6623D01*
X-893Y6621D01*
X-904Y6618D01*
X-905D01*
X-907Y6618D01*
X-910D01*
X-917Y6616D01*
X-928Y6615D01*
X-939Y6613D01*
X-952Y6611D01*
X-966Y6609D01*
X-980Y6608D01*
X-982D01*
X-986Y6607D01*
X-992Y6606D01*
X-999Y6605D01*
X-1007Y6605D01*
X-1014Y6604D01*
X-1019D01*
X-1021Y6603D01*
X-1022D01*
X-1023Y6602D01*
X-1024Y6598D01*
X-1026Y6592D01*
X-1029Y6584D01*
X-1032Y6573D01*
X-1036Y6562D01*
X-1040Y6549D01*
X-1044Y6535D01*
Y6534D01*
X-1045Y6533D01*
X-1046Y6529D01*
X-1048Y6522D01*
X-1050Y6515D01*
X-1053Y6507D01*
X-1055Y6500D01*
X-1057Y6493D01*
X-1058Y6489D01*
X-1057D01*
X-1054Y6489D01*
X-1049Y6490D01*
X-1042Y6492D01*
X-1032Y6493D01*
X-1019Y6495D01*
X-1012Y6497D01*
X-1004Y6498D01*
X-995Y6500D01*
X-986Y6501D01*
X-966Y6503D01*
X-966D01*
X-964Y6504D01*
X-962D01*
X-959Y6505D01*
X-952Y6506D01*
X-942Y6509D01*
X-931Y6512D01*
X-920Y6516D01*
X-909Y6522D01*
X-898Y6527D01*
X-898Y6528D01*
X-896Y6529D01*
X-893Y6530D01*
X-890Y6532D01*
X-882Y6536D01*
X-878Y6537D01*
X-874Y6538D01*
X-873D01*
X-870Y6537D01*
X-867Y6535D01*
X-865Y6530D01*
Y6529D01*
X-864Y6526D01*
Y6522D01*
X-865Y6517D01*
Y6516D01*
X-866Y6514D01*
X-869Y6511D01*
X-871Y6508D01*
X-877Y6503D01*
X-883Y6498D01*
X-892Y6493D01*
X-903Y6487D01*
X-904Y6487D01*
X-909Y6485D01*
X-914Y6483D01*
X-922Y6479D01*
X-933Y6476D01*
X-944Y6473D01*
X-955Y6470D01*
X-967Y6467D01*
X-968D01*
X-972Y6466D01*
X-978Y6465D01*
X-986Y6463D01*
X-995Y6462D01*
X-1006Y6460D01*
X-1017Y6458D01*
X-1030Y6456D01*
X-1031D01*
X-1035Y6455D01*
X-1041Y6454D01*
X-1046Y6453D01*
X-1053Y6452D01*
X-1060Y6452D01*
X-1065Y6451D01*
X-1068Y6450D01*
Y6449D01*
X-1069Y6446D01*
X-1070Y6441D01*
X-1073Y6434D01*
X-1075Y6425D01*
X-1077Y6416D01*
X-1080Y6406D01*
X-1083Y6395D01*
X-1089Y6371D01*
X-1093Y6346D01*
X-1095Y6334D01*
X-1097Y6323D01*
X-1097Y6312D01*
X-1098Y6302D01*
X-1097D01*
X-1096Y6301D01*
X-1093Y6301D01*
X-1089Y6300D01*
X-1085Y6298D01*
X-1080Y6297D01*
X-1069Y6295D01*
X-1068D01*
X-1066Y6294D01*
X-1062D01*
X-1057Y6293D01*
X-1052Y6293D01*
X-1044D01*
X-1036Y6292D01*
X-1022D01*
X-1017Y6293D01*
X-1009D01*
X-1002Y6293D01*
X-992Y6295D01*
X-974Y6298D01*
X-972D01*
X-969Y6300D01*
X-964Y6301D01*
X-958Y6304D01*
X-952Y6306D01*
X-944Y6309D01*
X-937Y6312D01*
X-931Y6315D01*
X-930Y6316D01*
X-928Y6317D01*
X-925Y6319D01*
X-922Y6321D01*
X-915Y6326D01*
X-913Y6329D01*
X-912Y6331D01*
Y6332D01*
X-911Y6333D01*
Y6338D01*
Y6339D01*
Y6341D01*
X-912Y6344D01*
X-912Y6347D01*
Y6347D01*
X-913Y6349D01*
X-914Y6351D01*
X-914Y6354D01*
Y6355D01*
X-915Y6357D01*
Y6360D01*
X-914Y6363D01*
Y6363D01*
X-914Y6365D01*
X-912Y6366D01*
X-910Y6369D01*
X-907Y6371D01*
X-903Y6373D01*
X-897Y6374D01*
X-890Y6375D01*
X-888D01*
X-886Y6374D01*
X-883Y6374D01*
X-880Y6372D01*
X-877Y6371D01*
X-874Y6368D01*
X-872Y6364D01*
Y6363D01*
X-871Y6363D01*
X-871Y6360D01*
X-870Y6358D01*
X-869Y6350D01*
Y6347D01*
X-871Y6342D01*
Y6341D01*
X-872Y6339D01*
X-874Y6334D01*
X-877Y6328D01*
X-882Y6322D01*
X-888Y6315D01*
X-896Y6306D01*
X-904Y6298D01*
X-906Y6298D01*
X-909Y6295D01*
X-914Y6291D01*
X-922Y6287D01*
X-931Y6282D01*
X-941Y6276D01*
X-954Y6271D01*
X-967Y6266D01*
X-968D01*
X-968Y6265D01*
X-971Y6264D01*
X-974Y6263D01*
X-981Y6262D01*
X-990Y6260D01*
X-1001Y6257D01*
X-1014Y6255D01*
X-1027Y6254D01*
X-1042Y6253D01*
X-1056D01*
X-1065Y6254D01*
X-1075D01*
X-1085Y6255D01*
X-1096Y6256D01*
X-1105Y6258D01*
X-1106D01*
X-1109Y6258D01*
X-1113Y6260D01*
X-1119Y6261D01*
X-1129Y6266D01*
X-1134Y6270D01*
X-1138Y6274D01*
X-1139Y6275D01*
X-1140Y6278D01*
X-1141Y6282D01*
X-1143Y6289D01*
X-1143Y6298D01*
Y6308D01*
X-1143Y6321D01*
X-1140Y6336D01*
Y6336D01*
X-1140Y6338D01*
Y6340D01*
X-1139Y6344D01*
X-1138Y6347D01*
X-1137Y6352D01*
X-1135Y6358D01*
X-1134Y6366D01*
X-1132Y6373D01*
X-1130Y6381D01*
X-1125Y6399D01*
X-1120Y6419D01*
X-1113Y6443D01*
X-1115Y6442D01*
X-1119Y6441D01*
X-1122Y6441D01*
X-1125Y6439D01*
X-1130Y6438D01*
X-1135Y6438D01*
X-1138D01*
X-1140Y6437D01*
X-1144D01*
X-1151Y6436D01*
X-1159Y6436D01*
X-1160D01*
X-1165Y6436D01*
X-1169Y6438D01*
X-1173Y6442D01*
X-1174Y6444D01*
X-1175Y6446D01*
X-1175Y6452D01*
X-1175Y6458D01*
X-1174Y6459D01*
X-1173Y6462D01*
X-1171Y6465D01*
X-1169Y6468D01*
X-1168Y6469D01*
X-1166Y6471D01*
X-1162Y6473D01*
X-1157Y6475D01*
X-1156D01*
X-1153Y6476D01*
X-1149D01*
X-1145Y6476D01*
X-1135Y6477D01*
X-1130Y6478D01*
X-1126D01*
X-1104Y6481D01*
Y6481D01*
X-1103Y6484D01*
X-1102Y6488D01*
X-1100Y6493D01*
X-1098Y6500D01*
X-1096Y6507D01*
X-1093Y6515D01*
X-1091Y6524D01*
X-1085Y6543D01*
X-1079Y6562D01*
X-1073Y6582D01*
X-1068Y6600D01*
X-1073D01*
X-1076Y6600D01*
X-1105Y6599D01*
X-1107D01*
X-1111Y6600D01*
X-1114Y6601D01*
X-1118Y6603D01*
X-1119Y6604D01*
X-1119Y6607D01*
Y6610D01*
X-1119Y6615D01*
Y6616D01*
X-1117Y6618D01*
X-1115Y6621D01*
X-1112Y6626D01*
X-1108Y6630D01*
X-1102Y6635D01*
X-1095Y6638D01*
X-1085Y6641D01*
X-1084D01*
X-1079Y6642D01*
X-1073Y6643D01*
X-1065Y6643D01*
X-1064D01*
X-1062Y6644D01*
X-1058Y6645D01*
X-1053Y6645D01*
X-1051D01*
X-1050Y6646D01*
X-1048Y6648D01*
X-1044Y6650D01*
X-1040Y6652D01*
X-1035Y6654D01*
X-1029Y6656D01*
X-1023Y6658D01*
X-1017Y6659D01*
X-1016D01*
X-1013Y6658D01*
X-1011Y6656D01*
X-1010Y6652D01*
Y6651D01*
X-1009Y6649D01*
X-1009Y6648D01*
X-1008Y6649D01*
X-1001D01*
X-998Y6650D01*
X-994D01*
X-984Y6651D01*
X-971Y6651D01*
X-955Y6654D01*
X-936Y6655D01*
X-914Y6658D01*
X-912D01*
X-910Y6659D01*
X-907Y6659D01*
X-903D01*
X-898Y6661D01*
X-892Y6662D01*
X-885Y6663D01*
X-877Y6664D01*
X-868Y6666D01*
X-858Y6668D01*
X-847Y6670D01*
X-835Y6672D01*
X-822Y6675D01*
X-808Y6678D01*
X-793Y6681D01*
X-766Y6686D01*
X-764D01*
X-760Y6685D01*
D02*
G37*
G36*
X1487Y6584D02*
X1496Y6581D01*
X1504Y6577D01*
X1505D01*
X1507Y6575D01*
X1511Y6573D01*
X1516Y6567D01*
X1520Y6559D01*
Y6559D01*
X1521Y6557D01*
X1522Y6555D01*
X1523Y6553D01*
X1523Y6546D01*
X1523Y6542D01*
X1522Y6538D01*
X1521Y6536D01*
X1519Y6532D01*
X1517Y6530D01*
X1514Y6527D01*
X1510Y6524D01*
X1506Y6520D01*
X1505D01*
X1504Y6519D01*
X1501Y6517D01*
X1499Y6516D01*
X1492Y6513D01*
X1488Y6512D01*
X1485Y6511D01*
X1484D01*
X1481Y6512D01*
X1477Y6514D01*
X1474Y6516D01*
X1474Y6516D01*
X1472Y6519D01*
X1470Y6523D01*
X1468Y6528D01*
Y6529D01*
X1466Y6532D01*
X1464Y6534D01*
X1461Y6537D01*
X1461Y6538D01*
X1458Y6539D01*
X1455Y6540D01*
X1451Y6540D01*
X1450D01*
X1448Y6540D01*
X1445Y6538D01*
X1439Y6535D01*
X1431Y6530D01*
X1426Y6526D01*
X1420Y6521D01*
X1415Y6516D01*
X1407Y6510D01*
X1400Y6503D01*
X1392Y6495D01*
X1391Y6494D01*
X1390Y6492D01*
X1388Y6490D01*
X1384Y6487D01*
X1380Y6482D01*
X1375Y6476D01*
X1369Y6471D01*
X1363Y6463D01*
X1356Y6455D01*
X1348Y6446D01*
X1340Y6437D01*
X1332Y6426D01*
X1313Y6403D01*
X1294Y6378D01*
Y6377D01*
X1294Y6376D01*
X1293Y6373D01*
X1291Y6369D01*
X1290Y6365D01*
X1289Y6358D01*
X1286Y6352D01*
X1284Y6344D01*
Y6343D01*
X1283Y6340D01*
X1282Y6336D01*
X1281Y6331D01*
X1278Y6321D01*
X1277Y6316D01*
X1275Y6312D01*
X1269Y6285D01*
Y6285D01*
X1268Y6284D01*
X1266Y6280D01*
X1262Y6274D01*
X1257Y6267D01*
X1256Y6266D01*
X1251Y6263D01*
X1245Y6260D01*
X1240Y6259D01*
X1235Y6258D01*
X1235D01*
X1233Y6259D01*
X1230Y6260D01*
X1228Y6262D01*
X1226Y6266D01*
X1224Y6271D01*
Y6279D01*
X1226Y6289D01*
Y6290D01*
X1227Y6290D01*
X1227Y6295D01*
X1230Y6302D01*
X1232Y6312D01*
X1235Y6324D01*
X1240Y6339D01*
X1245Y6355D01*
X1251Y6375D01*
Y6376D01*
X1252Y6377D01*
X1253Y6381D01*
X1254Y6385D01*
X1256Y6390D01*
X1258Y6397D01*
X1260Y6405D01*
X1263Y6414D01*
X1264Y6415D01*
X1265Y6418D01*
X1267Y6424D01*
X1269Y6431D01*
X1272Y6441D01*
X1275Y6451D01*
X1279Y6463D01*
X1283Y6476D01*
Y6476D01*
X1283Y6478D01*
X1284Y6481D01*
X1286Y6484D01*
X1287Y6489D01*
X1289Y6494D01*
X1292Y6506D01*
X1296Y6518D01*
X1300Y6530D01*
X1304Y6542D01*
X1308Y6552D01*
Y6553D01*
X1309Y6555D01*
X1311Y6559D01*
X1314Y6562D01*
X1318Y6566D01*
X1324Y6570D01*
X1330Y6572D01*
X1338Y6573D01*
X1340D01*
X1346Y6571D01*
X1349Y6570D01*
X1351Y6567D01*
X1353Y6565D01*
Y6561D01*
Y6560D01*
Y6559D01*
X1352Y6556D01*
X1351Y6552D01*
X1350Y6546D01*
X1348Y6540D01*
X1346Y6532D01*
X1343Y6523D01*
X1312Y6433D01*
X1313Y6435D01*
X1315Y6438D01*
X1320Y6446D01*
X1326Y6457D01*
X1334Y6469D01*
X1343Y6482D01*
X1354Y6496D01*
X1367Y6510D01*
X1367Y6511D01*
X1368Y6511D01*
X1372Y6516D01*
X1379Y6522D01*
X1387Y6530D01*
X1397Y6539D01*
X1407Y6548D01*
X1418Y6557D01*
X1429Y6565D01*
X1431Y6565D01*
X1434Y6567D01*
X1439Y6571D01*
X1446Y6575D01*
X1454Y6578D01*
X1462Y6581D01*
X1470Y6584D01*
X1477Y6584D01*
X1483D01*
X1487Y6584D01*
D02*
G37*
G36*
X447D02*
X455Y6581D01*
X464Y6577D01*
X465D01*
X466Y6575D01*
X471Y6573D01*
X476Y6567D01*
X480Y6559D01*
Y6559D01*
X481Y6557D01*
X482Y6555D01*
X482Y6553D01*
X483Y6546D01*
X482Y6542D01*
X482Y6538D01*
X481Y6536D01*
X479Y6532D01*
X476Y6530D01*
X474Y6527D01*
X470Y6524D01*
X466Y6520D01*
X465D01*
X463Y6519D01*
X461Y6517D01*
X458Y6516D01*
X452Y6513D01*
X448Y6512D01*
X445Y6511D01*
X444D01*
X441Y6512D01*
X437Y6514D01*
X434Y6516D01*
X433Y6516D01*
X432Y6519D01*
X430Y6523D01*
X428Y6528D01*
Y6529D01*
X426Y6532D01*
X424Y6534D01*
X421Y6537D01*
X420Y6538D01*
X418Y6539D01*
X415Y6540D01*
X411Y6540D01*
X410D01*
X408Y6540D01*
X404Y6538D01*
X398Y6535D01*
X390Y6530D01*
X385Y6526D01*
X380Y6521D01*
X374Y6516D01*
X367Y6510D01*
X360Y6503D01*
X352Y6495D01*
X351Y6494D01*
X350Y6492D01*
X347Y6490D01*
X344Y6487D01*
X339Y6482D01*
X335Y6476D01*
X329Y6471D01*
X323Y6463D01*
X315Y6455D01*
X308Y6446D01*
X300Y6437D01*
X291Y6426D01*
X273Y6403D01*
X254Y6378D01*
Y6377D01*
X253Y6376D01*
X253Y6373D01*
X251Y6369D01*
X250Y6365D01*
X248Y6358D01*
X246Y6352D01*
X244Y6344D01*
Y6343D01*
X243Y6340D01*
X242Y6336D01*
X241Y6331D01*
X238Y6321D01*
X237Y6316D01*
X235Y6312D01*
X229Y6285D01*
Y6285D01*
X228Y6284D01*
X226Y6280D01*
X222Y6274D01*
X217Y6267D01*
X215Y6266D01*
X211Y6263D01*
X205Y6260D01*
X200Y6259D01*
X195Y6258D01*
X194D01*
X193Y6259D01*
X190Y6260D01*
X188Y6262D01*
X186Y6266D01*
X184Y6271D01*
Y6279D01*
X186Y6289D01*
Y6290D01*
X186Y6290D01*
X187Y6295D01*
X189Y6302D01*
X191Y6312D01*
X195Y6324D01*
X199Y6339D01*
X205Y6355D01*
X211Y6375D01*
Y6376D01*
X212Y6377D01*
X213Y6381D01*
X214Y6385D01*
X215Y6390D01*
X218Y6397D01*
X220Y6405D01*
X223Y6414D01*
X223Y6415D01*
X224Y6418D01*
X226Y6424D01*
X229Y6431D01*
X232Y6441D01*
X234Y6451D01*
X239Y6463D01*
X242Y6476D01*
Y6476D01*
X243Y6478D01*
X244Y6481D01*
X245Y6484D01*
X247Y6489D01*
X248Y6494D01*
X252Y6506D01*
X256Y6518D01*
X260Y6530D01*
X264Y6542D01*
X267Y6552D01*
Y6553D01*
X269Y6555D01*
X271Y6559D01*
X274Y6562D01*
X277Y6566D01*
X283Y6570D01*
X290Y6572D01*
X298Y6573D01*
X300D01*
X306Y6571D01*
X309Y6570D01*
X311Y6567D01*
X312Y6565D01*
Y6561D01*
Y6560D01*
Y6559D01*
X312Y6556D01*
X311Y6552D01*
X310Y6546D01*
X308Y6540D01*
X306Y6532D01*
X303Y6523D01*
X272Y6433D01*
X273Y6435D01*
X275Y6438D01*
X280Y6446D01*
X285Y6457D01*
X293Y6469D01*
X303Y6482D01*
X314Y6496D01*
X326Y6510D01*
X327Y6511D01*
X328Y6511D01*
X332Y6516D01*
X339Y6522D01*
X347Y6530D01*
X357Y6539D01*
X367Y6548D01*
X378Y6557D01*
X389Y6565D01*
X390Y6565D01*
X394Y6567D01*
X399Y6571D01*
X406Y6575D01*
X414Y6578D01*
X422Y6581D01*
X430Y6584D01*
X437Y6584D01*
X443D01*
X447Y6584D01*
D02*
G37*
G36*
X17Y6683D02*
X27D01*
X38Y6682D01*
X50Y6681D01*
X64Y6680D01*
X78Y6678D01*
X92Y6677D01*
X122Y6672D01*
X151Y6665D01*
X165Y6662D01*
X178Y6656D01*
X178D01*
X180Y6655D01*
X183Y6654D01*
X187Y6651D01*
X197Y6645D01*
X202Y6640D01*
X207Y6635D01*
X212Y6629D01*
X217Y6623D01*
X221Y6615D01*
X223Y6607D01*
X225Y6598D01*
Y6588D01*
X223Y6577D01*
X221Y6565D01*
Y6565D01*
X220Y6563D01*
X218Y6560D01*
X217Y6557D01*
X215Y6552D01*
X213Y6547D01*
X206Y6535D01*
X198Y6520D01*
X187Y6504D01*
X174Y6487D01*
X159Y6470D01*
X158Y6469D01*
X156Y6468D01*
X154Y6465D01*
X151Y6462D01*
X146Y6457D01*
X140Y6452D01*
X134Y6446D01*
X127Y6441D01*
X118Y6433D01*
X108Y6425D01*
X98Y6417D01*
X87Y6409D01*
X75Y6399D01*
X62Y6390D01*
X48Y6379D01*
X32Y6369D01*
X32Y6368D01*
X30Y6368D01*
X27Y6366D01*
X24Y6363D01*
X19Y6360D01*
X14Y6357D01*
X8Y6352D01*
X1Y6348D01*
X-14Y6339D01*
X-32Y6328D01*
X-50Y6316D01*
X-69Y6304D01*
X-70D01*
X-71Y6303D01*
X-74Y6301D01*
X-77Y6299D01*
X-81Y6297D01*
X-86Y6294D01*
X-97Y6288D01*
X-110Y6282D01*
X-124Y6275D01*
X-136Y6269D01*
X-148Y6264D01*
X-148Y6263D01*
X-150Y6261D01*
X-153Y6257D01*
X-159Y6253D01*
X-160Y6253D01*
X-163Y6251D01*
X-168Y6249D01*
X-175Y6248D01*
X-177D01*
X-180Y6249D01*
X-184Y6250D01*
X-187Y6253D01*
X-188Y6253D01*
Y6255D01*
X-188Y6259D01*
X-187Y6265D01*
X-186Y6266D01*
X-185Y6268D01*
X-185Y6271D01*
X-183Y6274D01*
X-181Y6280D01*
X-177Y6288D01*
X-174Y6296D01*
X-173Y6298D01*
X-172Y6301D01*
X-169Y6306D01*
X-166Y6315D01*
X-162Y6324D01*
X-158Y6334D01*
X-153Y6347D01*
X-149Y6360D01*
Y6360D01*
X-148Y6363D01*
X-147Y6366D01*
X-145Y6370D01*
X-144Y6376D01*
X-142Y6382D01*
X-139Y6389D01*
X-137Y6397D01*
X-131Y6414D01*
X-125Y6433D01*
X-118Y6453D01*
X-113Y6472D01*
Y6473D01*
X-112Y6475D01*
X-110Y6478D01*
X-110Y6481D01*
X-108Y6487D01*
X-106Y6492D01*
X-102Y6505D01*
X-98Y6518D01*
X-93Y6532D01*
X-89Y6545D01*
X-87Y6550D01*
X-86Y6555D01*
Y6556D01*
X-85Y6557D01*
X-83Y6562D01*
X-81Y6568D01*
X-77Y6577D01*
X-73Y6586D01*
X-68Y6597D01*
X-63Y6606D01*
X-57Y6616D01*
X-56Y6616D01*
X-54Y6619D01*
X-51Y6622D01*
X-48Y6626D01*
X-43Y6629D01*
X-37Y6633D01*
X-30Y6635D01*
X-24Y6636D01*
X-20D01*
X-16Y6635D01*
X-12Y6633D01*
X-11Y6632D01*
X-9Y6631D01*
X-8Y6627D01*
Y6625D01*
X-9Y6622D01*
X-10Y6621D01*
X-11Y6619D01*
X-12Y6617D01*
X-14Y6614D01*
X-16Y6610D01*
X-20Y6605D01*
X-24Y6599D01*
X-24Y6598D01*
X-26Y6596D01*
X-27Y6592D01*
X-30Y6588D01*
X-33Y6583D01*
X-35Y6578D01*
X-40Y6565D01*
Y6565D01*
X-41Y6563D01*
X-42Y6560D01*
X-43Y6557D01*
X-45Y6552D01*
X-47Y6547D01*
X-49Y6540D01*
X-51Y6534D01*
X-56Y6519D01*
X-62Y6501D01*
X-68Y6483D01*
X-74Y6463D01*
Y6463D01*
X-75Y6460D01*
X-76Y6456D01*
X-78Y6451D01*
X-80Y6445D01*
X-82Y6438D01*
X-87Y6422D01*
X-93Y6405D01*
X-98Y6389D01*
X-100Y6382D01*
X-102Y6375D01*
X-105Y6369D01*
X-106Y6365D01*
Y6364D01*
X-107Y6363D01*
X-107Y6360D01*
X-108Y6358D01*
X-111Y6350D01*
X-114Y6341D01*
X-117Y6333D01*
X-120Y6325D01*
X-121Y6321D01*
X-122Y6318D01*
X-123Y6317D01*
X-124Y6315D01*
X-123Y6316D01*
X-121Y6317D01*
X-116Y6319D01*
X-110Y6323D01*
X-102Y6327D01*
X-91Y6333D01*
X-78Y6340D01*
X-70Y6344D01*
X-62Y6349D01*
X-61D01*
X-59Y6351D01*
X-57Y6352D01*
X-54Y6354D01*
X-49Y6357D01*
X-45Y6360D01*
X-33Y6366D01*
X-21Y6374D01*
X-7Y6382D01*
X6Y6390D01*
X19Y6399D01*
X20Y6400D01*
X22Y6401D01*
X26Y6403D01*
X31Y6407D01*
X37Y6411D01*
X43Y6416D01*
X51Y6422D01*
X59Y6428D01*
X76Y6441D01*
X94Y6455D01*
X110Y6470D01*
X119Y6477D01*
X126Y6484D01*
X127Y6485D01*
X127Y6486D01*
X129Y6488D01*
X132Y6491D01*
X138Y6498D01*
X146Y6508D01*
X155Y6520D01*
X163Y6533D01*
X171Y6548D01*
X177Y6562D01*
Y6563D01*
X178Y6565D01*
Y6567D01*
X178Y6570D01*
X179Y6578D01*
X178Y6587D01*
X176Y6592D01*
X174Y6597D01*
X171Y6602D01*
X167Y6608D01*
X162Y6613D01*
X155Y6617D01*
X147Y6621D01*
X137Y6625D01*
X137D01*
X135Y6626D01*
X132Y6627D01*
X127Y6628D01*
X122Y6629D01*
X115Y6631D01*
X107Y6632D01*
X98Y6635D01*
X87Y6636D01*
X76Y6637D01*
X63Y6639D01*
X49Y6640D01*
X34Y6642D01*
X18Y6643D01*
X0Y6643D01*
X-30D01*
X-40Y6643D01*
X-51Y6642D01*
X-66Y6640D01*
X-83Y6638D01*
X-102Y6636D01*
X-105D01*
X-107Y6635D01*
X-110D01*
X-115Y6635D01*
X-120Y6633D01*
X-126Y6632D01*
X-134Y6630D01*
X-135D01*
X-137Y6629D01*
X-141Y6629D01*
X-146Y6627D01*
X-151Y6627D01*
X-153D01*
X-156Y6628D01*
X-160Y6631D01*
X-161Y6633D01*
X-163Y6637D01*
Y6637D01*
Y6639D01*
X-164Y6641D01*
Y6643D01*
X-163Y6651D01*
X-161Y6658D01*
X-161Y6659D01*
X-159Y6662D01*
X-156Y6664D01*
X-152Y6667D01*
X-151D01*
X-150Y6668D01*
X-146Y6670D01*
X-140Y6672D01*
X-132Y6673D01*
X-131D01*
X-129Y6674D01*
X-126D01*
X-118Y6675D01*
X-110Y6676D01*
X-99Y6678D01*
X-89Y6678D01*
X-77Y6680D01*
X-66Y6680D01*
X-64D01*
X-61Y6681D01*
X-55D01*
X-47Y6682D01*
X-37Y6683D01*
X-27D01*
X-15Y6683D01*
X9D01*
X17Y6683D01*
D02*
G37*
G36*
X-583Y6683D02*
X-573D01*
X-562Y6682D01*
X-550Y6681D01*
X-536Y6680D01*
X-522Y6678D01*
X-508Y6677D01*
X-478Y6672D01*
X-449Y6665D01*
X-435Y6662D01*
X-422Y6656D01*
X-422D01*
X-419Y6655D01*
X-417Y6654D01*
X-413Y6651D01*
X-403Y6645D01*
X-398Y6640D01*
X-393Y6635D01*
X-388Y6629D01*
X-383Y6623D01*
X-379Y6615D01*
X-377Y6607D01*
X-375Y6598D01*
Y6588D01*
X-376Y6577D01*
X-379Y6565D01*
Y6565D01*
X-380Y6563D01*
X-382Y6560D01*
X-383Y6557D01*
X-384Y6552D01*
X-387Y6547D01*
X-394Y6535D01*
X-402Y6520D01*
X-413Y6504D01*
X-426Y6487D01*
X-441Y6470D01*
X-442Y6469D01*
X-444Y6468D01*
X-446Y6465D01*
X-449Y6462D01*
X-454Y6457D01*
X-460Y6452D01*
X-466Y6446D01*
X-473Y6441D01*
X-482Y6433D01*
X-492Y6425D01*
X-502Y6417D01*
X-513Y6409D01*
X-525Y6399D01*
X-538Y6390D01*
X-552Y6379D01*
X-567Y6369D01*
X-568Y6368D01*
X-570Y6368D01*
X-573Y6366D01*
X-576Y6363D01*
X-581Y6360D01*
X-586Y6357D01*
X-592Y6352D01*
X-599Y6348D01*
X-614Y6339D01*
X-632Y6328D01*
X-650Y6316D01*
X-669Y6304D01*
X-670D01*
X-671Y6303D01*
X-674Y6301D01*
X-677Y6299D01*
X-681Y6297D01*
X-686Y6294D01*
X-697Y6288D01*
X-710Y6282D01*
X-723Y6275D01*
X-736Y6269D01*
X-748Y6264D01*
X-748Y6263D01*
X-750Y6261D01*
X-753Y6257D01*
X-758Y6253D01*
X-760Y6253D01*
X-763Y6251D01*
X-768Y6249D01*
X-775Y6248D01*
X-777D01*
X-780Y6249D01*
X-784Y6250D01*
X-787Y6253D01*
X-788Y6253D01*
Y6255D01*
X-788Y6259D01*
X-787Y6265D01*
X-786Y6266D01*
X-785Y6268D01*
X-785Y6271D01*
X-783Y6274D01*
X-781Y6280D01*
X-777Y6288D01*
X-774Y6296D01*
X-773Y6298D01*
X-772Y6301D01*
X-769Y6306D01*
X-766Y6315D01*
X-762Y6324D01*
X-758Y6334D01*
X-753Y6347D01*
X-749Y6360D01*
Y6360D01*
X-748Y6363D01*
X-747Y6366D01*
X-745Y6370D01*
X-744Y6376D01*
X-742Y6382D01*
X-739Y6389D01*
X-737Y6397D01*
X-731Y6414D01*
X-725Y6433D01*
X-718Y6453D01*
X-713Y6472D01*
Y6473D01*
X-712Y6475D01*
X-710Y6478D01*
X-710Y6481D01*
X-708Y6487D01*
X-706Y6492D01*
X-702Y6505D01*
X-698Y6518D01*
X-693Y6532D01*
X-689Y6545D01*
X-687Y6550D01*
X-686Y6555D01*
Y6556D01*
X-685Y6557D01*
X-683Y6562D01*
X-680Y6568D01*
X-677Y6577D01*
X-673Y6586D01*
X-668Y6597D01*
X-663Y6606D01*
X-657Y6616D01*
X-656Y6616D01*
X-654Y6618D01*
X-651Y6622D01*
X-648Y6626D01*
X-643Y6629D01*
X-637Y6633D01*
X-630Y6635D01*
X-624Y6636D01*
X-620D01*
X-616Y6635D01*
X-612Y6633D01*
X-611Y6632D01*
X-609Y6631D01*
X-608Y6627D01*
Y6625D01*
X-609Y6622D01*
X-610Y6621D01*
X-610Y6619D01*
X-612Y6617D01*
X-614Y6614D01*
X-616Y6610D01*
X-620Y6605D01*
X-624Y6599D01*
X-624Y6598D01*
X-626Y6596D01*
X-627Y6592D01*
X-630Y6588D01*
X-633Y6583D01*
X-635Y6578D01*
X-640Y6565D01*
Y6565D01*
X-641Y6563D01*
X-642Y6560D01*
X-643Y6557D01*
X-645Y6552D01*
X-647Y6547D01*
X-649Y6540D01*
X-651Y6534D01*
X-656Y6519D01*
X-662Y6501D01*
X-668Y6483D01*
X-674Y6463D01*
Y6463D01*
X-675Y6460D01*
X-676Y6456D01*
X-678Y6451D01*
X-680Y6445D01*
X-682Y6438D01*
X-687Y6422D01*
X-693Y6405D01*
X-698Y6389D01*
X-700Y6382D01*
X-702Y6375D01*
X-705Y6369D01*
X-706Y6365D01*
Y6364D01*
X-707Y6363D01*
X-707Y6360D01*
X-708Y6358D01*
X-711Y6350D01*
X-714Y6341D01*
X-717Y6333D01*
X-720Y6325D01*
X-721Y6321D01*
X-722Y6318D01*
X-723Y6317D01*
X-723Y6315D01*
X-723Y6316D01*
X-721Y6317D01*
X-716Y6319D01*
X-710Y6323D01*
X-702Y6327D01*
X-691Y6333D01*
X-678Y6340D01*
X-670Y6344D01*
X-662Y6349D01*
X-661D01*
X-659Y6351D01*
X-657Y6352D01*
X-654Y6354D01*
X-649Y6357D01*
X-645Y6360D01*
X-633Y6366D01*
X-621Y6374D01*
X-607Y6382D01*
X-594Y6390D01*
X-581Y6399D01*
X-580Y6400D01*
X-578Y6401D01*
X-574Y6403D01*
X-569Y6407D01*
X-563Y6411D01*
X-557Y6416D01*
X-549Y6422D01*
X-541Y6428D01*
X-524Y6441D01*
X-506Y6455D01*
X-489Y6470D01*
X-481Y6477D01*
X-474Y6484D01*
X-473Y6485D01*
X-473Y6486D01*
X-471Y6488D01*
X-468Y6491D01*
X-462Y6498D01*
X-454Y6508D01*
X-445Y6520D01*
X-437Y6533D01*
X-429Y6548D01*
X-423Y6562D01*
Y6563D01*
X-422Y6565D01*
Y6567D01*
X-422Y6570D01*
X-421Y6578D01*
X-422Y6587D01*
X-424Y6592D01*
X-426Y6597D01*
X-429Y6602D01*
X-433Y6608D01*
X-438Y6613D01*
X-445Y6617D01*
X-453Y6621D01*
X-463Y6625D01*
X-463D01*
X-465Y6626D01*
X-468Y6627D01*
X-473Y6628D01*
X-478Y6629D01*
X-485Y6631D01*
X-493Y6632D01*
X-502Y6635D01*
X-513Y6636D01*
X-524Y6637D01*
X-537Y6639D01*
X-551Y6640D01*
X-566Y6642D01*
X-582Y6643D01*
X-600Y6643D01*
X-630D01*
X-640Y6643D01*
X-651Y6642D01*
X-666Y6640D01*
X-683Y6638D01*
X-702Y6636D01*
X-705D01*
X-707Y6635D01*
X-710D01*
X-715Y6635D01*
X-720Y6633D01*
X-726Y6632D01*
X-734Y6630D01*
X-735D01*
X-737Y6629D01*
X-741Y6629D01*
X-746Y6627D01*
X-751Y6627D01*
X-753D01*
X-756Y6628D01*
X-760Y6631D01*
X-761Y6633D01*
X-763Y6637D01*
Y6637D01*
Y6639D01*
X-764Y6641D01*
Y6643D01*
X-763Y6651D01*
X-761Y6658D01*
X-761Y6659D01*
X-759Y6662D01*
X-756Y6664D01*
X-752Y6667D01*
X-751D01*
X-750Y6668D01*
X-746Y6670D01*
X-740Y6672D01*
X-732Y6673D01*
X-731D01*
X-729Y6674D01*
X-726D01*
X-718Y6675D01*
X-710Y6676D01*
X-699Y6678D01*
X-688Y6678D01*
X-677Y6680D01*
X-666Y6680D01*
X-664D01*
X-661Y6681D01*
X-655D01*
X-647Y6682D01*
X-637Y6683D01*
X-627D01*
X-615Y6683D01*
X-591D01*
X-583Y6683D01*
D02*
G37*
G36*
X-2344Y6581D02*
X-2339Y6579D01*
X-2333Y6575D01*
X-2332Y6573D01*
X-2329Y6570D01*
X-2327Y6565D01*
Y6562D01*
X-2328Y6559D01*
Y6558D01*
X-2329Y6557D01*
X-2329Y6555D01*
X-2330Y6552D01*
X-2331Y6549D01*
X-2332Y6544D01*
X-2335Y6539D01*
X-2336Y6533D01*
X-2338Y6526D01*
X-2341Y6519D01*
X-2343Y6510D01*
X-2346Y6500D01*
X-2350Y6490D01*
X-2353Y6479D01*
X-2357Y6468D01*
X-2361Y6454D01*
Y6454D01*
X-2362Y6452D01*
X-2363Y6448D01*
X-2364Y6443D01*
X-2366Y6437D01*
X-2368Y6430D01*
X-2372Y6416D01*
X-2378Y6400D01*
X-2382Y6384D01*
X-2386Y6368D01*
X-2388Y6363D01*
X-2389Y6357D01*
Y6356D01*
X-2390Y6352D01*
X-2391Y6348D01*
X-2392Y6343D01*
X-2394Y6331D01*
Y6324D01*
Y6319D01*
Y6318D01*
X-2393Y6317D01*
Y6315D01*
X-2392Y6312D01*
X-2390Y6305D01*
X-2388Y6298D01*
X-2387Y6296D01*
X-2386Y6293D01*
X-2385Y6290D01*
Y6286D01*
Y6285D01*
X-2386Y6284D01*
X-2387Y6282D01*
X-2389Y6279D01*
X-2393Y6272D01*
X-2399Y6266D01*
X-2400D01*
X-2401Y6265D01*
X-2403Y6264D01*
X-2406Y6263D01*
X-2413Y6261D01*
X-2422Y6259D01*
X-2423D01*
X-2425Y6260D01*
X-2428Y6261D01*
X-2431Y6263D01*
X-2434Y6266D01*
X-2437Y6271D01*
X-2440Y6278D01*
X-2441Y6288D01*
Y6289D01*
Y6293D01*
Y6298D01*
Y6305D01*
X-2440Y6314D01*
X-2439Y6323D01*
X-2437Y6333D01*
X-2435Y6344D01*
Y6346D01*
X-2434Y6347D01*
X-2434Y6350D01*
X-2433Y6353D01*
X-2432Y6358D01*
X-2430Y6362D01*
X-2429Y6368D01*
X-2426Y6375D01*
X-2424Y6383D01*
X-2421Y6392D01*
X-2418Y6402D01*
X-2415Y6413D01*
X-2411Y6425D01*
X-2407Y6438D01*
X-2402Y6453D01*
Y6454D01*
X-2401Y6455D01*
X-2400Y6458D01*
X-2399Y6461D01*
X-2397Y6470D01*
X-2394Y6479D01*
Y6480D01*
X-2393Y6481D01*
X-2392Y6484D01*
X-2391Y6487D01*
X-2389Y6492D01*
X-2387Y6495D01*
X-2386Y6496D01*
Y6497D01*
X-2387Y6495D01*
X-2389Y6493D01*
X-2390Y6489D01*
X-2393Y6486D01*
X-2396Y6481D01*
X-2403Y6471D01*
X-2413Y6457D01*
X-2425Y6440D01*
X-2440Y6422D01*
X-2458Y6402D01*
X-2458Y6401D01*
X-2460Y6400D01*
X-2463Y6397D01*
X-2467Y6393D01*
X-2471Y6388D01*
X-2476Y6382D01*
X-2488Y6369D01*
X-2504Y6354D01*
X-2520Y6338D01*
X-2537Y6322D01*
X-2555Y6306D01*
X-2555Y6305D01*
X-2557Y6304D01*
X-2559Y6302D01*
X-2562Y6299D01*
X-2571Y6293D01*
X-2580Y6286D01*
X-2592Y6278D01*
X-2604Y6272D01*
X-2615Y6267D01*
X-2620Y6266D01*
X-2624Y6266D01*
X-2625D01*
X-2628Y6266D01*
X-2632Y6267D01*
X-2636Y6269D01*
X-2641Y6271D01*
X-2645Y6276D01*
X-2648Y6282D01*
X-2649Y6290D01*
Y6291D01*
X-2648Y6294D01*
X-2647Y6300D01*
X-2646Y6308D01*
X-2644Y6318D01*
X-2641Y6331D01*
X-2636Y6346D01*
X-2631Y6363D01*
Y6363D01*
X-2630Y6365D01*
X-2629Y6367D01*
X-2628Y6371D01*
X-2626Y6375D01*
X-2624Y6380D01*
X-2622Y6386D01*
X-2619Y6393D01*
X-2612Y6407D01*
X-2605Y6425D01*
X-2596Y6444D01*
X-2585Y6464D01*
X-2584Y6465D01*
X-2583Y6466D01*
X-2582Y6469D01*
X-2580Y6473D01*
X-2577Y6478D01*
X-2574Y6484D01*
X-2566Y6496D01*
X-2557Y6510D01*
X-2547Y6524D01*
X-2538Y6538D01*
X-2528Y6551D01*
X-2528Y6551D01*
X-2526Y6553D01*
X-2524Y6555D01*
X-2522Y6559D01*
X-2515Y6565D01*
X-2512Y6568D01*
X-2510Y6570D01*
X-2509D01*
X-2508Y6571D01*
X-2504Y6574D01*
X-2499Y6576D01*
X-2493Y6577D01*
X-2489D01*
X-2486Y6576D01*
X-2483Y6575D01*
X-2479Y6574D01*
X-2476Y6572D01*
X-2475Y6569D01*
Y6565D01*
Y6564D01*
X-2477Y6561D01*
X-2480Y6557D01*
X-2483Y6554D01*
X-2486Y6550D01*
X-2488Y6549D01*
X-2491Y6544D01*
X-2496Y6537D01*
X-2504Y6528D01*
X-2512Y6516D01*
X-2521Y6503D01*
X-2531Y6489D01*
X-2542Y6473D01*
Y6473D01*
X-2543Y6471D01*
X-2545Y6469D01*
X-2546Y6465D01*
X-2548Y6462D01*
X-2551Y6456D01*
X-2554Y6450D01*
X-2558Y6444D01*
X-2561Y6436D01*
X-2566Y6427D01*
X-2570Y6417D01*
X-2574Y6407D01*
X-2579Y6396D01*
X-2583Y6384D01*
X-2588Y6371D01*
X-2593Y6358D01*
Y6358D01*
X-2593Y6356D01*
X-2594Y6355D01*
X-2595Y6352D01*
X-2597Y6344D01*
X-2599Y6337D01*
X-2601Y6329D01*
X-2602Y6322D01*
X-2603Y6319D01*
X-2602Y6317D01*
X-2601Y6316D01*
X-2601Y6315D01*
X-2600D01*
X-2598Y6316D01*
X-2595Y6317D01*
X-2589Y6320D01*
X-2582Y6324D01*
X-2574Y6330D01*
X-2563Y6339D01*
X-2556Y6344D01*
X-2550Y6349D01*
X-2549Y6350D01*
X-2548Y6351D01*
X-2546Y6353D01*
X-2543Y6355D01*
X-2535Y6363D01*
X-2525Y6373D01*
X-2512Y6385D01*
X-2499Y6399D01*
X-2483Y6416D01*
X-2467Y6433D01*
X-2467Y6434D01*
X-2465Y6436D01*
X-2463Y6438D01*
X-2460Y6441D01*
X-2456Y6446D01*
X-2452Y6451D01*
X-2442Y6463D01*
X-2430Y6476D01*
X-2418Y6491D01*
X-2407Y6506D01*
X-2397Y6519D01*
X-2396Y6520D01*
X-2395Y6522D01*
X-2393Y6524D01*
X-2390Y6528D01*
X-2387Y6534D01*
X-2383Y6540D01*
X-2378Y6548D01*
X-2372Y6557D01*
Y6557D01*
X-2372Y6559D01*
X-2370Y6563D01*
X-2366Y6569D01*
X-2362Y6575D01*
X-2362Y6576D01*
X-2359Y6578D01*
X-2354Y6581D01*
X-2350Y6582D01*
X-2348D01*
X-2344Y6581D01*
D02*
G37*
G36*
X2089Y6683D02*
X2091Y6682D01*
X2093Y6680D01*
X2095Y6677D01*
X2096Y6672D01*
Y6672D01*
X2097Y6670D01*
X2098Y6666D01*
X2099Y6661D01*
Y6656D01*
X2098Y6656D01*
X2096Y6653D01*
X2094Y6651D01*
X2091Y6648D01*
X2088Y6645D01*
X2083Y6642D01*
X2082Y6641D01*
X2081Y6640D01*
X2078Y6638D01*
X2075Y6636D01*
X2066Y6628D01*
X2058Y6619D01*
X2057Y6618D01*
X2055Y6616D01*
X2053Y6612D01*
X2049Y6607D01*
X2045Y6600D01*
X2039Y6593D01*
X2033Y6584D01*
X2026Y6573D01*
X2026Y6572D01*
X2023Y6568D01*
X2018Y6561D01*
X2012Y6551D01*
X2004Y6540D01*
X1995Y6524D01*
X1984Y6506D01*
X1971Y6486D01*
X1932Y6422D01*
X1931Y6420D01*
X1929Y6417D01*
X1925Y6411D01*
X1921Y6403D01*
X1916Y6395D01*
X1909Y6385D01*
X1902Y6373D01*
X1895Y6360D01*
X1880Y6335D01*
X1864Y6309D01*
X1857Y6296D01*
X1851Y6284D01*
X1845Y6273D01*
X1840Y6263D01*
Y6263D01*
X1839Y6262D01*
X1835Y6257D01*
X1829Y6250D01*
X1821Y6244D01*
X1820D01*
X1819Y6242D01*
X1816Y6241D01*
X1812Y6239D01*
X1808Y6238D01*
X1803Y6237D01*
X1796Y6236D01*
X1789Y6235D01*
X1788Y6236D01*
X1786Y6238D01*
X1785Y6242D01*
X1784Y6245D01*
X1783Y6249D01*
X1782Y6253D01*
X1781Y6259D01*
X1780Y6265D01*
X1778Y6273D01*
X1778Y6281D01*
X1777Y6291D01*
Y6292D01*
Y6294D01*
X1776Y6297D01*
Y6301D01*
X1776Y6307D01*
Y6314D01*
X1775Y6322D01*
X1774Y6331D01*
X1773Y6341D01*
X1773Y6352D01*
X1771Y6363D01*
X1770Y6376D01*
X1770Y6390D01*
X1768Y6405D01*
X1768Y6421D01*
X1766Y6437D01*
Y6438D01*
Y6439D01*
X1765Y6441D01*
Y6445D01*
X1765Y6449D01*
X1764Y6454D01*
X1762Y6465D01*
X1760Y6479D01*
X1758Y6495D01*
X1755Y6511D01*
X1752Y6527D01*
Y6528D01*
Y6530D01*
X1751Y6532D01*
X1751Y6535D01*
X1749Y6542D01*
X1748Y6551D01*
X1746Y6559D01*
X1744Y6568D01*
X1742Y6575D01*
X1741Y6577D01*
X1740Y6578D01*
X1739Y6579D01*
X1738Y6580D01*
X1737Y6582D01*
X1735Y6585D01*
X1735Y6589D01*
X1734Y6592D01*
Y6597D01*
X1735Y6601D01*
X1735Y6602D01*
X1738Y6605D01*
X1739Y6608D01*
X1742Y6610D01*
X1746Y6613D01*
X1750Y6616D01*
X1751Y6617D01*
X1752Y6618D01*
X1755Y6619D01*
X1759Y6621D01*
X1767Y6624D01*
X1771Y6625D01*
X1776Y6626D01*
X1780D01*
X1784Y6624D01*
X1786Y6623D01*
X1786Y6622D01*
X1787Y6621D01*
X1789Y6617D01*
X1791Y6613D01*
Y6612D01*
X1792Y6610D01*
X1792Y6607D01*
X1794Y6602D01*
X1795Y6594D01*
X1797Y6585D01*
X1798Y6573D01*
X1800Y6559D01*
Y6559D01*
Y6558D01*
X1801Y6556D01*
Y6552D01*
X1802Y6549D01*
X1803Y6544D01*
X1804Y6534D01*
X1805Y6521D01*
X1806Y6506D01*
X1808Y6491D01*
X1809Y6474D01*
X1816Y6341D01*
Y6341D01*
Y6339D01*
X1816Y6337D01*
Y6333D01*
X1818Y6325D01*
X1819Y6316D01*
Y6306D01*
Y6298D01*
X1818Y6294D01*
X1819Y6296D01*
X1821Y6302D01*
X1826Y6311D01*
X1829Y6316D01*
X1832Y6322D01*
X1836Y6329D01*
X1840Y6336D01*
Y6337D01*
X1842Y6339D01*
X1843Y6341D01*
X1845Y6344D01*
X1848Y6348D01*
X1851Y6353D01*
X1854Y6359D01*
X1857Y6366D01*
X1866Y6380D01*
X1876Y6398D01*
X1888Y6417D01*
X1900Y6438D01*
X1901Y6438D01*
X1902Y6441D01*
X1905Y6446D01*
X1908Y6452D01*
X1913Y6458D01*
X1917Y6466D01*
X1923Y6475D01*
X1929Y6484D01*
X1941Y6505D01*
X1953Y6526D01*
X1967Y6546D01*
X1972Y6557D01*
X1978Y6565D01*
Y6566D01*
X1980Y6567D01*
X1981Y6570D01*
X1983Y6573D01*
X1988Y6581D01*
X1996Y6592D01*
X2003Y6604D01*
X2012Y6616D01*
X2020Y6628D01*
X2028Y6640D01*
X2029Y6641D01*
X2032Y6644D01*
X2035Y6648D01*
X2040Y6654D01*
X2050Y6665D01*
X2055Y6670D01*
X2060Y6675D01*
X2061Y6675D01*
X2062Y6676D01*
X2064Y6678D01*
X2068Y6680D01*
X2076Y6683D01*
X2080Y6684D01*
X2085Y6685D01*
X2087D01*
X2089Y6683D01*
D02*
G37*
G36*
X2586Y6710D02*
X2592D01*
X2606Y6710D01*
X2622Y6707D01*
X2638Y6705D01*
X2655Y6702D01*
X2670Y6697D01*
X2671D01*
X2671Y6697D01*
X2674Y6696D01*
X2677Y6695D01*
X2683Y6691D01*
X2691Y6688D01*
X2701Y6682D01*
X2709Y6675D01*
X2717Y6667D01*
X2723Y6659D01*
X2724Y6657D01*
X2725Y6654D01*
X2728Y6649D01*
X2729Y6643D01*
X2731Y6634D01*
X2731Y6624D01*
X2730Y6613D01*
X2727Y6602D01*
Y6601D01*
X2726Y6600D01*
X2725Y6598D01*
X2724Y6594D01*
X2721Y6587D01*
X2716Y6577D01*
X2709Y6566D01*
X2701Y6554D01*
X2690Y6542D01*
X2679Y6530D01*
X2678D01*
X2677Y6529D01*
X2673Y6525D01*
X2666Y6520D01*
X2656Y6513D01*
X2645Y6506D01*
X2631Y6497D01*
X2616Y6488D01*
X2600Y6480D01*
X2599D01*
X2598Y6479D01*
X2596Y6478D01*
X2592Y6476D01*
X2588Y6474D01*
X2582Y6472D01*
X2576Y6469D01*
X2569Y6466D01*
X2561Y6463D01*
X2551Y6459D01*
X2542Y6455D01*
X2531Y6451D01*
X2521Y6446D01*
X2508Y6442D01*
X2483Y6433D01*
X2482D01*
X2480Y6431D01*
X2476Y6430D01*
X2471Y6428D01*
X2466Y6426D01*
X2459Y6424D01*
X2446Y6419D01*
X2445D01*
X2443Y6418D01*
X2440Y6417D01*
X2437Y6416D01*
X2433Y6414D01*
X2437Y6414D01*
X2442Y6412D01*
X2448Y6410D01*
X2456Y6409D01*
X2464Y6406D01*
X2482Y6401D01*
X2502Y6395D01*
X2523Y6389D01*
X2545Y6382D01*
X2558Y6378D01*
X2559D01*
X2561Y6377D01*
X2564Y6376D01*
X2568Y6374D01*
X2573Y6373D01*
X2579Y6371D01*
X2592Y6366D01*
X2607Y6361D01*
X2621Y6355D01*
X2636Y6350D01*
X2648Y6345D01*
X2650Y6344D01*
X2653Y6343D01*
X2658Y6341D01*
X2663Y6338D01*
X2668Y6334D01*
X2672Y6330D01*
X2674Y6326D01*
X2675Y6324D01*
X2674Y6322D01*
Y6321D01*
X2674Y6320D01*
X2673Y6318D01*
X2671Y6315D01*
X2669Y6312D01*
X2666Y6308D01*
X2663Y6304D01*
X2659Y6299D01*
X2658Y6298D01*
X2657Y6297D01*
X2655Y6295D01*
X2652Y6293D01*
X2645Y6288D01*
X2641Y6287D01*
X2636Y6286D01*
X2632D01*
X2628Y6287D01*
X2623Y6288D01*
X2623Y6289D01*
X2620Y6290D01*
X2615Y6294D01*
X2607Y6299D01*
X2606Y6300D01*
X2601Y6303D01*
X2595Y6307D01*
X2585Y6312D01*
X2573Y6319D01*
X2558Y6326D01*
X2542Y6334D01*
X2522Y6342D01*
X2521Y6343D01*
X2518Y6344D01*
X2513Y6346D01*
X2505Y6348D01*
X2497Y6351D01*
X2487Y6355D01*
X2475Y6358D01*
X2463Y6362D01*
X2462Y6363D01*
X2458Y6363D01*
X2452Y6366D01*
X2445Y6368D01*
X2429Y6372D01*
X2422Y6374D01*
X2416Y6376D01*
X2395Y6303D01*
Y6302D01*
X2394Y6300D01*
X2394Y6297D01*
X2393Y6293D01*
X2391Y6285D01*
X2390Y6275D01*
Y6274D01*
Y6274D01*
Y6269D01*
X2389Y6264D01*
X2389Y6261D01*
Y6260D01*
X2388Y6259D01*
X2386Y6255D01*
X2381Y6250D01*
X2378Y6247D01*
X2373Y6245D01*
X2373D01*
X2371Y6244D01*
X2370Y6242D01*
X2367Y6242D01*
X2360Y6239D01*
X2353Y6238D01*
X2351D01*
X2349Y6239D01*
X2346Y6240D01*
X2343Y6242D01*
X2342Y6246D01*
X2341Y6250D01*
Y6257D01*
Y6258D01*
X2342Y6262D01*
Y6264D01*
X2343Y6268D01*
Y6269D01*
X2343Y6269D01*
Y6272D01*
X2345Y6275D01*
X2346Y6279D01*
X2347Y6284D01*
X2349Y6290D01*
X2351Y6296D01*
Y6297D01*
X2352Y6298D01*
X2354Y6302D01*
X2355Y6306D01*
X2357Y6313D01*
X2359Y6322D01*
X2362Y6332D01*
X2366Y6345D01*
Y6346D01*
X2367Y6347D01*
X2367Y6350D01*
X2369Y6354D01*
X2371Y6362D01*
X2373Y6371D01*
Y6372D01*
X2374Y6374D01*
X2375Y6376D01*
X2375Y6379D01*
X2378Y6385D01*
X2379Y6390D01*
Y6391D01*
X2378Y6392D01*
X2377Y6393D01*
Y6394D01*
X2376Y6395D01*
X2375Y6398D01*
X2375Y6402D01*
Y6403D01*
Y6406D01*
Y6410D01*
X2375Y6415D01*
Y6417D01*
X2376Y6419D01*
X2377Y6422D01*
X2378Y6426D01*
X2378Y6428D01*
X2379Y6430D01*
X2381Y6433D01*
X2384Y6436D01*
X2385Y6436D01*
X2387Y6438D01*
X2393Y6441D01*
Y6442D01*
X2394Y6443D01*
X2394Y6445D01*
X2395Y6448D01*
X2397Y6456D01*
X2401Y6465D01*
X2405Y6477D01*
X2408Y6491D01*
X2413Y6506D01*
X2418Y6520D01*
X2428Y6551D01*
X2432Y6566D01*
X2437Y6579D01*
X2441Y6592D01*
X2445Y6602D01*
X2447Y6610D01*
X2448Y6614D01*
X2449Y6616D01*
Y6617D01*
X2451Y6620D01*
X2451Y6624D01*
X2454Y6629D01*
X2455Y6635D01*
X2457Y6640D01*
X2462Y6654D01*
Y6654D01*
X2463Y6656D01*
X2464Y6659D01*
X2465Y6662D01*
X2467Y6664D01*
X2467Y6667D01*
X2468Y6669D01*
X2466Y6668D01*
X2463Y6667D01*
X2459Y6667D01*
X2452Y6666D01*
X2449D01*
X2445Y6665D01*
X2441Y6664D01*
X2432Y6663D01*
X2427Y6662D01*
X2423Y6662D01*
X2422D01*
X2421Y6661D01*
X2419D01*
X2416Y6660D01*
X2408Y6658D01*
X2398Y6656D01*
X2387Y6653D01*
X2375Y6650D01*
X2365Y6647D01*
X2355Y6643D01*
X2354D01*
X2351Y6642D01*
X2347Y6640D01*
X2341Y6638D01*
X2334Y6635D01*
X2327Y6632D01*
X2310Y6625D01*
X2308Y6624D01*
X2306Y6623D01*
X2300Y6621D01*
X2295Y6619D01*
X2294D01*
X2291Y6618D01*
X2287Y6617D01*
X2282Y6616D01*
X2281D01*
X2278Y6617D01*
X2274Y6619D01*
X2271Y6623D01*
X2268Y6619D01*
X2262Y6612D01*
Y6611D01*
Y6610D01*
X2261Y6607D01*
X2260Y6603D01*
X2258Y6594D01*
X2255Y6584D01*
Y6583D01*
X2254Y6582D01*
X2254Y6579D01*
X2253Y6576D01*
X2252Y6572D01*
X2250Y6567D01*
X2249Y6560D01*
X2246Y6552D01*
X2244Y6543D01*
X2241Y6533D01*
X2238Y6522D01*
X2234Y6508D01*
X2230Y6494D01*
X2226Y6479D01*
X2222Y6461D01*
X2217Y6442D01*
Y6441D01*
X2215Y6438D01*
X2214Y6433D01*
X2212Y6425D01*
X2210Y6417D01*
X2208Y6407D01*
X2205Y6397D01*
X2202Y6386D01*
X2196Y6363D01*
X2190Y6340D01*
X2188Y6329D01*
X2186Y6320D01*
X2184Y6311D01*
X2182Y6304D01*
Y6303D01*
X2182Y6301D01*
Y6297D01*
X2181Y6293D01*
X2180Y6286D01*
X2179Y6278D01*
X2178Y6269D01*
X2176Y6258D01*
Y6257D01*
Y6254D01*
X2176Y6248D01*
X2175Y6241D01*
Y6240D01*
Y6239D01*
X2174Y6235D01*
X2174Y6230D01*
X2173Y6228D01*
X2172Y6226D01*
Y6226D01*
X2171Y6225D01*
X2169Y6220D01*
X2167Y6218D01*
X2164Y6215D01*
X2160Y6212D01*
X2156Y6209D01*
X2155D01*
X2154Y6207D01*
X2152Y6207D01*
X2149Y6205D01*
X2141Y6202D01*
X2136Y6202D01*
X2132Y6201D01*
X2131D01*
X2127Y6202D01*
X2125Y6204D01*
X2123Y6207D01*
X2122Y6210D01*
X2120Y6215D01*
Y6215D01*
Y6217D01*
X2120Y6220D01*
Y6223D01*
Y6228D01*
Y6233D01*
X2121Y6245D01*
Y6245D01*
X2122Y6247D01*
X2123Y6251D01*
X2123Y6257D01*
X2125Y6263D01*
X2127Y6272D01*
X2129Y6282D01*
X2131Y6294D01*
X2134Y6308D01*
X2138Y6323D01*
X2142Y6339D01*
X2147Y6358D01*
X2152Y6378D01*
X2158Y6399D01*
X2164Y6423D01*
X2171Y6448D01*
X2206Y6574D01*
X2206Y6573D01*
X2204Y6572D01*
X2201Y6570D01*
X2197Y6566D01*
X2192Y6562D01*
X2186Y6557D01*
X2179Y6552D01*
X2171Y6546D01*
X2163Y6540D01*
X2153Y6534D01*
X2133Y6520D01*
X2111Y6506D01*
X2087Y6493D01*
X2086Y6492D01*
X2084Y6492D01*
X2081Y6490D01*
X2077Y6489D01*
X2069Y6485D01*
X2064Y6484D01*
X2061Y6484D01*
X2060D01*
X2056Y6484D01*
X2052Y6486D01*
X2048Y6489D01*
X2047Y6490D01*
X2047Y6493D01*
X2046Y6497D01*
X2047Y6502D01*
Y6503D01*
X2047Y6504D01*
X2049Y6506D01*
X2051Y6508D01*
X2055Y6512D01*
X2059Y6516D01*
X2065Y6519D01*
X2072Y6524D01*
X2073D01*
X2074Y6524D01*
X2076Y6526D01*
X2079Y6527D01*
X2086Y6532D01*
X2095Y6537D01*
X2106Y6543D01*
X2117Y6551D01*
X2143Y6567D01*
X2144D01*
X2144Y6568D01*
X2149Y6572D01*
X2155Y6576D01*
X2165Y6583D01*
X2175Y6590D01*
X2187Y6599D01*
X2201Y6608D01*
X2214Y6619D01*
X2219Y6623D01*
X2222Y6631D01*
X2224Y6637D01*
X2225Y6638D01*
X2226Y6641D01*
X2228Y6644D01*
X2231Y6647D01*
X2232Y6648D01*
X2233Y6648D01*
X2236Y6649D01*
X2238Y6650D01*
X2238D01*
X2241Y6651D01*
X2244Y6651D01*
X2254D01*
X2257Y6651D01*
X2264Y6649D01*
X2271Y6646D01*
X2271D01*
X2272Y6645D01*
X2274Y6643D01*
X2275Y6645D01*
X2279Y6648D01*
X2286Y6654D01*
X2290Y6656D01*
X2295Y6659D01*
X2301Y6662D01*
X2308Y6665D01*
X2315Y6668D01*
X2324Y6671D01*
X2324D01*
X2326Y6672D01*
X2329Y6672D01*
X2332Y6674D01*
X2336Y6675D01*
X2342Y6677D01*
X2348Y6678D01*
X2354Y6680D01*
X2369Y6685D01*
X2386Y6689D01*
X2404Y6694D01*
X2423Y6697D01*
X2424D01*
X2428Y6698D01*
X2434Y6699D01*
X2442Y6701D01*
X2452Y6702D01*
X2464Y6704D01*
X2478Y6705D01*
X2493Y6707D01*
X2495D01*
X2497Y6707D01*
X2500D01*
X2508Y6708D01*
X2519Y6709D01*
X2531Y6710D01*
X2544Y6710D01*
X2558Y6711D01*
X2581D01*
X2586Y6710D01*
D02*
G37*
G36*
X985Y6619D02*
X987Y6617D01*
X989Y6615D01*
X991Y6612D01*
X993Y6608D01*
Y6608D01*
X993Y6606D01*
X995Y6602D01*
X996Y6597D01*
Y6592D01*
X995Y6590D01*
X993Y6587D01*
X989Y6584D01*
X985Y6581D01*
X982Y6578D01*
X981D01*
X979Y6578D01*
X976Y6575D01*
X971Y6573D01*
X969Y6571D01*
X968Y6570D01*
X967Y6570D01*
X966Y6569D01*
X963Y6567D01*
X961Y6564D01*
X956Y6560D01*
X951Y6555D01*
X946Y6550D01*
X939Y6543D01*
X933Y6537D01*
X926Y6529D01*
X917Y6520D01*
X909Y6511D01*
X901Y6501D01*
X892Y6490D01*
X882Y6479D01*
X873Y6466D01*
X872Y6465D01*
X871Y6463D01*
X868Y6460D01*
X864Y6454D01*
X860Y6448D01*
X855Y6441D01*
X849Y6432D01*
X842Y6422D01*
X835Y6412D01*
X828Y6401D01*
X820Y6389D01*
X812Y6376D01*
X796Y6349D01*
X779Y6320D01*
Y6319D01*
X778Y6318D01*
X777Y6315D01*
X775Y6312D01*
X772Y6307D01*
X770Y6301D01*
X765Y6293D01*
X760Y6282D01*
X751Y6263D01*
Y6262D01*
X749Y6261D01*
X748Y6258D01*
X745Y6255D01*
X740Y6248D01*
X732Y6242D01*
X732D01*
X730Y6241D01*
X728Y6240D01*
X724Y6239D01*
X721Y6237D01*
X716Y6237D01*
X710Y6235D01*
X703D01*
X702Y6236D01*
X700Y6237D01*
X699Y6240D01*
X697Y6245D01*
X694Y6252D01*
X694Y6257D01*
X692Y6262D01*
X692Y6268D01*
X690Y6275D01*
Y6276D01*
Y6277D01*
X689Y6280D01*
Y6282D01*
X688Y6290D01*
X687Y6301D01*
X686Y6313D01*
X683Y6327D01*
X682Y6341D01*
X680Y6357D01*
X673Y6416D01*
Y6417D01*
Y6418D01*
X672Y6421D01*
Y6425D01*
X671Y6429D01*
X670Y6434D01*
X669Y6446D01*
X667Y6459D01*
X665Y6472D01*
X663Y6484D01*
X661Y6496D01*
Y6497D01*
X660Y6500D01*
X659Y6505D01*
X657Y6511D01*
X656Y6516D01*
X654Y6520D01*
X653Y6523D01*
X652Y6524D01*
Y6523D01*
X651Y6522D01*
X650Y6521D01*
X648Y6520D01*
X646Y6519D01*
X642Y6519D01*
X641D01*
X638Y6519D01*
X635Y6521D01*
X633Y6523D01*
Y6524D01*
X632Y6526D01*
Y6530D01*
X633Y6533D01*
Y6534D01*
X634Y6535D01*
X635Y6538D01*
X637Y6540D01*
X640Y6544D01*
X643Y6549D01*
X647Y6553D01*
X652Y6559D01*
X653Y6559D01*
X655Y6561D01*
X658Y6564D01*
X662Y6567D01*
X671Y6572D01*
X675Y6573D01*
X681Y6574D01*
X682D01*
X686Y6573D01*
X689Y6573D01*
X692Y6570D01*
X693Y6570D01*
X694Y6568D01*
X697Y6563D01*
X697Y6562D01*
X698Y6561D01*
X700Y6557D01*
X700Y6557D01*
X701Y6553D01*
X702Y6551D01*
X703Y6547D01*
X704Y6543D01*
X705Y6538D01*
X706Y6532D01*
X708Y6525D01*
X709Y6517D01*
X711Y6508D01*
X713Y6497D01*
X714Y6486D01*
X716Y6473D01*
X718Y6459D01*
Y6457D01*
X718Y6455D01*
Y6452D01*
X719Y6449D01*
Y6444D01*
X720Y6437D01*
X721Y6430D01*
X722Y6421D01*
X723Y6410D01*
X724Y6398D01*
X726Y6385D01*
X727Y6369D01*
X729Y6352D01*
X730Y6333D01*
X732Y6312D01*
X725Y6285D01*
X725Y6285D01*
X727Y6288D01*
X728Y6293D01*
X731Y6298D01*
X735Y6305D01*
X739Y6314D01*
X745Y6324D01*
X745Y6325D01*
X747Y6328D01*
X749Y6332D01*
X752Y6338D01*
X756Y6345D01*
X761Y6353D01*
X766Y6363D01*
X772Y6374D01*
X778Y6385D01*
X786Y6397D01*
X802Y6422D01*
X819Y6449D01*
X838Y6477D01*
X839Y6478D01*
X840Y6480D01*
X843Y6484D01*
X847Y6489D01*
X852Y6495D01*
X858Y6503D01*
X864Y6511D01*
X871Y6520D01*
X888Y6539D01*
X905Y6559D01*
X925Y6580D01*
X945Y6600D01*
X946Y6600D01*
X947Y6601D01*
X952Y6605D01*
X958Y6610D01*
X963Y6615D01*
X964D01*
X965Y6616D01*
X969Y6618D01*
X974Y6619D01*
X982Y6620D01*
X983D01*
X985Y6619D01*
D02*
G37*
G36*
X-1375Y6691D02*
X-1372Y6689D01*
X-1370Y6686D01*
Y6685D01*
X-1369Y6682D01*
X-1369Y6678D01*
X-1369Y6672D01*
Y6672D01*
Y6668D01*
X-1370Y6663D01*
X-1372Y6655D01*
X-1373Y6650D01*
X-1374Y6644D01*
X-1375Y6637D01*
X-1377Y6630D01*
X-1379Y6622D01*
X-1381Y6613D01*
X-1384Y6603D01*
X-1387Y6593D01*
Y6592D01*
X-1388Y6590D01*
X-1388Y6587D01*
X-1390Y6583D01*
X-1391Y6578D01*
X-1393Y6572D01*
X-1395Y6565D01*
X-1397Y6557D01*
X-1403Y6539D01*
X-1409Y6519D01*
X-1416Y6497D01*
X-1423Y6475D01*
Y6474D01*
X-1424Y6473D01*
X-1425Y6471D01*
X-1426Y6467D01*
X-1428Y6463D01*
X-1429Y6458D01*
X-1433Y6446D01*
X-1438Y6433D01*
X-1443Y6417D01*
X-1449Y6401D01*
X-1455Y6384D01*
Y6383D01*
X-1455Y6382D01*
X-1456Y6379D01*
X-1458Y6376D01*
X-1460Y6369D01*
X-1463Y6360D01*
X-1467Y6349D01*
X-1470Y6340D01*
X-1474Y6331D01*
X-1476Y6324D01*
X-1472D01*
X-1469Y6325D01*
X-1460D01*
X-1452Y6325D01*
X-1447D01*
X-1443Y6326D01*
X-1436D01*
X-1429Y6327D01*
X-1421Y6328D01*
X-1404Y6328D01*
X-1402D01*
X-1400Y6329D01*
X-1397D01*
X-1389Y6331D01*
X-1379Y6331D01*
X-1367Y6333D01*
X-1353Y6336D01*
X-1338Y6338D01*
X-1322Y6341D01*
X-1321D01*
X-1320Y6341D01*
X-1318D01*
X-1315Y6342D01*
X-1307Y6344D01*
X-1299Y6345D01*
X-1290Y6347D01*
X-1281Y6347D01*
X-1274Y6349D01*
X-1267D01*
X-1264Y6348D01*
X-1260Y6345D01*
X-1259Y6343D01*
Y6340D01*
Y6339D01*
Y6339D01*
Y6334D01*
X-1260Y6328D01*
X-1261Y6322D01*
Y6321D01*
X-1262Y6320D01*
X-1265Y6315D01*
X-1270Y6309D01*
X-1278Y6304D01*
X-1278D01*
X-1280Y6303D01*
X-1282Y6301D01*
X-1284Y6300D01*
X-1291Y6298D01*
X-1300Y6296D01*
X-1409Y6288D01*
X-1487Y6282D01*
X-1526Y6279D01*
X-1528D01*
X-1531Y6280D01*
X-1536Y6282D01*
X-1537Y6285D01*
X-1539Y6288D01*
Y6288D01*
Y6289D01*
X-1539Y6293D01*
Y6298D01*
X-1539Y6304D01*
X-1538Y6305D01*
X-1536Y6308D01*
X-1534Y6311D01*
X-1530Y6314D01*
X-1530Y6315D01*
X-1527Y6316D01*
X-1524Y6317D01*
X-1521Y6318D01*
X-1520D01*
X-1520Y6319D01*
Y6319D01*
X-1519Y6320D01*
X-1518Y6322D01*
X-1517Y6325D01*
X-1516Y6329D01*
X-1514Y6334D01*
X-1512Y6341D01*
X-1509Y6349D01*
X-1506Y6358D01*
X-1502Y6369D01*
X-1498Y6382D01*
X-1493Y6396D01*
X-1487Y6412D01*
X-1481Y6430D01*
X-1474Y6450D01*
X-1466Y6472D01*
X-1466Y6473D01*
X-1465Y6476D01*
X-1463Y6481D01*
X-1461Y6487D01*
X-1459Y6495D01*
X-1456Y6503D01*
X-1453Y6513D01*
X-1450Y6523D01*
X-1443Y6546D01*
X-1436Y6569D01*
X-1431Y6592D01*
X-1428Y6602D01*
X-1426Y6612D01*
Y6613D01*
X-1426Y6614D01*
Y6616D01*
X-1425Y6620D01*
X-1423Y6628D01*
X-1421Y6637D01*
X-1419Y6648D01*
X-1417Y6656D01*
X-1416Y6660D01*
X-1415Y6663D01*
X-1415Y6665D01*
Y6667D01*
Y6667D01*
X-1414Y6669D01*
X-1412Y6673D01*
X-1407Y6679D01*
X-1400Y6685D01*
X-1399D01*
X-1398Y6686D01*
X-1396Y6687D01*
X-1393Y6688D01*
X-1387Y6691D01*
X-1380Y6691D01*
X-1378D01*
X-1375Y6691D01*
D02*
G37*
G36*
X1184Y6584D02*
X1189Y6584D01*
X1196Y6582D01*
X1203Y6580D01*
X1208Y6577D01*
X1214Y6573D01*
X1215Y6573D01*
X1216Y6571D01*
X1219Y6568D01*
X1221Y6565D01*
X1222Y6560D01*
X1224Y6554D01*
X1223Y6547D01*
X1221Y6539D01*
X1221Y6538D01*
X1219Y6535D01*
X1217Y6530D01*
X1213Y6524D01*
X1208Y6516D01*
X1200Y6509D01*
X1191Y6500D01*
X1179Y6492D01*
X1178D01*
X1178Y6492D01*
X1173Y6489D01*
X1166Y6484D01*
X1157Y6479D01*
X1145Y6473D01*
X1132Y6467D01*
X1117Y6461D01*
X1100Y6454D01*
X1099D01*
X1098Y6454D01*
X1095Y6453D01*
X1092Y6452D01*
X1088Y6451D01*
X1083Y6449D01*
X1072Y6446D01*
X1059Y6442D01*
X1044Y6438D01*
X1029Y6436D01*
X1014Y6433D01*
X1013Y6432D01*
X1012Y6428D01*
X1009Y6424D01*
X1006Y6417D01*
X1002Y6410D01*
X998Y6401D01*
X995Y6393D01*
X991Y6382D01*
Y6382D01*
X990Y6381D01*
X990Y6376D01*
X988Y6371D01*
X987Y6363D01*
X985Y6355D01*
Y6346D01*
X986Y6337D01*
X988Y6330D01*
X989Y6329D01*
X990Y6327D01*
X993Y6324D01*
X996Y6321D01*
X1001Y6317D01*
X1008Y6315D01*
X1017Y6312D01*
X1026Y6312D01*
X1030D01*
X1034Y6312D01*
X1038D01*
X1042Y6313D01*
X1054Y6316D01*
X1067Y6320D01*
X1081Y6325D01*
X1096Y6333D01*
X1103Y6339D01*
X1111Y6344D01*
X1111Y6345D01*
X1112Y6346D01*
X1114Y6348D01*
X1117Y6350D01*
X1125Y6358D01*
X1135Y6366D01*
X1146Y6378D01*
X1159Y6390D01*
X1172Y6405D01*
X1185Y6420D01*
X1186Y6421D01*
X1187Y6423D01*
X1189Y6426D01*
X1194Y6432D01*
Y6433D01*
X1195Y6433D01*
X1198Y6436D01*
X1203Y6439D01*
X1205Y6441D01*
X1209D01*
X1213Y6438D01*
X1214Y6437D01*
X1215Y6434D01*
Y6430D01*
X1213Y6425D01*
Y6425D01*
X1212Y6423D01*
X1211Y6419D01*
X1208Y6414D01*
X1203Y6407D01*
X1197Y6398D01*
X1189Y6387D01*
X1178Y6374D01*
Y6373D01*
X1177Y6372D01*
X1176Y6370D01*
X1173Y6367D01*
X1167Y6360D01*
X1158Y6349D01*
X1146Y6339D01*
X1133Y6326D01*
X1119Y6314D01*
X1102Y6301D01*
X1101D01*
X1100Y6299D01*
X1098Y6298D01*
X1094Y6296D01*
X1090Y6293D01*
X1084Y6290D01*
X1073Y6284D01*
X1058Y6278D01*
X1041Y6272D01*
X1024Y6269D01*
X1014Y6268D01*
X1005Y6267D01*
X1001D01*
X998Y6268D01*
X990Y6269D01*
X981Y6271D01*
X971Y6274D01*
X961Y6278D01*
X950Y6285D01*
X942Y6293D01*
X942Y6295D01*
X939Y6298D01*
X937Y6304D01*
X935Y6313D01*
X934Y6325D01*
Y6339D01*
X934Y6347D01*
X936Y6355D01*
X939Y6364D01*
X942Y6374D01*
Y6375D01*
X942Y6376D01*
X944Y6379D01*
X944Y6383D01*
X947Y6387D01*
X949Y6393D01*
X955Y6406D01*
X963Y6421D01*
X972Y6438D01*
X984Y6455D01*
X998Y6473D01*
X998Y6474D01*
X1000Y6476D01*
X1002Y6478D01*
X1005Y6481D01*
X1009Y6486D01*
X1013Y6490D01*
X1024Y6502D01*
X1037Y6514D01*
X1052Y6528D01*
X1068Y6541D01*
X1086Y6554D01*
X1087Y6554D01*
X1088Y6555D01*
X1090Y6557D01*
X1094Y6559D01*
X1098Y6561D01*
X1103Y6564D01*
X1115Y6570D01*
X1129Y6575D01*
X1144Y6580D01*
X1160Y6584D01*
X1168Y6585D01*
X1180D01*
X1184Y6584D01*
D02*
G37*
G36*
X-1856Y6561D02*
X-1852Y6560D01*
X-1848Y6557D01*
X-1847Y6557D01*
X-1845Y6554D01*
X-1844Y6551D01*
Y6549D01*
X-1845Y6546D01*
Y6546D01*
X-1846Y6544D01*
X-1848Y6540D01*
X-1852Y6537D01*
X-1853Y6536D01*
X-1855Y6534D01*
X-1858Y6532D01*
X-1860Y6530D01*
X-1861Y6528D01*
X-1865Y6525D01*
X-1871Y6520D01*
X-1877Y6514D01*
X-1886Y6506D01*
X-1895Y6496D01*
X-1913Y6477D01*
X-1915Y6476D01*
X-1918Y6472D01*
X-1922Y6466D01*
X-1929Y6459D01*
X-1935Y6449D01*
X-1943Y6440D01*
X-1951Y6429D01*
X-1958Y6417D01*
X-1959Y6416D01*
X-1961Y6412D01*
X-1965Y6406D01*
X-1970Y6398D01*
X-1975Y6388D01*
X-1980Y6377D01*
X-1985Y6365D01*
X-1990Y6352D01*
Y6351D01*
X-1991Y6349D01*
Y6347D01*
X-1992Y6345D01*
Y6338D01*
X-1991Y6330D01*
X-1990Y6325D01*
X-1988Y6322D01*
X-1985Y6318D01*
X-1980Y6315D01*
X-1975Y6312D01*
X-1969Y6310D01*
X-1961Y6309D01*
X-1952Y6308D01*
X-1947D01*
X-1942Y6309D01*
X-1936Y6310D01*
X-1928Y6312D01*
X-1918Y6315D01*
X-1909Y6318D01*
X-1899Y6323D01*
X-1897Y6324D01*
X-1894Y6326D01*
X-1888Y6329D01*
X-1882Y6333D01*
X-1875Y6339D01*
X-1867Y6345D01*
X-1858Y6352D01*
X-1850Y6360D01*
X-1849Y6361D01*
X-1846Y6364D01*
X-1842Y6368D01*
X-1838Y6374D01*
X-1834Y6380D01*
X-1829Y6387D01*
X-1825Y6394D01*
X-1822Y6401D01*
Y6401D01*
X-1821Y6404D01*
X-1821Y6408D01*
X-1820Y6412D01*
Y6417D01*
Y6423D01*
X-1821Y6429D01*
X-1824Y6435D01*
Y6436D01*
X-1826Y6438D01*
X-1828Y6441D01*
X-1831Y6445D01*
X-1834Y6449D01*
X-1839Y6455D01*
X-1844Y6461D01*
X-1851Y6468D01*
X-1851Y6468D01*
X-1853Y6470D01*
X-1855Y6472D01*
X-1858Y6475D01*
X-1864Y6481D01*
X-1869Y6488D01*
Y6489D01*
X-1870Y6489D01*
X-1872Y6493D01*
X-1872Y6499D01*
Y6502D01*
X-1872Y6505D01*
Y6506D01*
X-1871Y6507D01*
X-1868Y6511D01*
X-1865Y6514D01*
X-1862Y6516D01*
X-1858Y6519D01*
X-1853Y6522D01*
X-1852D01*
X-1850Y6522D01*
X-1847Y6524D01*
X-1843Y6524D01*
X-1833Y6527D01*
X-1822Y6527D01*
X-1817D01*
X-1812Y6527D01*
X-1808Y6525D01*
X-1808D01*
X-1806Y6524D01*
X-1805Y6522D01*
X-1806Y6517D01*
Y6516D01*
X-1807Y6515D01*
X-1808Y6513D01*
X-1810Y6511D01*
X-1811D01*
X-1812Y6510D01*
X-1813Y6509D01*
X-1813Y6508D01*
X-1812Y6508D01*
X-1810Y6506D01*
X-1808Y6503D01*
X-1806Y6500D01*
X-1805Y6500D01*
X-1803Y6497D01*
X-1799Y6492D01*
X-1795Y6487D01*
X-1791Y6481D01*
X-1786Y6473D01*
X-1781Y6465D01*
X-1778Y6457D01*
X-1777Y6456D01*
X-1776Y6453D01*
X-1775Y6448D01*
X-1774Y6442D01*
X-1773Y6434D01*
Y6425D01*
X-1775Y6415D01*
X-1778Y6404D01*
X-1778Y6403D01*
X-1779Y6400D01*
X-1782Y6395D01*
X-1786Y6387D01*
X-1791Y6379D01*
X-1798Y6368D01*
X-1807Y6358D01*
X-1817Y6345D01*
X-1818Y6344D01*
X-1822Y6340D01*
X-1829Y6333D01*
X-1837Y6326D01*
X-1848Y6317D01*
X-1860Y6308D01*
X-1875Y6298D01*
X-1890Y6289D01*
X-1891D01*
X-1892Y6288D01*
X-1894Y6287D01*
X-1897Y6285D01*
X-1901Y6284D01*
X-1906Y6282D01*
X-1917Y6277D01*
X-1930Y6273D01*
X-1945Y6269D01*
X-1960Y6266D01*
X-1977Y6266D01*
X-1981D01*
X-1984Y6266D01*
X-1991Y6267D01*
X-2001Y6269D01*
X-2010Y6271D01*
X-2020Y6276D01*
X-2028Y6282D01*
X-2031Y6285D01*
X-2034Y6290D01*
X-2035Y6291D01*
X-2036Y6294D01*
X-2038Y6299D01*
X-2039Y6306D01*
X-2040Y6316D01*
Y6326D01*
X-2039Y6339D01*
X-2035Y6352D01*
X-2034Y6353D01*
X-2033Y6358D01*
X-2031Y6364D01*
X-2026Y6373D01*
X-2022Y6384D01*
X-2015Y6396D01*
X-2007Y6411D01*
X-1999Y6427D01*
Y6428D01*
X-1997Y6429D01*
X-1996Y6431D01*
X-1994Y6434D01*
X-1991Y6438D01*
X-1988Y6443D01*
X-1981Y6454D01*
X-1972Y6466D01*
X-1963Y6480D01*
X-1951Y6494D01*
X-1939Y6508D01*
X-1939Y6508D01*
X-1938Y6509D01*
X-1937Y6511D01*
X-1934Y6513D01*
X-1931Y6516D01*
X-1928Y6520D01*
X-1923Y6526D01*
X-1922Y6527D01*
X-1920Y6529D01*
X-1917Y6532D01*
X-1913Y6535D01*
X-1908Y6540D01*
X-1903Y6544D01*
X-1891Y6552D01*
X-1891Y6553D01*
X-1888Y6554D01*
X-1886Y6555D01*
X-1881Y6557D01*
X-1872Y6560D01*
X-1867Y6561D01*
X-1861Y6562D01*
X-1859D01*
X-1856Y6561D01*
D02*
G37*
G36*
X570Y6586D02*
X573Y6585D01*
X576Y6583D01*
X579Y6581D01*
X581Y6577D01*
X582Y6572D01*
Y6571D01*
Y6569D01*
X581Y6566D01*
X581Y6561D01*
X580Y6555D01*
X579Y6548D01*
X576Y6539D01*
X573Y6530D01*
X547Y6456D01*
Y6455D01*
X546Y6453D01*
X545Y6449D01*
X544Y6444D01*
X541Y6438D01*
X539Y6432D01*
X537Y6425D01*
X534Y6417D01*
X528Y6399D01*
X523Y6382D01*
X518Y6364D01*
X516Y6356D01*
X514Y6349D01*
Y6348D01*
Y6346D01*
X513Y6343D01*
X512Y6339D01*
X511Y6331D01*
X509Y6323D01*
X508Y6317D01*
X506Y6310D01*
Y6309D01*
X506Y6306D01*
X505Y6301D01*
X503Y6296D01*
X501Y6283D01*
X500Y6278D01*
X498Y6274D01*
X498Y6272D01*
X495Y6269D01*
X492Y6264D01*
X486Y6260D01*
X485D01*
X484Y6259D01*
X480Y6258D01*
X474Y6256D01*
X467Y6255D01*
X466D01*
X465Y6256D01*
X463Y6257D01*
X461Y6260D01*
X460Y6263D01*
X458Y6269D01*
Y6276D01*
X460Y6285D01*
Y6286D01*
Y6287D01*
X460Y6289D01*
X461Y6291D01*
X462Y6295D01*
X463Y6299D01*
X464Y6304D01*
X466Y6310D01*
X467Y6317D01*
X469Y6325D01*
X471Y6333D01*
X474Y6344D01*
X476Y6355D01*
X480Y6366D01*
X484Y6379D01*
X487Y6393D01*
Y6394D01*
X488Y6395D01*
X489Y6398D01*
X490Y6402D01*
X491Y6406D01*
X492Y6411D01*
X497Y6425D01*
X501Y6439D01*
X506Y6456D01*
X511Y6473D01*
X517Y6492D01*
Y6492D01*
X517Y6494D01*
X518Y6496D01*
X519Y6500D01*
X522Y6508D01*
X525Y6519D01*
X529Y6532D01*
X533Y6544D01*
X536Y6556D01*
X540Y6567D01*
Y6567D01*
X541Y6568D01*
X542Y6572D01*
X544Y6576D01*
X548Y6581D01*
X549Y6581D01*
X552Y6584D01*
X557Y6586D01*
X563Y6586D01*
X566D01*
X570Y6586D01*
D02*
G37*
G36*
X-2208Y6575D02*
X-2206Y6575D01*
X-2204Y6572D01*
X-2203Y6568D01*
X-2203Y6562D01*
X-2203Y6554D01*
X-2204Y6549D01*
X-2206Y6543D01*
Y6542D01*
X-2206Y6540D01*
X-2207Y6538D01*
X-2208Y6534D01*
X-2209Y6530D01*
X-2211Y6524D01*
X-2212Y6519D01*
X-2214Y6513D01*
X-2216Y6505D01*
X-2218Y6497D01*
X-2220Y6488D01*
X-2223Y6479D01*
X-2226Y6468D01*
X-2229Y6457D01*
X-2233Y6444D01*
X-2241Y6414D01*
Y6413D01*
X-2242Y6411D01*
X-2243Y6408D01*
X-2244Y6403D01*
X-2245Y6398D01*
X-2247Y6393D01*
X-2250Y6380D01*
X-2254Y6367D01*
X-2256Y6359D01*
X-2255Y6360D01*
X-2251Y6366D01*
X-2246Y6374D01*
X-2239Y6382D01*
X-2232Y6393D01*
X-2224Y6403D01*
X-2206Y6426D01*
X-2187Y6451D01*
X-2167Y6476D01*
X-2147Y6499D01*
X-2146Y6500D01*
X-2145Y6502D01*
X-2142Y6505D01*
X-2138Y6508D01*
X-2134Y6513D01*
X-2129Y6518D01*
X-2117Y6530D01*
X-2104Y6540D01*
X-2090Y6550D01*
X-2084Y6554D01*
X-2077Y6557D01*
X-2070Y6559D01*
X-2064Y6559D01*
X-2063D01*
X-2060Y6559D01*
X-2057Y6557D01*
X-2052Y6555D01*
X-2048Y6551D01*
X-2045Y6544D01*
X-2044Y6540D01*
X-2043Y6535D01*
Y6530D01*
X-2044Y6524D01*
Y6523D01*
Y6522D01*
X-2044Y6520D01*
Y6517D01*
X-2046Y6510D01*
X-2048Y6500D01*
X-2050Y6487D01*
X-2054Y6473D01*
X-2058Y6456D01*
X-2064Y6437D01*
Y6436D01*
X-2065Y6434D01*
X-2066Y6431D01*
X-2068Y6426D01*
X-2069Y6420D01*
X-2072Y6412D01*
X-2074Y6404D01*
X-2078Y6394D01*
X-2082Y6383D01*
X-2085Y6371D01*
X-2090Y6357D01*
X-2095Y6342D01*
X-2100Y6326D01*
X-2106Y6309D01*
X-2112Y6290D01*
X-2119Y6271D01*
Y6271D01*
X-2120Y6270D01*
X-2122Y6266D01*
X-2126Y6260D01*
X-2129Y6258D01*
X-2133Y6255D01*
X-2133D01*
X-2135Y6253D01*
X-2137Y6253D01*
X-2139Y6251D01*
X-2146Y6249D01*
X-2155Y6247D01*
X-2156D01*
X-2159Y6248D01*
X-2164Y6250D01*
X-2168Y6252D01*
X-2169Y6253D01*
X-2171Y6255D01*
X-2171Y6258D01*
Y6261D01*
X-2171Y6264D01*
X-2170Y6266D01*
X-2169Y6269D01*
X-2167Y6275D01*
X-2163Y6284D01*
X-2159Y6295D01*
X-2154Y6308D01*
X-2147Y6324D01*
X-2139Y6343D01*
Y6344D01*
X-2138Y6346D01*
X-2137Y6349D01*
X-2136Y6352D01*
X-2133Y6358D01*
X-2131Y6363D01*
X-2126Y6376D01*
X-2120Y6392D01*
X-2114Y6408D01*
X-2109Y6423D01*
X-2103Y6438D01*
Y6439D01*
X-2103Y6440D01*
X-2101Y6444D01*
X-2099Y6451D01*
X-2097Y6459D01*
X-2094Y6468D01*
X-2091Y6477D01*
X-2088Y6487D01*
X-2086Y6495D01*
Y6495D01*
X-2085Y6497D01*
X-2085Y6501D01*
X-2084Y6505D01*
X-2083Y6508D01*
X-2082Y6512D01*
Y6514D01*
X-2083Y6515D01*
X-2084D01*
X-2086Y6514D01*
X-2090Y6512D01*
X-2097Y6508D01*
X-2101Y6506D01*
X-2105Y6503D01*
X-2109Y6498D01*
X-2115Y6494D01*
X-2121Y6487D01*
X-2128Y6481D01*
X-2135Y6473D01*
X-2142Y6464D01*
X-2143Y6463D01*
X-2144Y6462D01*
X-2146Y6459D01*
X-2149Y6454D01*
X-2154Y6449D01*
X-2158Y6444D01*
X-2164Y6436D01*
X-2171Y6428D01*
X-2178Y6419D01*
X-2185Y6409D01*
X-2194Y6398D01*
X-2203Y6385D01*
X-2213Y6373D01*
X-2223Y6359D01*
X-2234Y6344D01*
X-2245Y6328D01*
X-2262Y6303D01*
X-2264Y6301D01*
X-2267Y6298D01*
X-2272Y6294D01*
X-2278Y6290D01*
X-2279D01*
X-2280Y6289D01*
X-2284Y6288D01*
X-2289Y6286D01*
X-2295Y6285D01*
X-2300D01*
X-2305Y6286D01*
X-2309Y6288D01*
X-2310Y6288D01*
X-2311Y6290D01*
Y6293D01*
Y6296D01*
X-2310Y6300D01*
X-2297Y6351D01*
X-2276Y6440D01*
Y6441D01*
X-2276Y6442D01*
X-2275Y6445D01*
X-2274Y6449D01*
X-2273Y6454D01*
X-2271Y6459D01*
X-2268Y6472D01*
X-2265Y6487D01*
X-2262Y6503D01*
X-2258Y6519D01*
X-2255Y6535D01*
Y6535D01*
Y6536D01*
X-2254Y6540D01*
X-2253Y6545D01*
X-2252Y6549D01*
Y6550D01*
X-2251Y6551D01*
X-2249Y6556D01*
X-2243Y6562D01*
X-2240Y6565D01*
X-2235Y6568D01*
X-2235Y6569D01*
X-2233Y6570D01*
X-2230Y6571D01*
X-2227Y6573D01*
X-2219Y6575D01*
X-2214Y6576D01*
X-2208D01*
X-2208Y6575D01*
D02*
G37*
G36*
X2935Y6651D02*
X2943Y6649D01*
X2949Y6646D01*
X2950D01*
X2951Y6645D01*
X2953Y6643D01*
X2955Y6638D01*
Y6635D01*
X2954Y6631D01*
Y6630D01*
X2954Y6629D01*
X2951Y6625D01*
X2947Y6619D01*
X2940Y6612D01*
Y6611D01*
Y6610D01*
X2940Y6607D01*
X2939Y6603D01*
X2937Y6594D01*
X2934Y6584D01*
Y6583D01*
X2933Y6582D01*
X2932Y6579D01*
X2932Y6576D01*
X2930Y6572D01*
X2929Y6567D01*
X2927Y6560D01*
X2925Y6552D01*
X2922Y6543D01*
X2920Y6533D01*
X2916Y6522D01*
X2913Y6508D01*
X2909Y6494D01*
X2905Y6479D01*
X2900Y6461D01*
X2895Y6442D01*
Y6441D01*
X2894Y6438D01*
X2892Y6433D01*
X2891Y6425D01*
X2889Y6417D01*
X2887Y6407D01*
X2884Y6397D01*
X2881Y6386D01*
X2875Y6363D01*
X2869Y6340D01*
X2867Y6329D01*
X2865Y6320D01*
X2862Y6311D01*
X2861Y6304D01*
Y6303D01*
X2860Y6301D01*
Y6297D01*
X2860Y6293D01*
X2859Y6286D01*
X2857Y6278D01*
X2857Y6269D01*
X2855Y6258D01*
Y6257D01*
Y6254D01*
X2854Y6248D01*
X2854Y6241D01*
Y6240D01*
Y6239D01*
X2853Y6235D01*
X2852Y6230D01*
X2852Y6228D01*
X2851Y6226D01*
Y6226D01*
X2850Y6225D01*
X2848Y6220D01*
X2846Y6218D01*
X2843Y6215D01*
X2839Y6212D01*
X2835Y6209D01*
X2834D01*
X2833Y6207D01*
X2830Y6207D01*
X2827Y6205D01*
X2819Y6202D01*
X2815Y6202D01*
X2811Y6201D01*
X2809D01*
X2806Y6202D01*
X2803Y6204D01*
X2802Y6207D01*
X2801Y6210D01*
X2799Y6215D01*
Y6215D01*
Y6217D01*
X2798Y6220D01*
Y6223D01*
Y6228D01*
Y6233D01*
X2800Y6245D01*
Y6245D01*
X2801Y6247D01*
X2801Y6251D01*
X2802Y6257D01*
X2803Y6263D01*
X2806Y6272D01*
X2808Y6282D01*
X2810Y6294D01*
X2813Y6308D01*
X2817Y6323D01*
X2821Y6339D01*
X2825Y6358D01*
X2830Y6378D01*
X2836Y6399D01*
X2843Y6423D01*
X2849Y6448D01*
X2885Y6574D01*
X2884Y6573D01*
X2883Y6572D01*
X2880Y6570D01*
X2876Y6566D01*
X2870Y6562D01*
X2865Y6557D01*
X2857Y6552D01*
X2849Y6546D01*
X2841Y6540D01*
X2832Y6534D01*
X2811Y6520D01*
X2790Y6506D01*
X2766Y6493D01*
X2765Y6492D01*
X2763Y6492D01*
X2760Y6490D01*
X2755Y6489D01*
X2747Y6485D01*
X2743Y6484D01*
X2740Y6484D01*
X2739D01*
X2735Y6484D01*
X2731Y6486D01*
X2727Y6489D01*
X2726Y6490D01*
X2725Y6493D01*
X2725Y6497D01*
X2725Y6502D01*
Y6503D01*
X2726Y6504D01*
X2728Y6506D01*
X2730Y6508D01*
X2733Y6512D01*
X2738Y6516D01*
X2744Y6519D01*
X2751Y6524D01*
X2752D01*
X2752Y6524D01*
X2755Y6526D01*
X2757Y6527D01*
X2765Y6532D01*
X2774Y6537D01*
X2784Y6543D01*
X2796Y6551D01*
X2822Y6567D01*
X2822D01*
X2823Y6568D01*
X2827Y6572D01*
X2834Y6576D01*
X2844Y6583D01*
X2854Y6590D01*
X2866Y6599D01*
X2879Y6608D01*
X2893Y6619D01*
X2898Y6623D01*
X2900Y6631D01*
X2903Y6637D01*
X2903Y6638D01*
X2905Y6641D01*
X2907Y6644D01*
X2910Y6647D01*
X2911Y6648D01*
X2912Y6648D01*
X2914Y6649D01*
X2916Y6650D01*
X2917D01*
X2919Y6651D01*
X2923Y6651D01*
X2932D01*
X2935Y6651D01*
D02*
G37*
%LPC*%
G36*
X1818Y6294D02*
X1816Y6291D01*
X1816Y6288D01*
X1815Y6288D01*
Y6287D01*
X1816Y6288D01*
X1817Y6290D01*
X1818Y6294D01*
D02*
G37*
G36*
X2553Y6672D02*
X2518D01*
X2513Y6672D01*
X2510D01*
X2509Y6670D01*
X2508Y6668D01*
X2507Y6665D01*
X2506Y6662D01*
X2504Y6656D01*
Y6656D01*
X2503Y6654D01*
X2502Y6651D01*
X2500Y6646D01*
X2498Y6641D01*
X2496Y6635D01*
X2493Y6628D01*
X2490Y6621D01*
X2460Y6525D01*
X2438Y6454D01*
X2440Y6454D01*
X2441Y6455D01*
X2444Y6456D01*
X2448Y6457D01*
X2454Y6459D01*
X2454D01*
X2456Y6460D01*
X2460Y6461D01*
X2464Y6462D01*
X2474Y6465D01*
X2485Y6469D01*
X2486Y6470D01*
X2488Y6471D01*
X2494Y6472D01*
X2499Y6474D01*
X2507Y6477D01*
X2515Y6481D01*
X2525Y6484D01*
X2535Y6489D01*
X2557Y6498D01*
X2580Y6508D01*
X2601Y6519D01*
X2612Y6525D01*
X2621Y6531D01*
X2622Y6532D01*
X2623Y6532D01*
X2626Y6534D01*
X2629Y6537D01*
X2637Y6543D01*
X2647Y6551D01*
X2658Y6562D01*
X2667Y6574D01*
X2676Y6587D01*
X2679Y6594D01*
X2682Y6602D01*
Y6602D01*
X2683Y6605D01*
X2684Y6608D01*
X2685Y6613D01*
X2684Y6618D01*
X2683Y6624D01*
X2681Y6629D01*
X2677Y6635D01*
X2677Y6636D01*
X2675Y6638D01*
X2672Y6641D01*
X2668Y6645D01*
X2662Y6648D01*
X2655Y6654D01*
X2645Y6657D01*
X2634Y6662D01*
X2633Y6662D01*
X2628Y6663D01*
X2622Y6665D01*
X2612Y6667D01*
X2601Y6669D01*
X2587Y6671D01*
X2571Y6672D01*
X2553Y6672D01*
D02*
G37*
G36*
X1155Y6547D02*
X1151D01*
X1147Y6546D01*
X1141Y6546D01*
X1134Y6543D01*
X1126Y6541D01*
X1117Y6538D01*
X1108Y6532D01*
X1106Y6532D01*
X1103Y6530D01*
X1098Y6527D01*
X1092Y6522D01*
X1085Y6517D01*
X1077Y6511D01*
X1069Y6504D01*
X1061Y6497D01*
X1060Y6496D01*
X1057Y6493D01*
X1054Y6489D01*
X1050Y6485D01*
X1041Y6476D01*
X1037Y6472D01*
X1034Y6468D01*
X1035D01*
X1038Y6469D01*
X1042Y6470D01*
X1049Y6471D01*
X1057Y6473D01*
X1066Y6476D01*
X1078Y6479D01*
X1090Y6483D01*
X1091D01*
X1092Y6484D01*
X1096Y6485D01*
X1103Y6488D01*
X1111Y6492D01*
X1121Y6495D01*
X1131Y6500D01*
X1141Y6506D01*
X1151Y6511D01*
X1151Y6511D01*
X1154Y6513D01*
X1159Y6516D01*
X1163Y6519D01*
X1168Y6522D01*
X1173Y6526D01*
X1176Y6530D01*
X1178Y6532D01*
Y6533D01*
Y6536D01*
X1177Y6539D01*
X1176Y6541D01*
X1173Y6543D01*
X1172Y6543D01*
X1169Y6545D01*
X1163Y6546D01*
X1155Y6547D01*
D02*
G37*
%LPD*%
D47*
X293Y-8661D02*
D03*
X-298Y-8661D02*
D03*
X293Y8661D02*
D03*
X-298D02*
D03*
D48*
X4821Y9072D02*
D03*
X3002Y9825D02*
D03*
X-4825Y-9072D02*
D03*
X-3007Y-9825D02*
D03*
D49*
X5122Y9800D02*
D03*
X4519Y8345D02*
D03*
X2701Y9098D02*
D03*
X3303Y10553D02*
D03*
X-5127Y-9800D02*
D03*
X-4524Y-8345D02*
D03*
X-2705Y-9098D02*
D03*
X-3308Y-10553D02*
D03*
D50*
X9070Y-4823D02*
D03*
X9823Y-3004D02*
D03*
X-9075Y4823D02*
D03*
X-9828Y3004D02*
D03*
D51*
X9797Y-5124D02*
D03*
X8342Y-4522D02*
D03*
X9096Y-2703D02*
D03*
X10551Y-3306D02*
D03*
X-9802Y5124D02*
D03*
X-8347Y4522D02*
D03*
X-9100Y2703D02*
D03*
X-10555Y3306D02*
D03*
D52*
X7938Y6548D02*
D03*
X6546Y7940D02*
D03*
X-7942Y-6548D02*
D03*
X-6550Y-7940D02*
D03*
D53*
X8494Y7105D02*
D03*
X7381Y5991D02*
D03*
X5989Y7383D02*
D03*
X7103Y8497D02*
D03*
X-8499Y-7105D02*
D03*
X-7386Y-5991D02*
D03*
X-5994Y-7383D02*
D03*
X-7107Y-8497D02*
D03*
D54*
X6546Y-7940D02*
D03*
X7938Y-6548D02*
D03*
X-6550Y7940D02*
D03*
X-7942Y6548D02*
D03*
D55*
X7103Y-8497D02*
D03*
X5989Y-7383D02*
D03*
X7381Y-5991D02*
D03*
X8494Y-7105D02*
D03*
X-7107Y8497D02*
D03*
X-5994Y7383D02*
D03*
X-7386Y5991D02*
D03*
X-8499Y7105D02*
D03*
D56*
X9823Y3004D02*
D03*
X9070Y4823D02*
D03*
X-9828Y-3004D02*
D03*
X-9075Y-4823D02*
D03*
D57*
X10551Y3306D02*
D03*
X9096Y2703D02*
D03*
X8342Y4522D02*
D03*
X9797Y5124D02*
D03*
X-10555Y-3306D02*
D03*
X-9100Y-2703D02*
D03*
X-8347Y-4522D02*
D03*
X-9802Y-5124D02*
D03*
D58*
X3002Y-9825D02*
D03*
X4821Y-9072D02*
D03*
X-3007Y9825D02*
D03*
X-4825Y9072D02*
D03*
D59*
X3303Y-10553D02*
D03*
X2701Y-9098D02*
D03*
X4519Y-8345D02*
D03*
X5122Y-9800D02*
D03*
X-3308Y10553D02*
D03*
X-2705Y9098D02*
D03*
X-4524Y8345D02*
D03*
X-5127Y9800D02*
D03*
D60*
X10234Y-984D02*
D03*
Y984D02*
D03*
X-10239D02*
D03*
Y-984D02*
D03*
D61*
X11021Y-984D02*
D03*
X9446Y-984D02*
D03*
X9446Y984D02*
D03*
X11021Y984D02*
D03*
X-11026Y984D02*
D03*
X-9451Y984D02*
D03*
Y-984D02*
D03*
X-11026Y-984D02*
D03*
D62*
X-987Y-10236D02*
D03*
X982Y-10236D02*
D03*
X982Y10236D02*
D03*
X-987Y10236D02*
D03*
D63*
X-987Y-11024D02*
D03*
Y-9449D02*
D03*
X982D02*
D03*
X982Y-11024D02*
D03*
X982Y11024D02*
D03*
X982Y9449D02*
D03*
X-987Y9449D02*
D03*
X-987Y11024D02*
D03*
D64*
X8659Y-295D02*
D03*
X8659Y295D02*
D03*
X-8664Y295D02*
D03*
X-8664Y-295D02*
D03*
D65*
X155Y-1535D02*
D03*
X-160Y-1535D02*
D03*
D66*
X-1411Y631D02*
D03*
X-1253Y904D02*
D03*
D67*
X1249Y904D02*
D03*
X1406Y631D02*
D03*
D68*
X-750Y-2264D02*
D03*
Y-2461D02*
D03*
Y-2657D02*
D03*
Y-2854D02*
D03*
Y-3051D02*
D03*
X-750Y-3248D02*
D03*
X746D02*
D03*
X746Y-3051D02*
D03*
Y-2854D02*
D03*
X746Y-2657D02*
D03*
X746Y-2461D02*
D03*
X746Y-2264D02*
D03*
D69*
X-494Y-3504D02*
D03*
X-298Y-3504D02*
D03*
X-101Y-3504D02*
D03*
X96Y-3504D02*
D03*
X293Y-3504D02*
D03*
X490Y-3504D02*
D03*
Y-2008D02*
D03*
X293Y-2008D02*
D03*
X96Y-2008D02*
D03*
X-101Y-2008D02*
D03*
X-298Y-2008D02*
D03*
X-494Y-2008D02*
D03*
D70*
X-2Y-2756D02*
D03*
D71*
X-1589Y1780D02*
D03*
X-1759Y1878D02*
D03*
X-1930Y1977D02*
D03*
X-2100Y2075D02*
D03*
X-2271Y2173D02*
D03*
X-2441Y2272D02*
D03*
X-3189Y976D02*
D03*
X-3019Y878D02*
D03*
X-2848Y779D02*
D03*
X-2678Y681D02*
D03*
X-2507Y582D02*
D03*
X-2337Y484D02*
D03*
D72*
X-2791Y2178D02*
D03*
X-2889Y2008D02*
D03*
X-2988Y1837D02*
D03*
X-3086Y1667D02*
D03*
X-3184Y1496D02*
D03*
X-3283Y1326D02*
D03*
X-1987Y578D02*
D03*
X-1889Y748D02*
D03*
X-1790Y919D02*
D03*
X-1692Y1089D02*
D03*
X-1594Y1260D02*
D03*
X-1495Y1430D02*
D03*
D73*
X-2389Y1378D02*
D03*
D74*
X2332Y484D02*
D03*
X2503Y582D02*
D03*
X2673Y681D02*
D03*
X2844Y779D02*
D03*
X3014Y878D02*
D03*
X3185Y976D02*
D03*
X2437Y2272D02*
D03*
X2266Y2173D02*
D03*
X2096Y2075D02*
D03*
X1925Y1977D02*
D03*
X1755Y1878D02*
D03*
X1584Y1780D02*
D03*
D75*
X3278Y1326D02*
D03*
X3180Y1496D02*
D03*
X3081Y1667D02*
D03*
X2983Y1837D02*
D03*
X2885Y2008D02*
D03*
X2786Y2178D02*
D03*
X1490Y1430D02*
D03*
X1589Y1260D02*
D03*
X1687Y1089D02*
D03*
X1786Y919D02*
D03*
X1884Y748D02*
D03*
X1983Y578D02*
D03*
D76*
X2384Y1378D02*
D03*
D77*
X-180Y-1063D02*
D03*
X175Y-1063D02*
D03*
D78*
X-834Y685D02*
D03*
X-1011Y378D02*
D03*
D79*
X1007Y378D02*
D03*
X830Y685D02*
D03*
D80*
X8758Y787D02*
D03*
X-8762Y-787D02*
D03*
X588Y-8661D02*
D03*
X-593Y8661D02*
D03*
D81*
X-3945Y10289D02*
D03*
X-3643Y9562D02*
D03*
X-7594Y8010D02*
D03*
X-7038Y7453D02*
D03*
X-10066Y4488D02*
D03*
X-9338Y4187D02*
D03*
X-11026Y295D02*
D03*
X-10239D02*
D03*
X-10292Y-3942D02*
D03*
X-9564Y-3641D02*
D03*
X-8012Y-7592D02*
D03*
X-7455Y-7035D02*
D03*
X-4490Y-10063D02*
D03*
X-4189Y-9336D02*
D03*
X-298Y-11024D02*
D03*
Y-10236D02*
D03*
X3940Y-10289D02*
D03*
X3639Y-9562D02*
D03*
X7590Y-8010D02*
D03*
X7033Y-7453D02*
D03*
X10061Y-4488D02*
D03*
X9333Y-4187D02*
D03*
X11021Y-295D02*
D03*
X10234Y-295D02*
D03*
X10287Y3942D02*
D03*
X9559Y3641D02*
D03*
X8007Y7592D02*
D03*
X7451Y7035D02*
D03*
X4486Y10063D02*
D03*
X4184Y9336D02*
D03*
X293Y10236D02*
D03*
X293Y11024D02*
D03*
D82*
X-219Y-2539D02*
D03*
X214Y-2539D02*
D03*
X-219Y-2972D02*
D03*
X214Y-2972D02*
D03*
X-2093Y1457D02*
D03*
X-2310Y1082D02*
D03*
X-2468Y1674D02*
D03*
X-2685Y1299D02*
D03*
X2305Y1082D02*
D03*
X2089Y1457D02*
D03*
X2680Y1299D02*
D03*
X2464Y1674D02*
D03*
M02*
