G04*
G04 #@! TF.GenerationSoftware,Altium Limited,Altium Designer,18.1.6 (161)*
G04*
G04 Layer_Physical_Order=1*
G04 Layer_Color=255*
%FSLAX24Y24*%
%MOIN*%
G70*
G01*
G75*
%ADD14R,0.0315X0.0315*%
G04:AMPARAMS|DCode=15|XSize=51.2mil|YSize=78.7mil|CornerRadius=0mil|HoleSize=0mil|Usage=FLASHONLY|Rotation=67.500|XOffset=0mil|YOffset=0mil|HoleType=Round|Shape=Rectangle|*
%AMROTATEDRECTD15*
4,1,4,0.0266,-0.0387,-0.0462,-0.0086,-0.0266,0.0387,0.0462,0.0086,0.0266,-0.0387,0.0*
%
%ADD15ROTATEDRECTD15*%

G04:AMPARAMS|DCode=16|XSize=66.9mil|YSize=78.7mil|CornerRadius=0mil|HoleSize=0mil|Usage=FLASHONLY|Rotation=67.500|XOffset=0mil|YOffset=0mil|HoleType=Round|Shape=Rectangle|*
%AMROTATEDRECTD16*
4,1,4,0.0236,-0.0460,-0.0492,-0.0159,-0.0236,0.0460,0.0492,0.0159,0.0236,-0.0460,0.0*
%
%ADD16ROTATEDRECTD16*%

G04:AMPARAMS|DCode=17|XSize=51.2mil|YSize=78.7mil|CornerRadius=0mil|HoleSize=0mil|Usage=FLASHONLY|Rotation=337.500|XOffset=0mil|YOffset=0mil|HoleType=Round|Shape=Rectangle|*
%AMROTATEDRECTD17*
4,1,4,-0.0387,-0.0266,-0.0086,0.0462,0.0387,0.0266,0.0086,-0.0462,-0.0387,-0.0266,0.0*
%
%ADD17ROTATEDRECTD17*%

G04:AMPARAMS|DCode=18|XSize=66.9mil|YSize=78.7mil|CornerRadius=0mil|HoleSize=0mil|Usage=FLASHONLY|Rotation=337.500|XOffset=0mil|YOffset=0mil|HoleType=Round|Shape=Rectangle|*
%AMROTATEDRECTD18*
4,1,4,-0.0460,-0.0236,-0.0159,0.0492,0.0460,0.0236,0.0159,-0.0492,-0.0460,-0.0236,0.0*
%
%ADD18ROTATEDRECTD18*%

G04:AMPARAMS|DCode=19|XSize=51.2mil|YSize=78.7mil|CornerRadius=0mil|HoleSize=0mil|Usage=FLASHONLY|Rotation=45.000|XOffset=0mil|YOffset=0mil|HoleType=Round|Shape=Rectangle|*
%AMROTATEDRECTD19*
4,1,4,0.0097,-0.0459,-0.0459,0.0097,-0.0097,0.0459,0.0459,-0.0097,0.0097,-0.0459,0.0*
%
%ADD19ROTATEDRECTD19*%

G04:AMPARAMS|DCode=20|XSize=66.9mil|YSize=78.7mil|CornerRadius=0mil|HoleSize=0mil|Usage=FLASHONLY|Rotation=45.000|XOffset=0mil|YOffset=0mil|HoleType=Round|Shape=Rectangle|*
%AMROTATEDRECTD20*
4,1,4,0.0042,-0.0515,-0.0515,0.0042,-0.0042,0.0515,0.0515,-0.0042,0.0042,-0.0515,0.0*
%
%ADD20ROTATEDRECTD20*%

G04:AMPARAMS|DCode=21|XSize=51.2mil|YSize=78.7mil|CornerRadius=0mil|HoleSize=0mil|Usage=FLASHONLY|Rotation=315.000|XOffset=0mil|YOffset=0mil|HoleType=Round|Shape=Rectangle|*
%AMROTATEDRECTD21*
4,1,4,-0.0459,-0.0097,0.0097,0.0459,0.0459,0.0097,-0.0097,-0.0459,-0.0459,-0.0097,0.0*
%
%ADD21ROTATEDRECTD21*%

G04:AMPARAMS|DCode=22|XSize=66.9mil|YSize=78.7mil|CornerRadius=0mil|HoleSize=0mil|Usage=FLASHONLY|Rotation=315.000|XOffset=0mil|YOffset=0mil|HoleType=Round|Shape=Rectangle|*
%AMROTATEDRECTD22*
4,1,4,-0.0515,-0.0042,0.0042,0.0515,0.0515,0.0042,-0.0042,-0.0515,-0.0515,-0.0042,0.0*
%
%ADD22ROTATEDRECTD22*%

G04:AMPARAMS|DCode=23|XSize=51.2mil|YSize=78.7mil|CornerRadius=0mil|HoleSize=0mil|Usage=FLASHONLY|Rotation=22.500|XOffset=0mil|YOffset=0mil|HoleType=Round|Shape=Rectangle|*
%AMROTATEDRECTD23*
4,1,4,-0.0086,-0.0462,-0.0387,0.0266,0.0086,0.0462,0.0387,-0.0266,-0.0086,-0.0462,0.0*
%
%ADD23ROTATEDRECTD23*%

G04:AMPARAMS|DCode=24|XSize=66.9mil|YSize=78.7mil|CornerRadius=0mil|HoleSize=0mil|Usage=FLASHONLY|Rotation=22.500|XOffset=0mil|YOffset=0mil|HoleType=Round|Shape=Rectangle|*
%AMROTATEDRECTD24*
4,1,4,-0.0159,-0.0492,-0.0460,0.0236,0.0159,0.0492,0.0460,-0.0236,-0.0159,-0.0492,0.0*
%
%ADD24ROTATEDRECTD24*%

G04:AMPARAMS|DCode=25|XSize=51.2mil|YSize=78.7mil|CornerRadius=0mil|HoleSize=0mil|Usage=FLASHONLY|Rotation=292.500|XOffset=0mil|YOffset=0mil|HoleType=Round|Shape=Rectangle|*
%AMROTATEDRECTD25*
4,1,4,-0.0462,0.0086,0.0266,0.0387,0.0462,-0.0086,-0.0266,-0.0387,-0.0462,0.0086,0.0*
%
%ADD25ROTATEDRECTD25*%

G04:AMPARAMS|DCode=26|XSize=66.9mil|YSize=78.7mil|CornerRadius=0mil|HoleSize=0mil|Usage=FLASHONLY|Rotation=292.500|XOffset=0mil|YOffset=0mil|HoleType=Round|Shape=Rectangle|*
%AMROTATEDRECTD26*
4,1,4,-0.0492,0.0159,0.0236,0.0460,0.0492,-0.0159,-0.0236,-0.0460,-0.0492,0.0159,0.0*
%
%ADD26ROTATEDRECTD26*%

%ADD27R,0.0512X0.0787*%
%ADD28R,0.0669X0.0787*%
%ADD29R,0.0787X0.0512*%
%ADD30R,0.0787X0.0669*%
%ADD31R,0.0315X0.0315*%
%ADD32R,0.0157X0.0197*%
G04:AMPARAMS|DCode=33|XSize=15.7mil|YSize=19.7mil|CornerRadius=0mil|HoleSize=0mil|Usage=FLASHONLY|Rotation=60.000|XOffset=0mil|YOffset=0mil|HoleType=Round|Shape=Rectangle|*
%AMROTATEDRECTD33*
4,1,4,0.0046,-0.0117,-0.0125,-0.0019,-0.0046,0.0117,0.0125,0.0019,0.0046,-0.0117,0.0*
%
%ADD33ROTATEDRECTD33*%

G04:AMPARAMS|DCode=34|XSize=15.7mil|YSize=19.7mil|CornerRadius=0mil|HoleSize=0mil|Usage=FLASHONLY|Rotation=300.000|XOffset=0mil|YOffset=0mil|HoleType=Round|Shape=Rectangle|*
%AMROTATEDRECTD34*
4,1,4,-0.0125,0.0019,0.0046,0.0117,0.0125,-0.0019,-0.0046,-0.0117,-0.0125,0.0019,0.0*
%
%ADD34ROTATEDRECTD34*%

%ADD35O,0.0315X0.0098*%
%ADD36O,0.0098X0.0315*%
%ADD37R,0.0839X0.0839*%
G04:AMPARAMS|DCode=38|XSize=9.8mil|YSize=31.5mil|CornerRadius=0mil|HoleSize=0mil|Usage=FLASHONLY|Rotation=330.000|XOffset=0mil|YOffset=0mil|HoleType=Round|Shape=Round|*
%AMOVALD38*
21,1,0.0217,0.0098,0.0000,0.0000,60.0*
1,1,0.0098,-0.0054,-0.0094*
1,1,0.0098,0.0054,0.0094*
%
%ADD38OVALD38*%

G04:AMPARAMS|DCode=39|XSize=9.8mil|YSize=31.5mil|CornerRadius=0mil|HoleSize=0mil|Usage=FLASHONLY|Rotation=240.000|XOffset=0mil|YOffset=0mil|HoleType=Round|Shape=Round|*
%AMOVALD39*
21,1,0.0217,0.0098,0.0000,0.0000,330.0*
1,1,0.0098,-0.0094,0.0054*
1,1,0.0098,0.0094,-0.0054*
%
%ADD39OVALD39*%

%ADD40P,0.1186X4X285.0*%
G04:AMPARAMS|DCode=41|XSize=9.8mil|YSize=31.5mil|CornerRadius=0mil|HoleSize=0mil|Usage=FLASHONLY|Rotation=210.000|XOffset=0mil|YOffset=0mil|HoleType=Round|Shape=Round|*
%AMOVALD41*
21,1,0.0217,0.0098,0.0000,0.0000,300.0*
1,1,0.0098,-0.0054,0.0094*
1,1,0.0098,0.0054,-0.0094*
%
%ADD41OVALD41*%

G04:AMPARAMS|DCode=42|XSize=9.8mil|YSize=31.5mil|CornerRadius=0mil|HoleSize=0mil|Usage=FLASHONLY|Rotation=120.000|XOffset=0mil|YOffset=0mil|HoleType=Round|Shape=Round|*
%AMOVALD42*
21,1,0.0217,0.0098,0.0000,0.0000,210.0*
1,1,0.0098,0.0094,0.0054*
1,1,0.0098,-0.0094,-0.0054*
%
%ADD42OVALD42*%

%ADD43P,0.1186X4X165.0*%
%ADD44R,0.0217X0.0217*%
%ADD45P,0.0306X4X375.0*%
%ADD46P,0.0306X4X255.0*%
%ADD83C,0.0100*%
%ADD84C,0.0280*%
%ADD85C,0.0160*%
%ADD86C,0.0177*%
%ADD87C,0.0300*%
%ADD88C,0.0394*%
%ADD89C,0.0197*%
G36*
X591Y11164D02*
X628Y11164D01*
X628Y10884D01*
X591Y10883D01*
X591Y10883D01*
Y10744D01*
X588Y10770D01*
X579Y10794D01*
X565Y10815D01*
X546Y10833D01*
X520Y10849D01*
X489Y10861D01*
X453Y10871D01*
X436Y10874D01*
X428Y10873D01*
X419Y10871D01*
X413Y10868D01*
Y10878D01*
X411Y10878D01*
X363Y10882D01*
X309Y10884D01*
Y11164D01*
X363Y11165D01*
X411Y11169D01*
X413Y11170D01*
Y11180D01*
X419Y11177D01*
X428Y11174D01*
X433Y11173D01*
X453Y11176D01*
X489Y11186D01*
X520Y11199D01*
X546Y11214D01*
X565Y11232D01*
X579Y11253D01*
X588Y11277D01*
X591Y11304D01*
Y11164D01*
D02*
G37*
G36*
X-593Y11040D02*
X-591Y11030D01*
X-586Y11019D01*
X-580Y11009D01*
X-572Y10998D01*
X-562Y10988D01*
X-550Y10978D01*
X-537Y10969D01*
X-521Y10959D01*
X-504Y10950D01*
X-507Y10835D01*
X-523Y10843D01*
X-538Y10849D01*
X-551Y10853D01*
X-563Y10855D01*
X-572Y10856D01*
X-580Y10854D01*
X-586Y10850D01*
X-591Y10844D01*
X-593Y10836D01*
X-594Y10826D01*
Y11051D01*
X-593Y11040D01*
D02*
G37*
G36*
X-3724Y10533D02*
X-3689Y10547D01*
X-3581Y10288D01*
X-3616Y10274D01*
X-3616Y10274D01*
X-3562Y10145D01*
X-3575Y10168D01*
X-3592Y10187D01*
X-3613Y10201D01*
X-3638Y10210D01*
X-3668Y10215D01*
X-3701Y10214D01*
X-3739Y10209D01*
X-3755Y10206D01*
X-3762Y10202D01*
X-3770Y10196D01*
X-3774Y10191D01*
X-3778Y10200D01*
X-3780Y10200D01*
X-3826Y10185D01*
X-3876Y10166D01*
X-3983Y10425D01*
X-3934Y10447D01*
X-3892Y10469D01*
X-3890Y10470D01*
X-3893Y10479D01*
X-3887Y10479D01*
X-3877Y10480D01*
X-3872Y10481D01*
X-3855Y10491D01*
X-3825Y10514D01*
X-3802Y10538D01*
X-3784Y10562D01*
X-3773Y10586D01*
X-3768Y10611D01*
X-3769Y10636D01*
X-3777Y10662D01*
X-3724Y10533D01*
D02*
G37*
G36*
X1123Y10717D02*
X1126Y10691D01*
X1262D01*
X1235Y10689D01*
X1212Y10680D01*
X1191Y10666D01*
X1172Y10646D01*
X1157Y10621D01*
X1144Y10591D01*
X1157Y10560D01*
X1172Y10535D01*
X1191Y10515D01*
X1212Y10501D01*
X1235Y10493D01*
X1262Y10490D01*
X1126D01*
X1123Y10464D01*
X1122Y10410D01*
X842D01*
X841Y10464D01*
X838Y10490D01*
X702D01*
X729Y10493D01*
X752Y10501D01*
X773Y10515D01*
X792Y10535D01*
X807Y10560D01*
X819Y10591D01*
X807Y10621D01*
X792Y10646D01*
X773Y10666D01*
X752Y10680D01*
X729Y10689D01*
X702Y10691D01*
X838D01*
X841Y10717D01*
X842Y10771D01*
X1122D01*
X1123Y10717D01*
D02*
G37*
G36*
X589Y10377D02*
X628Y10376D01*
X628Y10096D01*
X591Y10096D01*
X589Y10096D01*
Y9982D01*
X587Y10003D01*
X578Y10023D01*
X564Y10040D01*
X545Y10055D01*
X519Y10068D01*
X489Y10078D01*
X452Y10086D01*
X444Y10087D01*
X441Y10087D01*
X439Y10072D01*
X435Y10029D01*
X433Y9901D01*
X153Y9901D01*
X153Y9938D01*
X143Y10101D01*
X140Y10110D01*
X137Y10116D01*
X309Y10116D01*
Y10376D01*
X363Y10377D01*
X413Y10383D01*
Y10392D01*
X419Y10389D01*
X428Y10386D01*
X436Y10385D01*
X452Y10387D01*
X489Y10395D01*
X519Y10405D01*
X545Y10418D01*
X564Y10432D01*
X578Y10450D01*
X587Y10469D01*
X589Y10491D01*
Y10377D01*
D02*
G37*
G36*
X3672Y10418D02*
X3671Y10408D01*
X3671Y10396D01*
X3673Y10384D01*
X3676Y10371D01*
X3682Y10358D01*
X3689Y10345D01*
X3698Y10330D01*
X3708Y10315D01*
X3721Y10300D01*
X3675Y10195D01*
X3662Y10209D01*
X3651Y10221D01*
X3640Y10229D01*
X3630Y10236D01*
X3621Y10240D01*
X3613Y10241D01*
X3606Y10240D01*
X3600Y10236D01*
X3594Y10230D01*
X3589Y10221D01*
X3676Y10429D01*
X3672Y10418D01*
D02*
G37*
G36*
X4814Y10079D02*
X4849Y10064D01*
X4742Y9806D01*
X4707Y9820D01*
X4707Y9820D01*
X4653Y9691D01*
X4661Y9716D01*
X4662Y9742D01*
X4657Y9766D01*
X4646Y9791D01*
X4629Y9815D01*
X4605Y9838D01*
X4575Y9861D01*
X4560Y9870D01*
X4553Y9873D01*
X4543Y9874D01*
X4537Y9873D01*
X4541Y9882D01*
X4539Y9884D01*
X4496Y9906D01*
X4447Y9928D01*
X4554Y10186D01*
X4604Y10167D01*
X4650Y10153D01*
X4652Y10152D01*
X4656Y10161D01*
X4660Y10156D01*
X4668Y10150D01*
X4672Y10148D01*
X4692Y10143D01*
X4729Y10138D01*
X4763Y10138D01*
X4792Y10142D01*
X4817Y10152D01*
X4838Y10166D01*
X4855Y10185D01*
X4868Y10208D01*
X4814Y10079D01*
D02*
G37*
G36*
X-593Y10323D02*
X-590Y10312D01*
X-586Y10302D01*
X-580Y10292D01*
X-571Y10281D01*
X-561Y10271D01*
X-550Y10261D01*
X-536Y10251D01*
X-521Y10241D01*
X-504Y10231D01*
X-513Y10109D01*
X-528Y10117D01*
X-542Y10123D01*
X-554Y10128D01*
X-565Y10130D01*
X-574Y10131D01*
X-581Y10130D01*
X-587Y10126D01*
X-591Y10122D01*
X-593Y10115D01*
X-594Y10106D01*
Y10333D01*
X-593Y10323D01*
D02*
G37*
G36*
X-3060Y10324D02*
X-3048Y10301D01*
X-2922Y10353D01*
X-2946Y10340D01*
X-2965Y10323D01*
X-2979Y10302D01*
X-2988Y10277D01*
X-2992Y10248D01*
X-2992Y10215D01*
X-2969Y10192D01*
X-2945Y10174D01*
X-2921Y10163D01*
X-2896Y10158D01*
X-2871Y10159D01*
X-2845Y10167D01*
X-2971Y10115D01*
X-2963Y10090D01*
X-2944Y10040D01*
X-3203Y9933D01*
X-3224Y9981D01*
X-3237Y10005D01*
X-3362Y9953D01*
X-3339Y9965D01*
X-3320Y9982D01*
X-3306Y10003D01*
X-3297Y10028D01*
X-3292Y10058D01*
X-3293Y10091D01*
X-3316Y10114D01*
X-3340Y10132D01*
X-3364Y10143D01*
X-3389Y10148D01*
X-3414Y10146D01*
X-3440Y10139D01*
X-3314Y10191D01*
X-3322Y10216D01*
X-3341Y10266D01*
X-3082Y10373D01*
X-3060Y10324D01*
D02*
G37*
G36*
X-4771Y9965D02*
X-4764Y9957D01*
X-4756Y9949D01*
X-4746Y9941D01*
X-4735Y9935D01*
X-4722Y9930D01*
X-4707Y9925D01*
X-4690Y9921D01*
X-4672Y9918D01*
X-4653Y9916D01*
X-4611Y9809D01*
X-4630Y9810D01*
X-4646Y9810D01*
X-4660Y9809D01*
X-4672Y9806D01*
X-4681Y9803D01*
X-4687Y9798D01*
X-4691Y9792D01*
X-4693Y9785D01*
X-4693Y9777D01*
X-4690Y9767D01*
X-4776Y9975D01*
X-4771Y9965D01*
D02*
G37*
G36*
X-3423Y9805D02*
X-3387Y9819D01*
X-3280Y9561D01*
X-3314Y9546D01*
X-3316Y9546D01*
X-3272Y9440D01*
X-3283Y9459D01*
X-3298Y9474D01*
X-3318Y9484D01*
X-3341Y9491D01*
X-3370Y9493D01*
X-3402Y9490D01*
X-3439Y9484D01*
X-3446Y9482D01*
X-3461Y9475D01*
X-3468Y9469D01*
X-3473Y9464D01*
X-3477Y9474D01*
X-3480Y9473D01*
X-3525Y9458D01*
X-3575Y9439D01*
X-3682Y9697D01*
X-3633Y9719D01*
X-3588Y9743D01*
X-3592Y9752D01*
X-3585Y9751D01*
X-3576Y9752D01*
X-3568Y9754D01*
X-3554Y9762D01*
X-3523Y9783D01*
X-3499Y9804D01*
X-3480Y9826D01*
X-3468Y9847D01*
X-3461Y9868D01*
X-3461Y9889D01*
X-3467Y9911D01*
X-3423Y9805D01*
D02*
G37*
G36*
X1123Y10009D02*
X1126Y9983D01*
X1262D01*
X1235Y9980D01*
X1212Y9971D01*
X1191Y9957D01*
X1172Y9938D01*
X1157Y9912D01*
X1144Y9882D01*
X1157Y9851D01*
X1172Y9826D01*
X1191Y9806D01*
X1212Y9792D01*
X1235Y9784D01*
X1262Y9781D01*
X1126D01*
X1123Y9755D01*
X1122Y9702D01*
X842D01*
X841Y9755D01*
X838Y9781D01*
X702D01*
X729Y9784D01*
X752Y9792D01*
X773Y9806D01*
X792Y9826D01*
X807Y9851D01*
X819Y9882D01*
X807Y9912D01*
X792Y9938D01*
X773Y9957D01*
X752Y9971D01*
X729Y9980D01*
X702Y9983D01*
X838D01*
X841Y10009D01*
X842Y10062D01*
X1122D01*
X1123Y10009D01*
D02*
G37*
G36*
X5155Y9513D02*
X5136Y9463D01*
X5128Y9438D01*
X5254Y9386D01*
X5228Y9393D01*
X5203Y9394D01*
X5178Y9389D01*
X5154Y9378D01*
X5130Y9361D01*
X5107Y9337D01*
X5106Y9304D01*
X5111Y9275D01*
X5120Y9250D01*
X5134Y9229D01*
X5153Y9212D01*
X5176Y9199D01*
X5051Y9251D01*
X5038Y9228D01*
X5017Y9179D01*
X4758Y9286D01*
X4777Y9336D01*
X4785Y9361D01*
X4659Y9414D01*
X4685Y9406D01*
X4710Y9405D01*
X4735Y9410D01*
X4759Y9421D01*
X4783Y9438D01*
X4806Y9462D01*
X4806Y9495D01*
X4802Y9524D01*
X4793Y9549D01*
X4779Y9570D01*
X4760Y9587D01*
X4736Y9600D01*
X4862Y9548D01*
X4874Y9571D01*
X4896Y9620D01*
X5155Y9513D01*
D02*
G37*
G36*
X3398Y9756D02*
X3396Y9745D01*
X3397Y9734D01*
X3399Y9722D01*
X3402Y9709D01*
X3408Y9696D01*
X3415Y9682D01*
X3424Y9667D01*
X3434Y9652D01*
X3446Y9635D01*
X3391Y9527D01*
X3380Y9540D01*
X3369Y9551D01*
X3360Y9560D01*
X3351Y9567D01*
X3342Y9571D01*
X3335Y9572D01*
X3329Y9572D01*
X3323Y9569D01*
X3318Y9563D01*
X3314Y9555D01*
X3401Y9766D01*
X3398Y9756D01*
D02*
G37*
G36*
X-51Y9595D02*
X-48Y9554D01*
X-46Y9543D01*
X-44Y9533D01*
X-41Y9524D01*
X-38Y9516D01*
X-34Y9509D01*
X-31Y9503D01*
X-171D01*
X-167Y9509D01*
X-164Y9516D01*
X-161Y9524D01*
X-158Y9533D01*
X-156Y9543D01*
X-154Y9554D01*
X-152Y9580D01*
X-151Y9611D01*
X-51D01*
X-51Y9595D01*
D02*
G37*
G36*
X-346Y9595D02*
X-343Y9554D01*
X-341Y9543D01*
X-339Y9533D01*
X-336Y9524D01*
X-333Y9516D01*
X-330Y9509D01*
X-326Y9503D01*
X-466D01*
X-462Y9509D01*
X-459Y9516D01*
X-456Y9524D01*
X-453Y9533D01*
X-451Y9543D01*
X-449Y9554D01*
X-447Y9580D01*
X-446Y9611D01*
X-346D01*
X-346Y9595D01*
D02*
G37*
G36*
X-2789Y9670D02*
X-2777Y9646D01*
X-2651Y9698D01*
X-2675Y9686D01*
X-2693Y9669D01*
X-2707Y9648D01*
X-2717Y9623D01*
X-2721Y9593D01*
X-2721Y9560D01*
X-2698Y9537D01*
X-2674Y9519D01*
X-2650Y9508D01*
X-2625Y9503D01*
X-2600Y9505D01*
X-2574Y9512D01*
X-2700Y9460D01*
X-2692Y9435D01*
X-2673Y9385D01*
X-2932Y9278D01*
X-2953Y9327D01*
X-2965Y9350D01*
X-3091Y9298D01*
X-3068Y9311D01*
X-3049Y9327D01*
X-3035Y9349D01*
X-3026Y9374D01*
X-3021Y9403D01*
X-3021Y9436D01*
X-3045Y9459D01*
X-3068Y9477D01*
X-3093Y9488D01*
X-3118Y9493D01*
X-3143Y9492D01*
X-3168Y9484D01*
X-3043Y9536D01*
X-3050Y9561D01*
X-3070Y9611D01*
X-2811Y9718D01*
X-2789Y9670D01*
D02*
G37*
G36*
X-4494Y9303D02*
X-4488Y9294D01*
X-4479Y9286D01*
X-4470Y9279D01*
X-4458Y9273D01*
X-4445Y9267D01*
X-4431Y9262D01*
X-4414Y9258D01*
X-4397Y9255D01*
X-4377Y9252D01*
X-4339Y9136D01*
X-4356Y9138D01*
X-4371Y9138D01*
X-4384Y9137D01*
X-4394Y9136D01*
X-4403Y9133D01*
X-4409Y9129D01*
X-4413Y9124D01*
X-4415Y9118D01*
X-4414Y9111D01*
X-4412Y9103D01*
X-4499Y9313D01*
X-4494Y9303D01*
D02*
G37*
G36*
X-1379Y9115D02*
X-1380Y9124D01*
X-1383Y9131D01*
X-1387Y9136D01*
X-1393Y9139D01*
X-1401Y9140D01*
X-1410Y9139D01*
X-1422Y9136D01*
X-1435Y9130D01*
X-1449Y9123D01*
X-1466Y9114D01*
Y9230D01*
X-1449Y9240D01*
X-1434Y9250D01*
X-1421Y9261D01*
X-1410Y9271D01*
X-1400Y9282D01*
X-1392Y9293D01*
X-1386Y9304D01*
X-1382Y9315D01*
X-1379Y9326D01*
X-1378Y9338D01*
X-1379Y9115D01*
D02*
G37*
G36*
X4303Y9440D02*
X4351Y9425D01*
X4355Y9434D01*
X4359Y9429D01*
X4367Y9423D01*
X4374Y9418D01*
X4389Y9414D01*
X4426Y9407D01*
X4458Y9405D01*
X4486Y9407D01*
X4510Y9413D01*
X4529Y9424D01*
X4545Y9439D01*
X4556Y9458D01*
X4512Y9352D01*
X4548Y9337D01*
X4440Y9078D01*
X4406Y9092D01*
X4404Y9093D01*
X4361Y8987D01*
X4366Y9008D01*
X4366Y9029D01*
X4360Y9051D01*
X4347Y9072D01*
X4329Y9093D01*
X4304Y9115D01*
X4274Y9136D01*
X4267Y9140D01*
X4252Y9145D01*
X4242Y9146D01*
X4235Y9146D01*
X4240Y9156D01*
X4237Y9157D01*
X4195Y9179D01*
X4146Y9200D01*
X4253Y9459D01*
X4303Y9440D01*
D02*
G37*
G36*
X3354Y9002D02*
X3349Y8988D01*
X3336Y8949D01*
X3333Y8938D01*
X3331Y8928D01*
X3330Y8918D01*
X3330Y8910D01*
X3331Y8902D01*
X3332Y8895D01*
X3202Y8949D01*
X3208Y8953D01*
X3214Y8958D01*
X3220Y8964D01*
X3226Y8971D01*
X3232Y8980D01*
X3238Y8990D01*
X3250Y9013D01*
X3262Y9041D01*
X3354Y9002D01*
D02*
G37*
G36*
X4884Y8858D02*
X4864Y8808D01*
X4857Y8783D01*
X4982Y8731D01*
X4957Y8738D01*
X4932Y8740D01*
X4907Y8735D01*
X4882Y8724D01*
X4859Y8706D01*
X4835Y8683D01*
X4835Y8650D01*
X4840Y8620D01*
X4849Y8595D01*
X4863Y8574D01*
X4882Y8557D01*
X4905Y8544D01*
X4779Y8597D01*
X4767Y8573D01*
X4745Y8525D01*
X4487Y8632D01*
X4506Y8682D01*
X4514Y8707D01*
X4388Y8759D01*
X4414Y8751D01*
X4439Y8750D01*
X4464Y8755D01*
X4488Y8766D01*
X4512Y8784D01*
X4535Y8807D01*
X4535Y8840D01*
X4531Y8869D01*
X4521Y8894D01*
X4507Y8915D01*
X4489Y8932D01*
X4465Y8945D01*
X4591Y8893D01*
X4603Y8916D01*
X4625Y8965D01*
X4884Y8858D01*
D02*
G37*
G36*
X433Y9044D02*
X446Y8820D01*
X449Y8818D01*
X137D01*
X140Y8820D01*
X143Y8829D01*
X145Y8843D01*
X147Y8862D01*
X151Y8955D01*
X153Y9098D01*
X433D01*
X433Y9044D01*
D02*
G37*
G36*
X3627Y8889D02*
X3621Y8875D01*
X3609Y8836D01*
X3606Y8825D01*
X3604Y8815D01*
X3603Y8805D01*
X3603Y8797D01*
X3603Y8789D01*
X3605Y8782D01*
X3475Y8836D01*
X3481Y8840D01*
X3487Y8845D01*
X3492Y8851D01*
X3498Y8858D01*
X3504Y8867D01*
X3510Y8877D01*
X3523Y8900D01*
X3535Y8928D01*
X3627Y8889D01*
D02*
G37*
G36*
X-453Y8756D02*
X-448Y8754D01*
X-430Y8750D01*
X-411Y8747D01*
X-367Y8743D01*
X-343Y8742D01*
X-316Y8741D01*
Y8581D01*
X-343Y8581D01*
X-411Y8576D01*
X-430Y8572D01*
X-448Y8568D01*
X-453Y8567D01*
Y8522D01*
X-454Y8534D01*
X-458Y8544D01*
X-465Y8553D01*
X-474Y8559D01*
X-477Y8558D01*
X-488Y8552D01*
X-498Y8545D01*
Y8570D01*
X-503Y8572D01*
X-521Y8576D01*
X-542Y8579D01*
X-566Y8581D01*
X-593Y8581D01*
Y8741D01*
X-566Y8742D01*
X-521Y8747D01*
X-503Y8751D01*
X-498Y8753D01*
Y8778D01*
X-488Y8771D01*
X-477Y8765D01*
X-474Y8764D01*
X-465Y8770D01*
X-458Y8779D01*
X-454Y8789D01*
X-453Y8800D01*
Y8756D01*
D02*
G37*
G36*
X-3715Y8838D02*
X-3697Y8801D01*
X-3691Y8792D01*
X-3685Y8783D01*
X-3679Y8776D01*
X-3673Y8769D01*
X-3667Y8764D01*
X-3662Y8760D01*
X-3791Y8707D01*
X-3790Y8714D01*
X-3789Y8721D01*
X-3790Y8730D01*
X-3791Y8739D01*
X-3793Y8750D01*
X-3795Y8761D01*
X-3803Y8786D01*
X-3814Y8814D01*
X-3721Y8852D01*
X-3715Y8838D01*
D02*
G37*
G36*
X2801Y8697D02*
X2792Y8700D01*
X2783Y8700D01*
X2776Y8698D01*
X2769Y8694D01*
X2763Y8687D01*
X2759Y8678D01*
X2755Y8666D01*
X2753Y8652D01*
X2751Y8635D01*
X2751Y8616D01*
X2651Y8658D01*
X2650Y8677D01*
X2649Y8695D01*
X2646Y8711D01*
X2643Y8726D01*
X2638Y8739D01*
X2633Y8750D01*
X2627Y8760D01*
X2619Y8768D01*
X2611Y8775D01*
X2601Y8780D01*
X2801Y8697D01*
D02*
G37*
G36*
X1540Y8798D02*
X1537Y8792D01*
X1534Y8784D01*
X1531Y8774D01*
X1529Y8764D01*
X1527Y8753D01*
X1525Y8727D01*
X1524Y8697D01*
X1424D01*
X1424Y8712D01*
X1421Y8753D01*
X1419Y8764D01*
X1417Y8774D01*
X1414Y8784D01*
X1411Y8792D01*
X1408Y8798D01*
X1404Y8804D01*
X1544Y8804D01*
X1540Y8798D01*
D02*
G37*
G36*
X-1409Y8804D02*
X-1412Y8798D01*
X-1416Y8792D01*
X-1419Y8784D01*
X-1421Y8774D01*
X-1424Y8764D01*
X-1425Y8753D01*
X-1428Y8727D01*
X-1429Y8697D01*
X-1529D01*
X-1529Y8712D01*
X-1532Y8753D01*
X-1534Y8764D01*
X-1536Y8774D01*
X-1539Y8784D01*
X-1542Y8792D01*
X-1545Y8798D01*
X-1549Y8804D01*
X-1409Y8804D01*
D02*
G37*
G36*
X-3988Y8725D02*
X-3970Y8688D01*
X-3964Y8679D01*
X-3958Y8670D01*
X-3952Y8663D01*
X-3946Y8656D01*
X-3940Y8651D01*
X-3934Y8647D01*
X-4064Y8594D01*
X-4063Y8601D01*
X-4062Y8608D01*
X-4062Y8617D01*
X-4064Y8626D01*
X-4065Y8637D01*
X-4068Y8648D01*
X-4076Y8673D01*
X-4087Y8701D01*
X-3994Y8739D01*
X-3988Y8725D01*
D02*
G37*
G36*
X-1786Y8582D02*
X-1792Y8579D01*
X-1798Y8574D01*
X-1805Y8569D01*
X-1812Y8562D01*
X-1819Y8555D01*
X-1826Y8546D01*
X-1841Y8525D01*
X-1857Y8499D01*
X-1944Y8549D01*
X-1936Y8562D01*
X-1918Y8599D01*
X-1914Y8610D01*
X-1911Y8620D01*
X-1909Y8629D01*
X-1907Y8637D01*
X-1907Y8645D01*
X-1907Y8652D01*
X-1786Y8582D01*
D02*
G37*
G36*
X-6691Y8439D02*
X-6702Y8416D01*
X-6707Y8392D01*
X-6706Y8365D01*
X-6699Y8336D01*
X-6686Y8306D01*
X-6656Y8293D01*
X-6627Y8286D01*
X-6600Y8285D01*
X-6575Y8290D01*
X-6553Y8300D01*
X-6532Y8317D01*
X-6628Y8221D01*
X-6611Y8201D01*
X-6574Y8162D01*
X-6772Y7964D01*
X-6811Y8001D01*
X-6831Y8018D01*
X-6928Y7921D01*
X-6911Y7942D01*
X-6900Y7965D01*
X-6895Y7990D01*
X-6896Y8016D01*
X-6903Y8045D01*
X-6916Y8076D01*
X-6946Y8088D01*
X-6975Y8095D01*
X-7002Y8097D01*
X-7027Y8092D01*
X-7049Y8081D01*
X-7070Y8064D01*
X-6974Y8160D01*
X-6991Y8180D01*
X-7028Y8219D01*
X-6830Y8417D01*
X-6791Y8380D01*
X-6771Y8364D01*
X-6674Y8460D01*
X-6691Y8439D01*
D02*
G37*
G36*
X-4827Y8054D02*
X-4832Y8062D01*
X-4838Y8069D01*
X-4845Y8073D01*
X-4854Y8076D01*
X-4864Y8076D01*
X-4875Y8075D01*
X-4888Y8072D01*
X-4902Y8066D01*
X-4917Y8059D01*
X-4934Y8050D01*
X-4973Y8143D01*
X-4956Y8153D01*
X-4942Y8163D01*
X-4930Y8173D01*
X-4920Y8183D01*
X-4912Y8193D01*
X-4906Y8203D01*
X-4903Y8212D01*
X-4901Y8222D01*
X-4902Y8231D01*
X-4904Y8240D01*
X-4827Y8054D01*
D02*
G37*
G36*
X7393Y8231D02*
X7387Y8221D01*
X7383Y8210D01*
X7380Y8199D01*
X7378Y8186D01*
X7378Y8171D01*
X7379Y8156D01*
X7382Y8140D01*
X7386Y8122D01*
X7391Y8103D01*
X7309Y8024D01*
X7303Y8042D01*
X7296Y8056D01*
X7290Y8069D01*
X7283Y8078D01*
X7277Y8085D01*
X7270Y8089D01*
X7263Y8091D01*
X7255Y8090D01*
X7248Y8086D01*
X7240Y8080D01*
X7400Y8239D01*
X7393Y8231D01*
D02*
G37*
G36*
X-7483Y8320D02*
X-7456Y8346D01*
X-7258Y8148D01*
X-7285Y8121D01*
X-7285Y8121D01*
X-7186Y8022D01*
X-7207Y8039D01*
X-7230Y8050D01*
X-7254Y8055D01*
X-7281Y8054D01*
X-7310Y8047D01*
X-7341Y8034D01*
X-7373Y8015D01*
X-7388Y8005D01*
X-7393Y7999D01*
X-7397Y7991D01*
X-7399Y7984D01*
X-7406Y7991D01*
X-7408Y7990D01*
X-7445Y7959D01*
X-7484Y7922D01*
X-7682Y8120D01*
X-7645Y8159D01*
X-7614Y8196D01*
X-7613Y8198D01*
X-7620Y8205D01*
X-7613Y8207D01*
X-7605Y8212D01*
X-7601Y8214D01*
X-7589Y8231D01*
X-7570Y8263D01*
X-7557Y8294D01*
X-7550Y8323D01*
X-7549Y8350D01*
X-7554Y8375D01*
X-7565Y8397D01*
X-7582Y8418D01*
X-7483Y8320D01*
D02*
G37*
G36*
X-6190Y7938D02*
X-6201Y7915D01*
X-6206Y7890D01*
X-6205Y7864D01*
X-6198Y7835D01*
X-6185Y7804D01*
X-6155Y7792D01*
X-6126Y7785D01*
X-6099Y7784D01*
X-6074Y7789D01*
X-6051Y7799D01*
X-6031Y7816D01*
X-6127Y7720D01*
X-6110Y7700D01*
X-6073Y7661D01*
X-6271Y7463D01*
X-6310Y7500D01*
X-6330Y7517D01*
X-6427Y7420D01*
X-6410Y7441D01*
X-6399Y7464D01*
X-6394Y7489D01*
X-6395Y7515D01*
X-6402Y7544D01*
X-6415Y7575D01*
X-6445Y7587D01*
X-6474Y7594D01*
X-6501Y7595D01*
X-6526Y7591D01*
X-6548Y7580D01*
X-6569Y7563D01*
X-6473Y7659D01*
X-6490Y7679D01*
X-6526Y7718D01*
X-6328Y7916D01*
X-6290Y7879D01*
X-6270Y7862D01*
X-6173Y7959D01*
X-6190Y7938D01*
D02*
G37*
G36*
X6885Y7723D02*
X6880Y7714D01*
X6876Y7703D01*
X6873Y7692D01*
X6871Y7678D01*
X6871Y7664D01*
X6872Y7649D01*
X6875Y7632D01*
X6878Y7614D01*
X6883Y7595D01*
X6791Y7515D01*
X6786Y7532D01*
X6780Y7546D01*
X6775Y7558D01*
X6769Y7567D01*
X6763Y7574D01*
X6757Y7578D01*
X6751Y7580D01*
X6745Y7579D01*
X6738Y7576D01*
X6731Y7570D01*
X6892Y7731D01*
X6885Y7723D01*
D02*
G37*
G36*
X-6928Y7762D02*
X-6900Y7789D01*
X-6702Y7591D01*
X-6728Y7565D01*
X-6729Y7563D01*
X-6648Y7482D01*
X-6665Y7496D01*
X-6685Y7504D01*
X-6707Y7506D01*
X-6731Y7503D01*
X-6758Y7494D01*
X-6787Y7479D01*
X-6819Y7459D01*
X-6825Y7454D01*
X-6836Y7442D01*
X-6840Y7434D01*
X-6842Y7427D01*
X-6850Y7435D01*
X-6852Y7434D01*
X-6889Y7402D01*
X-6927Y7366D01*
X-7125Y7564D01*
X-7088Y7602D01*
X-7056Y7641D01*
X-7063Y7648D01*
X-7057Y7650D01*
X-7048Y7655D01*
X-7041Y7659D01*
X-7031Y7672D01*
X-7011Y7703D01*
X-6997Y7732D01*
X-6988Y7759D01*
X-6985Y7783D01*
X-6987Y7806D01*
X-6995Y7825D01*
X-7008Y7843D01*
X-6928Y7762D01*
D02*
G37*
G36*
X8157Y7643D02*
X8194Y7612D01*
X8195Y7610D01*
X8203Y7617D01*
X8205Y7611D01*
X8209Y7603D01*
X8212Y7599D01*
X8228Y7587D01*
X8261Y7568D01*
X8292Y7555D01*
X8321Y7548D01*
X8347Y7547D01*
X8372Y7552D01*
X8395Y7563D01*
X8416Y7580D01*
X8317Y7481D01*
X8343Y7454D01*
X8145Y7256D01*
X8119Y7282D01*
X8119Y7282D01*
X8020Y7184D01*
X8037Y7204D01*
X8048Y7227D01*
X8052Y7252D01*
X8051Y7279D01*
X8044Y7308D01*
X8031Y7338D01*
X8012Y7371D01*
X8002Y7385D01*
X7997Y7390D01*
X7988Y7395D01*
X7982Y7397D01*
X7989Y7404D01*
X7988Y7406D01*
X7957Y7443D01*
X7920Y7481D01*
X8118Y7679D01*
X8157Y7643D01*
D02*
G37*
G36*
X-8233Y7395D02*
X-8223Y7389D01*
X-8213Y7385D01*
X-8201Y7382D01*
X-8188Y7380D01*
X-8174Y7380D01*
X-8159Y7382D01*
X-8142Y7384D01*
X-8125Y7388D01*
X-8106Y7394D01*
X-8027Y7311D01*
X-8044Y7305D01*
X-8059Y7299D01*
X-8071Y7292D01*
X-8080Y7286D01*
X-8087Y7279D01*
X-8092Y7272D01*
X-8093Y7265D01*
X-8092Y7258D01*
X-8088Y7250D01*
X-8082Y7243D01*
X-8241Y7402D01*
X-8233Y7395D01*
D02*
G37*
G36*
X6556Y7045D02*
X6545Y7033D01*
X6519Y7003D01*
X6512Y6993D01*
X6506Y6985D01*
X6502Y6976D01*
X6498Y6968D01*
X6496Y6961D01*
X6494Y6954D01*
X6395Y7054D01*
X6402Y7055D01*
X6409Y7057D01*
X6417Y7061D01*
X6425Y7065D01*
X6434Y7071D01*
X6443Y7078D01*
X6464Y7095D01*
X6486Y7115D01*
X6556Y7045D01*
D02*
G37*
G36*
X6088Y6929D02*
X6079Y6931D01*
X6070Y6930D01*
X6063Y6924D01*
X6057Y6915D01*
X6051Y6902D01*
X6047Y6885D01*
X6043Y6864D01*
X6041Y6839D01*
X6039Y6778D01*
X5939Y6862D01*
X5939Y6887D01*
X5935Y6930D01*
X5931Y6948D01*
X5927Y6965D01*
X5921Y6978D01*
X5915Y6990D01*
X5908Y7000D01*
X5899Y7007D01*
X5890Y7013D01*
X6088Y6929D01*
D02*
G37*
G36*
X8158Y6972D02*
X8178Y6988D01*
X8217Y7025D01*
X8415Y6827D01*
X8378Y6788D01*
X8361Y6768D01*
X8458Y6672D01*
X8437Y6689D01*
X8414Y6700D01*
X8389Y6705D01*
X8362Y6704D01*
X8334Y6697D01*
X8303Y6684D01*
X8290Y6653D01*
X8283Y6625D01*
X8282Y6598D01*
X8287Y6573D01*
X8298Y6550D01*
X8315Y6529D01*
X8219Y6626D01*
X8198Y6609D01*
X8160Y6572D01*
X7962Y6770D01*
X7999Y6809D01*
X8015Y6829D01*
X7919Y6925D01*
X7940Y6909D01*
X7963Y6898D01*
X7987Y6893D01*
X8014Y6894D01*
X8043Y6901D01*
X8073Y6914D01*
X8086Y6944D01*
X8093Y6973D01*
X8094Y7000D01*
X8089Y7024D01*
X8078Y7047D01*
X8062Y7068D01*
X8158Y6972D01*
D02*
G37*
G36*
X6765Y6836D02*
X6754Y6825D01*
X6728Y6794D01*
X6721Y6784D01*
X6715Y6776D01*
X6711Y6767D01*
X6707Y6760D01*
X6705Y6752D01*
X6703Y6745D01*
X6604Y6845D01*
X6611Y6846D01*
X6618Y6849D01*
X6626Y6852D01*
X6634Y6857D01*
X6643Y6862D01*
X6652Y6869D01*
X6672Y6886D01*
X6694Y6907D01*
X6765Y6836D01*
D02*
G37*
G36*
X-7726Y6887D02*
X-7717Y6881D01*
X-7707Y6877D01*
X-7695Y6875D01*
X-7682Y6873D01*
X-7667Y6873D01*
X-7652Y6874D01*
X-7635Y6877D01*
X-7616Y6881D01*
X-7597Y6886D01*
X-7517Y6793D01*
X-7534Y6788D01*
X-7549Y6783D01*
X-7561Y6777D01*
X-7570Y6771D01*
X-7577Y6765D01*
X-7581Y6759D01*
X-7583Y6753D01*
X-7582Y6746D01*
X-7579Y6740D01*
X-7574Y6733D01*
X-7734Y6894D01*
X-7726Y6887D01*
D02*
G37*
G36*
X7600Y7086D02*
X7639Y7054D01*
X7646Y7061D01*
X7648Y7054D01*
X7652Y7046D01*
X7657Y7039D01*
X7669Y7029D01*
X7701Y7009D01*
X7730Y6994D01*
X7757Y6986D01*
X7781Y6982D01*
X7803Y6984D01*
X7823Y6992D01*
X7840Y7006D01*
X7760Y6925D01*
X7787Y6897D01*
X7589Y6699D01*
X7562Y6725D01*
X7561Y6726D01*
X7480Y6646D01*
X7494Y6663D01*
X7501Y6683D01*
X7504Y6705D01*
X7500Y6729D01*
X7491Y6756D01*
X7477Y6785D01*
X7457Y6816D01*
X7452Y6823D01*
X7440Y6833D01*
X7431Y6838D01*
X7425Y6840D01*
X7433Y6848D01*
X7431Y6850D01*
X7400Y6886D01*
X7363Y6925D01*
X7561Y7123D01*
X7600Y7086D01*
D02*
G37*
G36*
X-6827Y6756D02*
X-6796Y6730D01*
X-6787Y6723D01*
X-6778Y6718D01*
X-6770Y6713D01*
X-6762Y6709D01*
X-6755Y6707D01*
X-6748Y6706D01*
X-6847Y6606D01*
X-6848Y6613D01*
X-6851Y6620D01*
X-6854Y6628D01*
X-6859Y6637D01*
X-6865Y6645D01*
X-6871Y6655D01*
X-6888Y6675D01*
X-6909Y6697D01*
X-6838Y6767D01*
X-6827Y6756D01*
D02*
G37*
G36*
X-7036Y6548D02*
X-7005Y6521D01*
X-6996Y6514D01*
X-6987Y6509D01*
X-6979Y6504D01*
X-6971Y6501D01*
X-6963Y6498D01*
X-6957Y6497D01*
X-7056Y6398D01*
X-7057Y6404D01*
X-7060Y6412D01*
X-7063Y6419D01*
X-7068Y6428D01*
X-7073Y6437D01*
X-7080Y6446D01*
X-7097Y6466D01*
X-7118Y6488D01*
X-7047Y6559D01*
X-7036Y6548D01*
D02*
G37*
G36*
X7657Y6470D02*
X7677Y6487D01*
X7716Y6524D01*
X7914Y6326D01*
X7877Y6287D01*
X7860Y6267D01*
X7956Y6171D01*
X7936Y6188D01*
X7913Y6199D01*
X7888Y6203D01*
X7861Y6202D01*
X7832Y6195D01*
X7802Y6183D01*
X7789Y6152D01*
X7782Y6123D01*
X7781Y6097D01*
X7786Y6072D01*
X7797Y6049D01*
X7814Y6028D01*
X7717Y6125D01*
X7697Y6108D01*
X7659Y6071D01*
X7461Y6269D01*
X7497Y6308D01*
X7514Y6328D01*
X7418Y6424D01*
X7439Y6407D01*
X7461Y6397D01*
X7486Y6392D01*
X7513Y6393D01*
X7542Y6400D01*
X7572Y6413D01*
X7585Y6443D01*
X7592Y6472D01*
X7593Y6498D01*
X7588Y6523D01*
X7577Y6546D01*
X7560Y6567D01*
X7657Y6470D01*
D02*
G37*
G36*
X3446Y6988D02*
X3446Y6988D01*
X3446D01*
X3493Y6985D01*
X3558Y6958D01*
X3613Y6903D01*
X3643Y6830D01*
X3643Y6791D01*
X3643Y6063D01*
X3613Y5991D01*
X3558Y5935D01*
X3485Y5906D01*
X-3485D01*
X-3556Y5935D01*
X-3611Y5990D01*
X-3641Y6061D01*
Y6830D01*
X-3611Y6903D01*
X-3555Y6958D01*
X-3483Y6988D01*
X3446D01*
X3446Y6988D01*
D02*
G37*
G36*
X-7147Y5759D02*
X-7152Y5750D01*
X-7155Y5740D01*
X-7156Y5729D01*
X-7155Y5717D01*
X-7153Y5704D01*
X-7149Y5690D01*
X-7143Y5675D01*
X-7136Y5659D01*
X-7126Y5642D01*
X-7200Y5569D01*
X-7210Y5585D01*
X-7219Y5599D01*
X-7229Y5611D01*
X-7238Y5619D01*
X-7247Y5626D01*
X-7255Y5630D01*
X-7264Y5631D01*
X-7272Y5630D01*
X-7280Y5626D01*
X-7287Y5620D01*
X-7141Y5766D01*
X-7147Y5759D01*
D02*
G37*
G36*
X5357Y5343D02*
X5351Y5347D01*
X5344Y5350D01*
X5336Y5353D01*
X5327Y5356D01*
X5317Y5358D01*
X5306Y5360D01*
X5280Y5363D01*
X5249Y5363D01*
Y5463D01*
X5265Y5464D01*
X5306Y5467D01*
X5317Y5468D01*
X5327Y5471D01*
X5336Y5473D01*
X5344Y5476D01*
X5351Y5480D01*
X5357Y5484D01*
Y5343D01*
D02*
G37*
G36*
X-5356Y5480D02*
X-5349Y5476D01*
X-5341Y5473D01*
X-5332Y5471D01*
X-5322Y5468D01*
X-5310Y5467D01*
X-5284Y5464D01*
X-5254Y5463D01*
Y5363D01*
X-5270Y5363D01*
X-5310Y5360D01*
X-5322Y5358D01*
X-5332Y5356D01*
X-5341Y5353D01*
X-5349Y5350D01*
X-5356Y5347D01*
X-5362Y5343D01*
Y5484D01*
X-5356Y5480D01*
D02*
G37*
G36*
X-9395Y5230D02*
X-9397Y5205D01*
X-9392Y5180D01*
X-9381Y5156D01*
X-9363Y5132D01*
X-9340Y5109D01*
X-9307Y5109D01*
X-9277Y5113D01*
X-9252Y5123D01*
X-9231Y5137D01*
X-9214Y5155D01*
X-9202Y5179D01*
X-9254Y5053D01*
X-9230Y5041D01*
X-9182Y5019D01*
X-9289Y4760D01*
X-9339Y4779D01*
X-9364Y4787D01*
X-9416Y4661D01*
X-9408Y4687D01*
X-9407Y4712D01*
X-9412Y4737D01*
X-9423Y4761D01*
X-9441Y4785D01*
X-9464Y4809D01*
X-9497Y4809D01*
X-9526Y4804D01*
X-9551Y4795D01*
X-9572Y4781D01*
X-9589Y4762D01*
X-9602Y4739D01*
X-9550Y4865D01*
X-9573Y4877D01*
X-9622Y4898D01*
X-9515Y5157D01*
X-9465Y5138D01*
X-9440Y5130D01*
X-9388Y5256D01*
X-9395Y5230D01*
D02*
G37*
G36*
X-8741Y4959D02*
X-8742Y4934D01*
X-8737Y4909D01*
X-8726Y4885D01*
X-8708Y4861D01*
X-8685Y4838D01*
X-8652Y4838D01*
X-8623Y4842D01*
X-8598Y4851D01*
X-8577Y4865D01*
X-8560Y4884D01*
X-8547Y4908D01*
X-8599Y4782D01*
X-8576Y4770D01*
X-8527Y4748D01*
X-8634Y4489D01*
X-8684Y4508D01*
X-8709Y4516D01*
X-8761Y4390D01*
X-8754Y4416D01*
X-8752Y4441D01*
X-8757Y4466D01*
X-8768Y4490D01*
X-8786Y4514D01*
X-8809Y4537D01*
X-8842Y4538D01*
X-8872Y4533D01*
X-8897Y4524D01*
X-8918Y4510D01*
X-8935Y4491D01*
X-8947Y4467D01*
X-8895Y4593D01*
X-8919Y4605D01*
X-8967Y4627D01*
X-8860Y4886D01*
X-8810Y4867D01*
X-8785Y4859D01*
X-8733Y4985D01*
X-8741Y4959D01*
D02*
G37*
G36*
X-10082Y4817D02*
X-10067Y4851D01*
X-9808Y4744D01*
X-9822Y4710D01*
X-9822Y4709D01*
X-9693Y4656D01*
X-9719Y4663D01*
X-9744Y4665D01*
X-9769Y4660D01*
X-9793Y4648D01*
X-9817Y4631D01*
X-9840Y4607D01*
X-9863Y4577D01*
X-9873Y4563D01*
X-9875Y4555D01*
X-9876Y4546D01*
X-9876Y4539D01*
X-9885Y4543D01*
X-9886Y4541D01*
X-9908Y4498D01*
X-9930Y4450D01*
X-10189Y4557D01*
X-10170Y4607D01*
X-10155Y4652D01*
X-10155Y4655D01*
X-10164Y4659D01*
X-10159Y4663D01*
X-10153Y4670D01*
X-10150Y4675D01*
X-10145Y4694D01*
X-10140Y4732D01*
X-10140Y4765D01*
X-10145Y4794D01*
X-10154Y4819D01*
X-10168Y4840D01*
X-10187Y4857D01*
X-10210Y4870D01*
X-10082Y4817D01*
D02*
G37*
G36*
X9964Y4766D02*
X9955Y4760D01*
X9947Y4751D01*
X9939Y4742D01*
X9933Y4730D01*
X9927Y4718D01*
X9923Y4703D01*
X9919Y4687D01*
X9916Y4670D01*
X9914Y4650D01*
X9807Y4609D01*
X9808Y4627D01*
X9808Y4643D01*
X9807Y4656D01*
X9804Y4668D01*
X9801Y4676D01*
X9796Y4683D01*
X9790Y4687D01*
X9783Y4689D01*
X9775Y4688D01*
X9766Y4685D01*
X9974Y4771D01*
X9964Y4766D01*
D02*
G37*
G36*
X-6526Y4525D02*
X-6522Y4519D01*
X-6517Y4512D01*
X-6510Y4505D01*
X-6502Y4498D01*
X-6494Y4491D01*
X-6472Y4476D01*
X-6446Y4460D01*
X-6496Y4373D01*
X-6510Y4381D01*
X-6547Y4399D01*
X-6557Y4403D01*
X-6567Y4406D01*
X-6577Y4408D01*
X-6585Y4410D01*
X-6593Y4410D01*
X-6600Y4410D01*
X-6530Y4531D01*
X-6526Y4525D01*
D02*
G37*
G36*
X-9355Y4514D02*
X-9339Y4550D01*
X-9081Y4443D01*
X-9095Y4408D01*
X-9095Y4407D01*
X-8989Y4363D01*
X-9011Y4369D01*
X-9032Y4368D01*
X-9053Y4362D01*
X-9074Y4350D01*
X-9096Y4331D01*
X-9117Y4307D01*
X-9138Y4276D01*
X-9142Y4269D01*
X-9148Y4254D01*
X-9149Y4244D01*
X-9148Y4238D01*
X-9158Y4242D01*
X-9160Y4240D01*
X-9181Y4197D01*
X-9203Y4148D01*
X-9461Y4255D01*
X-9442Y4305D01*
X-9427Y4354D01*
X-9436Y4357D01*
X-9431Y4361D01*
X-9425Y4369D01*
X-9421Y4376D01*
X-9416Y4391D01*
X-9410Y4428D01*
X-9407Y4460D01*
X-9409Y4488D01*
X-9416Y4512D01*
X-9426Y4532D01*
X-9441Y4547D01*
X-9460Y4558D01*
X-9355Y4514D01*
D02*
G37*
G36*
X9300Y4494D02*
X9292Y4487D01*
X9284Y4479D01*
X9277Y4469D01*
X9270Y4458D01*
X9265Y4445D01*
X9260Y4430D01*
X9256Y4413D01*
X9252Y4395D01*
X9250Y4375D01*
X9134Y4337D01*
X9135Y4354D01*
X9136Y4370D01*
X9135Y4383D01*
X9133Y4394D01*
X9130Y4402D01*
X9126Y4409D01*
X9121Y4413D01*
X9115Y4415D01*
X9108Y4414D01*
X9099Y4412D01*
X9309Y4499D01*
X9300Y4494D01*
D02*
G37*
G36*
X8091Y4261D02*
X8086Y4269D01*
X8080Y4276D01*
X8073Y4280D01*
X8064Y4283D01*
X8054Y4283D01*
X8043Y4282D01*
X8030Y4279D01*
X8016Y4273D01*
X8001Y4266D01*
X7984Y4257D01*
X7945Y4350D01*
X7962Y4360D01*
X7976Y4370D01*
X7988Y4380D01*
X7998Y4390D01*
X8006Y4400D01*
X8012Y4409D01*
X8016Y4419D01*
X8017Y4429D01*
X8016Y4438D01*
X8014Y4447D01*
X8091Y4261D01*
D02*
G37*
G36*
X8737Y3992D02*
X8722Y3986D01*
X8686Y3967D01*
X8676Y3961D01*
X8668Y3955D01*
X8660Y3949D01*
X8654Y3944D01*
X8649Y3938D01*
X8645Y3932D01*
X8591Y4062D01*
X8598Y4060D01*
X8606Y4060D01*
X8614Y4060D01*
X8624Y4061D01*
X8634Y4063D01*
X8645Y4066D01*
X8670Y4073D01*
X8699Y4084D01*
X8737Y3992D01*
D02*
G37*
G36*
X8850Y3719D02*
X8835Y3713D01*
X8799Y3695D01*
X8789Y3689D01*
X8781Y3683D01*
X8773Y3677D01*
X8767Y3671D01*
X8762Y3665D01*
X8758Y3659D01*
X8704Y3789D01*
X8711Y3788D01*
X8719Y3787D01*
X8727Y3787D01*
X8737Y3788D01*
X8747Y3790D01*
X8758Y3793D01*
X8783Y3801D01*
X8812Y3811D01*
X8850Y3719D01*
D02*
G37*
G36*
X-10197Y3677D02*
X-10211Y3665D01*
X-10223Y3653D01*
X-10232Y3642D01*
X-10238Y3632D01*
X-10242Y3624D01*
X-10243Y3615D01*
X-10242Y3608D01*
X-10238Y3602D01*
X-10232Y3596D01*
X-10223Y3592D01*
X-10431Y3678D01*
X-10421Y3675D01*
X-10410Y3673D01*
X-10398Y3673D01*
X-10386Y3675D01*
X-10374Y3679D01*
X-10361Y3684D01*
X-10347Y3691D01*
X-10333Y3700D01*
X-10318Y3711D01*
X-10302Y3723D01*
X-10197Y3677D01*
D02*
G37*
G36*
X10444Y3932D02*
X10467Y3889D01*
X10468Y3887D01*
X10477Y3891D01*
X10476Y3884D01*
X10478Y3875D01*
X10479Y3870D01*
X10489Y3853D01*
X10512Y3823D01*
X10536Y3799D01*
X10560Y3782D01*
X10584Y3771D01*
X10609Y3766D01*
X10634Y3767D01*
X10660Y3774D01*
X10531Y3721D01*
X10545Y3686D01*
X10286Y3579D01*
X10272Y3613D01*
X10271Y3614D01*
X10142Y3560D01*
X10166Y3573D01*
X10184Y3590D01*
X10198Y3611D01*
X10208Y3636D01*
X10212Y3665D01*
X10212Y3699D01*
X10207Y3736D01*
X10203Y3753D01*
X10200Y3760D01*
X10194Y3767D01*
X10189Y3772D01*
X10198Y3776D01*
X10197Y3778D01*
X10183Y3824D01*
X10164Y3874D01*
X10423Y3981D01*
X10444Y3932D01*
D02*
G37*
G36*
X-8877Y3624D02*
X-8838Y3611D01*
X-8827Y3608D01*
X-8817Y3607D01*
X-8808Y3605D01*
X-8799Y3605D01*
X-8791Y3606D01*
X-8784Y3607D01*
X-8838Y3477D01*
X-8842Y3483D01*
X-8847Y3489D01*
X-8853Y3495D01*
X-8861Y3501D01*
X-8869Y3507D01*
X-8879Y3513D01*
X-8902Y3525D01*
X-8930Y3537D01*
X-8892Y3630D01*
X-8877Y3624D01*
D02*
G37*
G36*
X-9529Y3394D02*
X-9543Y3382D01*
X-9554Y3372D01*
X-9563Y3362D01*
X-9569Y3353D01*
X-9573Y3345D01*
X-9575Y3337D01*
X-9574Y3331D01*
X-9571Y3325D01*
X-9566Y3320D01*
X-9558Y3316D01*
X-9768Y3403D01*
X-9758Y3400D01*
X-9747Y3399D01*
X-9736Y3399D01*
X-9724Y3401D01*
X-9711Y3405D01*
X-9698Y3410D01*
X-9684Y3417D01*
X-9669Y3426D01*
X-9654Y3436D01*
X-9638Y3449D01*
X-9529Y3394D01*
D02*
G37*
G36*
X10189Y3311D02*
X10214Y3319D01*
X10264Y3338D01*
X10371Y3080D01*
X10322Y3058D01*
X10299Y3046D01*
X10351Y2920D01*
X10338Y2943D01*
X10321Y2962D01*
X10300Y2976D01*
X10275Y2986D01*
X10246Y2990D01*
X10213Y2990D01*
X10189Y2967D01*
X10172Y2943D01*
X10161Y2918D01*
X10156Y2894D01*
X10157Y2868D01*
X10164Y2843D01*
X10112Y2969D01*
X10087Y2961D01*
X10037Y2942D01*
X9930Y3200D01*
X9979Y3222D01*
X10002Y3234D01*
X9950Y3360D01*
X9963Y3337D01*
X9980Y3318D01*
X10001Y3304D01*
X10026Y3295D01*
X10055Y3290D01*
X10088Y3290D01*
X10112Y3313D01*
X10129Y3337D01*
X10140Y3362D01*
X10145Y3386D01*
X10144Y3412D01*
X10136Y3437D01*
X10189Y3311D01*
D02*
G37*
G36*
X9717Y3631D02*
X9741Y3586D01*
X9750Y3590D01*
X9749Y3583D01*
X9750Y3573D01*
X9752Y3565D01*
X9759Y3551D01*
X9781Y3521D01*
X9802Y3496D01*
X9823Y3478D01*
X9845Y3465D01*
X9866Y3459D01*
X9887Y3459D01*
X9908Y3465D01*
X9803Y3421D01*
X9817Y3385D01*
X9558Y3278D01*
X9544Y3312D01*
X9543Y3313D01*
X9438Y3270D01*
X9457Y3281D01*
X9471Y3296D01*
X9482Y3315D01*
X9488Y3339D01*
X9490Y3367D01*
X9488Y3400D01*
X9482Y3436D01*
X9480Y3444D01*
X9472Y3458D01*
X9466Y3466D01*
X9461Y3470D01*
X9471Y3475D01*
X9471Y3477D01*
X9456Y3523D01*
X9436Y3572D01*
X9695Y3679D01*
X9717Y3631D01*
D02*
G37*
G36*
X-8990Y3351D02*
X-8951Y3338D01*
X-8940Y3336D01*
X-8930Y3334D01*
X-8920Y3333D01*
X-8912Y3332D01*
X-8904Y3333D01*
X-8897Y3334D01*
X-8951Y3205D01*
X-8955Y3210D01*
X-8960Y3216D01*
X-8966Y3222D01*
X-8974Y3228D01*
X-8982Y3234D01*
X-8992Y3240D01*
X-9015Y3252D01*
X-9043Y3264D01*
X-9005Y3357D01*
X-8990Y3351D01*
D02*
G37*
G36*
X9534Y3040D02*
X9559Y3048D01*
X9609Y3067D01*
X9716Y2809D01*
X9667Y2787D01*
X9644Y2775D01*
X9696Y2649D01*
X9683Y2672D01*
X9666Y2691D01*
X9645Y2705D01*
X9620Y2714D01*
X9591Y2719D01*
X9558Y2719D01*
X9535Y2695D01*
X9517Y2672D01*
X9506Y2647D01*
X9501Y2622D01*
X9502Y2597D01*
X9510Y2572D01*
X9458Y2698D01*
X9433Y2690D01*
X9383Y2670D01*
X9276Y2929D01*
X9324Y2951D01*
X9348Y2963D01*
X9295Y3089D01*
X9308Y3065D01*
X9325Y3047D01*
X9346Y3033D01*
X9371Y3023D01*
X9401Y3019D01*
X9434Y3019D01*
X9457Y3042D01*
X9474Y3066D01*
X9486Y3090D01*
X9491Y3115D01*
X9489Y3140D01*
X9482Y3166D01*
X9534Y3040D01*
D02*
G37*
G36*
X-1143Y2718D02*
X-1145Y2710D01*
X-1146Y2702D01*
X-1146Y2692D01*
X-1145Y2682D01*
X-1144Y2670D01*
X-1140Y2645D01*
X-1133Y2615D01*
X-1229Y2589D01*
X-1234Y2604D01*
X-1247Y2643D01*
X-1252Y2653D01*
X-1256Y2662D01*
X-1261Y2671D01*
X-1266Y2678D01*
X-1271Y2683D01*
X-1277Y2688D01*
X-1141Y2724D01*
X-1143Y2718D01*
D02*
G37*
G36*
X989Y2282D02*
X976Y2274D01*
X942Y2251D01*
X933Y2243D01*
X926Y2236D01*
X919Y2230D01*
X914Y2223D01*
X909Y2217D01*
X906Y2210D01*
X836Y2332D01*
X843Y2331D01*
X851Y2332D01*
X859Y2333D01*
X868Y2336D01*
X878Y2339D01*
X889Y2343D01*
X913Y2354D01*
X939Y2368D01*
X989Y2282D01*
D02*
G37*
G36*
X-2348Y2395D02*
X-2476Y2307D01*
X-2468Y2314D01*
X-2462Y2323D01*
X-2457Y2334D01*
X-2454Y2347D01*
X-2453Y2361D01*
X-2452Y2378D01*
X-2454Y2397D01*
X-2457Y2418D01*
X-2462Y2441D01*
X-2468Y2465D01*
X-2368Y2479D01*
X-2348Y2395D01*
D02*
G37*
G36*
X2466Y2459D02*
X2460Y2435D01*
X2453Y2391D01*
X2451Y2373D01*
X2451Y2356D01*
X2453Y2341D01*
X2456Y2328D01*
X2461Y2317D01*
X2467Y2308D01*
X2475Y2301D01*
X2344Y2395D01*
X2344Y2397D01*
X2346Y2400D01*
X2350Y2413D01*
X2372Y2495D01*
X2466Y2459D01*
D02*
G37*
G36*
X-9109Y2283D02*
X-9118Y2286D01*
X-9127Y2286D01*
X-9135Y2284D01*
X-9143Y2280D01*
X-9151Y2273D01*
X-9158Y2264D01*
X-9165Y2253D01*
X-9171Y2239D01*
X-9177Y2223D01*
X-9182Y2205D01*
X-9275Y2243D01*
X-9271Y2262D01*
X-9268Y2279D01*
X-9266Y2295D01*
X-9266Y2309D01*
X-9267Y2322D01*
X-9270Y2332D01*
X-9274Y2342D01*
X-9280Y2350D01*
X-9287Y2356D01*
X-9296Y2360D01*
X-9109Y2283D01*
D02*
G37*
G36*
X2936Y2346D02*
X2927Y2301D01*
X2925Y2288D01*
X2924Y2265D01*
X2925Y2255D01*
X2926Y2246D01*
X2928Y2239D01*
X2744Y2209D01*
X2755Y2212D01*
X2765Y2217D01*
X2774Y2225D01*
X2784Y2235D01*
X2793Y2247D01*
X2801Y2261D01*
X2809Y2278D01*
X2817Y2297D01*
X2824Y2318D01*
X2831Y2342D01*
X2940Y2363D01*
X2936Y2346D01*
D02*
G37*
G36*
X-2885Y2347D02*
X-2869Y2303D01*
X-2860Y2285D01*
X-2852Y2271D01*
X-2843Y2259D01*
X-2834Y2250D01*
X-2825Y2245D01*
X-2816Y2242D01*
X-2806Y2242D01*
X-2932Y2220D01*
X-2931Y2201D01*
X-2932Y2189D01*
X-2934Y2184D01*
X-2938Y2187D01*
X-2943Y2197D01*
X-2949Y2214D01*
X-2967Y2269D01*
X-2990Y2353D01*
X-2892Y2373D01*
X-2885Y2347D01*
D02*
G37*
G36*
X-827Y2178D02*
X-781Y2155D01*
X-772Y2152D01*
X-764Y2150D01*
X-758Y2148D01*
X-753Y2148D01*
X-749Y2148D01*
X-812Y2039D01*
X-813Y2043D01*
X-816Y2047D01*
X-821Y2052D01*
X-827Y2057D01*
X-834Y2063D01*
X-853Y2076D01*
X-877Y2092D01*
X-891Y2100D01*
X-841Y2187D01*
X-827Y2178D01*
D02*
G37*
G36*
X989Y1730D02*
X976Y1722D01*
X942Y1700D01*
X933Y1692D01*
X926Y1685D01*
X919Y1678D01*
X914Y1672D01*
X909Y1665D01*
X906Y1659D01*
X836Y1781D01*
X843Y1780D01*
X851Y1781D01*
X859Y1782D01*
X868Y1784D01*
X878Y1788D01*
X889Y1792D01*
X913Y1803D01*
X939Y1817D01*
X989Y1730D01*
D02*
G37*
G36*
X-840Y1688D02*
X-847Y1690D01*
X-854Y1691D01*
X-863Y1692D01*
X-872Y1693D01*
X-883Y1692D01*
X-894Y1691D01*
X-920Y1686D01*
X-949Y1679D01*
X-975Y1776D01*
X-960Y1780D01*
X-922Y1794D01*
X-911Y1798D01*
X-902Y1803D01*
X-894Y1808D01*
X-887Y1813D01*
X-881Y1818D01*
X-876Y1823D01*
X-840Y1688D01*
D02*
G37*
G36*
X5911Y1638D02*
X5905Y1635D01*
X5898Y1631D01*
X5892Y1625D01*
X5885Y1619D01*
X5878Y1611D01*
X5870Y1602D01*
X5855Y1581D01*
X5840Y1555D01*
X5753Y1605D01*
X5761Y1619D01*
X5778Y1655D01*
X5782Y1666D01*
X5786Y1676D01*
X5788Y1685D01*
X5789Y1694D01*
X5790Y1701D01*
X5789Y1708D01*
X5911Y1638D01*
D02*
G37*
G36*
X-1377Y1534D02*
X-1387Y1517D01*
X-1394Y1502D01*
X-1399Y1487D01*
X-1403Y1474D01*
X-1405Y1462D01*
X-1404Y1452D01*
X-1402Y1442D01*
X-1398Y1434D01*
X-1392Y1427D01*
X-1385Y1421D01*
X-1558Y1521D01*
X-1549Y1518D01*
X-1540Y1516D01*
X-1531Y1517D01*
X-1522Y1520D01*
X-1513Y1525D01*
X-1503Y1532D01*
X-1494Y1542D01*
X-1484Y1554D01*
X-1474Y1568D01*
X-1464Y1584D01*
X-1377Y1534D01*
D02*
G37*
G36*
X1469Y1568D02*
X1479Y1554D01*
X1489Y1542D01*
X1499Y1532D01*
X1508Y1525D01*
X1517Y1520D01*
X1527Y1517D01*
X1536Y1516D01*
X1544Y1518D01*
X1553Y1521D01*
X1380Y1421D01*
X1388Y1427D01*
X1394Y1434D01*
X1398Y1442D01*
X1400Y1452D01*
X1400Y1462D01*
X1398Y1474D01*
X1395Y1487D01*
X1389Y1502D01*
X1382Y1517D01*
X1373Y1534D01*
X1459Y1584D01*
X1469Y1568D01*
D02*
G37*
G36*
X9238Y1447D02*
X9248Y1432D01*
X9259Y1419D01*
X9269Y1407D01*
X9280Y1398D01*
X9291Y1390D01*
X9302Y1384D01*
X9313Y1379D01*
X9324Y1376D01*
X9335Y1376D01*
X9113Y1377D01*
X9122Y1378D01*
X9129Y1380D01*
X9134Y1385D01*
X9136Y1391D01*
X9137Y1398D01*
X9136Y1408D01*
X9133Y1419D01*
X9128Y1432D01*
X9121Y1447D01*
X9112Y1463D01*
X9228D01*
X9238Y1447D01*
D02*
G37*
G36*
X1482Y1158D02*
X1503Y1148D01*
X1515Y1140D01*
X1520Y1134D01*
X1517Y1132D01*
X1507Y1131D01*
X1489Y1134D01*
X1463Y1139D01*
X1340Y1169D01*
X1365Y1266D01*
X1392Y1259D01*
X1438Y1251D01*
X1457Y1250D01*
X1474Y1250D01*
X1488Y1251D01*
X1500Y1255D01*
X1509Y1260D01*
X1516Y1267D01*
X1521Y1275D01*
X1482Y1158D01*
D02*
G37*
G36*
X-1933Y1333D02*
X-1934Y1324D01*
X-1934Y1315D01*
X-1931Y1306D01*
X-1926Y1296D01*
X-1918Y1287D01*
X-1909Y1277D01*
X-1897Y1267D01*
X-1883Y1257D01*
X-1866Y1247D01*
X-1916Y1161D01*
X-1933Y1170D01*
X-1949Y1177D01*
X-1963Y1183D01*
X-1976Y1186D01*
X-1988Y1188D01*
X-1999Y1188D01*
X-2008Y1186D01*
X-2016Y1182D01*
X-2023Y1176D01*
X-2029Y1168D01*
X-1929Y1341D01*
X-1933Y1333D01*
D02*
G37*
G36*
X-10492Y1128D02*
X-10466Y1126D01*
X-10413Y1124D01*
Y844D01*
X-10466Y843D01*
X-10492Y841D01*
Y704D01*
X-10495Y731D01*
X-10503Y755D01*
X-10517Y776D01*
X-10537Y794D01*
X-10562Y809D01*
X-10593Y822D01*
X-10623Y809D01*
X-10649Y794D01*
X-10668Y776D01*
X-10682Y755D01*
X-10691Y731D01*
X-10694Y704D01*
Y841D01*
X-10720Y843D01*
X-10773Y844D01*
Y1124D01*
X-10720Y1126D01*
X-10694Y1128D01*
Y1264D01*
X-10691Y1238D01*
X-10682Y1214D01*
X-10668Y1193D01*
X-10649Y1175D01*
X-10623Y1159D01*
X-10593Y1147D01*
X-10562Y1159D01*
X-10537Y1175D01*
X-10517Y1193D01*
X-10503Y1214D01*
X-10495Y1238D01*
X-10492Y1264D01*
Y1128D01*
D02*
G37*
G36*
X-9783D02*
X-9757Y1126D01*
X-9704Y1124D01*
Y844D01*
X-9757Y843D01*
X-9783Y841D01*
Y704D01*
X-9786Y731D01*
X-9795Y755D01*
X-9809Y776D01*
X-9828Y794D01*
X-9854Y809D01*
X-9884Y822D01*
X-9915Y809D01*
X-9940Y794D01*
X-9960Y776D01*
X-9974Y755D01*
X-9982Y731D01*
X-9985Y704D01*
Y841D01*
X-10011Y843D01*
X-10065Y844D01*
Y1124D01*
X-10011Y1126D01*
X-9985Y1128D01*
Y1264D01*
X-9982Y1238D01*
X-9974Y1214D01*
X-9960Y1193D01*
X-9940Y1175D01*
X-9915Y1159D01*
X-9884Y1147D01*
X-9854Y1159D01*
X-9828Y1175D01*
X-9809Y1193D01*
X-9795Y1214D01*
X-9786Y1238D01*
X-9783Y1264D01*
Y1128D01*
D02*
G37*
G36*
X-1521Y1267D02*
X-1514Y1260D01*
X-1505Y1255D01*
X-1493Y1251D01*
X-1479Y1250D01*
X-1462Y1250D01*
X-1443Y1251D01*
X-1421Y1254D01*
X-1370Y1266D01*
X-1344Y1169D01*
X-1393Y1157D01*
X-1522Y1132D01*
X-1525Y1134D01*
X-1520Y1140D01*
X-1507Y1148D01*
X-1487Y1158D01*
X-1525Y1275D01*
X-1521Y1267D01*
D02*
G37*
G36*
X2123Y998D02*
X2117Y1005D01*
X2110Y1011D01*
X2102Y1015D01*
X2092Y1017D01*
X2082Y1017D01*
X2070Y1016D01*
X2057Y1012D01*
X2042Y1007D01*
X2027Y1000D01*
X2010Y990D01*
X1960Y1077D01*
X1976Y1087D01*
X1990Y1097D01*
X2002Y1107D01*
X2012Y1116D01*
X2019Y1126D01*
X2024Y1135D01*
X2027Y1144D01*
X2028Y1153D01*
X2026Y1162D01*
X2023Y1171D01*
X2123Y998D01*
D02*
G37*
G36*
X-1383Y1037D02*
X-1354Y1023D01*
X-1341Y1018D01*
X-1331Y1014D01*
X-1321Y1013D01*
X-1314Y1012D01*
X-1307Y1013D01*
X-1302Y1016D01*
X-1299Y1020D01*
X-1376Y886D01*
X-1375Y891D01*
X-1375Y896D01*
X-1377Y902D01*
X-1381Y909D01*
X-1388Y916D01*
X-1396Y924D01*
X-1406Y932D01*
X-1418Y940D01*
X-1449Y959D01*
X-1399Y1046D01*
X-1383Y1037D01*
D02*
G37*
G36*
X-3250Y834D02*
X-3250Y833D01*
X-3252Y832D01*
X-3255Y831D01*
X-3268Y827D01*
X-3332Y809D01*
X-3370Y902D01*
X-3346Y909D01*
X-3304Y925D01*
X-3287Y933D01*
X-3272Y941D01*
X-3260Y950D01*
X-3251Y959D01*
X-3244Y969D01*
X-3239Y979D01*
X-3237Y989D01*
X-3250Y834D01*
D02*
G37*
G36*
X3246Y958D02*
X3250Y949D01*
X3256Y939D01*
X3266Y930D01*
X3278Y921D01*
X3292Y913D01*
X3310Y905D01*
X3329Y897D01*
X3352Y889D01*
X3377Y882D01*
X3363Y782D01*
X3335Y790D01*
X3248Y820D01*
X3242Y825D01*
X3239Y828D01*
X3240Y831D01*
X3245Y834D01*
X3244Y968D01*
X3246Y958D01*
D02*
G37*
G36*
X-1132Y918D02*
X-1132Y912D01*
X-1130Y906D01*
X-1125Y899D01*
X-1119Y892D01*
X-1111Y885D01*
X-1100Y876D01*
X-1088Y868D01*
X-1058Y849D01*
X-1108Y762D01*
X-1124Y771D01*
X-1153Y786D01*
X-1165Y790D01*
X-1176Y794D01*
X-1185Y796D01*
X-1193Y796D01*
X-1199Y795D01*
X-1204Y792D01*
X-1208Y788D01*
X-1130Y923D01*
X-1132Y918D01*
D02*
G37*
G36*
X-4827Y897D02*
X-4825Y890D01*
X-4821Y882D01*
X-4817Y874D01*
X-4811Y865D01*
X-4804Y856D01*
X-4788Y836D01*
X-4767Y814D01*
X-4838Y743D01*
X-4849Y754D01*
X-4880Y780D01*
X-4889Y787D01*
X-4898Y793D01*
X-4906Y797D01*
X-4914Y801D01*
X-4921Y803D01*
X-4928Y805D01*
X-4829Y904D01*
X-4827Y897D01*
D02*
G37*
G36*
X1602Y687D02*
X1586Y677D01*
X1559Y659D01*
X1549Y651D01*
X1540Y643D01*
X1534Y636D01*
X1530Y629D01*
X1528Y623D01*
X1527Y618D01*
X1529Y613D01*
X1452Y747D01*
X1455Y743D01*
X1460Y741D01*
X1466Y739D01*
X1474Y740D01*
X1484Y742D01*
X1494Y745D01*
X1507Y750D01*
X1520Y756D01*
X1552Y773D01*
X1602Y687D01*
D02*
G37*
G36*
X779Y873D02*
X789Y859D01*
X799Y847D01*
X809Y837D01*
X818Y830D01*
X828Y825D01*
X837Y822D01*
X846Y821D01*
X855Y823D01*
X863Y827D01*
X690Y727D01*
X698Y732D01*
X704Y739D01*
X708Y747D01*
X710Y757D01*
X710Y767D01*
X708Y779D01*
X705Y792D01*
X699Y807D01*
X692Y822D01*
X683Y839D01*
X769Y889D01*
X779Y873D01*
D02*
G37*
G36*
X-3079Y735D02*
X-3073Y732D01*
X-3070Y729D01*
X-3072Y724D01*
X-3077Y720D01*
X-3087Y714D01*
X-3100Y708D01*
X-3118Y702D01*
X-3165Y687D01*
X-3194Y679D01*
X-3214Y777D01*
X-3188Y785D01*
X-3146Y800D01*
X-3129Y808D01*
X-3114Y817D01*
X-3103Y825D01*
X-3094Y834D01*
X-3087Y844D01*
X-3083Y853D01*
X-3082Y863D01*
X-3079Y735D01*
D02*
G37*
G36*
X5742Y674D02*
X5735Y676D01*
X5727Y678D01*
X5719Y678D01*
X5709Y679D01*
X5699Y678D01*
X5688Y677D01*
X5662Y673D01*
X5632Y665D01*
X5606Y762D01*
X5622Y766D01*
X5660Y780D01*
X5670Y784D01*
X5680Y789D01*
X5688Y794D01*
X5695Y799D01*
X5701Y804D01*
X5705Y809D01*
X5742Y674D01*
D02*
G37*
G36*
X-982Y806D02*
X-966Y798D01*
X-952Y793D01*
X-939Y789D01*
X-927Y788D01*
X-916Y788D01*
X-907Y790D01*
X-898Y794D01*
X-892Y800D01*
X-886Y807D01*
X-981Y646D01*
X-978Y652D01*
X-977Y659D01*
X-979Y667D01*
X-982Y674D01*
X-988Y683D01*
X-996Y691D01*
X-1006Y700D01*
X-1018Y709D01*
X-1032Y718D01*
X-1049Y728D01*
X-998Y815D01*
X-982Y806D01*
D02*
G37*
G36*
X-1540Y764D02*
X-1511Y750D01*
X-1499Y745D01*
X-1488Y742D01*
X-1479Y740D01*
X-1471Y739D01*
X-1465Y741D01*
X-1460Y743D01*
X-1456Y747D01*
X-1534Y613D01*
X-1532Y618D01*
X-1532Y623D01*
X-1535Y629D01*
X-1539Y636D01*
X-1545Y643D01*
X-1553Y651D01*
X-1564Y659D01*
X-1576Y668D01*
X-1607Y687D01*
X-1557Y773D01*
X-1540Y764D01*
D02*
G37*
G36*
X-1742Y750D02*
X-1737Y741D01*
X-1730Y724D01*
X-1721Y700D01*
X-1686Y577D01*
X-1783Y551D01*
X-1790Y578D01*
X-1806Y622D01*
X-1814Y639D01*
X-1823Y654D01*
X-1831Y665D01*
X-1840Y674D01*
X-1849Y679D01*
X-1859Y682D01*
X-1868Y681D01*
X-1748Y707D01*
X-1749Y730D01*
X-1748Y744D01*
X-1746Y751D01*
X-1742Y750D01*
D02*
G37*
G36*
X1361Y516D02*
X1357Y520D01*
X1352Y522D01*
X1346Y523D01*
X1338Y523D01*
X1329Y521D01*
X1318Y518D01*
X1306Y513D01*
X1292Y506D01*
X1260Y489D01*
X1210Y576D01*
X1227Y586D01*
X1253Y604D01*
X1264Y612D01*
X1272Y619D01*
X1278Y627D01*
X1282Y633D01*
X1285Y639D01*
X1285Y645D01*
X1283Y650D01*
X1361Y516D01*
D02*
G37*
G36*
X-1493Y589D02*
X-1491Y592D01*
X-1405Y542D01*
X-1406Y539D01*
X-1365Y516D01*
X-1374Y519D01*
X-1382Y521D01*
X-1391Y520D01*
X-1400Y517D01*
X-1409Y512D01*
X-1418Y504D01*
X-1427Y495D01*
X-1431Y490D01*
X-1434Y481D01*
X-1437Y471D01*
X-1440Y462D01*
X-1441Y453D01*
X-1442Y445D01*
X-1441Y438D01*
X-1563Y509D01*
X-1556Y512D01*
X-1550Y516D01*
X-1543Y521D01*
X-1537Y528D01*
X-1530Y536D01*
X-1523Y544D01*
X-1521Y549D01*
X-1517Y562D01*
X-1516Y573D01*
X-1516Y584D01*
X-1517Y593D01*
X-1521Y601D01*
X-1526Y607D01*
X-1534Y613D01*
X-1493Y589D01*
D02*
G37*
G36*
X1201Y455D02*
X1185Y445D01*
X1171Y435D01*
X1159Y426D01*
X1149Y416D01*
X1142Y407D01*
X1137Y397D01*
X1134Y388D01*
X1133Y379D01*
X1135Y370D01*
X1139Y361D01*
X1046Y524D01*
X1050Y519D01*
X1056Y515D01*
X1063Y512D01*
X1072Y512D01*
X1082Y513D01*
X1093Y515D01*
X1105Y519D01*
X1119Y525D01*
X1135Y533D01*
X1151Y542D01*
X1201Y455D01*
D02*
G37*
G36*
X11038Y591D02*
X11027Y588D01*
X11017Y584D01*
X11006Y577D01*
X10996Y569D01*
X10986Y559D01*
X10976Y548D01*
X10966Y534D01*
X10957Y519D01*
X10947Y502D01*
X10833Y504D01*
X10841Y521D01*
X10847Y536D01*
X10851Y549D01*
X10853Y560D01*
X10853Y570D01*
X10851Y578D01*
X10847Y584D01*
X10842Y588D01*
X10834Y591D01*
X10824Y592D01*
X11049D01*
X11038Y591D01*
D02*
G37*
G36*
X10321Y591D02*
X10310Y588D01*
X10300Y584D01*
X10289Y577D01*
X10279Y569D01*
X10269Y559D01*
X10259Y547D01*
X10248Y534D01*
X10238Y518D01*
X10228Y501D01*
X10107Y510D01*
X10115Y526D01*
X10121Y540D01*
X10125Y552D01*
X10128Y562D01*
X10128Y571D01*
X10127Y579D01*
X10124Y584D01*
X10119Y588D01*
X10112Y591D01*
X10104Y592D01*
X10331D01*
X10321Y591D01*
D02*
G37*
G36*
X-1925Y486D02*
X-1933Y490D01*
X-1942Y492D01*
X-1951Y491D01*
X-1960Y488D01*
X-1970Y483D01*
X-1979Y476D01*
X-1989Y466D01*
X-1998Y454D01*
X-2008Y440D01*
X-2018Y424D01*
X-2105Y474D01*
X-2096Y491D01*
X-2089Y506D01*
X-2083Y521D01*
X-2080Y534D01*
X-2078Y546D01*
X-2078Y556D01*
X-2080Y566D01*
X-2084Y574D01*
X-2090Y581D01*
X-2098Y586D01*
X-1925Y486D01*
D02*
G37*
G36*
X8789Y641D02*
X8780Y637D01*
X8771Y631D01*
X8764Y623D01*
X8757Y611D01*
X8752Y597D01*
X8747Y581D01*
X8744Y562D01*
X8742Y552D01*
X8746Y530D01*
X8751Y509D01*
X8758Y492D01*
X8767Y477D01*
X8776Y466D01*
X8788Y458D01*
X8801Y453D01*
X8815Y452D01*
X8503D01*
X8517Y453D01*
X8530Y458D01*
X8542Y466D01*
X8552Y477D01*
X8560Y492D01*
X8567Y509D01*
X8572Y530D01*
X8576Y554D01*
X8578Y581D01*
X8579Y612D01*
X8593D01*
X8614Y744D01*
X8789Y641D01*
D02*
G37*
G36*
X2016Y334D02*
X2001Y326D01*
X1959Y297D01*
X1951Y291D01*
X1945Y285D01*
X1940Y279D01*
X1937Y274D01*
X1935Y270D01*
X1869Y384D01*
X1874Y383D01*
X1880Y383D01*
X1887Y385D01*
X1895Y387D01*
X1905Y390D01*
X1926Y400D01*
X1951Y413D01*
X1966Y421D01*
X2016Y334D01*
D02*
G37*
G36*
X9506Y460D02*
X9513Y457D01*
X9521Y454D01*
X9530Y451D01*
X9541Y449D01*
X9552Y447D01*
X9578Y444D01*
X9608Y444D01*
Y344D01*
X9592Y344D01*
X9552Y340D01*
X9541Y339D01*
X9530Y336D01*
X9521Y334D01*
X9513Y331D01*
X9506Y327D01*
X9501Y323D01*
Y464D01*
X9506Y460D01*
D02*
G37*
G36*
X-10886Y593D02*
X-10886Y593D01*
X-10746D01*
X-10773Y590D01*
X-10796Y582D01*
X-10817Y568D01*
X-10836Y548D01*
X-10851Y523D01*
X-10864Y492D01*
X-10873Y455D01*
X-10876Y438D01*
X-10876Y431D01*
X-10873Y421D01*
X-10870Y415D01*
X-10880D01*
X-10880Y413D01*
X-10885Y365D01*
X-10886Y312D01*
X-11166D01*
X-11167Y365D01*
X-11172Y413D01*
X-11172Y415D01*
X-11182D01*
X-11179Y421D01*
X-11176Y431D01*
X-11175Y435D01*
X-11179Y455D01*
X-11188Y492D01*
X-11201Y523D01*
X-11216Y548D01*
X-11235Y568D01*
X-11256Y582D01*
X-11279Y590D01*
X-11306Y593D01*
X-11167D01*
X-11166Y631D01*
X-10886Y631D01*
X-10886Y593D01*
D02*
G37*
G36*
X-978Y236D02*
X-987Y240D01*
X-995Y242D01*
X-1004Y241D01*
X-1014Y238D01*
X-1023Y233D01*
X-1032Y226D01*
X-1042Y216D01*
X-1052Y204D01*
X-1062Y190D01*
X-1072Y174D01*
X-1158Y224D01*
X-1149Y241D01*
X-1142Y256D01*
X-1136Y271D01*
X-1133Y284D01*
X-1131Y296D01*
X-1131Y306D01*
X-1134Y316D01*
X-1137Y324D01*
X-1143Y331D01*
X-1151Y336D01*
X-978Y236D01*
D02*
G37*
G36*
X1433Y363D02*
X1440Y360D01*
X1448Y357D01*
X1457Y354D01*
X1467Y352D01*
X1479Y350D01*
X1505Y348D01*
X1535Y347D01*
Y247D01*
X1519Y247D01*
X1479Y244D01*
X1467Y242D01*
X1457Y240D01*
X1448Y237D01*
X1440Y234D01*
X1433Y231D01*
X1427Y227D01*
Y367D01*
X1433Y363D01*
D02*
G37*
G36*
X5703Y281D02*
X5696Y278D01*
X5690Y273D01*
X5683Y268D01*
X5677Y261D01*
X5670Y254D01*
X5662Y245D01*
X5647Y223D01*
X5631Y198D01*
X5545Y248D01*
X5552Y261D01*
X5570Y298D01*
X5574Y309D01*
X5577Y319D01*
X5580Y328D01*
X5581Y336D01*
X5581Y344D01*
X5581Y351D01*
X5703Y281D01*
D02*
G37*
G36*
X-10099Y631D02*
X-10098Y593D01*
X-10098Y592D01*
X-9984D01*
X-10006Y589D01*
X-10025Y581D01*
X-10042Y567D01*
X-10057Y547D01*
X-10070Y522D01*
X-10080Y491D01*
X-10088Y455D01*
X-10089Y447D01*
X-10089Y443D01*
X-10074Y441D01*
X-10031Y438D01*
X-9903Y435D01*
X-9903Y155D01*
X-9940Y155D01*
X-10103Y145D01*
X-10113Y142D01*
X-10118Y139D01*
X-10118Y312D01*
X-10379D01*
X-10380Y365D01*
X-10385Y415D01*
X-10395D01*
X-10392Y421D01*
X-10389Y431D01*
X-10387Y439D01*
X-10389Y455D01*
X-10397Y491D01*
X-10407Y522D01*
X-10420Y547D01*
X-10435Y567D01*
X-10452Y581D01*
X-10471Y589D01*
X-10493Y592D01*
X-10379D01*
X-10379Y631D01*
X-10099Y631D01*
D02*
G37*
G36*
X-8820Y139D02*
X-8823Y142D01*
X-8831Y145D01*
X-8845Y147D01*
X-8865Y149D01*
X-8957Y154D01*
X-9100Y155D01*
Y435D01*
X-9047Y435D01*
X-8823Y448D01*
X-8820Y452D01*
Y139D01*
D02*
G37*
G36*
X9506Y165D02*
X9513Y161D01*
X9521Y158D01*
X9530Y156D01*
X9541Y153D01*
X9552Y152D01*
X9578Y149D01*
X9608Y148D01*
Y48D01*
X9592Y48D01*
X9552Y45D01*
X9541Y43D01*
X9530Y41D01*
X9521Y39D01*
X9513Y36D01*
X9506Y32D01*
X9501Y28D01*
Y169D01*
X9506Y165D01*
D02*
G37*
G36*
X-1866Y134D02*
X-1830Y116D01*
X-1819Y112D01*
X-1809Y109D01*
X-1800Y107D01*
X-1791Y105D01*
X-1784Y105D01*
X-1777Y105D01*
X-1847Y-16D01*
X-1850Y-10D01*
X-1854Y-4D01*
X-1860Y3D01*
X-1866Y10D01*
X-1874Y17D01*
X-1883Y24D01*
X-1904Y39D01*
X-1930Y55D01*
X-1880Y142D01*
X-1866Y134D01*
D02*
G37*
G36*
X4492Y39D02*
X4489Y32D01*
X4486Y24D01*
X4483Y15D01*
X4481Y4D01*
X4479Y-7D01*
X4476Y-33D01*
X4476Y-63D01*
X4376Y-63D01*
X4375Y-48D01*
X4372Y-7D01*
X4371Y4D01*
X4368Y15D01*
X4366Y24D01*
X4363Y32D01*
X4359Y39D01*
X4355Y44D01*
X4496Y44D01*
X4492Y39D01*
D02*
G37*
G36*
X2704Y-20D02*
X2744Y-28D01*
X2756Y-29D01*
X2766Y-29D01*
X2776Y-29D01*
X2784Y-28D01*
X2792Y-27D01*
X2798Y-25D01*
X2762Y-160D01*
X2757Y-155D01*
X2752Y-150D01*
X2745Y-145D01*
X2736Y-140D01*
X2727Y-135D01*
X2717Y-130D01*
X2692Y-121D01*
X2663Y-113D01*
X2689Y-16D01*
X2704Y-20D01*
D02*
G37*
G36*
X-9505Y-169D02*
X-9511Y-165D01*
X-9518Y-161D01*
X-9526Y-158D01*
X-9535Y-156D01*
X-9545Y-153D01*
X-9557Y-152D01*
X-9582Y-149D01*
X-9613Y-148D01*
Y-48D01*
X-9597Y-48D01*
X-9557Y-45D01*
X-9545Y-43D01*
X-9535Y-41D01*
X-9526Y-39D01*
X-9518Y-36D01*
X-9511Y-32D01*
X-9505Y-28D01*
Y-169D01*
D02*
G37*
G36*
X8818Y-142D02*
X8827Y-145D01*
X8841Y-147D01*
X8860Y-149D01*
X8953Y-154D01*
X9095Y-155D01*
Y-435D01*
X9042Y-435D01*
X8818Y-448D01*
X8815Y-452D01*
Y-139D01*
X8818Y-142D01*
D02*
G37*
G36*
X-9505Y-464D02*
X-9511Y-460D01*
X-9518Y-457D01*
X-9526Y-454D01*
X-9535Y-451D01*
X-9545Y-449D01*
X-9557Y-447D01*
X-9582Y-445D01*
X-9613Y-444D01*
Y-344D01*
X-9597Y-344D01*
X-9557Y-340D01*
X-9545Y-339D01*
X-9535Y-336D01*
X-9526Y-334D01*
X-9518Y-331D01*
X-9511Y-327D01*
X-9505Y-324D01*
Y-464D01*
D02*
G37*
G36*
X-10111Y-510D02*
X-10120Y-526D01*
X-10126Y-540D01*
X-10130Y-552D01*
X-10133Y-562D01*
X-10133Y-571D01*
X-10132Y-579D01*
X-10129Y-584D01*
X-10124Y-589D01*
X-10117Y-591D01*
X-10108Y-592D01*
X-10336D01*
X-10325Y-591D01*
X-10315Y-588D01*
X-10304Y-584D01*
X-10294Y-577D01*
X-10284Y-569D01*
X-10273Y-559D01*
X-10263Y-547D01*
X-10253Y-534D01*
X-10243Y-518D01*
X-10233Y-501D01*
X-10111Y-510D01*
D02*
G37*
G36*
X-10837Y-504D02*
X-10846Y-521D01*
X-10852Y-536D01*
X-10856Y-549D01*
X-10858Y-560D01*
X-10858Y-570D01*
X-10856Y-578D01*
X-10852Y-584D01*
X-10846Y-588D01*
X-10838Y-591D01*
X-10829Y-592D01*
X-11054D01*
X-11043Y-591D01*
X-11032Y-588D01*
X-11021Y-584D01*
X-11011Y-577D01*
X-11001Y-569D01*
X-10991Y-559D01*
X-10981Y-548D01*
X-10971Y-534D01*
X-10961Y-519D01*
X-10952Y-502D01*
X-10837Y-504D01*
D02*
G37*
G36*
X11163Y-365D02*
X11167Y-413D01*
X11167Y-415D01*
X11177D01*
X11174Y-421D01*
X11172Y-431D01*
X11171Y-435D01*
X11174Y-455D01*
X11184Y-492D01*
X11196Y-523D01*
X11212Y-548D01*
X11230Y-568D01*
X11251Y-582D01*
X11275Y-590D01*
X11301Y-593D01*
X11162D01*
X11161Y-631D01*
X10881D01*
X10881Y-593D01*
X10881Y-593D01*
X10741D01*
X10768Y-590D01*
X10792Y-582D01*
X10813Y-568D01*
X10831Y-548D01*
X10846Y-523D01*
X10859Y-492D01*
X10869Y-455D01*
X10872Y-438D01*
X10871Y-431D01*
X10868Y-421D01*
X10865Y-415D01*
X10875D01*
X10876Y-413D01*
X10880Y-365D01*
X10881Y-312D01*
X11161D01*
X11163Y-365D01*
D02*
G37*
G36*
X10114Y-312D02*
X10374D01*
X10375Y-365D01*
X10380Y-415D01*
X10390D01*
X10387Y-421D01*
X10384Y-431D01*
X10383Y-439D01*
X10384Y-455D01*
X10392Y-491D01*
X10403Y-522D01*
X10415Y-547D01*
X10430Y-567D01*
X10447Y-581D01*
X10467Y-589D01*
X10489Y-592D01*
X10375D01*
X10374Y-631D01*
X10094Y-631D01*
X10094Y-593D01*
X10094Y-592D01*
X9979D01*
X10001Y-589D01*
X10020Y-581D01*
X10038Y-567D01*
X10053Y-547D01*
X10065Y-522D01*
X10076Y-491D01*
X10084Y-455D01*
X10085Y-447D01*
X10084Y-443D01*
X10069Y-441D01*
X10026Y-438D01*
X9899Y-435D01*
X9899Y-155D01*
X9936Y-155D01*
X10099Y-145D01*
X10108Y-142D01*
X10114Y-139D01*
X10114Y-312D01*
D02*
G37*
G36*
X-8617Y-452D02*
X-8631Y-457D01*
X-8643Y-465D01*
X-8653Y-476D01*
X-8662Y-491D01*
X-8669Y-509D01*
X-8675Y-530D01*
X-8679Y-554D01*
X-8680Y-562D01*
X-8676Y-605D01*
X-8672Y-624D01*
X-8668Y-642D01*
X-8663Y-658D01*
X-8657Y-672D01*
X-8651Y-685D01*
X-8643Y-696D01*
X-8881D01*
X-8874Y-685D01*
X-8867Y-672D01*
X-8861Y-658D01*
X-8856Y-642D01*
X-8852Y-624D01*
X-8848Y-605D01*
X-8844Y-561D01*
X-8843Y-537D01*
X-8842Y-511D01*
X-8828D01*
X-8820Y-452D01*
X-8602Y-450D01*
X-8617Y-452D01*
D02*
G37*
G36*
X9980Y-841D02*
X10006Y-843D01*
X10060Y-844D01*
Y-1124D01*
X10006Y-1126D01*
X9980Y-1128D01*
Y-1264D01*
X9978Y-1238D01*
X9969Y-1214D01*
X9955Y-1193D01*
X9935Y-1175D01*
X9910Y-1159D01*
X9880Y-1147D01*
X9849Y-1159D01*
X9824Y-1175D01*
X9804Y-1193D01*
X9790Y-1214D01*
X9782Y-1238D01*
X9779Y-1264D01*
Y-1128D01*
X9753Y-1126D01*
X9699Y-1124D01*
Y-844D01*
X9753Y-843D01*
X9779Y-841D01*
Y-704D01*
X9782Y-731D01*
X9790Y-755D01*
X9804Y-776D01*
X9824Y-794D01*
X9849Y-809D01*
X9880Y-822D01*
X9910Y-809D01*
X9935Y-794D01*
X9955Y-776D01*
X9969Y-755D01*
X9978Y-731D01*
X9980Y-704D01*
Y-841D01*
D02*
G37*
G36*
X283Y-972D02*
X286Y-981D01*
X291Y-988D01*
X298Y-995D01*
X307Y-1001D01*
X318Y-1005D01*
X331Y-1009D01*
X346Y-1011D01*
X363Y-1013D01*
X382Y-1013D01*
Y-1113D01*
X363Y-1113D01*
X346Y-1115D01*
X331Y-1117D01*
X318Y-1121D01*
X307Y-1125D01*
X298Y-1131D01*
X291Y-1138D01*
X286Y-1145D01*
X283Y-1154D01*
X282Y-1163D01*
Y-963D01*
X283Y-972D01*
D02*
G37*
G36*
X-7538Y-1145D02*
X-7546Y-1159D01*
X-7564Y-1195D01*
X-7568Y-1206D01*
X-7571Y-1216D01*
X-7573Y-1225D01*
X-7575Y-1234D01*
X-7575Y-1241D01*
X-7575Y-1248D01*
X-7696Y-1178D01*
X-7690Y-1175D01*
X-7684Y-1171D01*
X-7677Y-1165D01*
X-7670Y-1159D01*
X-7663Y-1151D01*
X-7656Y-1142D01*
X-7641Y-1121D01*
X-7625Y-1095D01*
X-7538Y-1145D01*
D02*
G37*
G36*
X10490Y-731D02*
X10499Y-755D01*
X10513Y-776D01*
X10532Y-794D01*
X10558Y-809D01*
X10588Y-822D01*
X10619Y-809D01*
X10644Y-794D01*
X10664Y-776D01*
X10678Y-755D01*
X10686Y-731D01*
X10689Y-704D01*
Y-841D01*
X10715Y-843D01*
X10769Y-844D01*
Y-1124D01*
X10715Y-1126D01*
X10689Y-1128D01*
Y-1264D01*
X10686Y-1238D01*
X10678Y-1214D01*
X10664Y-1193D01*
X10644Y-1175D01*
X10619Y-1159D01*
X10588Y-1147D01*
X10558Y-1159D01*
X10532Y-1175D01*
X10513Y-1193D01*
X10499Y-1214D01*
X10490Y-1238D01*
X10487Y-1264D01*
Y-1128D01*
X10461Y-1126D01*
X10408Y-1124D01*
Y-844D01*
X10461Y-843D01*
X10487Y-841D01*
Y-704D01*
X10490Y-731D01*
D02*
G37*
G36*
X-72Y-1170D02*
X-80Y-1171D01*
X-86Y-1174D01*
X-92Y-1179D01*
X-96Y-1186D01*
X-100Y-1195D01*
X-104Y-1206D01*
X-106Y-1219D01*
X-108Y-1234D01*
X-109Y-1251D01*
X-110Y-1270D01*
X-210D01*
X-210Y-1251D01*
X-212Y-1234D01*
X-214Y-1219D01*
X-218Y-1205D01*
X-222Y-1194D01*
X-228Y-1185D01*
X-234Y-1178D01*
X-242Y-1173D01*
X-250Y-1170D01*
X-260Y-1169D01*
X-72Y-1170D01*
D02*
G37*
G36*
X-110Y-1357D02*
X-107Y-1389D01*
X-105Y-1402D01*
X-103Y-1413D01*
X-100Y-1422D01*
X-96Y-1429D01*
X-92Y-1434D01*
X-88Y-1437D01*
X-82Y-1438D01*
X-237D01*
X-232Y-1437D01*
X-227Y-1434D01*
X-223Y-1429D01*
X-220Y-1422D01*
X-217Y-1413D01*
X-214Y-1402D01*
X-212Y-1389D01*
X-211Y-1374D01*
X-210Y-1338D01*
X-110D01*
X-110Y-1357D01*
D02*
G37*
G36*
X-9122Y-1150D02*
X-9124Y-1164D01*
X-9124Y-1179D01*
X-9122Y-1196D01*
X-9117Y-1214D01*
X-9111Y-1233D01*
X-9103Y-1254D01*
X-9093Y-1276D01*
X-9068Y-1324D01*
X-9103Y-1463D01*
X-9119Y-1436D01*
X-9148Y-1394D01*
X-9161Y-1379D01*
X-9172Y-1368D01*
X-9182Y-1361D01*
X-9191Y-1359D01*
X-9199Y-1360D01*
X-9205Y-1366D01*
X-9211Y-1376D01*
X-9119Y-1138D01*
X-9122Y-1150D01*
D02*
G37*
G36*
X930Y-1595D02*
X927Y-1602D01*
X924Y-1610D01*
X921Y-1619D01*
X919Y-1629D01*
X917Y-1641D01*
X915Y-1667D01*
X914Y-1697D01*
X814D01*
X814Y-1681D01*
X811Y-1641D01*
X809Y-1629D01*
X807Y-1619D01*
X804Y-1610D01*
X801Y-1602D01*
X797Y-1595D01*
X794Y-1589D01*
X934D01*
X930Y-1595D01*
D02*
G37*
G36*
X-4834Y-1569D02*
X-4832Y-1576D01*
X-4828Y-1583D01*
X-4824Y-1591D01*
X-4818Y-1600D01*
X-4803Y-1619D01*
X-4795Y-1629D01*
X-4773Y-1651D01*
X-4842Y-1724D01*
X-4853Y-1713D01*
X-4884Y-1687D01*
X-4894Y-1680D01*
X-4903Y-1675D01*
X-4911Y-1670D01*
X-4919Y-1667D01*
X-4927Y-1664D01*
X-4934Y-1663D01*
X-4836Y-1562D01*
X-4834Y-1569D01*
D02*
G37*
G36*
X4928Y-1663D02*
X4921Y-1664D01*
X4913Y-1666D01*
X4906Y-1670D01*
X4897Y-1675D01*
X4888Y-1680D01*
X4879Y-1687D01*
X4859Y-1704D01*
X4837Y-1725D01*
X4766Y-1654D01*
X4777Y-1643D01*
X4804Y-1612D01*
X4811Y-1602D01*
X4816Y-1594D01*
X4821Y-1585D01*
X4824Y-1577D01*
X4827Y-1570D01*
X4828Y-1563D01*
X4928Y-1663D01*
D02*
G37*
G36*
X-88Y-1634D02*
X-92Y-1637D01*
X-96Y-1642D01*
X-100Y-1649D01*
X-103Y-1658D01*
X-105Y-1669D01*
X-107Y-1682D01*
X-109Y-1697D01*
X-110Y-1733D01*
X-210D01*
X-210Y-1714D01*
X-212Y-1682D01*
X-214Y-1669D01*
X-217Y-1658D01*
X-220Y-1649D01*
X-223Y-1642D01*
X-227Y-1637D01*
X-232Y-1634D01*
X-237Y-1633D01*
X-82D01*
X-88Y-1634D01*
D02*
G37*
G36*
X205Y-1600D02*
X208Y-1633D01*
X233D01*
X227Y-1634D01*
X223Y-1637D01*
X219Y-1642D01*
X215Y-1649D01*
X212Y-1658D01*
X212Y-1659D01*
X212Y-1662D01*
X215Y-1671D01*
X218Y-1679D01*
X221Y-1686D01*
X225Y-1692D01*
X207D01*
X206Y-1697D01*
X205Y-1733D01*
X105D01*
X105Y-1714D01*
X103Y-1692D01*
X85D01*
X89Y-1686D01*
X92Y-1679D01*
X95Y-1671D01*
X98Y-1662D01*
X99Y-1659D01*
X98Y-1658D01*
X95Y-1649D01*
X92Y-1642D01*
X88Y-1637D01*
X83Y-1634D01*
X78Y-1633D01*
X103D01*
X104Y-1615D01*
X105Y-1584D01*
X205D01*
X205Y-1600D01*
D02*
G37*
G36*
X-989Y-1635D02*
X-993Y-1642D01*
X-996Y-1650D01*
X-999Y-1659D01*
X-1001Y-1669D01*
X-1003Y-1680D01*
X-1005Y-1706D01*
X-1006Y-1737D01*
X-1106D01*
X-1106Y-1721D01*
X-1109Y-1680D01*
X-1111Y-1669D01*
X-1113Y-1659D01*
X-1116Y-1650D01*
X-1119Y-1642D01*
X-1122Y-1635D01*
X-1126Y-1629D01*
X-986D01*
X-989Y-1635D01*
D02*
G37*
G36*
X-309Y-1783D02*
X-222Y-1882D01*
X-223Y-1886D01*
X-231Y-1884D01*
X-244Y-1877D01*
X-263Y-1865D01*
X-345Y-1957D01*
X-340Y-1949D01*
X-338Y-1939D01*
X-338Y-1929D01*
X-341Y-1917D01*
X-346Y-1903D01*
X-355Y-1889D01*
X-366Y-1873D01*
X-379Y-1856D01*
X-415Y-1817D01*
X-344Y-1747D01*
X-309Y-1783D01*
D02*
G37*
G36*
X173Y-1833D02*
X168Y-1835D01*
X163Y-1838D01*
X159Y-1843D01*
X156Y-1850D01*
X153Y-1858D01*
X150Y-1868D01*
X148Y-1879D01*
X147Y-1892D01*
X146Y-1923D01*
X46Y-1901D01*
X70Y-1771D01*
X173Y-1833D01*
D02*
G37*
G36*
X1324Y-1972D02*
X1320Y-1979D01*
X1317Y-1987D01*
X1315Y-1996D01*
X1313Y-2006D01*
X1311Y-2017D01*
X1308Y-2043D01*
X1308Y-2074D01*
X1208D01*
X1207Y-2058D01*
X1204Y-2017D01*
X1202Y-2006D01*
X1200Y-1996D01*
X1198Y-1987D01*
X1195Y-1979D01*
X1191Y-1972D01*
X1187Y-1966D01*
X1328D01*
X1324Y-1972D01*
D02*
G37*
G36*
X539Y-1917D02*
X542Y-1926D01*
X547Y-1933D01*
X554Y-1940D01*
X563Y-1945D01*
X574Y-1950D01*
X587Y-1953D01*
X602Y-1956D01*
X620Y-1957D01*
X639Y-1958D01*
Y-2058D01*
X620Y-2058D01*
X602Y-2060D01*
X587Y-2062D01*
X574Y-2066D01*
X563Y-2070D01*
X554Y-2076D01*
X547Y-2082D01*
X542Y-2090D01*
X539Y-2098D01*
X538Y-2108D01*
Y-1908D01*
X539Y-1917D01*
D02*
G37*
G36*
X-542Y-2108D02*
X-543Y-2098D01*
X-546Y-2090D01*
X-551Y-2082D01*
X-558Y-2076D01*
X-568Y-2070D01*
X-579Y-2066D01*
X-592Y-2062D01*
X-607Y-2060D01*
X-624Y-2058D01*
X-643Y-2058D01*
Y-1958D01*
X-624Y-1957D01*
X-607Y-1956D01*
X-592Y-1953D01*
X-579Y-1950D01*
X-568Y-1945D01*
X-558Y-1940D01*
X-551Y-1933D01*
X-546Y-1926D01*
X-543Y-1917D01*
X-542Y-1908D01*
Y-2108D01*
D02*
G37*
G36*
X-1960Y-2121D02*
X-1958Y-2129D01*
X-1954Y-2136D01*
X-1950Y-2145D01*
X-1944Y-2154D01*
X-1937Y-2163D01*
X-1921Y-2183D01*
X-1900Y-2205D01*
X-1971Y-2276D01*
X-1982Y-2265D01*
X-2013Y-2238D01*
X-2022Y-2231D01*
X-2031Y-2226D01*
X-2039Y-2221D01*
X-2047Y-2218D01*
X-2054Y-2215D01*
X-2061Y-2214D01*
X-1962Y-2115D01*
X-1960Y-2121D01*
D02*
G37*
G36*
X9271Y-2243D02*
X9266Y-2262D01*
X9263Y-2279D01*
X9261Y-2295D01*
X9261Y-2309D01*
X9263Y-2322D01*
X9265Y-2332D01*
X9270Y-2342D01*
X9275Y-2350D01*
X9282Y-2356D01*
X9291Y-2360D01*
X9104Y-2283D01*
X9114Y-2286D01*
X9122Y-2286D01*
X9131Y-2284D01*
X9139Y-2280D01*
X9146Y-2273D01*
X9153Y-2264D01*
X9160Y-2253D01*
X9166Y-2239D01*
X9172Y-2223D01*
X9177Y-2205D01*
X9271Y-2243D01*
D02*
G37*
G36*
X-50Y-2257D02*
X-49Y-2274D01*
X-46Y-2289D01*
X-43Y-2303D01*
X-38Y-2314D01*
X-33Y-2323D01*
X-26Y-2330D01*
X-19Y-2335D01*
X-10Y-2338D01*
X-1Y-2339D01*
X-201D01*
X-191Y-2338D01*
X-183Y-2335D01*
X-175Y-2330D01*
X-169Y-2323D01*
X-163Y-2314D01*
X-159Y-2303D01*
X-155Y-2289D01*
X-153Y-2274D01*
X-151Y-2257D01*
X-151Y-2238D01*
X-51D01*
X-50Y-2257D01*
D02*
G37*
G36*
X-9462Y-2698D02*
X-9437Y-2690D01*
X-9387Y-2670D01*
X-9280Y-2929D01*
X-9329Y-2951D01*
X-9352Y-2963D01*
X-9300Y-3089D01*
X-9313Y-3065D01*
X-9330Y-3047D01*
X-9351Y-3033D01*
X-9376Y-3023D01*
X-9405Y-3019D01*
X-9438Y-3019D01*
X-9462Y-3042D01*
X-9479Y-3066D01*
X-9490Y-3090D01*
X-9495Y-3115D01*
X-9494Y-3140D01*
X-9486Y-3166D01*
X-9539Y-3040D01*
X-9564Y-3048D01*
X-9614Y-3067D01*
X-9721Y-2809D01*
X-9672Y-2787D01*
X-9649Y-2775D01*
X-9701Y-2649D01*
X-9688Y-2672D01*
X-9671Y-2691D01*
X-9650Y-2705D01*
X-9625Y-2714D01*
X-9596Y-2719D01*
X-9563Y-2719D01*
X-9539Y-2695D01*
X-9522Y-2672D01*
X-9511Y-2647D01*
X-9506Y-2622D01*
X-9507Y-2597D01*
X-9514Y-2572D01*
X-9462Y-2698D01*
D02*
G37*
G36*
X-10117Y-2969D02*
X-10092Y-2961D01*
X-10042Y-2942D01*
X-9935Y-3200D01*
X-9984Y-3222D01*
X-10007Y-3234D01*
X-9955Y-3360D01*
X-9968Y-3337D01*
X-9985Y-3318D01*
X-10006Y-3304D01*
X-10031Y-3295D01*
X-10060Y-3290D01*
X-10093Y-3290D01*
X-10116Y-3313D01*
X-10134Y-3337D01*
X-10145Y-3362D01*
X-10150Y-3386D01*
X-10149Y-3412D01*
X-10141Y-3437D01*
X-10193Y-3311D01*
X-10218Y-3319D01*
X-10268Y-3338D01*
X-10375Y-3080D01*
X-10327Y-3058D01*
X-10303Y-3046D01*
X-10355Y-2920D01*
X-10343Y-2943D01*
X-10326Y-2962D01*
X-10305Y-2976D01*
X-10280Y-2986D01*
X-10250Y-2990D01*
X-10217Y-2990D01*
X-10194Y-2967D01*
X-10176Y-2943D01*
X-10165Y-2918D01*
X-10160Y-2894D01*
X-10162Y-2868D01*
X-10169Y-2843D01*
X-10117Y-2969D01*
D02*
G37*
G36*
X-6786Y-3083D02*
X-6773Y-3122D01*
X-6768Y-3132D01*
X-6763Y-3141D01*
X-6758Y-3149D01*
X-6753Y-3156D01*
X-6748Y-3162D01*
X-6743Y-3167D01*
X-6879Y-3203D01*
X-6877Y-3197D01*
X-6875Y-3189D01*
X-6874Y-3180D01*
X-6874Y-3171D01*
X-6874Y-3161D01*
X-6876Y-3149D01*
X-6880Y-3123D01*
X-6887Y-3094D01*
X-6791Y-3068D01*
X-6786Y-3083D01*
D02*
G37*
G36*
X-9461Y-3281D02*
X-9476Y-3296D01*
X-9487Y-3315D01*
X-9493Y-3339D01*
X-9495Y-3367D01*
X-9493Y-3400D01*
X-9486Y-3436D01*
X-9484Y-3444D01*
X-9477Y-3458D01*
X-9471Y-3466D01*
X-9466Y-3470D01*
X-9476Y-3475D01*
X-9475Y-3477D01*
X-9460Y-3523D01*
X-9441Y-3572D01*
X-9700Y-3679D01*
X-9721Y-3631D01*
X-9745Y-3586D01*
X-9754Y-3590D01*
X-9754Y-3583D01*
X-9755Y-3573D01*
X-9756Y-3565D01*
X-9764Y-3551D01*
X-9785Y-3521D01*
X-9807Y-3496D01*
X-9828Y-3478D01*
X-9849Y-3465D01*
X-9870Y-3459D01*
X-9892Y-3459D01*
X-9913Y-3465D01*
X-9808Y-3421D01*
X-9822Y-3385D01*
X-9563Y-3278D01*
X-9549Y-3312D01*
X-9548Y-3313D01*
X-9442Y-3270D01*
X-9461Y-3281D01*
D02*
G37*
G36*
X8950Y-3210D02*
X8955Y-3216D01*
X8962Y-3222D01*
X8969Y-3228D01*
X8978Y-3234D01*
X8987Y-3240D01*
X9010Y-3252D01*
X9038Y-3264D01*
X9000Y-3357D01*
X8985Y-3351D01*
X8947Y-3338D01*
X8936Y-3336D01*
X8925Y-3334D01*
X8916Y-3333D01*
X8907Y-3332D01*
X8900Y-3333D01*
X8893Y-3334D01*
X8946Y-3205D01*
X8950Y-3210D01*
D02*
G37*
G36*
X9763Y-3403D02*
X9753Y-3400D01*
X9743Y-3399D01*
X9731Y-3399D01*
X9719Y-3401D01*
X9707Y-3405D01*
X9693Y-3410D01*
X9679Y-3417D01*
X9665Y-3426D01*
X9649Y-3436D01*
X9633Y-3449D01*
X9524Y-3394D01*
X9538Y-3382D01*
X9549Y-3372D01*
X9558Y-3362D01*
X9564Y-3353D01*
X9568Y-3345D01*
X9570Y-3337D01*
X9569Y-3331D01*
X9566Y-3325D01*
X9561Y-3320D01*
X9553Y-3316D01*
X9763Y-3403D01*
D02*
G37*
G36*
X-3880Y-3280D02*
X-3873Y-3284D01*
X-3865Y-3287D01*
X-3855Y-3289D01*
X-3845Y-3291D01*
X-3834Y-3293D01*
X-3808Y-3296D01*
X-3778Y-3296D01*
Y-3396D01*
X-3793Y-3397D01*
X-3834Y-3400D01*
X-3845Y-3402D01*
X-3855Y-3404D01*
X-3865Y-3406D01*
X-3873Y-3409D01*
X-3880Y-3413D01*
X-3885Y-3417D01*
Y-3276D01*
X-3880Y-3280D01*
D02*
G37*
G36*
X3881Y-3417D02*
X3875Y-3413D01*
X3868Y-3409D01*
X3860Y-3406D01*
X3851Y-3404D01*
X3841Y-3402D01*
X3829Y-3400D01*
X3803Y-3397D01*
X3773Y-3396D01*
Y-3296D01*
X3789Y-3296D01*
X3829Y-3293D01*
X3841Y-3291D01*
X3851Y-3289D01*
X3860Y-3287D01*
X3868Y-3284D01*
X3875Y-3280D01*
X3881Y-3276D01*
Y-3417D01*
D02*
G37*
G36*
X-10170Y-3573D02*
X-10189Y-3590D01*
X-10203Y-3611D01*
X-10212Y-3636D01*
X-10217Y-3665D01*
X-10217Y-3699D01*
X-10212Y-3736D01*
X-10208Y-3753D01*
X-10205Y-3760D01*
X-10199Y-3767D01*
X-10193Y-3772D01*
X-10203Y-3776D01*
X-10202Y-3778D01*
X-10188Y-3824D01*
X-10169Y-3874D01*
X-10427Y-3981D01*
X-10449Y-3932D01*
X-10471Y-3889D01*
X-10472Y-3887D01*
X-10482Y-3891D01*
X-10481Y-3884D01*
X-10482Y-3875D01*
X-10483Y-3870D01*
X-10494Y-3853D01*
X-10517Y-3823D01*
X-10540Y-3799D01*
X-10564Y-3782D01*
X-10589Y-3771D01*
X-10613Y-3766D01*
X-10639Y-3767D01*
X-10664Y-3774D01*
X-10536Y-3721D01*
X-10549Y-3686D01*
X-10291Y-3579D01*
X-10276Y-3613D01*
X-10276Y-3614D01*
X-10147Y-3560D01*
X-10170Y-3573D01*
D02*
G37*
G36*
X8837Y-3483D02*
X8842Y-3489D01*
X8849Y-3495D01*
X8856Y-3501D01*
X8865Y-3507D01*
X8874Y-3513D01*
X8897Y-3525D01*
X8925Y-3537D01*
X8887Y-3630D01*
X8872Y-3624D01*
X8834Y-3611D01*
X8823Y-3608D01*
X8812Y-3607D01*
X8803Y-3605D01*
X8794Y-3605D01*
X8787Y-3606D01*
X8780Y-3607D01*
X8833Y-3477D01*
X8837Y-3483D01*
D02*
G37*
G36*
X10426Y-3680D02*
X10415Y-3677D01*
X10404Y-3675D01*
X10392Y-3675D01*
X10380Y-3677D01*
X10368Y-3680D01*
X10355Y-3685D01*
X10341Y-3692D01*
X10327Y-3701D01*
X10313Y-3711D01*
X10298Y-3723D01*
X10193Y-3677D01*
X10206Y-3665D01*
X10218Y-3654D01*
X10226Y-3643D01*
X10232Y-3634D01*
X10236Y-3625D01*
X10237Y-3617D01*
X10236Y-3610D01*
X10232Y-3604D01*
X10226Y-3598D01*
X10218Y-3594D01*
X10426Y-3680D01*
D02*
G37*
G36*
X-8709Y-3789D02*
X-8716Y-3788D01*
X-8724Y-3787D01*
X-8732Y-3787D01*
X-8742Y-3788D01*
X-8752Y-3790D01*
X-8763Y-3793D01*
X-8788Y-3801D01*
X-8816Y-3811D01*
X-8855Y-3719D01*
X-8840Y-3713D01*
X-8804Y-3695D01*
X-8794Y-3689D01*
X-8785Y-3683D01*
X-8778Y-3677D01*
X-8772Y-3671D01*
X-8767Y-3665D01*
X-8763Y-3659D01*
X-8709Y-3789D01*
D02*
G37*
G36*
X-8596Y-4062D02*
X-8603Y-4060D01*
X-8611Y-4060D01*
X-8619Y-4060D01*
X-8629Y-4061D01*
X-8639Y-4063D01*
X-8650Y-4066D01*
X-8675Y-4073D01*
X-8703Y-4084D01*
X-8742Y-3992D01*
X-8727Y-3986D01*
X-8691Y-3967D01*
X-8681Y-3961D01*
X-8672Y-3955D01*
X-8665Y-3949D01*
X-8659Y-3944D01*
X-8654Y-3938D01*
X-8650Y-3932D01*
X-8596Y-4062D01*
D02*
G37*
G36*
X9457Y-4255D02*
X9437Y-4305D01*
X9423Y-4354D01*
X9432Y-4357D01*
X9427Y-4361D01*
X9420Y-4369D01*
X9416Y-4376D01*
X9411Y-4391D01*
X9405Y-4428D01*
X9403Y-4460D01*
X9405Y-4488D01*
X9411Y-4512D01*
X9421Y-4532D01*
X9436Y-4547D01*
X9455Y-4558D01*
X9350Y-4514D01*
X9335Y-4550D01*
X9076Y-4443D01*
X9090Y-4408D01*
X9090Y-4407D01*
X8985Y-4363D01*
X9006Y-4369D01*
X9027Y-4368D01*
X9048Y-4362D01*
X9070Y-4350D01*
X9091Y-4331D01*
X9112Y-4307D01*
X9134Y-4276D01*
X9138Y-4269D01*
X9143Y-4254D01*
X9144Y-4244D01*
X9143Y-4238D01*
X9154Y-4242D01*
X9155Y-4240D01*
X9176Y-4197D01*
X9198Y-4148D01*
X9457Y-4255D01*
D02*
G37*
G36*
X-246Y-4350D02*
X-257Y-4361D01*
X-284Y-4392D01*
X-291Y-4401D01*
X-296Y-4410D01*
X-301Y-4418D01*
X-304Y-4426D01*
X-307Y-4433D01*
X-308Y-4440D01*
X-407Y-4341D01*
X-401Y-4340D01*
X-393Y-4337D01*
X-386Y-4334D01*
X-377Y-4329D01*
X-368Y-4323D01*
X-359Y-4317D01*
X-339Y-4300D01*
X-317Y-4279D01*
X-246Y-4350D01*
D02*
G37*
G36*
X324Y-4290D02*
X354Y-4317D01*
X364Y-4323D01*
X373Y-4329D01*
X381Y-4334D01*
X389Y-4337D01*
X396Y-4340D01*
X403Y-4341D01*
X304Y-4440D01*
X302Y-4433D01*
X300Y-4426D01*
X296Y-4418D01*
X292Y-4410D01*
X286Y-4401D01*
X279Y-4392D01*
X263Y-4372D01*
X242Y-4350D01*
X312Y-4279D01*
X324Y-4290D01*
D02*
G37*
G36*
X-9140Y-4354D02*
X-9140Y-4369D01*
X-9140Y-4381D01*
X-9138Y-4392D01*
X-9135Y-4400D01*
X-9131Y-4407D01*
X-9126Y-4411D01*
X-9120Y-4412D01*
X-9113Y-4412D01*
X-9105Y-4410D01*
X-9315Y-4497D01*
X-9306Y-4492D01*
X-9297Y-4485D01*
X-9289Y-4477D01*
X-9282Y-4467D01*
X-9275Y-4456D01*
X-9269Y-4443D01*
X-9265Y-4428D01*
X-9260Y-4412D01*
X-9257Y-4394D01*
X-9254Y-4375D01*
X-9138Y-4337D01*
X-9140Y-4354D01*
D02*
G37*
G36*
X8749Y-4416D02*
X8748Y-4441D01*
X8753Y-4466D01*
X8764Y-4490D01*
X8781Y-4514D01*
X8805Y-4537D01*
X8838Y-4538D01*
X8867Y-4533D01*
X8892Y-4524D01*
X8913Y-4510D01*
X8930Y-4491D01*
X8943Y-4467D01*
X8891Y-4593D01*
X8914Y-4605D01*
X8963Y-4627D01*
X8856Y-4886D01*
X8806Y-4867D01*
X8781Y-4859D01*
X8728Y-4985D01*
X8736Y-4959D01*
X8737Y-4934D01*
X8732Y-4909D01*
X8721Y-4885D01*
X8704Y-4861D01*
X8680Y-4838D01*
X8647Y-4838D01*
X8618Y-4842D01*
X8593Y-4851D01*
X8572Y-4865D01*
X8555Y-4884D01*
X8542Y-4908D01*
X8594Y-4782D01*
X8571Y-4770D01*
X8522Y-4748D01*
X8629Y-4489D01*
X8679Y-4508D01*
X8704Y-4516D01*
X8756Y-4390D01*
X8749Y-4416D01*
D02*
G37*
G36*
X10184Y-4557D02*
X10165Y-4607D01*
X10150Y-4652D01*
X10150Y-4655D01*
X10159Y-4659D01*
X10154Y-4663D01*
X10148Y-4670D01*
X10145Y-4675D01*
X10141Y-4694D01*
X10136Y-4732D01*
X10136Y-4765D01*
X10140Y-4794D01*
X10149Y-4819D01*
X10163Y-4840D01*
X10182Y-4857D01*
X10206Y-4870D01*
X10077Y-4817D01*
X10062Y-4851D01*
X9803Y-4744D01*
X9817Y-4710D01*
X9818Y-4709D01*
X9688Y-4656D01*
X9714Y-4663D01*
X9739Y-4665D01*
X9764Y-4660D01*
X9788Y-4648D01*
X9812Y-4631D01*
X9836Y-4607D01*
X9859Y-4577D01*
X9868Y-4563D01*
X9870Y-4555D01*
X9871Y-4546D01*
X9871Y-4539D01*
X9880Y-4543D01*
X9881Y-4541D01*
X9904Y-4498D01*
X9925Y-4450D01*
X10184Y-4557D01*
D02*
G37*
G36*
X-9813Y-4627D02*
X-9812Y-4643D01*
X-9811Y-4656D01*
X-9809Y-4668D01*
X-9805Y-4676D01*
X-9801Y-4683D01*
X-9795Y-4687D01*
X-9788Y-4689D01*
X-9780Y-4688D01*
X-9770Y-4685D01*
X-9978Y-4771D01*
X-9968Y-4766D01*
X-9959Y-4760D01*
X-9951Y-4751D01*
X-9944Y-4742D01*
X-9938Y-4730D01*
X-9932Y-4718D01*
X-9927Y-4703D01*
X-9923Y-4687D01*
X-9920Y-4670D01*
X-9918Y-4650D01*
X-9811Y-4609D01*
X-9813Y-4627D01*
D02*
G37*
G36*
X9404Y-4687D02*
X9402Y-4712D01*
X9407Y-4737D01*
X9418Y-4761D01*
X9436Y-4785D01*
X9459Y-4809D01*
X9492Y-4809D01*
X9522Y-4804D01*
X9547Y-4795D01*
X9568Y-4781D01*
X9585Y-4762D01*
X9597Y-4739D01*
X9545Y-4865D01*
X9569Y-4877D01*
X9617Y-4898D01*
X9510Y-5157D01*
X9460Y-5138D01*
X9435Y-5130D01*
X9383Y-5256D01*
X9391Y-5230D01*
X9392Y-5205D01*
X9387Y-5180D01*
X9376Y-5156D01*
X9358Y-5132D01*
X9335Y-5109D01*
X9302Y-5109D01*
X9273Y-5113D01*
X9248Y-5123D01*
X9227Y-5137D01*
X9210Y-5155D01*
X9197Y-5179D01*
X9249Y-5053D01*
X9226Y-5041D01*
X9177Y-5019D01*
X9284Y-4760D01*
X9334Y-4779D01*
X9359Y-4787D01*
X9411Y-4661D01*
X9404Y-4687D01*
D02*
G37*
G36*
X4385Y-5021D02*
X4379Y-5019D01*
X4371Y-5018D01*
X4363Y-5017D01*
X4353Y-5017D01*
X4343Y-5017D01*
X4331Y-5018D01*
X4306Y-5023D01*
X4276Y-5030D01*
X4250Y-4933D01*
X4265Y-4929D01*
X4304Y-4915D01*
X4314Y-4911D01*
X4324Y-4906D01*
X4332Y-4901D01*
X4339Y-4896D01*
X4345Y-4891D01*
X4349Y-4886D01*
X4385Y-5021D01*
D02*
G37*
G36*
X-4997Y-5366D02*
X-4984Y-5405D01*
X-4979Y-5415D01*
X-4974Y-5424D01*
X-4969Y-5433D01*
X-4964Y-5440D01*
X-4959Y-5445D01*
X-4954Y-5450D01*
X-5090Y-5486D01*
X-5087Y-5480D01*
X-5086Y-5472D01*
X-5085Y-5464D01*
X-5085Y-5454D01*
X-5085Y-5444D01*
X-5087Y-5432D01*
X-5091Y-5407D01*
X-5098Y-5377D01*
X-5001Y-5351D01*
X-4997Y-5366D01*
D02*
G37*
G36*
X7478Y-5448D02*
X7469Y-5496D01*
X7468Y-5515D01*
X7468Y-5531D01*
X7471Y-5543D01*
X7475Y-5552D01*
X7481Y-5557D01*
X7489Y-5558D01*
X7500Y-5557D01*
X7275Y-5627D01*
X7286Y-5622D01*
X7297Y-5615D01*
X7307Y-5605D01*
X7317Y-5592D01*
X7327Y-5576D01*
X7337Y-5558D01*
X7346Y-5537D01*
X7354Y-5514D01*
X7371Y-5459D01*
X7486Y-5418D01*
X7478Y-5448D01*
D02*
G37*
G36*
X-7722Y-6125D02*
X-7702Y-6108D01*
X-7663Y-6071D01*
X-7465Y-6269D01*
X-7502Y-6308D01*
X-7519Y-6328D01*
X-7423Y-6424D01*
X-7443Y-6407D01*
X-7466Y-6397D01*
X-7491Y-6392D01*
X-7518Y-6393D01*
X-7547Y-6400D01*
X-7577Y-6413D01*
X-7590Y-6443D01*
X-7597Y-6472D01*
X-7598Y-6498D01*
X-7593Y-6523D01*
X-7582Y-6546D01*
X-7565Y-6567D01*
X-7662Y-6470D01*
X-7682Y-6487D01*
X-7720Y-6524D01*
X-7918Y-6326D01*
X-7882Y-6287D01*
X-7865Y-6267D01*
X-7961Y-6171D01*
X-7940Y-6188D01*
X-7918Y-6199D01*
X-7893Y-6203D01*
X-7866Y-6202D01*
X-7837Y-6195D01*
X-7807Y-6183D01*
X-7794Y-6152D01*
X-7787Y-6123D01*
X-7786Y-6097D01*
X-7791Y-6072D01*
X-7802Y-6049D01*
X-7819Y-6028D01*
X-7722Y-6125D01*
D02*
G37*
G36*
X7053Y-6404D02*
X7055Y-6412D01*
X7059Y-6419D01*
X7063Y-6428D01*
X7069Y-6437D01*
X7076Y-6446D01*
X7092Y-6466D01*
X7113Y-6488D01*
X7042Y-6559D01*
X7031Y-6548D01*
X7000Y-6521D01*
X6991Y-6514D01*
X6982Y-6509D01*
X6974Y-6504D01*
X6966Y-6501D01*
X6959Y-6498D01*
X6952Y-6497D01*
X7051Y-6398D01*
X7053Y-6404D01*
D02*
G37*
G36*
X-8223Y-6626D02*
X-8203Y-6609D01*
X-8164Y-6572D01*
X-7966Y-6770D01*
X-8003Y-6809D01*
X-8020Y-6829D01*
X-7924Y-6925D01*
X-7944Y-6909D01*
X-7967Y-6898D01*
X-7992Y-6893D01*
X-8019Y-6894D01*
X-8048Y-6901D01*
X-8078Y-6914D01*
X-8091Y-6944D01*
X-8098Y-6973D01*
X-8099Y-7000D01*
X-8094Y-7024D01*
X-8083Y-7047D01*
X-8066Y-7068D01*
X-8163Y-6972D01*
X-8183Y-6988D01*
X-8222Y-7025D01*
X-8419Y-6827D01*
X-8383Y-6788D01*
X-8366Y-6768D01*
X-8462Y-6672D01*
X-8441Y-6689D01*
X-8419Y-6700D01*
X-8394Y-6705D01*
X-8367Y-6704D01*
X-8338Y-6697D01*
X-8308Y-6684D01*
X-8295Y-6653D01*
X-8288Y-6625D01*
X-8287Y-6598D01*
X-8292Y-6573D01*
X-8303Y-6550D01*
X-8320Y-6529D01*
X-8223Y-6626D01*
D02*
G37*
G36*
X-7498Y-6663D02*
X-7506Y-6683D01*
X-7508Y-6705D01*
X-7505Y-6729D01*
X-7496Y-6756D01*
X-7482Y-6785D01*
X-7462Y-6816D01*
X-7457Y-6823D01*
X-7445Y-6833D01*
X-7436Y-6838D01*
X-7430Y-6840D01*
X-7438Y-6848D01*
X-7436Y-6850D01*
X-7405Y-6886D01*
X-7368Y-6925D01*
X-7566Y-7123D01*
X-7604Y-7086D01*
X-7644Y-7054D01*
X-7650Y-7061D01*
X-7652Y-7054D01*
X-7657Y-7046D01*
X-7662Y-7039D01*
X-7674Y-7029D01*
X-7706Y-7009D01*
X-7735Y-6994D01*
X-7761Y-6986D01*
X-7786Y-6982D01*
X-7808Y-6984D01*
X-7828Y-6992D01*
X-7845Y-7006D01*
X-7764Y-6925D01*
X-7791Y-6897D01*
X-7593Y-6699D01*
X-7567Y-6725D01*
X-7566Y-6726D01*
X-7485Y-6646D01*
X-7498Y-6663D01*
D02*
G37*
G36*
X6844Y-6613D02*
X6846Y-6620D01*
X6850Y-6628D01*
X6854Y-6637D01*
X6860Y-6645D01*
X6867Y-6655D01*
X6883Y-6675D01*
X6904Y-6697D01*
X6834Y-6767D01*
X6822Y-6756D01*
X6791Y-6730D01*
X6782Y-6723D01*
X6773Y-6718D01*
X6765Y-6713D01*
X6757Y-6709D01*
X6750Y-6707D01*
X6743Y-6706D01*
X6842Y-6606D01*
X6844Y-6613D01*
D02*
G37*
G36*
X-2610Y-6744D02*
X-2597Y-6783D01*
X-2592Y-6793D01*
X-2588Y-6802D01*
X-2583Y-6811D01*
X-2578Y-6817D01*
X-2573Y-6823D01*
X-2567Y-6828D01*
X-2703Y-6864D01*
X-2701Y-6858D01*
X-2699Y-6850D01*
X-2698Y-6842D01*
X-2698Y-6832D01*
X-2699Y-6822D01*
X-2700Y-6810D01*
X-2704Y-6785D01*
X-2711Y-6755D01*
X-2615Y-6729D01*
X-2610Y-6744D01*
D02*
G37*
G36*
X1514Y-6727D02*
X1551Y-6745D01*
X1561Y-6749D01*
X1571Y-6752D01*
X1581Y-6755D01*
X1589Y-6756D01*
X1597Y-6756D01*
X1604Y-6756D01*
X1533Y-6878D01*
X1530Y-6871D01*
X1526Y-6865D01*
X1521Y-6858D01*
X1514Y-6852D01*
X1506Y-6844D01*
X1497Y-6837D01*
X1476Y-6822D01*
X1450Y-6806D01*
X1500Y-6720D01*
X1514Y-6727D01*
D02*
G37*
G36*
X7728Y-6895D02*
X7720Y-6888D01*
X7711Y-6883D01*
X7700Y-6879D01*
X7688Y-6876D01*
X7675Y-6874D01*
X7661Y-6874D01*
X7646Y-6875D01*
X7629Y-6877D01*
X7611Y-6881D01*
X7592Y-6886D01*
X7513Y-6793D01*
X7529Y-6788D01*
X7543Y-6783D01*
X7555Y-6777D01*
X7564Y-6772D01*
X7570Y-6766D01*
X7575Y-6760D01*
X7576Y-6754D01*
X7576Y-6748D01*
X7573Y-6741D01*
X7567Y-6734D01*
X7728Y-6895D01*
D02*
G37*
G36*
X-6609Y-6845D02*
X-6615Y-6846D01*
X-6623Y-6849D01*
X-6631Y-6852D01*
X-6639Y-6857D01*
X-6648Y-6862D01*
X-6657Y-6869D01*
X-6677Y-6886D01*
X-6699Y-6907D01*
X-6770Y-6836D01*
X-6759Y-6825D01*
X-6732Y-6794D01*
X-6726Y-6785D01*
X-6720Y-6776D01*
X-6715Y-6767D01*
X-6712Y-6760D01*
X-6709Y-6752D01*
X-6708Y-6745D01*
X-6609Y-6845D01*
D02*
G37*
G36*
X-6400Y-7054D02*
X-6407Y-7055D01*
X-6414Y-7057D01*
X-6422Y-7061D01*
X-6430Y-7066D01*
X-6439Y-7071D01*
X-6448Y-7078D01*
X-6468Y-7095D01*
X-6490Y-7115D01*
X-6561Y-7045D01*
X-6550Y-7033D01*
X-6523Y-7003D01*
X-6517Y-6993D01*
X-6511Y-6985D01*
X-6506Y-6976D01*
X-6503Y-6968D01*
X-6500Y-6961D01*
X-6499Y-6954D01*
X-6400Y-7054D01*
D02*
G37*
G36*
X-8041Y-7204D02*
X-8052Y-7227D01*
X-8057Y-7252D01*
X-8056Y-7279D01*
X-8049Y-7308D01*
X-8036Y-7338D01*
X-8017Y-7371D01*
X-8007Y-7385D01*
X-8001Y-7390D01*
X-7993Y-7395D01*
X-7987Y-7397D01*
X-7994Y-7404D01*
X-7992Y-7406D01*
X-7961Y-7443D01*
X-7925Y-7481D01*
X-8123Y-7679D01*
X-8161Y-7643D01*
X-8198Y-7612D01*
X-8200Y-7610D01*
X-8207Y-7617D01*
X-8209Y-7611D01*
X-8214Y-7603D01*
X-8217Y-7599D01*
X-8233Y-7587D01*
X-8266Y-7568D01*
X-8297Y-7555D01*
X-8325Y-7548D01*
X-8352Y-7547D01*
X-8377Y-7552D01*
X-8400Y-7563D01*
X-8420Y-7580D01*
X-8322Y-7481D01*
X-8348Y-7454D01*
X-8150Y-7256D01*
X-8124Y-7282D01*
X-8123Y-7282D01*
X-8025Y-7184D01*
X-8041Y-7204D01*
D02*
G37*
G36*
X-5745Y-7161D02*
X-5715Y-7186D01*
X-5699Y-7197D01*
X-5682Y-7207D01*
X-5665Y-7216D01*
X-5647Y-7224D01*
X-5610Y-7238D01*
X-5591Y-7244D01*
X-5450Y-7385D01*
X-5467Y-7381D01*
X-5482Y-7378D01*
X-5493Y-7378D01*
X-5501Y-7379D01*
X-5506Y-7382D01*
X-5507Y-7387D01*
X-5505Y-7394D01*
X-5500Y-7402D01*
X-5492Y-7413D01*
X-5480Y-7425D01*
X-5759Y-7148D01*
X-5745Y-7161D01*
D02*
G37*
G36*
X8237Y-7402D02*
X8228Y-7395D01*
X8219Y-7389D01*
X8208Y-7385D01*
X8196Y-7382D01*
X8183Y-7380D01*
X8169Y-7380D01*
X8154Y-7382D01*
X8137Y-7384D01*
X8120Y-7388D01*
X8101Y-7394D01*
X8022Y-7311D01*
X8039Y-7305D01*
X8054Y-7299D01*
X8066Y-7292D01*
X8076Y-7286D01*
X8083Y-7279D01*
X8087Y-7272D01*
X8088Y-7265D01*
X8087Y-7258D01*
X8084Y-7250D01*
X8077Y-7243D01*
X8237Y-7402D01*
D02*
G37*
G36*
X7120Y-7564D02*
X7084Y-7602D01*
X7052Y-7641D01*
X7058Y-7648D01*
X7052Y-7650D01*
X7043Y-7655D01*
X7037Y-7660D01*
X7027Y-7672D01*
X7007Y-7703D01*
X6992Y-7732D01*
X6983Y-7759D01*
X6980Y-7783D01*
X6982Y-7806D01*
X6990Y-7825D01*
X7003Y-7843D01*
X6923Y-7762D01*
X6895Y-7789D01*
X6697Y-7591D01*
X6723Y-7565D01*
X6724Y-7563D01*
X6643Y-7482D01*
X6661Y-7496D01*
X6680Y-7504D01*
X6702Y-7506D01*
X6727Y-7503D01*
X6754Y-7494D01*
X6783Y-7479D01*
X6814Y-7459D01*
X6820Y-7454D01*
X6831Y-7442D01*
X6836Y-7434D01*
X6838Y-7427D01*
X6846Y-7435D01*
X6848Y-7434D01*
X6884Y-7402D01*
X6922Y-7366D01*
X7120Y-7564D01*
D02*
G37*
G36*
X6405Y-7441D02*
X6394Y-7464D01*
X6389Y-7489D01*
X6390Y-7515D01*
X6397Y-7544D01*
X6410Y-7575D01*
X6441Y-7587D01*
X6469Y-7594D01*
X6496Y-7595D01*
X6521Y-7591D01*
X6544Y-7580D01*
X6565Y-7563D01*
X6468Y-7659D01*
X6485Y-7679D01*
X6522Y-7718D01*
X6324Y-7916D01*
X6285Y-7879D01*
X6265Y-7862D01*
X6169Y-7959D01*
X6185Y-7938D01*
X6196Y-7915D01*
X6201Y-7890D01*
X6200Y-7864D01*
X6193Y-7835D01*
X6180Y-7804D01*
X6150Y-7792D01*
X6121Y-7785D01*
X6094Y-7784D01*
X6070Y-7789D01*
X6047Y-7799D01*
X6026Y-7816D01*
X6122Y-7720D01*
X6105Y-7700D01*
X6069Y-7661D01*
X6267Y-7463D01*
X6305Y-7500D01*
X6326Y-7517D01*
X6422Y-7420D01*
X6405Y-7441D01*
D02*
G37*
G36*
X-6790Y-7532D02*
X-6785Y-7546D01*
X-6779Y-7558D01*
X-6774Y-7567D01*
X-6768Y-7574D01*
X-6762Y-7578D01*
X-6756Y-7580D01*
X-6749Y-7579D01*
X-6743Y-7576D01*
X-6736Y-7570D01*
X-6897Y-7731D01*
X-6890Y-7723D01*
X-6884Y-7714D01*
X-6880Y-7703D01*
X-6877Y-7692D01*
X-6876Y-7678D01*
X-6876Y-7664D01*
X-6877Y-7649D01*
X-6879Y-7632D01*
X-6883Y-7614D01*
X-6888Y-7595D01*
X-6796Y-7515D01*
X-6790Y-7532D01*
D02*
G37*
G36*
X4708Y-7836D02*
X4705Y-7852D01*
X4704Y-7866D01*
X4705Y-7877D01*
X4707Y-7885D01*
X4712Y-7892D01*
X4717Y-7895D01*
X4725Y-7896D01*
X4734Y-7895D01*
X4745Y-7892D01*
X4512Y-7988D01*
X4523Y-7983D01*
X4534Y-7976D01*
X4544Y-7967D01*
X4553Y-7957D01*
X4562Y-7946D01*
X4570Y-7933D01*
X4577Y-7918D01*
X4584Y-7903D01*
X4590Y-7885D01*
X4596Y-7866D01*
X4712Y-7818D01*
X4708Y-7836D01*
D02*
G37*
G36*
X7677Y-8120D02*
X7640Y-8159D01*
X7609Y-8196D01*
X7608Y-8198D01*
X7615Y-8205D01*
X7609Y-8207D01*
X7600Y-8212D01*
X7596Y-8214D01*
X7585Y-8231D01*
X7566Y-8263D01*
X7553Y-8294D01*
X7546Y-8323D01*
X7545Y-8350D01*
X7550Y-8375D01*
X7560Y-8397D01*
X7577Y-8418D01*
X7479Y-8320D01*
X7452Y-8346D01*
X7254Y-8148D01*
X7280Y-8121D01*
X7280Y-8121D01*
X7181Y-8022D01*
X7202Y-8039D01*
X7225Y-8050D01*
X7250Y-8055D01*
X7276Y-8054D01*
X7305Y-8047D01*
X7336Y-8034D01*
X7369Y-8015D01*
X7383Y-8005D01*
X7388Y-7999D01*
X7393Y-7991D01*
X7395Y-7984D01*
X7402Y-7991D01*
X7404Y-7990D01*
X7440Y-7959D01*
X7479Y-7922D01*
X7677Y-8120D01*
D02*
G37*
G36*
X6906Y-7942D02*
X6895Y-7965D01*
X6890Y-7990D01*
X6891Y-8016D01*
X6898Y-8045D01*
X6911Y-8076D01*
X6942Y-8088D01*
X6970Y-8095D01*
X6997Y-8097D01*
X7022Y-8092D01*
X7045Y-8081D01*
X7066Y-8064D01*
X6969Y-8160D01*
X6986Y-8180D01*
X7023Y-8219D01*
X6825Y-8417D01*
X6786Y-8380D01*
X6766Y-8364D01*
X6670Y-8460D01*
X6686Y-8439D01*
X6697Y-8416D01*
X6702Y-8392D01*
X6701Y-8365D01*
X6694Y-8336D01*
X6681Y-8306D01*
X6651Y-8293D01*
X6622Y-8286D01*
X6595Y-8285D01*
X6571Y-8290D01*
X6548Y-8300D01*
X6527Y-8317D01*
X6623Y-8221D01*
X6607Y-8201D01*
X6570Y-8162D01*
X6768Y-7964D01*
X6807Y-8001D01*
X6827Y-8018D01*
X6923Y-7921D01*
X6906Y-7942D01*
D02*
G37*
G36*
X-7307Y-8042D02*
X-7301Y-8056D01*
X-7295Y-8069D01*
X-7288Y-8078D01*
X-7281Y-8085D01*
X-7274Y-8089D01*
X-7267Y-8091D01*
X-7260Y-8090D01*
X-7253Y-8086D01*
X-7245Y-8080D01*
X-7404Y-8239D01*
X-7397Y-8231D01*
X-7392Y-8221D01*
X-7387Y-8210D01*
X-7384Y-8199D01*
X-7383Y-8186D01*
X-7383Y-8171D01*
X-7384Y-8156D01*
X-7387Y-8140D01*
X-7391Y-8122D01*
X-7396Y-8103D01*
X-7313Y-8024D01*
X-7307Y-8042D01*
D02*
G37*
G36*
X-4491Y-8632D02*
X-4511Y-8682D01*
X-4519Y-8707D01*
X-4393Y-8759D01*
X-4418Y-8751D01*
X-4443Y-8750D01*
X-4468Y-8755D01*
X-4493Y-8766D01*
X-4516Y-8784D01*
X-4540Y-8807D01*
X-4540Y-8840D01*
X-4535Y-8869D01*
X-4526Y-8894D01*
X-4512Y-8915D01*
X-4493Y-8932D01*
X-4470Y-8945D01*
X-4596Y-8893D01*
X-4608Y-8916D01*
X-4630Y-8965D01*
X-4888Y-8858D01*
X-4869Y-8808D01*
X-4861Y-8783D01*
X-4987Y-8731D01*
X-4961Y-8738D01*
X-4936Y-8740D01*
X-4911Y-8735D01*
X-4887Y-8724D01*
X-4863Y-8706D01*
X-4840Y-8683D01*
X-4840Y-8650D01*
X-4844Y-8620D01*
X-4854Y-8595D01*
X-4868Y-8574D01*
X-4886Y-8557D01*
X-4910Y-8544D01*
X-4784Y-8597D01*
X-4772Y-8573D01*
X-4750Y-8525D01*
X-4491Y-8632D01*
D02*
G37*
G36*
X4058Y-8601D02*
X4058Y-8608D01*
X4058Y-8617D01*
X4059Y-8626D01*
X4061Y-8637D01*
X4063Y-8648D01*
X4071Y-8673D01*
X4082Y-8701D01*
X3990Y-8739D01*
X3983Y-8725D01*
X3965Y-8688D01*
X3959Y-8679D01*
X3953Y-8670D01*
X3947Y-8663D01*
X3941Y-8656D01*
X3935Y-8651D01*
X3930Y-8647D01*
X4059Y-8594D01*
X4058Y-8601D01*
D02*
G37*
G36*
X449Y-8534D02*
X454Y-8544D01*
X461Y-8553D01*
X469Y-8559D01*
X472Y-8558D01*
X484Y-8552D01*
X493Y-8545D01*
Y-8570D01*
X498Y-8572D01*
X517Y-8576D01*
X538Y-8579D01*
X562Y-8581D01*
X588Y-8581D01*
Y-8741D01*
X562Y-8742D01*
X517Y-8747D01*
X498Y-8751D01*
X493Y-8753D01*
Y-8778D01*
X484Y-8771D01*
X472Y-8765D01*
X469Y-8764D01*
X461Y-8770D01*
X454Y-8779D01*
X449Y-8789D01*
X448Y-8800D01*
Y-8756D01*
X443Y-8754D01*
X426Y-8750D01*
X407Y-8747D01*
X363Y-8743D01*
X338Y-8742D01*
X311Y-8741D01*
Y-8581D01*
X338Y-8581D01*
X407Y-8576D01*
X426Y-8572D01*
X443Y-8568D01*
X448Y-8567D01*
Y-8522D01*
X449Y-8534D01*
D02*
G37*
G36*
X-2197Y-8862D02*
X-2213Y-8872D01*
X-2226Y-8881D01*
X-2236Y-8890D01*
X-2243Y-8898D01*
X-2248Y-8906D01*
X-2249Y-8913D01*
X-2248Y-8920D01*
X-2243Y-8926D01*
X-2236Y-8932D01*
X-2225Y-8937D01*
X-2458Y-8841D01*
X-2447Y-8845D01*
X-2434Y-8847D01*
X-2421Y-8848D01*
X-2408Y-8848D01*
X-2393Y-8846D01*
X-2379Y-8842D01*
X-2363Y-8837D01*
X-2347Y-8831D01*
X-2330Y-8823D01*
X-2313Y-8814D01*
X-2197Y-8862D01*
D02*
G37*
G36*
X3785Y-8714D02*
X3785Y-8721D01*
X3785Y-8730D01*
X3786Y-8739D01*
X3788Y-8750D01*
X3791Y-8761D01*
X3798Y-8786D01*
X3809Y-8814D01*
X3717Y-8852D01*
X3711Y-8838D01*
X3692Y-8801D01*
X3686Y-8792D01*
X3680Y-8783D01*
X3674Y-8776D01*
X3668Y-8769D01*
X3663Y-8764D01*
X3657Y-8760D01*
X3787Y-8707D01*
X3785Y-8714D01*
D02*
G37*
G36*
X-3480Y-8836D02*
X-3485Y-8840D01*
X-3491Y-8845D01*
X-3497Y-8851D01*
X-3503Y-8858D01*
X-3509Y-8867D01*
X-3515Y-8877D01*
X-3527Y-8900D01*
X-3540Y-8928D01*
X-3632Y-8889D01*
X-3626Y-8875D01*
X-3613Y-8836D01*
X-3611Y-8825D01*
X-3609Y-8815D01*
X-3608Y-8805D01*
X-3608Y-8797D01*
X-3608Y-8789D01*
X-3609Y-8782D01*
X-3480Y-8836D01*
D02*
G37*
G36*
X-3207Y-8949D02*
X-3213Y-8953D01*
X-3218Y-8958D01*
X-3224Y-8964D01*
X-3230Y-8971D01*
X-3236Y-8980D01*
X-3242Y-8990D01*
X-3254Y-9013D01*
X-3267Y-9041D01*
X-3359Y-9002D01*
X-3353Y-8988D01*
X-3341Y-8949D01*
X-3338Y-8938D01*
X-3336Y-8928D01*
X-3335Y-8918D01*
X-3335Y-8910D01*
X-3335Y-8902D01*
X-3337Y-8895D01*
X-3207Y-8949D01*
D02*
G37*
G36*
X-4371Y-9008D02*
X-4371Y-9029D01*
X-4364Y-9051D01*
X-4352Y-9072D01*
X-4334Y-9093D01*
X-4309Y-9115D01*
X-4279Y-9136D01*
X-4272Y-9140D01*
X-4256Y-9145D01*
X-4247Y-9146D01*
X-4240Y-9146D01*
X-4244Y-9156D01*
X-4242Y-9157D01*
X-4199Y-9179D01*
X-4151Y-9200D01*
X-4258Y-9459D01*
X-4307Y-9440D01*
X-4356Y-9425D01*
X-4360Y-9434D01*
X-4364Y-9429D01*
X-4371Y-9423D01*
X-4378Y-9418D01*
X-4394Y-9414D01*
X-4430Y-9407D01*
X-4463Y-9405D01*
X-4491Y-9407D01*
X-4515Y-9413D01*
X-4534Y-9424D01*
X-4549Y-9439D01*
X-4560Y-9458D01*
X-4517Y-9352D01*
X-4552Y-9337D01*
X-4445Y-9078D01*
X-4411Y-9092D01*
X-4409Y-9093D01*
X-4365Y-8987D01*
X-4371Y-9008D01*
D02*
G37*
G36*
X-144Y-8820D02*
X-147Y-8829D01*
X-150Y-8843D01*
X-152Y-8863D01*
X-156Y-8955D01*
X-158Y-9098D01*
X-438D01*
X-438Y-9044D01*
X-451Y-8820D01*
X-454Y-8818D01*
X-141D01*
X-144Y-8820D01*
D02*
G37*
G36*
X1461Y-9101D02*
X1434Y-9117D01*
X1391Y-9146D01*
X1376Y-9159D01*
X1366Y-9170D01*
X1359Y-9180D01*
X1356Y-9189D01*
X1358Y-9197D01*
X1363Y-9203D01*
X1373Y-9208D01*
X1135Y-9117D01*
X1148Y-9120D01*
X1162Y-9122D01*
X1177Y-9121D01*
X1193Y-9119D01*
X1211Y-9115D01*
X1231Y-9109D01*
X1251Y-9101D01*
X1274Y-9091D01*
X1322Y-9065D01*
X1461Y-9101D01*
D02*
G37*
G36*
X4494Y-9313D02*
X4489Y-9303D01*
X4483Y-9294D01*
X4475Y-9286D01*
X4465Y-9279D01*
X4454Y-9273D01*
X4441Y-9267D01*
X4426Y-9262D01*
X4410Y-9258D01*
X4392Y-9255D01*
X4372Y-9252D01*
X4334Y-9136D01*
X4351Y-9138D01*
X4366Y-9138D01*
X4379Y-9137D01*
X4390Y-9136D01*
X4398Y-9133D01*
X4404Y-9129D01*
X4408Y-9124D01*
X4410Y-9118D01*
X4410Y-9111D01*
X4407Y-9103D01*
X4494Y-9313D01*
D02*
G37*
G36*
X-4763Y-9286D02*
X-4782Y-9336D01*
X-4790Y-9361D01*
X-4664Y-9414D01*
X-4689Y-9406D01*
X-4715Y-9405D01*
X-4739Y-9410D01*
X-4764Y-9421D01*
X-4788Y-9438D01*
X-4811Y-9462D01*
X-4811Y-9495D01*
X-4807Y-9524D01*
X-4797Y-9549D01*
X-4783Y-9570D01*
X-4764Y-9587D01*
X-4741Y-9600D01*
X-4867Y-9548D01*
X-4879Y-9571D01*
X-4901Y-9620D01*
X-5159Y-9513D01*
X-5140Y-9463D01*
X-5132Y-9438D01*
X-5258Y-9386D01*
X-5233Y-9393D01*
X-5207Y-9394D01*
X-5183Y-9389D01*
X-5158Y-9378D01*
X-5134Y-9361D01*
X-5111Y-9337D01*
X-5111Y-9304D01*
X-5116Y-9275D01*
X-5125Y-9250D01*
X-5139Y-9229D01*
X-5158Y-9212D01*
X-5181Y-9199D01*
X-5055Y-9251D01*
X-5043Y-9228D01*
X-5021Y-9179D01*
X-4763Y-9286D01*
D02*
G37*
G36*
X3677Y-9697D02*
X3628Y-9719D01*
X3584Y-9743D01*
X3587Y-9752D01*
X3581Y-9751D01*
X3571Y-9752D01*
X3563Y-9754D01*
X3549Y-9762D01*
X3518Y-9783D01*
X3494Y-9804D01*
X3476Y-9826D01*
X3463Y-9847D01*
X3457Y-9868D01*
X3456Y-9889D01*
X3462Y-9911D01*
X3419Y-9805D01*
X3383Y-9819D01*
X3275Y-9561D01*
X3310Y-9546D01*
X3311Y-9546D01*
X3267Y-9440D01*
X3278Y-9459D01*
X3293Y-9474D01*
X3313Y-9484D01*
X3337Y-9491D01*
X3365Y-9493D01*
X3397Y-9490D01*
X3434Y-9484D01*
X3442Y-9482D01*
X3456Y-9475D01*
X3464Y-9469D01*
X3468Y-9464D01*
X3472Y-9474D01*
X3475Y-9473D01*
X3520Y-9458D01*
X3570Y-9439D01*
X3677Y-9697D01*
D02*
G37*
G36*
X458Y-9509D02*
X454Y-9516D01*
X451Y-9524D01*
X449Y-9533D01*
X446Y-9543D01*
X445Y-9554D01*
X442Y-9580D01*
X441Y-9611D01*
X341D01*
X341Y-9595D01*
X338Y-9554D01*
X336Y-9543D01*
X334Y-9533D01*
X331Y-9524D01*
X328Y-9516D01*
X325Y-9509D01*
X321Y-9503D01*
X462D01*
X458Y-9509D01*
D02*
G37*
G36*
X162Y-9509D02*
X159Y-9516D01*
X156Y-9524D01*
X153Y-9533D01*
X151Y-9543D01*
X149Y-9554D01*
X147Y-9580D01*
X146Y-9611D01*
X46D01*
X46Y-9595D01*
X43Y-9554D01*
X41Y-9543D01*
X39Y-9533D01*
X36Y-9524D01*
X33Y-9516D01*
X30Y-9509D01*
X26Y-9503D01*
X166D01*
X162Y-9509D01*
D02*
G37*
G36*
X2949Y-9327D02*
X2961Y-9350D01*
X3087Y-9298D01*
X3063Y-9311D01*
X3044Y-9327D01*
X3030Y-9349D01*
X3021Y-9374D01*
X3017Y-9403D01*
X3017Y-9436D01*
X3040Y-9459D01*
X3064Y-9477D01*
X3088Y-9488D01*
X3113Y-9493D01*
X3138Y-9492D01*
X3164Y-9484D01*
X3038Y-9536D01*
X3046Y-9561D01*
X3065Y-9611D01*
X2806Y-9718D01*
X2784Y-9670D01*
X2772Y-9646D01*
X2646Y-9698D01*
X2670Y-9686D01*
X2689Y-9669D01*
X2703Y-9648D01*
X2712Y-9623D01*
X2717Y-9593D01*
X2716Y-9560D01*
X2693Y-9537D01*
X2669Y-9519D01*
X2645Y-9508D01*
X2620Y-9503D01*
X2595Y-9505D01*
X2569Y-9512D01*
X2695Y-9460D01*
X2687Y-9435D01*
X2668Y-9385D01*
X2927Y-9278D01*
X2949Y-9327D01*
D02*
G37*
G36*
X-3385Y-9540D02*
X-3374Y-9551D01*
X-3364Y-9560D01*
X-3355Y-9567D01*
X-3347Y-9571D01*
X-3340Y-9572D01*
X-3333Y-9572D01*
X-3328Y-9569D01*
X-3323Y-9563D01*
X-3318Y-9555D01*
X-3406Y-9766D01*
X-3402Y-9756D01*
X-3401Y-9745D01*
X-3401Y-9734D01*
X-3403Y-9722D01*
X-3407Y-9709D01*
X-3412Y-9696D01*
X-3419Y-9682D01*
X-3428Y-9667D01*
X-3439Y-9652D01*
X-3451Y-9635D01*
X-3396Y-9527D01*
X-3385Y-9540D01*
D02*
G37*
G36*
X4769Y-9976D02*
X4764Y-9966D01*
X4757Y-9957D01*
X4749Y-9949D01*
X4739Y-9942D01*
X4728Y-9935D01*
X4715Y-9930D01*
X4701Y-9925D01*
X4685Y-9921D01*
X4667Y-9918D01*
X4648Y-9916D01*
X4607Y-9809D01*
X4625Y-9810D01*
X4641Y-9810D01*
X4654Y-9809D01*
X4665Y-9806D01*
X4674Y-9803D01*
X4680Y-9798D01*
X4685Y-9792D01*
X4686Y-9785D01*
X4686Y-9777D01*
X4683Y-9768D01*
X4769Y-9976D01*
D02*
G37*
G36*
X-4666Y-9716D02*
X-4667Y-9742D01*
X-4662Y-9766D01*
X-4651Y-9791D01*
X-4633Y-9815D01*
X-4610Y-9838D01*
X-4580Y-9861D01*
X-4565Y-9870D01*
X-4558Y-9873D01*
X-4548Y-9874D01*
X-4541Y-9873D01*
X-4545Y-9882D01*
X-4543Y-9884D01*
X-4501Y-9906D01*
X-4452Y-9928D01*
X-4559Y-10186D01*
X-4609Y-10167D01*
X-4655Y-10153D01*
X-4657Y-10152D01*
X-4661Y-10161D01*
X-4665Y-10156D01*
X-4673Y-10150D01*
X-4677Y-10148D01*
X-4696Y-10143D01*
X-4734Y-10138D01*
X-4767Y-10138D01*
X-4797Y-10143D01*
X-4822Y-10152D01*
X-4843Y-10166D01*
X-4860Y-10185D01*
X-4872Y-10208D01*
X-4819Y-10079D01*
X-4854Y-10064D01*
X-4746Y-9806D01*
X-4712Y-9820D01*
X-4712Y-9820D01*
X-4658Y-9691D01*
X-4666Y-9716D01*
D02*
G37*
G36*
X-845Y-9755D02*
X-843Y-9781D01*
X-707D01*
X-733Y-9784D01*
X-757Y-9792D01*
X-778Y-9806D01*
X-796Y-9826D01*
X-812Y-9851D01*
X-824Y-9882D01*
X-812Y-9912D01*
X-796Y-9938D01*
X-778Y-9957D01*
X-757Y-9971D01*
X-733Y-9980D01*
X-707Y-9983D01*
X-843D01*
X-845Y-10009D01*
X-847Y-10062D01*
X-1127D01*
X-1128Y-10009D01*
X-1130Y-9983D01*
X-1267D01*
X-1240Y-9980D01*
X-1216Y-9971D01*
X-1195Y-9957D01*
X-1177Y-9938D01*
X-1162Y-9912D01*
X-1149Y-9882D01*
X-1162Y-9851D01*
X-1177Y-9826D01*
X-1195Y-9806D01*
X-1216Y-9792D01*
X-1240Y-9784D01*
X-1267Y-9781D01*
X-1130D01*
X-1128Y-9755D01*
X-1127Y-9702D01*
X-847D01*
X-845Y-9755D01*
D02*
G37*
G36*
X-157Y-9938D02*
X-147Y-10101D01*
X-145Y-10110D01*
X-142Y-10116D01*
X-314Y-10116D01*
Y-10376D01*
X-367Y-10377D01*
X-418Y-10383D01*
Y-10392D01*
X-424Y-10389D01*
X-433Y-10386D01*
X-441Y-10385D01*
X-457Y-10387D01*
X-493Y-10395D01*
X-524Y-10405D01*
X-549Y-10418D01*
X-569Y-10432D01*
X-583Y-10450D01*
X-591Y-10469D01*
X-594Y-10491D01*
Y-10377D01*
X-633Y-10376D01*
X-633Y-10096D01*
X-596Y-10096D01*
X-594Y-10096D01*
Y-9982D01*
X-591Y-10003D01*
X-583Y-10023D01*
X-569Y-10040D01*
X-549Y-10055D01*
X-524Y-10068D01*
X-493Y-10078D01*
X-457Y-10086D01*
X-449Y-10087D01*
X-445Y-10087D01*
X-443Y-10072D01*
X-440Y-10029D01*
X-438Y-9901D01*
X-158Y-9901D01*
X-157Y-9938D01*
D02*
G37*
G36*
X589Y-10333D02*
X589Y-10323D01*
X586Y-10312D01*
X581Y-10302D01*
X575Y-10292D01*
X567Y-10281D01*
X557Y-10271D01*
X545Y-10261D01*
X531Y-10251D01*
X516Y-10241D01*
X499Y-10231D01*
X508Y-10109D01*
X524Y-10117D01*
X537Y-10123D01*
X550Y-10128D01*
X560Y-10130D01*
X569Y-10131D01*
X576Y-10130D01*
X582Y-10126D01*
X586Y-10122D01*
X589Y-10115D01*
X589Y-10106D01*
Y-10333D01*
D02*
G37*
G36*
X3220Y-9981D02*
X3232Y-10005D01*
X3358Y-9953D01*
X3334Y-9965D01*
X3316Y-9982D01*
X3302Y-10003D01*
X3292Y-10028D01*
X3288Y-10058D01*
X3288Y-10091D01*
X3311Y-10114D01*
X3335Y-10132D01*
X3359Y-10143D01*
X3384Y-10148D01*
X3409Y-10146D01*
X3435Y-10139D01*
X3309Y-10191D01*
X3317Y-10216D01*
X3336Y-10266D01*
X3077Y-10373D01*
X3056Y-10324D01*
X3044Y-10301D01*
X2918Y-10353D01*
X2941Y-10340D01*
X2960Y-10323D01*
X2974Y-10302D01*
X2983Y-10277D01*
X2988Y-10248D01*
X2988Y-10215D01*
X2964Y-10192D01*
X2940Y-10174D01*
X2916Y-10163D01*
X2891Y-10158D01*
X2866Y-10159D01*
X2840Y-10167D01*
X2966Y-10115D01*
X2958Y-10090D01*
X2939Y-10040D01*
X3198Y-9933D01*
X3220Y-9981D01*
D02*
G37*
G36*
X-3667Y-10209D02*
X-3656Y-10220D01*
X-3646Y-10229D01*
X-3636Y-10235D01*
X-3627Y-10238D01*
X-3619Y-10240D01*
X-3612Y-10238D01*
X-3606Y-10235D01*
X-3601Y-10229D01*
X-3596Y-10220D01*
X-3682Y-10428D01*
X-3679Y-10417D01*
X-3677Y-10406D01*
X-3677Y-10395D01*
X-3679Y-10383D01*
X-3683Y-10370D01*
X-3688Y-10357D01*
X-3695Y-10344D01*
X-3703Y-10330D01*
X-3713Y-10315D01*
X-3725Y-10300D01*
X-3679Y-10195D01*
X-3667Y-10209D01*
D02*
G37*
G36*
X3571Y-10168D02*
X3587Y-10187D01*
X3609Y-10201D01*
X3634Y-10210D01*
X3663Y-10215D01*
X3696Y-10214D01*
X3734Y-10209D01*
X3751Y-10206D01*
X3757Y-10202D01*
X3765Y-10196D01*
X3769Y-10191D01*
X3773Y-10200D01*
X3776Y-10200D01*
X3821Y-10185D01*
X3871Y-10166D01*
X3978Y-10425D01*
X3929Y-10447D01*
X3887Y-10469D01*
X3885Y-10470D01*
X3889Y-10479D01*
X3882Y-10479D01*
X3872Y-10480D01*
X3868Y-10481D01*
X3851Y-10491D01*
X3821Y-10515D01*
X3797Y-10538D01*
X3779Y-10562D01*
X3768Y-10586D01*
X3763Y-10611D01*
X3765Y-10636D01*
X3772Y-10662D01*
X3719Y-10533D01*
X3684Y-10547D01*
X3577Y-10288D01*
X3611Y-10274D01*
X3611Y-10274D01*
X3558Y-10145D01*
X3571Y-10168D01*
D02*
G37*
G36*
X-845Y-10464D02*
X-843Y-10490D01*
X-707D01*
X-733Y-10493D01*
X-757Y-10501D01*
X-778Y-10515D01*
X-796Y-10535D01*
X-812Y-10560D01*
X-824Y-10591D01*
X-812Y-10621D01*
X-796Y-10646D01*
X-778Y-10666D01*
X-757Y-10680D01*
X-733Y-10689D01*
X-707Y-10691D01*
X-843D01*
X-845Y-10718D01*
X-847Y-10771D01*
X-1127D01*
X-1128Y-10718D01*
X-1130Y-10691D01*
X-1267D01*
X-1240Y-10689D01*
X-1216Y-10680D01*
X-1195Y-10666D01*
X-1177Y-10646D01*
X-1162Y-10621D01*
X-1149Y-10591D01*
X-1162Y-10560D01*
X-1177Y-10535D01*
X-1195Y-10515D01*
X-1216Y-10501D01*
X-1240Y-10493D01*
X-1267Y-10490D01*
X-1130D01*
X-1128Y-10464D01*
X-1127Y-10410D01*
X-847D01*
X-845Y-10464D01*
D02*
G37*
G36*
X589Y-11051D02*
X589Y-11040D01*
X586Y-11030D01*
X581Y-11019D01*
X575Y-11009D01*
X567Y-10998D01*
X557Y-10988D01*
X545Y-10978D01*
X532Y-10969D01*
X517Y-10959D01*
X500Y-10950D01*
X502Y-10835D01*
X519Y-10843D01*
X533Y-10849D01*
X547Y-10853D01*
X558Y-10855D01*
X568Y-10856D01*
X575Y-10854D01*
X582Y-10850D01*
X586Y-10844D01*
X589Y-10836D01*
X589Y-10826D01*
Y-11051D01*
D02*
G37*
G36*
X-592Y-10770D02*
X-584Y-10794D01*
X-570Y-10815D01*
X-550Y-10833D01*
X-525Y-10849D01*
X-494Y-10861D01*
X-458Y-10871D01*
X-440Y-10874D01*
X-433Y-10873D01*
X-424Y-10871D01*
X-418Y-10868D01*
Y-10878D01*
X-415Y-10878D01*
X-368Y-10882D01*
X-314Y-10884D01*
Y-11164D01*
X-368Y-11165D01*
X-415Y-11169D01*
X-418Y-11170D01*
Y-11180D01*
X-424Y-11177D01*
X-433Y-11174D01*
X-438Y-11173D01*
X-458Y-11176D01*
X-494Y-11186D01*
X-525Y-11199D01*
X-550Y-11214D01*
X-570Y-11232D01*
X-584Y-11253D01*
X-592Y-11277D01*
X-595Y-11304D01*
Y-11164D01*
X-633Y-11164D01*
X-633Y-10884D01*
X-596Y-10883D01*
X-595Y-10883D01*
Y-10744D01*
X-592Y-10770D01*
D02*
G37*
D14*
X293Y-8661D02*
D03*
X-298Y-8661D02*
D03*
X293Y8661D02*
D03*
X-298D02*
D03*
D15*
X4821Y9072D02*
D03*
X3002Y9825D02*
D03*
X-4825Y-9072D02*
D03*
X-3007Y-9825D02*
D03*
D16*
X5122Y9800D02*
D03*
X4519Y8345D02*
D03*
X2701Y9098D02*
D03*
X3303Y10553D02*
D03*
X-5127Y-9800D02*
D03*
X-4524Y-8345D02*
D03*
X-2705Y-9098D02*
D03*
X-3308Y-10553D02*
D03*
D17*
X9070Y-4823D02*
D03*
X9823Y-3004D02*
D03*
X-9075Y4823D02*
D03*
X-9828Y3004D02*
D03*
D18*
X9797Y-5124D02*
D03*
X8342Y-4522D02*
D03*
X9096Y-2703D02*
D03*
X10551Y-3306D02*
D03*
X-9802Y5124D02*
D03*
X-8347Y4522D02*
D03*
X-9100Y2703D02*
D03*
X-10555Y3306D02*
D03*
D19*
X7938Y6548D02*
D03*
X6546Y7940D02*
D03*
X-7942Y-6548D02*
D03*
X-6550Y-7940D02*
D03*
D20*
X8494Y7105D02*
D03*
X7381Y5991D02*
D03*
X5989Y7383D02*
D03*
X7103Y8497D02*
D03*
X-8499Y-7105D02*
D03*
X-7386Y-5991D02*
D03*
X-5994Y-7383D02*
D03*
X-7107Y-8497D02*
D03*
D21*
X6546Y-7940D02*
D03*
X7938Y-6548D02*
D03*
X-6550Y7940D02*
D03*
X-7942Y6548D02*
D03*
D22*
X7103Y-8497D02*
D03*
X5989Y-7383D02*
D03*
X7381Y-5991D02*
D03*
X8494Y-7105D02*
D03*
X-7107Y8497D02*
D03*
X-5994Y7383D02*
D03*
X-7386Y5991D02*
D03*
X-8499Y7105D02*
D03*
D23*
X9823Y3004D02*
D03*
X9070Y4823D02*
D03*
X-9828Y-3004D02*
D03*
X-9075Y-4823D02*
D03*
D24*
X10551Y3306D02*
D03*
X9096Y2703D02*
D03*
X8342Y4522D02*
D03*
X9797Y5124D02*
D03*
X-10555Y-3306D02*
D03*
X-9100Y-2703D02*
D03*
X-8347Y-4522D02*
D03*
X-9802Y-5124D02*
D03*
D25*
X3002Y-9825D02*
D03*
X4821Y-9072D02*
D03*
X-3007Y9825D02*
D03*
X-4825Y9072D02*
D03*
D26*
X3303Y-10553D02*
D03*
X2701Y-9098D02*
D03*
X4519Y-8345D02*
D03*
X5122Y-9800D02*
D03*
X-3308Y10553D02*
D03*
X-2705Y9098D02*
D03*
X-4524Y8345D02*
D03*
X-5127Y9800D02*
D03*
D27*
X10234Y-984D02*
D03*
Y984D02*
D03*
X-10239D02*
D03*
Y-984D02*
D03*
D28*
X11021Y-984D02*
D03*
X9446Y-984D02*
D03*
X9446Y984D02*
D03*
X11021Y984D02*
D03*
X-11026Y984D02*
D03*
X-9451Y984D02*
D03*
Y-984D02*
D03*
X-11026Y-984D02*
D03*
D29*
X-987Y-10236D02*
D03*
X982Y-10236D02*
D03*
X982Y10236D02*
D03*
X-987Y10236D02*
D03*
D30*
X-987Y-11024D02*
D03*
Y-9449D02*
D03*
X982D02*
D03*
X982Y-11024D02*
D03*
X982Y11024D02*
D03*
X982Y9449D02*
D03*
X-987Y9449D02*
D03*
X-987Y11024D02*
D03*
D31*
X8659Y-295D02*
D03*
X8659Y295D02*
D03*
X-8664Y295D02*
D03*
X-8664Y-295D02*
D03*
D32*
X155Y-1535D02*
D03*
X-160Y-1535D02*
D03*
D33*
X-1411Y631D02*
D03*
X-1253Y904D02*
D03*
D34*
X1249Y904D02*
D03*
X1406Y631D02*
D03*
D35*
X-750Y-2264D02*
D03*
Y-2461D02*
D03*
Y-2657D02*
D03*
Y-2854D02*
D03*
Y-3051D02*
D03*
X-750Y-3248D02*
D03*
X746D02*
D03*
X746Y-3051D02*
D03*
Y-2854D02*
D03*
X746Y-2657D02*
D03*
X746Y-2461D02*
D03*
X746Y-2264D02*
D03*
D36*
X-494Y-3504D02*
D03*
X-298Y-3504D02*
D03*
X-101Y-3504D02*
D03*
X96Y-3504D02*
D03*
X293Y-3504D02*
D03*
X490Y-3504D02*
D03*
Y-2008D02*
D03*
X293Y-2008D02*
D03*
X96Y-2008D02*
D03*
X-101Y-2008D02*
D03*
X-298Y-2008D02*
D03*
X-494Y-2008D02*
D03*
D37*
X-2Y-2756D02*
D03*
D38*
X-1589Y1780D02*
D03*
X-1759Y1878D02*
D03*
X-1930Y1977D02*
D03*
X-2100Y2075D02*
D03*
X-2271Y2173D02*
D03*
X-2441Y2272D02*
D03*
X-3189Y976D02*
D03*
X-3019Y878D02*
D03*
X-2848Y779D02*
D03*
X-2678Y681D02*
D03*
X-2507Y582D02*
D03*
X-2337Y484D02*
D03*
D39*
X-2791Y2178D02*
D03*
X-2889Y2008D02*
D03*
X-2988Y1837D02*
D03*
X-3086Y1667D02*
D03*
X-3184Y1496D02*
D03*
X-3283Y1326D02*
D03*
X-1987Y578D02*
D03*
X-1889Y748D02*
D03*
X-1790Y919D02*
D03*
X-1692Y1089D02*
D03*
X-1594Y1260D02*
D03*
X-1495Y1430D02*
D03*
D40*
X-2389Y1378D02*
D03*
D41*
X2332Y484D02*
D03*
X2503Y582D02*
D03*
X2673Y681D02*
D03*
X2844Y779D02*
D03*
X3014Y878D02*
D03*
X3185Y976D02*
D03*
X2437Y2272D02*
D03*
X2266Y2173D02*
D03*
X2096Y2075D02*
D03*
X1925Y1977D02*
D03*
X1755Y1878D02*
D03*
X1584Y1780D02*
D03*
D42*
X3278Y1326D02*
D03*
X3180Y1496D02*
D03*
X3081Y1667D02*
D03*
X2983Y1837D02*
D03*
X2885Y2008D02*
D03*
X2786Y2178D02*
D03*
X1490Y1430D02*
D03*
X1589Y1260D02*
D03*
X1687Y1089D02*
D03*
X1786Y919D02*
D03*
X1884Y748D02*
D03*
X1983Y578D02*
D03*
D43*
X2384Y1378D02*
D03*
D44*
X-180Y-1063D02*
D03*
X175Y-1063D02*
D03*
D45*
X-834Y685D02*
D03*
X-1011Y378D02*
D03*
D46*
X1007Y378D02*
D03*
X830Y685D02*
D03*
D83*
X341Y-1838D02*
G03*
X293Y-1953I115J-115D01*
G01*
X-4399Y9800D02*
G03*
X-5127Y9800I-364J-878D01*
G01*
X-4004Y9405D02*
G03*
X-4399Y9800I-674J-279D01*
G01*
X-4167Y9025D02*
G03*
X-4553Y9185I-273J-113D01*
G01*
X-7827Y7383D02*
G03*
X-8499Y7105I0J-950D01*
G01*
X-7311Y7170D02*
G03*
X-7827Y7383I-516J-516D01*
G01*
X-7316Y6757D02*
G03*
X-7734Y6757I-209J-209D01*
G01*
X-10041Y3820D02*
G03*
X-10555Y3306I364J-878D01*
G01*
X-9482Y3820D02*
G03*
X-10041Y3820I-279J-674D01*
G01*
X-9329Y3437D02*
G03*
X-9715Y3277I-113J-273D01*
G01*
X-10748Y-312D02*
G03*
X-11026Y-984I672J-672D01*
G01*
X-10232Y-98D02*
G03*
X-10748Y-312I0J-730D01*
G01*
X-9943Y-394D02*
G03*
X-10239Y-689I0J-295D01*
G01*
X-9802Y-4397D02*
G03*
X-9802Y-5124I878J-364D01*
G01*
X-9407Y-4002D02*
G03*
X-9802Y-4397I279J-674D01*
G01*
X-9028Y-4165D02*
G03*
X-9187Y-4550I113J-273D01*
G01*
X-7386Y-7825D02*
G03*
X-7107Y-8497I950J0D01*
G01*
X-7172Y-7309D02*
G03*
X-7386Y-7825I516J-516D01*
G01*
X-6759Y-7314D02*
G03*
X-6759Y-7731I209J-209D01*
G01*
X-3823Y-10039D02*
G03*
X-3308Y-10553I878J364D01*
G01*
X-3823Y-9480D02*
G03*
X-3823Y-10039I674J-279D01*
G01*
X-3439Y-9327D02*
G03*
X-3280Y-9712I273J-113D01*
G01*
X310Y-10745D02*
G03*
X982Y-11024I672J672D01*
G01*
X96Y-10229D02*
G03*
X310Y-10745I730J0D01*
G01*
X391Y-9941D02*
G03*
X687Y-10236I295J0D01*
G01*
X4395Y-9800D02*
G03*
X5122Y-9800I364J878D01*
G01*
X4000Y-9405D02*
G03*
X4395Y-9800I674J279D01*
G01*
X4162Y-9025D02*
G03*
X4548Y-9185I273J113D01*
G01*
X7822Y-7383D02*
G03*
X8494Y-7105I0J950D01*
G01*
X7306Y-7170D02*
G03*
X7822Y-7383I516J516D01*
G01*
X7311Y-6757D02*
G03*
X7729Y-6757I209J209D01*
G01*
X10036Y-3820D02*
G03*
X10551Y-3306I-364J878D01*
G01*
X9478Y-3820D02*
G03*
X10036Y-3820I279J674D01*
G01*
X9324Y-3437D02*
G03*
X9710Y-3277I113J273D01*
G01*
X10743Y312D02*
G03*
X11021Y984I-672J672D01*
G01*
X10227Y98D02*
G03*
X10743Y312I0J730D01*
G01*
X9939Y394D02*
G03*
X10234Y689I0J295D01*
G01*
X9797Y4397D02*
G03*
X9797Y5124I-878J364D01*
G01*
X9402Y4002D02*
G03*
X9797Y4397I-279J674D01*
G01*
X9023Y4165D02*
G03*
X9183Y4550I-113J273D01*
G01*
X7381Y7825D02*
G03*
X7103Y8497I-950J0D01*
G01*
X7167Y7309D02*
G03*
X7381Y7825I-516J516D01*
G01*
X6755Y7314D02*
G03*
X6755Y7731I-209J209D01*
G01*
X3818Y10039D02*
G03*
X3303Y10553I-878J-364D01*
G01*
X3818Y9480D02*
G03*
X3818Y10039I-674J279D01*
G01*
X3435Y9327D02*
G03*
X3275Y9712I-273J113D01*
G01*
X-396Y9941D02*
G03*
X-691Y10236I-295J0D01*
G01*
X-101Y10229D02*
G03*
X-314Y10745I-730J0D01*
G01*
D02*
G03*
X-987Y11024I-672J-672D01*
G01*
X1373Y297D02*
X1583D01*
X1685Y399D01*
X1983Y578D02*
X2029Y497D01*
X1998Y382D02*
X2029Y497D01*
X1850Y297D02*
X1998Y382D01*
X1685Y399D02*
X1736Y587D01*
X824Y1693D02*
X1063Y1831D01*
X1736Y587D02*
X1760Y676D01*
X824Y2244D02*
X1068Y2385D01*
X1265Y2332D01*
X1584Y1780D01*
X1063Y1831D02*
X1295Y1769D01*
X1490Y1430D01*
X2332Y484D02*
X2644Y-56D01*
X2832Y-106D01*
X-1223Y2758D02*
X-1160Y2523D01*
X-1589Y1780D02*
X-1160Y2523D01*
X-871Y2146D02*
X-726Y2062D01*
X-1120Y2079D02*
X-871Y2146D01*
X-1015Y1713D02*
X-806Y1770D01*
X-1291Y1235D02*
X-1015Y1713D01*
X-1912Y-2264D02*
X-750D01*
X-2050Y-2126D02*
X-1912Y-2264D01*
X1258Y-2165D02*
X1258Y-1912D01*
X1159Y-2264D02*
X1258Y-2165D01*
X746Y-2264D02*
X1159D01*
X293Y-1953D02*
X293Y-2008D01*
X518Y-1750D02*
X628Y-1641D01*
X428Y-1750D02*
X518Y-1750D01*
X341Y-1838D02*
X428Y-1750D01*
X-987Y-2008D02*
X-494D01*
X-1056Y-1939D02*
X-987Y-2008D01*
X-1056Y-1575D02*
X-1056Y-1939D01*
X-101Y-2657D02*
Y-2008D01*
Y-2657D02*
X-2Y-2756D01*
X1340Y957D02*
X1431Y1009D01*
X-1495Y1430D02*
X-1120Y2079D01*
X1760Y676D02*
X1884Y748D01*
X-2369Y94D02*
X-2258Y30D01*
X682Y941D02*
X740Y1156D01*
X1104Y1366D01*
X1231Y1332D01*
X1287Y1235D01*
X1464Y1188D01*
X1589Y1260D01*
X682Y941D02*
X830Y685D01*
X1512Y988D02*
X1687Y1089D01*
X1431Y1009D02*
X1512Y988D01*
X1007Y378D02*
X1014Y405D01*
X1406Y631D02*
X1588Y737D01*
X1610Y817D01*
X1786Y919D01*
X1406Y631D02*
X1406Y631D01*
X1014Y405D02*
X1406Y631D01*
X2348Y1243D02*
X2384Y1378D01*
X1786Y919D02*
X2348Y1243D01*
X1610Y817D02*
X1786Y919D01*
X1464Y1188D02*
X1589Y1260D01*
X-1469Y1188D02*
X-1291Y1235D01*
X-1594Y1260D02*
X-1469Y1188D01*
X-2255Y1414D02*
X-1692Y1089D01*
X-2389Y1378D02*
X-2255Y1414D01*
X-1253Y904D02*
X-861Y678D01*
X-1253Y904D02*
X-1253D01*
X-1159Y122D02*
X-1011Y378D01*
X-1889Y748D02*
X-1764Y676D01*
X-1717Y499D01*
X-1772Y402D02*
X-1717Y499D01*
X-1772Y402D02*
X-1738Y275D01*
X-1374Y65D01*
X-1159Y122D01*
X-2431Y322D02*
X-2369Y94D01*
X-2431Y322D02*
X-2337Y484D01*
X-2004Y155D02*
X-1765Y18D01*
X-2076Y424D02*
X-2004Y155D01*
X-2076Y424D02*
X-1987Y578D01*
X-1529Y427D02*
X-1411Y631D01*
X-1692Y1089D02*
X-1516Y988D01*
X-1436Y1009D01*
X-1253Y904D01*
X-861Y678D02*
X-834Y685D01*
X-1790Y919D02*
X-1615Y817D01*
X-1593Y737D01*
X-1411Y631D01*
X490Y-2008D02*
X667D01*
X864Y-1811D01*
X864Y-1535D02*
X864Y-1811D01*
X-298Y-2008D02*
X-298Y-1864D01*
X-428Y-1734D02*
X-298Y-1864D01*
X-539Y-1734D02*
X-428Y-1734D01*
X470Y-1063D02*
X628Y-1220D01*
X628Y-1641D02*
X628Y-1220D01*
X155Y-1746D02*
Y-1535D01*
X96Y-1805D02*
X155Y-1746D01*
X96Y-1805D02*
X96Y-2008D01*
X175Y-1063D02*
X470Y-1063D01*
X-180Y-1063D02*
X-160Y-1083D01*
X-160Y-1535D01*
X-160Y-1746D02*
X-160Y-1535D01*
X-160Y-1746D02*
X-101Y-1805D01*
Y-2008D02*
Y-1805D01*
X-4004Y9405D02*
X-3706Y8684D01*
X-7311Y7170D02*
X-6759Y6618D01*
X-9482Y3820D02*
X-8761Y3522D01*
X-10232Y-98D02*
X-9451Y-98D01*
X-9943Y-394D02*
X-9451D01*
X-9407Y-4002D02*
X-8686Y-3703D01*
X-7172Y-7309D02*
X-6620Y-6757D01*
X-3823Y-9480D02*
X-3524Y-8759D01*
X391Y-9941D02*
Y-9449D01*
X96Y-10229D02*
X96Y-9449D01*
X3701Y-8684D02*
X4000Y-9405D01*
X6755Y-6618D02*
X7306Y-7170D01*
X8757Y-3522D02*
X9478Y-3820D01*
X9446Y98D02*
X10227D01*
X9446Y394D02*
X9939Y394D01*
X6615Y6757D02*
X7167Y7309D01*
X3519Y8759D02*
X3818Y9480D01*
X-396Y9449D02*
Y9941D01*
X-101Y9449D02*
Y10229D01*
X-5143Y9793D02*
X-5127Y9800D01*
X-4825Y9072D02*
X-4553Y9185D01*
X-4167Y9025D02*
X-3979Y8571D01*
X-8512Y7092D02*
X-8512Y7092D01*
X-8499Y7105D01*
X-7942Y6548D02*
X-7734Y6757D01*
X-7316D02*
X-6968Y6409D01*
X-10562Y3289D02*
X-10562Y3289D01*
X-10555Y3306D01*
X-9828Y3004D02*
X-9715Y3277D01*
X-9329Y3437D02*
X-8874Y3249D01*
X-11026Y-1002D02*
X-11026Y-1002D01*
X-11026Y-984D01*
X-10239D02*
Y-689D01*
X-9795Y-5141D02*
X-9795Y-5141D01*
X-9802Y-5124D02*
X-9795Y-5141D01*
X-9187Y-4550D02*
X-9075Y-4823D01*
X-9028Y-4165D02*
X-8573Y-3976D01*
X-7095Y-8509D02*
Y-8509D01*
X-7107Y-8497D02*
X-7095Y-8509D01*
X-6759Y-7731D02*
X-6550Y-7940D01*
X-6759Y-7314D02*
X-6411Y-6966D01*
X-3292Y-10560D02*
X-3292Y-10560D01*
X-3308Y-10553D02*
X-3292Y-10560D01*
X-3280Y-9712D02*
X-3007Y-9825D01*
X-3439Y-9327D02*
X-3251Y-8872D01*
X1000Y-11024D02*
X1000Y-11024D01*
X982Y-11024D02*
X1000D01*
X687Y-10236D02*
X982D01*
X5139Y-9793D02*
X5139D01*
X5122Y-9800D02*
X5139Y-9793D01*
X4548Y-9185D02*
X4821Y-9072D01*
X3974Y-8571D02*
X4162Y-9025D01*
X8507Y-7092D02*
Y-7092D01*
X8494Y-7105D02*
X8507Y-7092D01*
X7729Y-6757D02*
X7938Y-6548D01*
X6963Y-6409D02*
X7311Y-6757D01*
X10557Y-3289D02*
X10557Y-3289D01*
X10551Y-3306D02*
X10557Y-3289D01*
X9710Y-3277D02*
X9823Y-3004D01*
X8870Y-3249D02*
X9324Y-3437D01*
X11021Y1002D02*
Y1002D01*
X11021Y984D02*
X11021Y1002D01*
X10234Y689D02*
Y984D01*
X9790Y5141D02*
X9790Y5141D01*
X9790Y5141D02*
X9797Y5124D01*
X8681Y3703D02*
X9402Y4002D01*
X9070Y4823D02*
X9183Y4550D01*
X8568Y3976D02*
X9023Y4165D01*
X6285Y5448D02*
X6415Y5934D01*
X5942Y7396D02*
X5959Y7366D01*
X6415Y5934D02*
Y6223D01*
X5989Y6649D02*
X6415Y6223D01*
X5989Y6649D02*
Y7383D01*
X7090Y8509D02*
Y8509D01*
Y8509D02*
X7103Y8497D01*
X6546Y7940D02*
X6755Y7731D01*
X6407Y6966D02*
X6755Y7314D01*
X2701Y8363D02*
Y9098D01*
Y8363D02*
X3230Y7834D01*
X3999Y7834D01*
X3287Y10560D02*
X3287Y10560D01*
X3303Y10553D01*
X3002Y9825D02*
X3275Y9712D01*
X3246Y8872D02*
X3435Y9327D01*
X-987Y10236D02*
X-691Y10236D01*
X-1004Y11024D02*
X-987Y11024D01*
X-1004Y11024D02*
X-1004Y11024D01*
X-2266Y-4724D02*
X-2168Y-4626D01*
X2163Y-4626D02*
X2261Y-4724D01*
X1572Y-4431D02*
X2850D01*
X1491Y-4626D02*
X2163D01*
X1294Y-4429D02*
X1491Y-4626D01*
X686Y-4429D02*
X1294Y-4429D01*
X293Y-4035D02*
X686Y-4429D01*
X4427Y6600D02*
X4522Y6696D01*
X-4530Y6594D02*
X-4431Y6496D01*
X-1577Y4134D02*
X-101Y2657D01*
X-2168Y4134D02*
X-1577D01*
X-3152Y5118D02*
X-2168Y4134D01*
X-3546Y5118D02*
X-3152Y5118D01*
X-4237Y5809D02*
X-3546Y5118D01*
X-4237Y5809D02*
X-4237Y7084D01*
X-3841Y7480D01*
X-3250D01*
X-3054Y7677D01*
X-2505Y7677D01*
X-2210Y7972D01*
X-1971D01*
X-1479Y8465D01*
X-1479Y8858D01*
X-1669Y3930D02*
X-298Y2559D01*
X-2266Y3930D02*
X-1669D01*
X-3257Y4921D02*
X-2266Y3930D01*
X-3644Y4921D02*
X-3257D01*
X-4431Y5709D02*
X-3644Y4921D01*
X-4431Y5709D02*
Y6496D01*
X-1733Y3740D02*
X-494Y2502D01*
X-2376Y3740D02*
X-1733D01*
X-3349Y4713D02*
X-2376Y3740D01*
X-3731Y4713D02*
X-3349Y4713D01*
X-4431Y5413D02*
X-3731Y4713D01*
X-5416Y5413D02*
X-4431D01*
X-298Y98D02*
Y2559D01*
X4426Y98D02*
X4426Y-97D01*
X4624Y-295D01*
X4624Y-1575D01*
X4328Y-2461D02*
Y-2264D01*
X3935Y-2854D02*
X4328Y-2461D01*
X3639Y-2854D02*
X3935D01*
X4427Y-1772D02*
X4624Y-1575D01*
X4427Y-1772D02*
X4427Y-2165D01*
X4328Y-2264D02*
X4427Y-2165D01*
X3246Y-3248D02*
X3639Y-2854D01*
X1277Y-3248D02*
X3246D01*
X1080Y-3051D02*
X1277Y-3248D01*
X746Y-3051D02*
X1080Y-3051D01*
X746Y-2854D02*
X1179Y-2854D01*
X1376Y-3051D01*
X3147Y-3051D01*
X3541Y-2657D01*
X4132Y-2165D02*
X4230Y-2067D01*
Y-1673D01*
X4427Y-1476D01*
X490Y2502D02*
X490Y197D01*
X1728Y3740D02*
X2372Y3740D01*
X3344Y4713D01*
X490Y2502D02*
X1728Y3740D01*
X4427Y-1476D02*
Y-490D01*
X490Y197D02*
X982Y-295D01*
X4233Y-295D01*
X4427Y-490D01*
X746Y-2657D02*
X1281D01*
X1478Y-2854D01*
X3049Y-2854D01*
X3443Y-2461D01*
X3935Y-2067D02*
X4033Y-1969D01*
Y-1575D01*
X4230Y-1378D01*
X4230Y-591D02*
X4230Y-1378D01*
X4132Y-492D02*
X4230Y-591D01*
X883Y-492D02*
X4132Y-492D01*
X293Y98D02*
X883Y-492D01*
X293Y98D02*
X293Y2559D01*
X1664Y3930D01*
X2261Y3930D01*
X3253Y4921D01*
X3639D01*
X4427Y5709D01*
X3344Y4713D02*
X3726Y4713D01*
X4427Y5413D01*
X5411D01*
X4427Y5709D02*
Y6600D01*
X746Y-2461D02*
X1376Y-2461D01*
X1572Y-2657D01*
X2950D01*
X3344Y-2264D01*
X3639D01*
X3443Y-2461D02*
X3738Y-2461D01*
X3935Y-2264D01*
Y-2067D01*
X3541Y-2657D02*
X3836D01*
X4132Y-2362D01*
X4132Y-2165D02*
X4132Y-2362D01*
X3639Y-2264D02*
X3738Y-2165D01*
Y-1969D01*
X3836Y-1870D01*
X3836Y-1476D02*
X3836Y-1870D01*
X3836Y-1476D02*
X4034Y-1279D01*
X4034Y-788D01*
X3935Y-689D02*
X4034Y-788D01*
X785Y-689D02*
X3935Y-689D01*
X96Y-0D02*
X785Y-689D01*
X96Y-0D02*
X96Y2657D01*
X1572Y4134D01*
X2163D01*
X3147Y5118D01*
X3542Y5118D01*
X4233Y5809D01*
X4233Y7084D02*
X4233Y5809D01*
X3836Y7480D02*
X4233Y7084D01*
X3246Y7480D02*
X3836D01*
X3049Y7677D02*
X3246Y7480D01*
X2500Y7677D02*
X3049Y7677D01*
X2205Y7972D02*
X2500Y7677D01*
X1966Y7972D02*
X2205Y7972D01*
X1474Y8465D02*
X1966Y7972D01*
X1474Y8858D02*
X1474Y8465D01*
X-101Y-0D02*
Y2657D01*
X-790Y-689D02*
X-101Y-0D01*
X-3939Y-689D02*
X-790Y-689D01*
X-4038Y-788D02*
X-3939Y-689D01*
X-4038Y-788D02*
X-4038Y-1279D01*
X-3841Y-1476D01*
Y-1870D02*
Y-1476D01*
Y-1870D02*
X-3742Y-1969D01*
Y-2165D02*
Y-1969D01*
Y-2165D02*
X-3644Y-2264D01*
X-4524Y-2565D02*
Y-2367D01*
Y-2565D02*
X-4038Y-3051D01*
X-3742D01*
X-4333Y-2461D02*
Y-2264D01*
Y-2461D02*
X-3939Y-2854D01*
X-3644D01*
X-4136Y-2362D02*
Y-2165D01*
Y-2362D02*
X-3841Y-2657D01*
X-3546D01*
X-3939Y-2264D02*
Y-2067D01*
Y-2264D02*
X-3742Y-2461D01*
X-3447Y-2461D01*
X-3644Y-2264D02*
X-3349Y-2264D01*
X-2955Y-2657D01*
X-1577Y-2657D01*
X-1380Y-2461D01*
X-750Y-2461D01*
X-888Y-492D02*
X-298Y98D01*
X-4136Y-492D02*
X-888Y-492D01*
X-4235Y-591D02*
X-4136Y-492D01*
X-4235Y-1378D02*
X-4235Y-591D01*
X-4235Y-1378D02*
X-4038Y-1575D01*
X-4038Y-1969D02*
X-4038Y-1575D01*
X-4038Y-1969D02*
X-3939Y-2067D01*
X-3447Y-2461D02*
X-3054Y-2854D01*
X-1483D01*
X-1286Y-2657D01*
X-750Y-2657D01*
X-4431Y-490D02*
X-4237Y-295D01*
X-987Y-295D01*
X-494Y197D01*
X-4431Y-1476D02*
Y-490D01*
X-494Y197D02*
X-494Y2502D01*
X-4431Y-1476D02*
X-4235Y-1673D01*
Y-2067D02*
Y-1673D01*
Y-2067D02*
X-4136Y-2165D01*
X-3546Y-2657D02*
X-3152Y-3051D01*
X-1380D01*
X-1183Y-2854D01*
X-750D01*
X-4917Y893D02*
X-4628Y604D01*
X-4628Y-1575D01*
X-4431Y-1772D01*
Y-2165D02*
Y-1772D01*
Y-2165D02*
X-4333Y-2264D01*
X-3644Y-2854D02*
X-3250Y-3248D01*
X-1282Y-3248D01*
X-1085Y-3051D01*
X-750Y-3051D01*
X96Y-4134D02*
Y-3504D01*
Y-4134D02*
X391Y-4429D01*
X293Y-4035D02*
Y-3504D01*
X490Y-3937D02*
Y-3504D01*
Y-3937D02*
X785Y-4232D01*
X1373D01*
X1572Y-4431D01*
X2850D02*
X3147Y-4134D01*
X3147Y-3937D02*
X3147Y-4134D01*
X3147Y-3937D02*
X3738Y-3346D01*
X3935D01*
X746Y-3248D02*
X982Y-3248D01*
X1179Y-3445D01*
X3344D01*
X3738Y-3051D01*
X4624Y-1867D02*
X4624Y-2263D01*
X4624Y-1867D02*
X4916Y-1575D01*
X4519Y-2367D02*
X4624Y-2263D01*
X4916Y-1575D02*
X4919D01*
X3738Y-3051D02*
X4132Y-3051D01*
X4519Y-2663D01*
X4519Y-2367D01*
X-4924Y-1575D02*
X-4921D01*
X-4628Y-2263D02*
X-4524Y-2367D01*
X-4921Y-1575D02*
X-4628Y-1867D01*
X-4628Y-2263D01*
X-3742Y-3051D02*
X-3349Y-3445D01*
X-1183Y-3445D01*
X-987Y-3248D01*
X-750D01*
X-3939Y-3346D02*
X-3742D01*
X-3152Y-3937D01*
Y-4134D02*
Y-3937D01*
Y-4134D02*
X-2854Y-4431D01*
X-1577Y-4431D01*
X-2168Y-4626D02*
X-1496Y-4626D01*
X-1577Y-4431D02*
X-1378Y-4232D01*
X-790Y-4232D01*
X-494Y-3937D01*
X-494Y-3504D02*
X-494Y-3937D01*
X-1496Y-4626D02*
X-1299Y-4429D01*
X-691D01*
X-298Y-4035D01*
Y-3504D01*
X-396Y-4429D02*
X-101Y-4134D01*
Y-3504D01*
X5680Y1379D02*
X5877Y1720D01*
X5412Y1307D02*
X5680Y1379D01*
X4772Y198D02*
X5412Y1307D01*
X4992Y185D02*
X5435Y952D01*
X5827Y1058D02*
X5880Y1150D01*
X5435Y952D02*
X5827Y1058D01*
X5550Y695D02*
X5776Y756D01*
X5221Y125D02*
X5550Y695D01*
X5221Y125D02*
X5604Y-1304D01*
X5863Y-1454D01*
X4789Y1389D02*
X4793Y1405D01*
X4609Y1526D02*
X5860Y2248D01*
X4389Y703D02*
X4609Y1526D01*
X4426Y1647D02*
X5847Y2468D01*
X4242Y1769D02*
X5833Y2687D01*
X4058Y1890D02*
X5820Y2907D01*
X3875Y2011D02*
X5807Y3127D01*
X3691Y2132D02*
X4686Y2707D01*
X3319Y2359D02*
X3324Y2375D01*
X3032Y2093D02*
X3140Y2496D01*
X2952Y2601D02*
X2956Y2617D01*
X2433Y2529D02*
X2438Y2545D01*
X2060Y2768D02*
X2064Y2784D01*
X1725Y2324D02*
X1881Y2906D01*
X1495Y2328D02*
X1679Y3017D01*
X2164Y2350D02*
X2266Y2173D01*
X1944Y2337D02*
X2096Y2075D01*
X1944Y2337D02*
X2060Y2768D01*
X1725Y2324D02*
X1925Y1977D01*
X1495Y2328D02*
X1755Y1878D01*
X2164Y2350D02*
X2251Y2675D01*
X2387Y2357D02*
X2433Y2529D01*
X2387Y2357D02*
X2437Y2272D01*
X2786Y2178D02*
X2848Y2214D01*
X2952Y2601D01*
X2885Y2008D02*
X3032Y2093D01*
X3216Y1972D02*
X3319Y2359D01*
X2983Y1837D02*
X3216Y1972D01*
X3399Y1850D02*
X3507Y2254D01*
X3081Y1667D02*
X3399Y1850D01*
X3583Y1729D02*
X3691Y2132D01*
X3180Y1496D02*
X3583Y1729D01*
X3767Y1608D02*
X3875Y2011D01*
X3278Y1326D02*
X3767Y1608D01*
X3838Y1067D02*
X4058Y1890D01*
X4021Y946D02*
X4242Y1769D01*
X4205Y824D02*
X4426Y1647D01*
X3438Y381D02*
X4205Y824D01*
X3451Y162D02*
X4389Y703D01*
X3464Y-58D02*
X4572Y582D01*
X4789Y1389D01*
X3425Y601D02*
X4021Y946D01*
X3412Y821D02*
X3838Y1067D01*
X3249Y864D02*
X3412Y821D01*
X3128Y681D02*
X3425Y601D01*
X3007Y497D02*
X3438Y381D01*
X2885Y313D02*
X3451Y162D01*
X2764Y130D02*
X3464Y-58D01*
X3185Y976D02*
X3249Y864D01*
X3014Y878D02*
X3128Y681D01*
X2844Y779D02*
X3007Y497D01*
X2673Y681D02*
X2885Y313D01*
X2503Y582D02*
X2764Y130D01*
X4772Y198D02*
X5312Y-1818D01*
X4082Y-3949D02*
X5312Y-1818D01*
X3544Y-4093D02*
X4082Y-3949D01*
X3200Y-4690D02*
X3544Y-4093D01*
X2124Y-4978D02*
X3200Y-4690D01*
X1829Y-5489D02*
X2124Y-4978D01*
X1694Y-5525D02*
X1829Y-5489D01*
X1183Y-5230D02*
X1694Y-5525D01*
X780Y-5339D02*
X1183Y-5230D01*
X-161Y-4795D02*
X780Y-5339D01*
X-293Y-4831D02*
X-161Y-4795D01*
X-631Y-4636D02*
X-293Y-4831D01*
X-2247Y-5069D02*
X-631Y-4636D01*
X-3355Y-4429D02*
X-2247Y-5069D01*
X-3463Y-4026D02*
X-3355Y-4429D01*
X-4230Y-3583D02*
X-3463Y-4026D01*
X-4302Y-3314D02*
X-4230Y-3583D01*
X-4643Y-3117D02*
X-4302Y-3314D01*
X-5003Y-1772D02*
X-4643Y-3117D01*
X-5089Y-1723D02*
X-5003Y-1772D01*
X-5089Y-1723D02*
X-5089D01*
X-5259Y-1625D02*
X-5089Y-1723D01*
X-5295Y-1490D02*
X-5259Y-1625D01*
X-5295Y-1490D02*
X-5247Y-1407D01*
X-5248Y-1403D02*
X-5247Y-1407D01*
X-5248Y-1403D02*
X-5050Y-1060D01*
X-5121Y-795D02*
X-5050Y-1060D01*
X-5121Y-795D02*
X-4826Y-284D01*
X-5245Y1549D02*
X-5111Y1585D01*
X-5294Y1464D02*
X-4826Y-284D01*
X-5294Y1464D02*
X-5245Y1549D01*
X-5111Y1585D02*
X-5111Y1585D01*
X-5111Y1585D02*
X-4855Y1438D01*
X-4747Y1034D01*
X-4406Y838D01*
X-5183Y1854D02*
X-5183Y1854D01*
X-4671Y1559D01*
X-4999Y1976D02*
X-4999Y1976D01*
X-4487Y1680D01*
X-4815Y2097D02*
X-4815Y2097D01*
X-4304Y1802D01*
X-4632Y2218D02*
X-4632Y2218D01*
X-4120Y1923D01*
X-4196Y1398D02*
X-3855Y1201D01*
X-4304Y1802D02*
X-4196Y1398D01*
X-4379Y1277D02*
X-4038Y1080D01*
X-4487Y1680D02*
X-4379Y1277D01*
X-4563Y1156D02*
X-4222Y959D01*
X-4671Y1559D02*
X-4563Y1156D01*
X-4120Y1923D02*
X-4012Y1519D01*
X-3671Y1323D01*
X-3242Y885D02*
X-3189Y976D01*
X-3421Y837D02*
X-3242Y885D01*
X-3563Y919D02*
X-3421Y837D01*
X-3671Y1323D02*
X-3563Y919D01*
X-3087Y759D02*
X-3019Y878D01*
X-3492Y651D02*
X-3087Y759D01*
X-3747Y798D02*
X-3492Y651D01*
X-3855Y1201D02*
X-3747Y798D01*
X-2966Y575D02*
X-2848Y779D01*
X-3504Y431D02*
X-2966Y575D01*
X-3930Y677D02*
X-3504Y431D01*
X-4038Y1080D02*
X-3930Y677D01*
X-2845Y391D02*
X-2678Y681D01*
X-3517Y211D02*
X-2845Y391D01*
X-4114Y555D02*
X-3517Y211D01*
X-4222Y959D02*
X-4114Y555D01*
X-2724Y207D02*
X-2507Y582D01*
X-3531Y-9D02*
X-2724Y207D01*
X-4298Y434D02*
X-3531Y-9D01*
X-4406Y838D02*
X-4298Y434D01*
X-4081Y2582D02*
X-3569Y2287D01*
X-3897Y2703D02*
X-3386Y2408D01*
X-5248Y3710D02*
X-3202Y2529D01*
X-3530Y2946D02*
X-3018Y2650D01*
X-2185Y3306D02*
X-2185Y3306D01*
X-1674Y3011D01*
X-2369Y3185D02*
X-2369Y3185D01*
X-1857Y2889D01*
X-2552Y3063D02*
X-2552Y3063D01*
X-2041Y2768D01*
X-2742Y2945D02*
X-2742Y2945D01*
X-2230Y2650D01*
X-2948Y2837D02*
X-2948Y2837D01*
X-2436Y2542D01*
X-2910Y2247D02*
X-2791Y2178D01*
X-3094Y2126D02*
X-2889Y2008D01*
X-3202Y2529D02*
X-3094Y2126D01*
X-3018Y2650D02*
X-2910Y2247D01*
X-3386Y2408D02*
X-3277Y2005D01*
X-2988Y1837D01*
X-3461Y1883D02*
X-3086Y1667D01*
X-3569Y2287D02*
X-3461Y1883D01*
X-3753Y2165D02*
X-3645Y1762D01*
X-3184Y1496D01*
X-3937Y2044D02*
X-3828Y1641D01*
X-3283Y1326D01*
X-1674Y3011D02*
X-1494Y2338D01*
X-1759Y1878D02*
X-1494Y2338D01*
X-1857Y2889D02*
X-1713Y2352D01*
X-1930Y1977D02*
X-1713Y2352D01*
X-2041Y2768D02*
X-1933Y2365D01*
X-2100Y2075D02*
X-1933Y2365D01*
X-2230Y2650D02*
X-2156Y2372D01*
X-2271Y2173D02*
X-2156Y2372D01*
X-2441Y2272D02*
X-2389Y2363D01*
X-2436Y2542D02*
X-2389Y2363D01*
X5462Y5D02*
X5669Y363D01*
X5462Y5D02*
X5779Y-1179D01*
X4992Y185D02*
X5424Y-1428D01*
X5594Y-1527D01*
X5630Y-1661D01*
X4203Y-4133D02*
X5630Y-1661D01*
X3666Y-4277D02*
X4203Y-4133D01*
X3321Y-4874D02*
X3666Y-4277D01*
X2245Y-5162D02*
X3321Y-4874D01*
X1950Y-5673D02*
X2245Y-5162D01*
X1681Y-5745D02*
X1950Y-5673D01*
X1168Y-5449D02*
X1681Y-5745D01*
X765Y-5557D02*
X1168Y-5449D01*
X-171Y-5017D02*
X765Y-5557D01*
X-306Y-5053D02*
X-171Y-5017D01*
X-647Y-4856D02*
X-306Y-5053D01*
X-2260Y-5288D02*
X-647Y-4856D01*
X-3198Y-4747D02*
X-2260Y-5288D01*
X-3332Y-4783D02*
X-3198Y-4747D01*
X-3503Y-4685D02*
X-3332Y-4783D01*
X-3650Y-4135D02*
X-3503Y-4685D01*
X-4417Y-3693D02*
X-3650Y-4135D01*
X-4486Y-3435D02*
X-4417Y-3693D01*
X-4827Y-3238D02*
X-4486Y-3435D01*
X-5187Y-1894D02*
X-4827Y-3238D01*
X-5443Y-1746D02*
X-5187Y-1894D01*
X-5515Y-1477D02*
X-5443Y-1746D01*
X-5515Y-1477D02*
X-5269Y-1051D01*
X-5341Y-782D02*
X-5269Y-1051D01*
X-5341Y-782D02*
X-5046Y-271D01*
X-5586Y1746D02*
X-5046Y-271D01*
X-5586Y1746D02*
X-5488Y1917D01*
X-5353Y1953D01*
X-5183Y1854D01*
X-2065Y8238D02*
X-1819Y8664D01*
X-4217Y7661D02*
X-2065Y8238D01*
X-5202Y5955D02*
X-4217Y7661D01*
X-5874Y5775D02*
X-5202Y5955D01*
X-6369Y4918D02*
X-5874Y5775D01*
X-6369Y4918D02*
X-6333Y4784D01*
X-6253Y4738D01*
X-5168Y5028D01*
X-2185Y3306D01*
X-4768Y7297D02*
X-4732Y7164D01*
X-5321Y6144D02*
X-4732Y7164D01*
X-5992Y5964D02*
X-5321Y6144D01*
X-6584Y4939D02*
X-5992Y5964D01*
X-6584Y4939D02*
X-6512Y4670D01*
X-6255Y4521D01*
X-5182Y4809D01*
X-2369Y3185D01*
X-6611Y4498D02*
X-6270Y4301D01*
X-5195Y4589D01*
X-2552Y3063D01*
X5779Y-1179D02*
X6047Y-1333D01*
X5863Y-1454D02*
X5899Y-1589D01*
X4325Y-4317D02*
X5899Y-1589D01*
X3779Y-4463D02*
X4325Y-4317D01*
X3435Y-5059D02*
X3779Y-4463D01*
X2367Y-5346D02*
X3435Y-5059D01*
X2071Y-5857D02*
X2367Y-5346D01*
X1668Y-5965D02*
X2071Y-5857D01*
X1155Y-5669D02*
X1668Y-5965D01*
X752Y-5777D02*
X1155Y-5669D01*
X-184Y-5237D02*
X752Y-5777D01*
X-319Y-5273D02*
X-184Y-5237D01*
X-660Y-5076D02*
X-319Y-5273D01*
X-2273Y-5508D02*
X-660Y-5076D01*
X-3211Y-4967D02*
X-2273Y-5508D01*
X-3345Y-5003D02*
X-3211Y-4967D01*
X-3686Y-4806D02*
X-3345Y-5003D01*
X-3224Y-5186D02*
X-2285Y-5728D01*
X-3358Y-5222D02*
X-3224Y-5186D01*
X-3870Y-4927D02*
X-3358Y-5222D01*
X-3237Y-5406D02*
X-2300Y-5947D01*
X-3372Y-5442D02*
X-3237Y-5406D01*
X-4054Y-5048D02*
X-3372Y-5442D01*
X-3250Y-5626D02*
X-2307Y-6170D01*
X-3385Y-5662D02*
X-3250Y-5626D01*
X-4237Y-5170D02*
X-3385Y-5662D01*
X-3264Y-5845D02*
X-2326Y-6387D01*
X-3398Y-5881D02*
X-3264Y-5845D01*
X-4421Y-5291D02*
X-3398Y-5881D01*
X-3277Y-6065D02*
X-2318Y-6619D01*
X-3411Y-6101D02*
X-3277Y-6065D01*
X-4598Y-5416D02*
X-3411Y-6101D01*
X-3424Y-6321D02*
X-3290Y-6285D01*
X-2693Y-6629D01*
X-2621Y-6898D01*
X-4788Y-5533D02*
X-3424Y-6321D01*
X-3830Y-4268D02*
X-3686Y-4806D01*
X-4597Y-3825D02*
X-3830Y-4268D01*
X-4670Y-3556D02*
X-4597Y-3825D01*
X-5010Y-3359D02*
X-4670Y-3556D01*
X-5561Y-769D02*
X-5462Y-598D01*
X-5561Y-769D02*
X-5488Y-1038D01*
X-5735Y-1464D02*
X-5488Y-1038D01*
X-5780Y-756D02*
X-5485Y-244D01*
X-5780Y-756D02*
X-5708Y-1025D01*
X-5954Y-1451D02*
X-5708Y-1025D01*
X6047Y-1333D02*
X6119Y-1602D01*
X4446Y-4500D02*
X6119Y-1602D01*
X3908Y-4644D02*
X4446Y-4500D01*
X3564Y-5241D02*
X3908Y-4644D01*
X2488Y-5529D02*
X3564Y-5241D01*
X2192Y-6042D02*
X2488Y-5529D01*
X1654Y-6186D02*
X2192Y-6042D01*
X1140Y-5889D02*
X1654Y-6186D01*
X739Y-5997D02*
X1140Y-5889D01*
X-198Y-5456D02*
X739Y-5997D01*
X1130Y-6109D02*
X1642Y-6404D01*
X727Y-6217D02*
X1130Y-6109D01*
X-211Y-5676D02*
X727Y-6217D01*
X-332Y-5492D02*
X-198Y-5456D01*
X-672Y-5296D02*
X-332Y-5492D01*
X-2285Y-5728D02*
X-672Y-5296D01*
X-4014Y-4389D02*
X-3870Y-4927D01*
X-4781Y-3946D02*
X-4014Y-4389D01*
X-4853Y-3678D02*
X-4781Y-3946D01*
X-5194Y-3481D02*
X-4853Y-3678D01*
X-5371Y-2015D02*
X-5010Y-3359D01*
X-5626Y-1867D02*
X-5371Y-2015D01*
X-5735Y-1464D02*
X-5626Y-1867D01*
X-5462Y-598D02*
Y-598D01*
X-5265Y-257D01*
X-5806Y1759D02*
X-5265Y-257D01*
X-5806Y1759D02*
X-5609Y2100D01*
X-5340Y2172D01*
X-4999Y1976D01*
X-5206Y4368D02*
X-2742Y2945D01*
X-6820Y3936D02*
X-5206Y4368D01*
X-7852Y2148D02*
X-6820Y3936D01*
X-5221Y4150D02*
X-2948Y2837D01*
X-6700Y3753D02*
X-5221Y4150D01*
X-7783Y1878D02*
X-6700Y3753D01*
X-6458Y3386D02*
X-5248Y3710D01*
X-7343Y1852D02*
X-6458Y3386D01*
X-6579Y3570D02*
X-5234Y3930D01*
X-3530Y2946D01*
X-7563Y1865D02*
X-6579Y3570D01*
X-5261Y3491D02*
X-3897Y2703D01*
X-6336Y3202D02*
X-5261Y3491D01*
X-7124Y1839D02*
X-6336Y3202D01*
X-5274Y3271D02*
X-4081Y2582D01*
X-6215Y3019D02*
X-5274Y3271D01*
X-6904Y1826D02*
X-6215Y3019D01*
X-5287Y3051D02*
X-3753Y2165D01*
X-6094Y2835D02*
X-5287Y3051D01*
X-6684Y1812D02*
X-6094Y2835D01*
X-5300Y2831D02*
X-3937Y2044D01*
X-5973Y2651D02*
X-5300Y2831D01*
X-6464Y1801D02*
X-5973Y2651D01*
X-5314Y2612D02*
X-4632Y2218D01*
X-5851Y2468D02*
X-5314Y2612D01*
X-6245Y1786D02*
X-5851Y2468D01*
X-5327Y2392D02*
X-4815Y2097D01*
X-5730Y2284D02*
X-5327Y2392D01*
X-6025Y1773D02*
X-5730Y2284D01*
X-6025Y1773D02*
X-5485Y-244D01*
X-5554Y-2136D02*
X-5194Y-3481D01*
X-5810Y-1989D02*
X-5554Y-2136D01*
X-5954Y-1451D02*
X-5810Y-1989D01*
X-6001Y-744D02*
X-5705Y-231D01*
X-6001Y-744D02*
X-5929Y-1013D01*
X-6174Y-1438D02*
X-5929Y-1013D01*
X-6245Y1786D02*
X-5705Y-231D01*
X-6220Y-729D02*
X-5923Y-216D01*
X-6220Y-729D02*
X-6148Y-998D01*
X-6394Y-1424D02*
X-6148Y-998D01*
X-6464Y1801D02*
X-5923Y-216D01*
X-6439Y-716D02*
X-6144Y-205D01*
X-6439Y-716D02*
X-6367Y-985D01*
X-6613Y-1411D02*
X-6367Y-985D01*
X-6659Y-703D02*
X-6364Y-191D01*
X-6659Y-703D02*
X-6587Y-972D01*
X-6833Y-1398D02*
X-6587Y-972D01*
X-6881Y-693D02*
X-6809Y-962D01*
X-7053Y-1385D02*
X-6809Y-962D01*
X-6881Y-693D02*
X-6583Y-178D01*
X-7124Y1839D02*
X-6583Y-178D01*
X-7053Y-1385D02*
X-6728Y-2595D01*
X-6473Y-2742D01*
X-6112Y-4087D01*
X-5772Y-4284D01*
X-5699Y-4553D01*
X-4932Y-4996D01*
X-4788Y-5533D01*
X-4742Y-4878D02*
X-4598Y-5416D01*
X-4565Y-4753D02*
X-4421Y-5291D01*
X-4381Y-4632D02*
X-4237Y-5170D01*
X5994Y-2212D02*
X6129Y-2176D01*
X4567Y-4684D02*
X5994Y-2212D01*
X4029Y-4828D02*
X4567Y-4684D01*
X3684Y-5426D02*
X4029Y-4828D01*
X2608Y-5714D02*
X3684Y-5426D01*
X2314Y-6224D02*
X2608Y-5714D01*
X1642Y-6404D02*
X2314Y-6224D01*
X-345Y-5712D02*
X-211Y-5676D01*
X-686Y-5515D02*
X-345Y-5712D01*
X-2300Y-5947D02*
X-686Y-5515D01*
X-4198Y-4511D02*
X-4054Y-5048D01*
X-4965Y-4068D02*
X-4198Y-4511D01*
X-5037Y-3799D02*
X-4965Y-4068D01*
X-5378Y-3602D02*
X-5037Y-3799D01*
X-5738Y-2257D02*
X-5378Y-3602D01*
X-5994Y-2110D02*
X-5738Y-2257D01*
X-6174Y-1438D02*
X-5994Y-2110D01*
X4151Y-5012D02*
X4419Y-4940D01*
X3789Y-5638D02*
X4151Y-5012D01*
X2713Y-5926D02*
X3789Y-5638D01*
X2435Y-6408D02*
X2713Y-5926D01*
X1631Y-6624D02*
X2435Y-6408D01*
X1119Y-6328D02*
X1631Y-6624D01*
X714Y-6437D02*
X1119Y-6328D01*
X-217Y-5900D02*
X714Y-6437D01*
X-351Y-5936D02*
X-217Y-5900D01*
X-694Y-5738D02*
X-351Y-5936D01*
X-2307Y-6170D02*
X-694Y-5738D01*
X-5148Y-4189D02*
X-4381Y-4632D01*
X-5221Y-3920D02*
X-5148Y-4189D01*
X-5561Y-3723D02*
X-5221Y-3920D01*
X-5922Y-2379D02*
X-5561Y-3723D01*
X-6177Y-2231D02*
X-5922Y-2379D01*
X-6394Y-1424D02*
X-6177Y-2231D01*
X1133Y-6565D02*
X1615Y-6844D01*
X741Y-6670D02*
X1133Y-6565D01*
X-219Y-6116D02*
X741Y-6670D01*
X-365Y-6155D02*
X-219Y-6116D01*
X-713Y-5954D02*
X-365Y-6155D01*
X-2326Y-6387D02*
X-713Y-5954D01*
X-5332Y-4310D02*
X-4565Y-4753D01*
X-5404Y-4041D02*
X-5332Y-4310D01*
X-5745Y-3844D02*
X-5404Y-4041D01*
X-6105Y-2500D02*
X-5745Y-3844D01*
X-6361Y-2352D02*
X-6105Y-2500D01*
X-6613Y-1411D02*
X-6361Y-2352D01*
X-6684Y1812D02*
X-6144Y-205D01*
X-300Y-6420D02*
X-165Y-6384D01*
X-704Y-6187D02*
X-300Y-6420D01*
X-2318Y-6619D02*
X-704Y-6187D01*
X-5929Y-3966D02*
X-5588Y-4163D01*
X-5516Y-4431D01*
X-4742Y-4878D01*
X-6289Y-2621D02*
X-5929Y-3966D01*
X-6545Y-2474D02*
X-6289Y-2621D01*
X-6833Y-1398D02*
X-6545Y-2474D01*
X-6904Y1826D02*
X-6364Y-191D01*
X-6297Y-4202D02*
X-5926Y-4416D01*
X-5852Y-4692D01*
X-5116Y-5117D01*
X-5008Y-5520D01*
X-7094Y-2838D02*
X-6869Y-2968D01*
X-6797Y-3237D01*
X-6656Y-2864D02*
X-6297Y-4202D01*
X-6912Y-2716D02*
X-6656Y-2864D01*
X-7272Y-1372D02*
X-6912Y-2716D01*
X-7272Y-1372D02*
X-7025Y-944D01*
X-7097Y-677D02*
X-7025Y-944D01*
X-7098Y-676D02*
X-7097Y-677D01*
X-7098Y-676D02*
X-6803Y-165D01*
X-7343Y1852D02*
X-6803Y-165D01*
X-7491Y-1359D02*
X-7094Y-2838D01*
X-7491Y-1359D02*
X-7295Y-1020D01*
X-7367Y-749D02*
X-7295Y-1020D01*
X-7367Y-749D02*
X-7023Y-152D01*
X-7563Y1865D02*
X-7023Y-152D01*
X-7783Y1878D02*
X-7242Y-139D01*
X-7587Y-735D02*
X-7242Y-139D01*
X-7663Y-1260D02*
X-7515Y-1004D01*
X-7587Y-735D02*
X-7515Y-1004D01*
X-7989Y2111D02*
X-7852Y2148D01*
X-5351Y6929D02*
X-5054Y8039D01*
X-5172Y6789D02*
X-4992Y7461D01*
X5873Y2028D02*
X6142Y1956D01*
X4793Y1405D02*
X5873Y2028D01*
X4686Y2707D02*
X5794Y3346D01*
X3507Y2254D02*
X5781Y3566D01*
X3324Y2375D02*
X5768Y3786D01*
X3140Y2496D02*
X5754Y4006D01*
X2956Y2617D02*
X5741Y4225D01*
X5807Y3127D02*
X6748Y2875D01*
X5741Y4225D02*
X7355Y3793D01*
X5860Y2248D02*
X6263Y2140D01*
X5847Y2468D02*
X6384Y2324D01*
X5833Y2687D02*
X6506Y2507D01*
X5820Y2907D02*
X6627Y2691D01*
X5794Y3346D02*
X6870Y3058D01*
X5781Y3566D02*
X6991Y3242D01*
X5768Y3786D02*
X7112Y3426D01*
X5754Y4006D02*
X7233Y3609D01*
X5728Y4445D02*
X7476Y3977D01*
X2438Y2545D02*
X5728Y4445D01*
X7934Y4286D02*
X8342Y4522D01*
X5702Y4884D02*
X7934Y4286D01*
X2064Y2784D02*
X5702Y4884D01*
X7616Y4155D02*
X9446Y984D01*
X5703Y4668D02*
X7616Y4155D01*
X2251Y2675D02*
X5703Y4668D01*
X7476Y3977D02*
X8706Y1846D01*
X7355Y3793D02*
X8486Y1832D01*
X7233Y3609D02*
X8245Y1857D01*
X7112Y3426D02*
X8047Y1806D01*
X6991Y3242D02*
X7827Y1793D01*
X6870Y3058D02*
X7608Y1780D01*
X6748Y2875D02*
X7388Y1766D01*
X6627Y2691D02*
X7168Y1753D01*
X6384Y2324D02*
X6729Y1727D01*
X6189Y-290D02*
X6729Y1727D01*
X6506Y2507D02*
X6949Y1740D01*
X6263Y2140D02*
X6509Y1714D01*
X5969Y-303D02*
X6509Y1714D01*
X6142Y1956D02*
X6290Y1701D01*
X5749Y-316D02*
X6290Y1701D01*
X5749Y-316D02*
X6537Y-1680D01*
X-3172Y8512D02*
X-2787Y8409D01*
X-4992Y7461D02*
X-3172Y8512D01*
X-2787Y8409D02*
X-987Y9449D01*
X-6536Y6002D02*
X-5172Y6789D01*
X-7112Y3851D02*
X-6536Y6002D01*
X-7880Y3408D02*
X-7112Y3851D01*
X-8348Y1660D02*
X-7880Y3408D01*
X-8348Y1660D02*
X-7561Y296D01*
X-8065Y-1586D02*
X-7561Y296D01*
X-8065Y-1586D02*
X-5998Y-5166D01*
X-5460Y-5310D01*
X-4968Y-6163D01*
X-3220Y-6631D01*
X-2923Y-7146D01*
X-2390Y-7289D01*
X-938Y-6450D01*
X1617Y-7135D01*
X4515Y-5461D01*
X4695Y-4789D01*
X5547Y-4297D01*
X5979Y-2684D01*
X6320Y-2487D01*
X6537Y-1680D01*
X5969Y-303D02*
X6756Y-1667D01*
X6189Y-290D02*
X6976Y-1654D01*
X-8247Y3650D02*
X-7489Y4088D01*
X-7108Y5511D01*
X-7386Y5991D02*
X-7108Y5511D01*
X-8063Y3529D02*
X-7311Y3963D01*
X-6730Y6133D02*
X-5351Y6929D01*
X-5054Y8039D02*
X-4524Y8345D01*
X-7311Y3963D02*
X-6730Y6133D01*
X-8568Y1647D02*
X-8063Y3529D01*
X-8568Y1647D02*
X-7780Y283D01*
X-8285Y-1600D02*
X-6119Y-5350D01*
X-8285Y-1600D02*
X-7780Y283D01*
X1630Y-7354D02*
X4698Y-5583D01*
X-6119Y-5350D02*
X-5581Y-5494D01*
X-5089Y-6347D01*
X-3341Y-6815D01*
X-3046Y-7326D01*
X-2374Y-7506D01*
X-925Y-6670D01*
X1630Y-7354D01*
X4698Y-5583D02*
X4878Y-4910D01*
X5731Y-4418D01*
X6163Y-2805D01*
X6504Y-2608D01*
X6756Y-1667D01*
X1679Y3017D02*
X5776Y5382D01*
X5985Y6164D01*
X1881Y2906D02*
X6285Y5448D01*
X-8787Y1633D02*
X-8000Y270D01*
X-8787Y1633D02*
X-8247Y3650D01*
X-8504Y-1613D02*
X-8000Y270D01*
X-8504Y-1613D02*
X-6241Y-5534D01*
X-5703Y-5678D01*
X-5211Y-6530D01*
X-5211Y-6530D01*
X-3463Y-6999D01*
X-3167Y-7510D01*
X-2361Y-7726D01*
X-912Y-6890D01*
X1643Y-7574D01*
X4882Y-5704D01*
X5062Y-5032D01*
X5914Y-4540D01*
X6347Y-2926D01*
X6688Y-2729D01*
X6976Y-1654D01*
X6408Y-277D02*
X6949Y1740D01*
X6408Y-277D02*
X7196Y-1641D01*
X-9269Y2074D02*
X-9100Y2703D01*
X-9269Y2074D02*
X-8208Y236D01*
X-8712Y-1646D02*
X-8208Y236D01*
X-8712Y-1646D02*
X-6362Y-5717D01*
X-5824Y-5861D01*
X-5332Y-6714D01*
X-3584Y-7182D01*
X-3289Y-7694D01*
X-2348Y-7946D01*
X-899Y-7109D01*
X1656Y-7794D01*
X5066Y-5825D01*
X5246Y-5153D01*
X6098Y-4661D01*
X6530Y-3047D01*
X6872Y-2850D01*
X7196Y-1641D01*
X1693Y-8682D02*
X5800Y-6310D01*
X-819Y-8009D02*
X1693Y-8682D01*
X1696Y-8453D02*
X5617Y-6189D01*
X-859Y-7768D02*
X1696Y-8453D01*
X-2308Y-8605D02*
X-859Y-7768D01*
X1682Y-8233D02*
X5433Y-6068D01*
X-872Y-7549D02*
X1682Y-8233D01*
X-2321Y-8385D02*
X-872Y-7549D01*
X1669Y-8013D02*
X5249Y-5946D01*
X-885Y-7329D02*
X1669Y-8013D01*
X-9451Y-984D02*
X-9298Y-1025D01*
X-6483Y-5901D01*
X-5945Y-6045D01*
X-5453Y-6898D01*
X-3705Y-7366D01*
X-3410Y-7877D01*
X-2334Y-8166D01*
X-885Y-7329D01*
X5249Y-5946D02*
X5429Y-5274D01*
X6282Y-4782D01*
X6714Y-3169D01*
X7055Y-2972D01*
X7415Y-1627D01*
X6628Y-263D02*
X7415Y-1627D01*
X6628Y-263D02*
X7168Y1753D01*
X-8347Y-4522D02*
X-8014Y-4329D01*
X-7545Y-4455D01*
X-6630Y-6040D01*
X-6092Y-6184D01*
X-5574Y-7081D01*
X-3827Y-7550D01*
X-3531Y-8061D01*
X-2321Y-8385D01*
X5433Y-6068D02*
X5613Y-5395D01*
X6465Y-4903D01*
X6898Y-3290D01*
X7239Y-3093D01*
X7635Y-1614D01*
X6848Y-250D02*
X7635Y-1614D01*
X6848Y-250D02*
X7388Y1766D01*
X7067Y-237D02*
X7608Y1780D01*
X-5994Y-7383D02*
X-5762Y-7250D01*
X-3946Y-7736D01*
X-3653Y-8245D01*
X-2308Y-8605D01*
X5617Y-6189D02*
X5792Y-5535D01*
X6644Y-5043D01*
X7081Y-3411D01*
X7422Y-3214D01*
X7855Y-1601D01*
X7067Y-237D02*
X7855Y-1601D01*
X-2705Y-9098D02*
X-819Y-8009D01*
X5800Y-6310D02*
X5980Y-5638D01*
X6833Y-5146D01*
X7265Y-3532D01*
X7606Y-3336D01*
X8074Y-1588D01*
X7287Y-224D02*
X8074Y-1588D01*
X7287Y-224D02*
X7827Y1793D01*
X5209Y7509D02*
X5985Y6164D01*
X3999Y7834D02*
X5209Y7509D01*
X982Y-9449D02*
X1023Y-9296D01*
X5984Y-6432D01*
X6164Y-5759D01*
X7016Y-5267D01*
X7449Y-3654D01*
X7790Y-3457D01*
X8294Y-1575D01*
X7507Y-211D02*
X8294Y-1575D01*
X7507Y-211D02*
X8047Y1806D01*
X4792Y-7327D02*
X6174Y-6530D01*
X4519Y-8345D02*
X4792Y-7327D01*
X6174Y-6530D02*
X6348Y-5881D01*
X7200Y-5388D01*
X7632Y-3775D01*
X8157Y-3699D02*
X8733Y-1548D01*
X7846Y-3879D02*
X8157Y-3699D01*
X7312Y-5872D02*
X7846Y-3879D01*
X7632Y-3775D02*
X7974Y-3578D01*
X8514Y-1562D01*
X7705Y-160D02*
X8514Y-1562D01*
X7705Y-160D02*
X8245Y1857D01*
X7312Y-5872D02*
X7381Y-5991D01*
X7946Y-184D02*
X8733Y-1548D01*
X7946Y-184D02*
X8486Y1832D01*
X9096Y-2703D02*
X9271Y-2048D01*
X8173Y-146D02*
X9271Y-2048D01*
X8173Y-146D02*
X8706Y1846D01*
D84*
X7938Y6548D02*
X8494Y7105D01*
X7938Y6548D02*
X7938Y6548D01*
X9823Y3004D02*
X10551Y3306D01*
X9823Y3004D02*
X9823Y3004D01*
X9559Y3641D02*
X9823Y3004D01*
Y3004D02*
Y3004D01*
X982Y11024D02*
X982Y10236D01*
Y10236D02*
Y10236D01*
X4821Y9072D02*
X5122Y9800D01*
X4821Y9072D02*
X4821Y9072D01*
X10234Y-984D02*
X11021Y-984D01*
X10234Y-984D02*
X10234D01*
X9070Y-4823D02*
X9333Y-4187D01*
X9070Y-4823D02*
Y-4823D01*
X6546Y-7940D02*
X6546Y-7940D01*
X7103Y-8497D01*
X3002Y-9825D02*
X3002Y-9825D01*
X3303Y-10553D01*
X3002Y-9825D02*
X3639Y-9562D01*
X3002Y-9825D02*
X3002D01*
X-3007Y9825D02*
X-3007Y9825D01*
X-3643Y9562D02*
X-3007Y9825D01*
X-6550Y7940D02*
X-6550Y7940D01*
X-7038Y7453D02*
X-6550Y7940D01*
X-9075Y4823D02*
X-9075Y4823D01*
X-9338Y4187D02*
X-9075Y4823D01*
X-9075D01*
X-9802Y5124D02*
X-9075Y4823D01*
X-10239Y984D02*
Y984D01*
X-10239Y295D02*
X-10239Y984D01*
X-10239D01*
X-11026Y984D02*
X-10239Y984D01*
X-298Y-10236D02*
X-298Y-8661D01*
X-298Y-10236D02*
Y-10236D01*
X-4825Y-9072D02*
X-4189Y-9336D01*
X-4825Y-9072D02*
X-4825Y-9072D01*
X-298Y-10236D02*
X-298D01*
X-987Y-10236D02*
X-298Y-10236D01*
X-9828Y-3004D02*
X-9828Y-3004D01*
X-9564Y-3641D01*
X-9828Y-3004D02*
X-9828Y-3004D01*
X-10555Y-3306D02*
X-9828Y-3004D01*
X-7942Y-6548D02*
X-7455Y-7035D01*
X-7942Y-6548D02*
X-7942Y-6548D01*
X-4825Y-9072D02*
Y-9072D01*
X-5127Y-9800D02*
X-4825Y-9072D01*
X-7942Y-6548D02*
X-7942Y-6548D01*
X-8499Y-7105D02*
X-7942Y-6548D01*
X-10239Y295D02*
X-8664Y295D01*
X8659Y-295D02*
X10234Y-295D01*
X293Y10236D02*
X293Y10236D01*
X293Y8661D02*
Y10236D01*
X-3945Y10289D02*
X-3308Y10553D01*
X-7594Y8010D02*
X-7107Y8497D01*
X-10066Y4488D02*
X-9802Y5124D01*
X-11026Y984D02*
X-11026Y295D01*
X-10555Y-3306D02*
X-10292Y-3942D01*
X-8499Y-7105D02*
X-8012Y-7592D01*
X-5127Y-9800D02*
X-4490Y-10063D01*
X-987Y-11024D02*
X-298Y-11024D01*
X3303Y-10553D02*
X3940Y-10289D01*
X7103Y-8497D02*
X7590Y-8010D01*
X6546Y-7940D02*
X7033Y-7453D01*
X9797Y-5124D02*
X10061Y-4488D01*
X11021Y-984D02*
Y-295D01*
X10234Y-295D02*
X10234Y-984D01*
X10287Y3942D02*
X10551Y3306D01*
X8007Y7592D02*
X8494Y7105D01*
X7451Y7035D02*
X7938Y6548D01*
X4486Y10063D02*
X5122Y9800D01*
X4184Y9336D02*
X4821Y9072D01*
X293Y10236D02*
X982Y10236D01*
X293Y11024D02*
X293Y11024D01*
X293Y11024D02*
X982Y11024D01*
X2701Y-9098D02*
X3002Y-9825D01*
X5989Y-7383D02*
X6546Y-7940D01*
X8342Y-4522D02*
X9070Y-4823D01*
X9797Y-5124D01*
X9446Y-984D02*
X10234Y-984D01*
X9096Y2703D02*
X9823Y3004D01*
X7381Y5991D02*
X7938Y6548D01*
X4519Y8345D02*
X4821Y9072D01*
X-3308Y10553D02*
X-3007Y9825D01*
X-2705Y9098D01*
X-7107Y8497D02*
X-6550Y7940D01*
X-5994Y7383D01*
X-9075Y4823D02*
X-8347Y4522D01*
X-10239Y984D02*
X-9451D01*
X-9828Y-3004D02*
X-9100Y-2703D01*
X-7942Y-6548D02*
X-7386Y-5991D01*
X-4825Y-9072D02*
X-4524Y-8345D01*
X982Y9449D02*
X982Y9449D01*
Y10236D01*
X-987Y-11024D02*
X-987Y-11024D01*
X-987Y-10236D02*
X-987Y-11024D01*
X-987Y-10236D02*
X-987Y-10236D01*
X-987Y-9449D01*
D85*
X8659Y689D02*
X8758Y787D01*
X8659Y689D02*
X8659Y295D01*
X-8762Y-787D02*
Y-394D01*
X-8664Y-295D01*
X293Y-8661D02*
X588D01*
X-593Y8661D02*
X-298D01*
D86*
X1373Y297D02*
D03*
X1850D02*
D03*
X824Y1693D02*
D03*
X1258Y-1912D02*
D03*
X155Y-1746D02*
D03*
X-1056Y-1575D02*
D03*
X-631Y-1737D02*
D03*
X2832Y-106D02*
D03*
X-2050Y-2126D02*
D03*
X-1223Y2758D02*
D03*
X-806Y1770D02*
D03*
X-726Y2062D02*
D03*
X-2258Y30D02*
D03*
X1340Y957D02*
D03*
X-1529Y427D02*
D03*
X824Y2244D02*
D03*
X-1765Y18D02*
D03*
X864Y-1535D02*
D03*
X-3979Y8571D02*
D03*
X-3706Y8684D02*
D03*
X-6968Y6409D02*
D03*
X-6759Y6618D02*
D03*
X-8874Y3249D02*
D03*
X-8761Y3522D02*
D03*
X-9451Y-394D02*
D03*
X-9451Y-98D02*
D03*
X-8573Y-3976D02*
D03*
X-8686Y-3703D02*
D03*
X-6411Y-6966D02*
D03*
X-6620Y-6757D02*
D03*
X-3251Y-8872D02*
D03*
X-3524Y-8759D02*
D03*
X391Y-9449D02*
D03*
X96Y-9449D02*
D03*
X3974Y-8571D02*
D03*
X3701Y-8684D02*
D03*
X6963Y-6409D02*
D03*
X6755Y-6618D02*
D03*
X8870Y-3249D02*
D03*
X8757Y-3522D02*
D03*
X9446Y394D02*
D03*
X9446Y98D02*
D03*
X8568Y3976D02*
D03*
X8681Y3703D02*
D03*
X6407Y6966D02*
D03*
X6615Y6757D02*
D03*
X3246Y8872D02*
D03*
X3519Y8759D02*
D03*
X-101Y9449D02*
D03*
X-396Y9449D02*
D03*
X-2266Y-4724D02*
D03*
X2261Y-4724D02*
D03*
X5411Y5413D02*
D03*
X1474Y8858D02*
D03*
X4522Y6696D02*
D03*
X-1479Y8858D02*
D03*
X-4530Y6594D02*
D03*
X-5416Y5413D02*
D03*
X4426Y98D02*
D03*
X4916Y-1575D02*
D03*
X3935Y-3346D02*
D03*
X391Y-4429D02*
D03*
X-4917Y893D02*
D03*
X-4924Y-1575D02*
D03*
X-3939Y-3346D02*
D03*
X-396Y-4429D02*
D03*
X5877Y1720D02*
D03*
X5880Y1150D02*
D03*
X5776Y756D02*
D03*
X5669Y363D02*
D03*
X-1819Y8664D02*
D03*
X-4768Y7297D02*
D03*
X-6611Y4498D02*
D03*
X-2621Y-6898D02*
D03*
X6129Y-2176D02*
D03*
X4419Y-4940D02*
D03*
X1615Y-6844D02*
D03*
X-165Y-6384D02*
D03*
X-5008Y-5520D02*
D03*
X-6797Y-3237D02*
D03*
X-7663Y-1260D02*
D03*
X-7989Y2111D02*
D03*
D87*
X8758Y787D02*
D03*
X-8762Y-787D02*
D03*
X588Y-8661D02*
D03*
X-593Y8661D02*
D03*
D88*
X-3945Y10289D02*
D03*
X-3643Y9562D02*
D03*
X-7594Y8010D02*
D03*
X-7038Y7453D02*
D03*
X-10066Y4488D02*
D03*
X-9338Y4187D02*
D03*
X-11026Y295D02*
D03*
X-10239D02*
D03*
X-10292Y-3942D02*
D03*
X-9564Y-3641D02*
D03*
X-8012Y-7592D02*
D03*
X-7455Y-7035D02*
D03*
X-4490Y-10063D02*
D03*
X-4189Y-9336D02*
D03*
X-298Y-11024D02*
D03*
Y-10236D02*
D03*
X3940Y-10289D02*
D03*
X3639Y-9562D02*
D03*
X7590Y-8010D02*
D03*
X7033Y-7453D02*
D03*
X10061Y-4488D02*
D03*
X9333Y-4187D02*
D03*
X11021Y-295D02*
D03*
X10234Y-295D02*
D03*
X10287Y3942D02*
D03*
X9559Y3641D02*
D03*
X8007Y7592D02*
D03*
X7451Y7035D02*
D03*
X4486Y10063D02*
D03*
X4184Y9336D02*
D03*
X293Y10236D02*
D03*
X293Y11024D02*
D03*
D89*
X-219Y-2539D02*
D03*
X214Y-2539D02*
D03*
X-219Y-2972D02*
D03*
X214Y-2972D02*
D03*
X-2093Y1457D02*
D03*
X-2310Y1082D02*
D03*
X-2468Y1674D02*
D03*
X-2685Y1299D02*
D03*
X2305Y1082D02*
D03*
X2089Y1457D02*
D03*
X2680Y1299D02*
D03*
X2464Y1674D02*
D03*
M02*
