M48
;Layer_Color=9474304
;FILE_FORMAT=2:4
INCH,LZ
;TYPE=PLATED
T1F00S00C0.0079
T2F00S00C0.0098
T3F00S00C0.0160
T4F00S00C0.0197
%
T01
X-000219Y-002972
X-000219Y-002539
X000214Y-002539
X000214Y-002972
X002305Y001082
X00268Y001299
X002464Y001674
X002089Y001457
X-002093Y001457
X-002468Y001674
X-002685Y001299
X-00231Y001082
T02
X008757Y-003522
X00887Y-003249
X009446Y000098
X009446Y000394
X005669Y000363
X005776Y000756
X00588Y00115
X005877Y00172
X004426Y000098
X002832Y-000106
X00185Y000297
X001373
X00134Y000957
X000824Y001693
Y002244
X-000726Y002062
X-000806Y00177
X-001223Y002758
X-001529Y000427
X-001765Y000018
X-002258Y00003
X-00205Y-002126
X-001056Y-001575
X-000631Y-001737
X000155Y-001746
X000864Y-001535
X001258Y-001912
X000391Y-004429
X-000396Y-004429
X-002266Y-004724
X-002621Y-006898
X-003251Y-008872
X-003524Y-008759
X000096Y-009449
X000391Y-009449
X-000165Y-006384
X001615Y-006844
X002261Y-004724
X004419Y-00494
X003935Y-003346
X004916Y-001575
X006129Y-002176
X006963Y-006409
X006755Y-006618
X003974Y-008571
X003701Y-008684
X-006411Y-006966
X-00662Y-006757
X-005008Y-00552
X-003939Y-003346
X-004924Y-001575
X-004917Y000893
X-007989Y002111
X-007663Y-00126
X-006797Y-003237
X-008686Y-003703
X-008573Y-003976
X-009451Y-000394
X-009451Y-000098
X-008874Y003249
X-008761Y003522
X-006611Y004498
X-005416Y005413
X-00453Y006594
X-004768Y007297
X-003979Y008571
X-003706Y008684
X-001819Y008664
X-001479Y008858
X-000396Y009449
X-000101Y009449
X001474Y008858
X003246Y008872
X003519Y008759
X004522Y006696
X006615Y006757
X006407Y006966
X005411Y005413
X-006968Y006409
X-006759Y006618
X008568Y003976
X008681Y003703
T03
X008758Y000787
X000588Y-008661
X-008762Y-000787
X-000593Y008661
T04
X00759Y-00801
X009333Y-004187
X010061Y-004488
X010234Y-000295
X011021Y-000295
X009559Y003641
X007033Y-007453
X003639Y-009562
X00394Y-010289
X-000298Y-010236
Y-011024
X-00449Y-010063
X-004189Y-009336
X-008012Y-007592
X-007455Y-007035
X-009564Y-003641
X-010292Y-003942
X-010239Y000295
X-011026
X-010066Y004488
X-009338Y004187
X-007594Y00801
X-007038Y007453
X-003643Y009562
X-003945Y010289
X000293Y010236
X000293Y011024
X004486Y010063
X004184Y009336
X007451Y007035
X008007Y007592
X010287Y003942
M30
