G04*
G04 #@! TF.GenerationSoftware,Altium Limited,Altium Designer,18.1.6 (161)*
G04*
G04 Layer_Color=16711935*
%FSLAX24Y24*%
%MOIN*%
G70*
G01*
G75*
%ADD80C,0.0380*%
%ADD81C,0.0474*%
%ADD82C,0.0277*%
%ADD94R,0.0316X0.0986*%
D80*
X8758Y787D02*
D03*
X-8762Y-787D02*
D03*
X588Y-8661D02*
D03*
X-593Y8661D02*
D03*
D81*
X-3945Y10289D02*
D03*
X-3643Y9562D02*
D03*
X-7594Y8010D02*
D03*
X-7038Y7453D02*
D03*
X-10066Y4488D02*
D03*
X-9338Y4187D02*
D03*
X-11026Y295D02*
D03*
X-10239D02*
D03*
X-10292Y-3942D02*
D03*
X-9564Y-3641D02*
D03*
X-8012Y-7592D02*
D03*
X-7455Y-7035D02*
D03*
X-4490Y-10063D02*
D03*
X-4189Y-9336D02*
D03*
X-298Y-11024D02*
D03*
Y-10236D02*
D03*
X3940Y-10289D02*
D03*
X3639Y-9562D02*
D03*
X7590Y-8010D02*
D03*
X7033Y-7453D02*
D03*
X10061Y-4488D02*
D03*
X9333Y-4187D02*
D03*
X11021Y-295D02*
D03*
X10234Y-295D02*
D03*
X10287Y3942D02*
D03*
X9559Y3641D02*
D03*
X8007Y7592D02*
D03*
X7451Y7035D02*
D03*
X4486Y10063D02*
D03*
X4184Y9336D02*
D03*
X293Y10236D02*
D03*
X293Y11024D02*
D03*
D82*
X-219Y-2539D02*
D03*
X214Y-2539D02*
D03*
X-219Y-2972D02*
D03*
X214Y-2972D02*
D03*
X-2093Y1457D02*
D03*
X-2310Y1082D02*
D03*
X-2468Y1674D02*
D03*
X-2685Y1299D02*
D03*
X2305Y1082D02*
D03*
X2089Y1457D02*
D03*
X2680Y1299D02*
D03*
X2464Y1674D02*
D03*
D94*
X998Y-866D02*
D03*
Y866D02*
D03*
X-502Y866D02*
D03*
X-2Y866D02*
D03*
X-1002D02*
D03*
X498Y866D02*
D03*
X-1002Y-866D02*
D03*
X498Y-866D02*
D03*
X-502Y-866D02*
D03*
X-2Y-866D02*
D03*
M02*
