G04*
G04 #@! TF.GenerationSoftware,Altium Limited,Altium Designer,18.1.6 (161)*
G04*
G04 Layer_Physical_Order=3*
G04 Layer_Color=16440176*
%FSLAX24Y24*%
%MOIN*%
G70*
G01*
G75*
%ADD83C,0.0160*%
%ADD84C,0.0197*%
%ADD85C,0.0300*%
%ADD88C,0.0180*%
G36*
X993Y11774D02*
X1652Y11700D01*
X2305Y11589D01*
X2951Y11441D01*
X3588Y11258D01*
X4214Y11039D01*
X4826Y10785D01*
X5423Y10498D01*
X6003Y10177D01*
X6564Y9824D01*
X7105Y9441D01*
X7623Y9028D01*
X8117Y8586D01*
X8586Y8117D01*
X9028Y7623D01*
X9441Y7105D01*
X9824Y6564D01*
X10177Y6003D01*
X10498Y5423D01*
X10785Y4826D01*
X11039Y4214D01*
X11258Y3588D01*
X11441Y2951D01*
X11589Y2305D01*
X11700Y1652D01*
X11774Y993D01*
X11811Y331D01*
Y-0D01*
X11811Y-331D01*
X11774Y-993D01*
X11700Y-1652D01*
X11589Y-2305D01*
X11441Y-2951D01*
X11258Y-3588D01*
X11039Y-4214D01*
X10785Y-4826D01*
X10498Y-5423D01*
X10177Y-6003D01*
X9824Y-6564D01*
X9441Y-7105D01*
X9028Y-7623D01*
X8586Y-8117D01*
X8117Y-8586D01*
X7623Y-9028D01*
X7105Y-9441D01*
X6564Y-9824D01*
X6003Y-10177D01*
X5423Y-10498D01*
X4826Y-10785D01*
X4214Y-11039D01*
X3588Y-11258D01*
X2951Y-11441D01*
X2305Y-11589D01*
X1652Y-11700D01*
X993Y-11774D01*
X331Y-11811D01*
X-331D01*
X-993Y-11774D01*
X-1652Y-11700D01*
X-2305Y-11589D01*
X-2951Y-11441D01*
X-3588Y-11258D01*
X-4214Y-11039D01*
X-4826Y-10785D01*
X-5423Y-10498D01*
X-6003Y-10177D01*
X-6564Y-9824D01*
X-7105Y-9441D01*
X-7623Y-9028D01*
X-8117Y-8586D01*
X-8586Y-8117D01*
X-9028Y-7623D01*
X-9441Y-7105D01*
X-9824Y-6564D01*
X-10177Y-6003D01*
X-10498Y-5423D01*
X-10785Y-4826D01*
X-11039Y-4214D01*
X-11258Y-3588D01*
X-11441Y-2951D01*
X-11589Y-2305D01*
X-11700Y-1652D01*
X-11774Y-993D01*
X-11811Y-331D01*
Y0D01*
Y331D01*
X-11774Y993D01*
X-11700Y1652D01*
X-11589Y2305D01*
X-11441Y2951D01*
X-11258Y3588D01*
X-11039Y4214D01*
X-10785Y4826D01*
X-10498Y5423D01*
X-10177Y6003D01*
X-9824Y6564D01*
X-9441Y7105D01*
X-9028Y7623D01*
X-8586Y8117D01*
X-8117Y8586D01*
X-7623Y9028D01*
X-7105Y9441D01*
X-6564Y9824D01*
X-6003Y10177D01*
X-5423Y10498D01*
X-4826Y10785D01*
X-4214Y11039D01*
X-3588Y11258D01*
X-2951Y11441D01*
X-2305Y11589D01*
X-1652Y11700D01*
X-993Y11774D01*
X-331Y11811D01*
X331D01*
X993Y11774D01*
D02*
G37*
%LPC*%
G36*
X293Y11226D02*
X216Y11211D01*
X150Y11167D01*
X106Y11101D01*
X91Y11024D01*
X106Y10946D01*
X150Y10881D01*
X216Y10837D01*
X293Y10821D01*
X370Y10837D01*
X436Y10881D01*
X480Y10946D01*
X495Y11024D01*
X480Y11101D01*
X436Y11167D01*
X370Y11211D01*
X293Y11226D01*
D02*
G37*
G36*
X-3945Y10492D02*
X-4022Y10476D01*
X-4088Y10432D01*
X-4132Y10367D01*
X-4147Y10289D01*
X-4132Y10212D01*
X-4088Y10146D01*
X-4022Y10102D01*
X-3945Y10087D01*
X-3867Y10102D01*
X-3802Y10146D01*
X-3758Y10212D01*
X-3742Y10289D01*
X-3758Y10367D01*
X-3802Y10432D01*
X-3867Y10476D01*
X-3945Y10492D01*
D02*
G37*
G36*
X293Y10439D02*
X216Y10423D01*
X150Y10379D01*
X106Y10314D01*
X91Y10236D01*
X106Y10159D01*
X150Y10093D01*
X216Y10049D01*
X293Y10034D01*
X370Y10049D01*
X436Y10093D01*
X480Y10159D01*
X495Y10236D01*
X480Y10314D01*
X436Y10379D01*
X370Y10423D01*
X293Y10439D01*
D02*
G37*
G36*
X4486Y10266D02*
X4408Y10250D01*
X4343Y10206D01*
X4299Y10141D01*
X4283Y10063D01*
X4299Y9986D01*
X4343Y9920D01*
X4408Y9876D01*
X4486Y9861D01*
X4563Y9876D01*
X4629Y9920D01*
X4672Y9986D01*
X4688Y10063D01*
X4672Y10141D01*
X4629Y10206D01*
X4563Y10250D01*
X4486Y10266D01*
D02*
G37*
G36*
X-101Y9611D02*
X-163Y9599D01*
X-215Y9563D01*
X-223Y9552D01*
X-273D01*
X-281Y9563D01*
X-334Y9599D01*
X-396Y9611D01*
X-458Y9599D01*
X-511Y9563D01*
X-546Y9511D01*
X-558Y9449D01*
X-546Y9387D01*
X-511Y9334D01*
X-458Y9299D01*
X-396Y9287D01*
X-334Y9299D01*
X-281Y9334D01*
X-273Y9346D01*
X-223D01*
X-215Y9334D01*
X-163Y9299D01*
X-101Y9287D01*
X-39Y9299D01*
X14Y9334D01*
X49Y9387D01*
X61Y9449D01*
X49Y9511D01*
X14Y9563D01*
X-39Y9599D01*
X-101Y9611D01*
D02*
G37*
G36*
X-3643Y9764D02*
X-3721Y9749D01*
X-3786Y9705D01*
X-3830Y9639D01*
X-3846Y9562D01*
X-3830Y9484D01*
X-3786Y9419D01*
X-3721Y9375D01*
X-3643Y9359D01*
X-3566Y9375D01*
X-3500Y9419D01*
X-3456Y9484D01*
X-3441Y9562D01*
X-3456Y9639D01*
X-3500Y9705D01*
X-3566Y9749D01*
X-3643Y9764D01*
D02*
G37*
G36*
X4184Y9538D02*
X4107Y9523D01*
X4041Y9479D01*
X3997Y9413D01*
X3982Y9336D01*
X3997Y9258D01*
X4041Y9193D01*
X4107Y9149D01*
X4184Y9134D01*
X4262Y9149D01*
X4327Y9193D01*
X4371Y9258D01*
X4387Y9336D01*
X4371Y9413D01*
X4327Y9479D01*
X4262Y9523D01*
X4184Y9538D01*
D02*
G37*
G36*
X-3706Y8846D02*
X-3768Y8834D01*
X-3820Y8798D01*
X-3856Y8746D01*
X-3858Y8732D01*
X-3905Y8713D01*
X-3916Y8721D01*
X-3979Y8733D01*
X-4041Y8721D01*
X-4093Y8685D01*
X-4128Y8633D01*
X-4141Y8571D01*
X-4128Y8509D01*
X-4093Y8456D01*
X-4041Y8421D01*
X-3979Y8409D01*
X-3916Y8421D01*
X-3864Y8456D01*
X-3829Y8509D01*
X-3826Y8523D01*
X-3780Y8542D01*
X-3768Y8534D01*
X-3706Y8522D01*
X-3644Y8534D01*
X-3591Y8569D01*
X-3556Y8622D01*
X-3544Y8684D01*
X-3556Y8746D01*
X-3591Y8798D01*
X-3644Y8834D01*
X-3706Y8846D01*
D02*
G37*
G36*
X1474Y9020D02*
X1412Y9008D01*
X1359Y8973D01*
X1324Y8920D01*
X1312Y8858D01*
X1324Y8796D01*
X1359Y8744D01*
X1412Y8708D01*
X1474Y8696D01*
X1536Y8708D01*
X1589Y8744D01*
X1624Y8796D01*
X1636Y8858D01*
X1624Y8920D01*
X1589Y8973D01*
X1536Y9008D01*
X1474Y9020D01*
D02*
G37*
G36*
X-1479Y9020D02*
X-1541Y9008D01*
X-1593Y8973D01*
X-1629Y8920D01*
X-1641Y8858D01*
X-1629Y8796D01*
X-1593Y8744D01*
X-1541Y8708D01*
X-1479Y8696D01*
X-1417Y8708D01*
X-1364Y8744D01*
X-1329Y8796D01*
X-1317Y8858D01*
X-1329Y8920D01*
X-1364Y8973D01*
X-1417Y9008D01*
X-1479Y9020D01*
D02*
G37*
G36*
X3246Y9034D02*
X3184Y9022D01*
X3132Y8987D01*
X3097Y8934D01*
X3084Y8872D01*
X3097Y8810D01*
X3132Y8757D01*
X3184Y8722D01*
X3246Y8710D01*
X3308Y8722D01*
X3320Y8730D01*
X3367Y8711D01*
X3369Y8697D01*
X3405Y8644D01*
X3457Y8609D01*
X3519Y8597D01*
X3581Y8609D01*
X3634Y8644D01*
X3669Y8697D01*
X3681Y8759D01*
X3669Y8821D01*
X3634Y8874D01*
X3581Y8909D01*
X3519Y8921D01*
X3457Y8909D01*
X3445Y8901D01*
X3399Y8920D01*
X3396Y8934D01*
X3361Y8987D01*
X3308Y9022D01*
X3246Y9034D01*
D02*
G37*
G36*
X-1819Y8826D02*
X-1881Y8814D01*
X-1934Y8778D01*
X-1969Y8726D01*
X-1982Y8664D01*
X-1969Y8602D01*
X-1934Y8549D01*
X-1881Y8514D01*
X-1819Y8502D01*
X-1757Y8514D01*
X-1705Y8549D01*
X-1670Y8602D01*
X-1657Y8664D01*
X-1670Y8726D01*
X-1705Y8778D01*
X-1757Y8814D01*
X-1819Y8826D01*
D02*
G37*
G36*
X-7594Y8212D02*
X-7672Y8197D01*
X-7737Y8153D01*
X-7781Y8087D01*
X-7797Y8010D01*
X-7781Y7932D01*
X-7737Y7867D01*
X-7672Y7823D01*
X-7594Y7807D01*
X-7517Y7823D01*
X-7451Y7867D01*
X-7408Y7932D01*
X-7392Y8010D01*
X-7408Y8087D01*
X-7451Y8153D01*
X-7517Y8197D01*
X-7594Y8212D01*
D02*
G37*
G36*
X8007Y7794D02*
X7930Y7779D01*
X7864Y7735D01*
X7820Y7670D01*
X7805Y7592D01*
X7820Y7515D01*
X7864Y7449D01*
X7930Y7405D01*
X8007Y7390D01*
X8085Y7405D01*
X8150Y7449D01*
X8194Y7515D01*
X8210Y7592D01*
X8194Y7670D01*
X8150Y7735D01*
X8085Y7779D01*
X8007Y7794D01*
D02*
G37*
G36*
X-7038Y7655D02*
X-7115Y7640D01*
X-7181Y7596D01*
X-7225Y7530D01*
X-7240Y7453D01*
X-7225Y7375D01*
X-7181Y7310D01*
X-7115Y7266D01*
X-7038Y7251D01*
X-6960Y7266D01*
X-6895Y7310D01*
X-6851Y7375D01*
X-6835Y7453D01*
X-6851Y7530D01*
X-6895Y7596D01*
X-6960Y7640D01*
X-7038Y7655D01*
D02*
G37*
G36*
X-4768Y7460D02*
X-4830Y7447D01*
X-4882Y7412D01*
X-4918Y7359D01*
X-4930Y7297D01*
X-4918Y7235D01*
X-4882Y7183D01*
X-4830Y7148D01*
X-4768Y7135D01*
X-4706Y7148D01*
X-4653Y7183D01*
X-4618Y7235D01*
X-4606Y7297D01*
X-4618Y7359D01*
X-4653Y7412D01*
X-4706Y7447D01*
X-4768Y7460D01*
D02*
G37*
G36*
X7451Y7238D02*
X7373Y7222D01*
X7307Y7178D01*
X7264Y7113D01*
X7248Y7035D01*
X7264Y6958D01*
X7307Y6892D01*
X7373Y6848D01*
X7451Y6833D01*
X7528Y6848D01*
X7594Y6892D01*
X7637Y6958D01*
X7653Y7035D01*
X7637Y7113D01*
X7594Y7178D01*
X7528Y7222D01*
X7451Y7238D01*
D02*
G37*
G36*
X6407Y7128D02*
X6345Y7116D01*
X6292Y7080D01*
X6257Y7028D01*
X6244Y6966D01*
X6257Y6904D01*
X6292Y6851D01*
X6345Y6816D01*
X6407Y6804D01*
X6421Y6806D01*
X6456Y6771D01*
X6453Y6757D01*
X6466Y6695D01*
X6501Y6642D01*
X6553Y6607D01*
X6615Y6595D01*
X6677Y6607D01*
X6730Y6642D01*
X6765Y6695D01*
X6778Y6757D01*
X6765Y6819D01*
X6730Y6872D01*
X6677Y6907D01*
X6615Y6919D01*
X6601Y6916D01*
X6566Y6952D01*
X6569Y6966D01*
X6556Y7028D01*
X6521Y7080D01*
X6469Y7116D01*
X6407Y7128D01*
D02*
G37*
G36*
X-6759Y6780D02*
X-6821Y6768D01*
X-6874Y6732D01*
X-6909Y6680D01*
X-6921Y6618D01*
X-6919Y6604D01*
X-6954Y6568D01*
X-6968Y6571D01*
X-7030Y6559D01*
X-7083Y6524D01*
X-7118Y6471D01*
X-7130Y6409D01*
X-7118Y6347D01*
X-7083Y6294D01*
X-7030Y6259D01*
X-6968Y6247D01*
X-6906Y6259D01*
X-6853Y6294D01*
X-6818Y6347D01*
X-6806Y6409D01*
X-6809Y6423D01*
X-6773Y6458D01*
X-6759Y6456D01*
X-6697Y6468D01*
X-6645Y6503D01*
X-6609Y6556D01*
X-6597Y6618D01*
X-6609Y6680D01*
X-6645Y6732D01*
X-6697Y6768D01*
X-6759Y6780D01*
D02*
G37*
G36*
X4522Y6858D02*
X4460Y6846D01*
X4408Y6810D01*
X4372Y6758D01*
X4360Y6696D01*
X4372Y6634D01*
X4408Y6581D01*
X4460Y6546D01*
X4522Y6534D01*
X4584Y6546D01*
X4637Y6581D01*
X4672Y6634D01*
X4685Y6696D01*
X4672Y6758D01*
X4637Y6810D01*
X4584Y6846D01*
X4522Y6858D01*
D02*
G37*
G36*
X-4530Y6757D02*
X-4592Y6744D01*
X-4645Y6709D01*
X-4680Y6657D01*
X-4692Y6594D01*
X-4680Y6532D01*
X-4645Y6480D01*
X-4592Y6445D01*
X-4530Y6432D01*
X-4468Y6445D01*
X-4415Y6480D01*
X-4380Y6532D01*
X-4368Y6594D01*
X-4380Y6657D01*
X-4415Y6709D01*
X-4468Y6744D01*
X-4530Y6757D01*
D02*
G37*
G36*
X5411Y5576D02*
X5349Y5563D01*
X5296Y5528D01*
X5261Y5475D01*
X5249Y5413D01*
X5261Y5351D01*
X5296Y5299D01*
X5349Y5264D01*
X5411Y5251D01*
X5473Y5264D01*
X5526Y5299D01*
X5561Y5351D01*
X5573Y5413D01*
X5561Y5475D01*
X5526Y5528D01*
X5473Y5563D01*
X5411Y5576D01*
D02*
G37*
G36*
X-5416D02*
X-5478Y5563D01*
X-5530Y5528D01*
X-5566Y5475D01*
X-5578Y5413D01*
X-5566Y5351D01*
X-5530Y5299D01*
X-5478Y5264D01*
X-5416Y5251D01*
X-5354Y5264D01*
X-5301Y5299D01*
X-5266Y5351D01*
X-5254Y5413D01*
X-5266Y5475D01*
X-5301Y5528D01*
X-5354Y5563D01*
X-5416Y5576D01*
D02*
G37*
G36*
X-6611Y4660D02*
X-6673Y4647D01*
X-6726Y4612D01*
X-6761Y4560D01*
X-6774Y4498D01*
X-6761Y4436D01*
X-6726Y4383D01*
X-6673Y4348D01*
X-6611Y4335D01*
X-6549Y4348D01*
X-6497Y4383D01*
X-6462Y4436D01*
X-6449Y4498D01*
X-6462Y4560D01*
X-6497Y4612D01*
X-6549Y4647D01*
X-6611Y4660D01*
D02*
G37*
G36*
X-10066Y4690D02*
X-10143Y4675D01*
X-10209Y4631D01*
X-10253Y4565D01*
X-10268Y4488D01*
X-10253Y4410D01*
X-10209Y4345D01*
X-10143Y4301D01*
X-10066Y4286D01*
X-9988Y4301D01*
X-9923Y4345D01*
X-9879Y4410D01*
X-9863Y4488D01*
X-9879Y4565D01*
X-9923Y4631D01*
X-9988Y4675D01*
X-10066Y4690D01*
D02*
G37*
G36*
X-9338Y4389D02*
X-9416Y4373D01*
X-9481Y4330D01*
X-9525Y4264D01*
X-9540Y4187D01*
X-9525Y4109D01*
X-9481Y4044D01*
X-9416Y4000D01*
X-9338Y3984D01*
X-9261Y4000D01*
X-9195Y4044D01*
X-9151Y4109D01*
X-9136Y4187D01*
X-9151Y4264D01*
X-9195Y4330D01*
X-9261Y4373D01*
X-9338Y4389D01*
D02*
G37*
G36*
X10287Y4145D02*
X10210Y4129D01*
X10144Y4085D01*
X10100Y4020D01*
X10085Y3942D01*
X10100Y3865D01*
X10144Y3799D01*
X10210Y3755D01*
X10287Y3740D01*
X10364Y3755D01*
X10430Y3799D01*
X10474Y3865D01*
X10489Y3942D01*
X10474Y4020D01*
X10430Y4085D01*
X10364Y4129D01*
X10287Y4145D01*
D02*
G37*
G36*
X8568Y4138D02*
X8506Y4126D01*
X8454Y4091D01*
X8419Y4038D01*
X8406Y3976D01*
X8419Y3914D01*
X8454Y3862D01*
X8506Y3826D01*
X8520Y3824D01*
X8539Y3777D01*
X8532Y3765D01*
X8519Y3703D01*
X8532Y3641D01*
X8567Y3589D01*
X8619Y3554D01*
X8681Y3541D01*
X8743Y3554D01*
X8796Y3589D01*
X8831Y3641D01*
X8844Y3703D01*
X8831Y3765D01*
X8796Y3818D01*
X8743Y3853D01*
X8729Y3856D01*
X8710Y3902D01*
X8718Y3914D01*
X8731Y3976D01*
X8718Y4038D01*
X8683Y4091D01*
X8630Y4126D01*
X8568Y4138D01*
D02*
G37*
G36*
X9559Y3843D02*
X9482Y3828D01*
X9416Y3784D01*
X9373Y3718D01*
X9357Y3641D01*
X9373Y3564D01*
X9416Y3498D01*
X9482Y3454D01*
X9559Y3439D01*
X9637Y3454D01*
X9703Y3498D01*
X9746Y3564D01*
X9762Y3641D01*
X9746Y3718D01*
X9703Y3784D01*
X9637Y3828D01*
X9559Y3843D01*
D02*
G37*
G36*
X-8761Y3684D02*
X-8823Y3671D01*
X-8876Y3636D01*
X-8911Y3584D01*
X-8924Y3522D01*
X-8911Y3459D01*
X-8903Y3448D01*
X-8922Y3401D01*
X-8936Y3399D01*
X-8989Y3363D01*
X-9024Y3311D01*
X-9037Y3249D01*
X-9024Y3187D01*
X-8989Y3134D01*
X-8936Y3099D01*
X-8874Y3087D01*
X-8812Y3099D01*
X-8760Y3134D01*
X-8725Y3187D01*
X-8712Y3249D01*
X-8725Y3311D01*
X-8733Y3323D01*
X-8713Y3369D01*
X-8699Y3372D01*
X-8647Y3407D01*
X-8612Y3459D01*
X-8599Y3522D01*
X-8612Y3584D01*
X-8647Y3636D01*
X-8699Y3671D01*
X-8761Y3684D01*
D02*
G37*
G36*
X-1223Y2999D02*
X-1285Y2987D01*
X-1337Y2952D01*
X-1373Y2899D01*
X-1385Y2837D01*
X-1373Y2775D01*
X-1337Y2722D01*
X-1285Y2687D01*
X-1223Y2675D01*
X-1161Y2687D01*
X-1108Y2722D01*
X-1073Y2775D01*
X-1061Y2837D01*
X-1073Y2899D01*
X-1108Y2952D01*
X-1161Y2987D01*
X-1223Y2999D01*
D02*
G37*
G36*
X-7989Y2273D02*
X-8051Y2261D01*
X-8104Y2226D01*
X-8139Y2173D01*
X-8152Y2111D01*
X-8139Y2049D01*
X-8104Y1996D01*
X-8051Y1961D01*
X-7989Y1949D01*
X-7927Y1961D01*
X-7875Y1996D01*
X-7840Y2049D01*
X-7827Y2111D01*
X-7840Y2173D01*
X-7875Y2226D01*
X-7927Y2261D01*
X-7989Y2273D01*
D02*
G37*
G36*
X-726Y2225D02*
X-788Y2212D01*
X-841Y2177D01*
X-876Y2124D01*
X-888Y2062D01*
X-876Y2000D01*
X-857Y1972D01*
X-868Y1922D01*
X-875Y1915D01*
X-921Y1884D01*
X-956Y1832D01*
X-968Y1770D01*
X-956Y1707D01*
X-921Y1655D01*
X-868Y1620D01*
X-806Y1607D01*
X-744Y1620D01*
X-691Y1655D01*
X-656Y1707D01*
X-644Y1770D01*
X-656Y1832D01*
X-675Y1859D01*
X-665Y1910D01*
X-658Y1917D01*
X-612Y1948D01*
X-576Y2000D01*
X-564Y2062D01*
X-576Y2124D01*
X-612Y2177D01*
X-664Y2212D01*
X-726Y2225D01*
D02*
G37*
G36*
X5877Y1882D02*
X5815Y1870D01*
X5762Y1835D01*
X5727Y1782D01*
X5715Y1720D01*
X5727Y1658D01*
X5762Y1605D01*
X5815Y1570D01*
X5877Y1558D01*
X5939Y1570D01*
X5992Y1605D01*
X6027Y1658D01*
X6039Y1720D01*
X6027Y1782D01*
X5992Y1835D01*
X5939Y1870D01*
X5877Y1882D01*
D02*
G37*
G36*
X5880Y1312D02*
X5818Y1299D01*
X5766Y1264D01*
X5731Y1212D01*
X5718Y1150D01*
X5731Y1088D01*
X5766Y1035D01*
X5818Y1000D01*
X5880Y987D01*
X5942Y1000D01*
X5995Y1035D01*
X6030Y1088D01*
X6043Y1150D01*
X6030Y1212D01*
X5995Y1264D01*
X5942Y1299D01*
X5880Y1312D01*
D02*
G37*
G36*
X-4917Y1045D02*
X-4975Y1033D01*
X-5024Y1000D01*
X-5057Y951D01*
X-5069Y893D01*
X-5057Y834D01*
X-5024Y785D01*
X-4975Y752D01*
X-4917Y740D01*
X-4858Y752D01*
X-4809Y785D01*
X-4776Y834D01*
X-4764Y893D01*
X-4776Y951D01*
X-4809Y1000D01*
X-4858Y1033D01*
X-4917Y1045D01*
D02*
G37*
G36*
X1340Y1159D02*
X1262Y1144D01*
X1197Y1100D01*
X1153Y1034D01*
X1138Y957D01*
X1144Y926D01*
X1136Y869D01*
X1102Y788D01*
X1049Y718D01*
X979Y664D01*
X897Y630D01*
X815Y620D01*
X810Y620D01*
X-1486D01*
X-1529Y629D01*
X-1606Y614D01*
X-1672Y570D01*
X-1716Y504D01*
X-1731Y427D01*
X-1723Y384D01*
Y94D01*
X-1723Y94D01*
X-1712Y-44D01*
X-1749Y-77D01*
X-1765Y-74D01*
X-1827Y-86D01*
X-1880Y-122D01*
X-1915Y-174D01*
X-1927Y-236D01*
X-1915Y-298D01*
X-1880Y-351D01*
X-1827Y-386D01*
X-1765Y-398D01*
X-1703Y-386D01*
X-1679Y-370D01*
X-1618Y-386D01*
X-1593Y-447D01*
X-1495Y-607D01*
X-1373Y-750D01*
X-1231Y-871D01*
X-1071Y-969D01*
X-898Y-1041D01*
X-716Y-1085D01*
X-529Y-1099D01*
X-529Y-1099D01*
X-298D01*
X-295Y-1099D01*
X-230Y-1107D01*
X-168Y-1133D01*
X-114Y-1174D01*
X-72Y-1228D01*
X-47Y-1291D01*
X-38Y-1355D01*
X-39Y-1358D01*
Y-1703D01*
X-47Y-1746D01*
X-32Y-1823D01*
X12Y-1889D01*
X78Y-1933D01*
X155Y-1948D01*
X233Y-1933D01*
X298Y-1889D01*
X342Y-1823D01*
X357Y-1746D01*
X349Y-1703D01*
Y-1358D01*
X348Y-1352D01*
X336Y-1232D01*
X299Y-1111D01*
X239Y-999D01*
X159Y-902D01*
X61Y-821D01*
X-50Y-762D01*
X-172Y-725D01*
X-292Y-713D01*
X-298Y-712D01*
X-529D01*
X-538Y-714D01*
X-687Y-699D01*
X-838Y-653D01*
X-978Y-578D01*
X-1101Y-477D01*
X-1201Y-355D01*
X-1276Y-215D01*
X-1322Y-63D01*
X-1337Y86D01*
X-1335Y94D01*
Y233D01*
X810D01*
X812Y234D01*
X951Y247D01*
X1087Y288D01*
X1167Y331D01*
X1211Y298D01*
X1211Y297D01*
X1223Y235D01*
X1259Y182D01*
X1311Y147D01*
X1373Y135D01*
X1435Y147D01*
X1488Y182D01*
X1523Y235D01*
X1535Y297D01*
X1523Y359D01*
X1488Y412D01*
X1435Y447D01*
X1394Y455D01*
X1371Y506D01*
X1411Y555D01*
X1478Y680D01*
X1519Y816D01*
X1525Y877D01*
X1527Y879D01*
X1542Y957D01*
X1527Y1034D01*
X1483Y1100D01*
X1417Y1144D01*
X1340Y1159D01*
D02*
G37*
G36*
X5776Y918D02*
X5713Y905D01*
X5661Y870D01*
X5626Y818D01*
X5613Y756D01*
X5626Y694D01*
X5661Y641D01*
X5713Y606D01*
X5776Y593D01*
X5838Y606D01*
X5890Y641D01*
X5925Y694D01*
X5938Y756D01*
X5925Y818D01*
X5890Y870D01*
X5838Y905D01*
X5776Y918D01*
D02*
G37*
G36*
X5669Y525D02*
X5607Y512D01*
X5554Y477D01*
X5519Y425D01*
X5507Y363D01*
X5519Y301D01*
X5554Y248D01*
X5607Y213D01*
X5669Y200D01*
X5731Y213D01*
X5784Y248D01*
X5819Y301D01*
X5831Y363D01*
X5819Y425D01*
X5784Y477D01*
X5731Y512D01*
X5669Y525D01*
D02*
G37*
G36*
X-10239Y498D02*
X-10316Y482D01*
X-10382Y438D01*
X-10425Y373D01*
X-10441Y295D01*
X-10425Y218D01*
X-10382Y152D01*
X-10316Y108D01*
X-10239Y93D01*
X-10161Y108D01*
X-10096Y152D01*
X-10052Y218D01*
X-10036Y295D01*
X-10052Y373D01*
X-10096Y438D01*
X-10161Y482D01*
X-10239Y498D01*
D02*
G37*
G36*
X-11026D02*
X-11103Y482D01*
X-11169Y438D01*
X-11213Y373D01*
X-11228Y295D01*
X-11213Y218D01*
X-11169Y152D01*
X-11103Y108D01*
X-11026Y93D01*
X-10949Y108D01*
X-10883Y152D01*
X-10839Y218D01*
X-10824Y295D01*
X-10839Y373D01*
X-10883Y438D01*
X-10949Y482D01*
X-11026Y498D01*
D02*
G37*
G36*
X9446Y556D02*
X9384Y544D01*
X9332Y508D01*
X9297Y456D01*
X9284Y394D01*
X9297Y332D01*
X9332Y279D01*
X9344Y271D01*
Y221D01*
X9332Y213D01*
X9297Y160D01*
X9284Y98D01*
X9297Y36D01*
X9332Y-16D01*
X9384Y-51D01*
X9446Y-64D01*
X9509Y-51D01*
X9561Y-16D01*
X9596Y36D01*
X9609Y98D01*
X9596Y160D01*
X9561Y213D01*
X9549Y221D01*
Y271D01*
X9561Y279D01*
X9596Y332D01*
X9609Y394D01*
X9596Y456D01*
X9561Y508D01*
X9509Y544D01*
X9446Y556D01*
D02*
G37*
G36*
X4426Y261D02*
X4364Y248D01*
X4311Y213D01*
X4276Y160D01*
X4263Y98D01*
X4276Y36D01*
X4311Y-16D01*
X4364Y-51D01*
X4426Y-64D01*
X4488Y-51D01*
X4540Y-16D01*
X4575Y36D01*
X4588Y98D01*
X4575Y160D01*
X4540Y213D01*
X4488Y248D01*
X4426Y261D01*
D02*
G37*
G36*
X-2415Y192D02*
X-2477Y179D01*
X-2530Y144D01*
X-2565Y92D01*
X-2578Y30D01*
X-2565Y-32D01*
X-2530Y-85D01*
X-2477Y-120D01*
X-2415Y-133D01*
X-2353Y-120D01*
X-2301Y-85D01*
X-2266Y-32D01*
X-2253Y30D01*
X-2266Y92D01*
X-2301Y144D01*
X-2353Y179D01*
X-2415Y192D01*
D02*
G37*
G36*
X1251Y3138D02*
X1104Y3118D01*
X966Y3061D01*
X848Y2971D01*
X758Y2853D01*
X701Y2715D01*
X681Y2567D01*
X682D01*
X697Y2382D01*
X740Y2202D01*
X809Y2037D01*
X798Y2016D01*
X776Y1993D01*
X741Y2000D01*
X679Y1987D01*
X626Y1952D01*
X591Y1900D01*
X579Y1838D01*
X591Y1776D01*
X626Y1723D01*
X679Y1688D01*
X741Y1675D01*
X803Y1688D01*
X856Y1723D01*
X891Y1776D01*
X897Y1808D01*
X951Y1822D01*
X1029Y1731D01*
X1029Y1731D01*
X1743Y1017D01*
X1750Y1012D01*
X1846Y895D01*
X1922Y753D01*
X1969Y600D01*
X1982Y460D01*
X1956Y438D01*
X1951Y436D01*
X1932Y434D01*
X1913Y447D01*
X1850Y459D01*
X1788Y447D01*
X1736Y412D01*
X1701Y359D01*
X1688Y297D01*
X1701Y235D01*
X1736Y182D01*
X1788Y147D01*
X1792Y146D01*
X1797Y94D01*
X1777Y86D01*
X1707Y77D01*
X1705Y77D01*
X1545D01*
X1540Y81D01*
X1462Y96D01*
X1385Y81D01*
X1319Y37D01*
X1275Y-29D01*
X1260Y-106D01*
X1275Y-184D01*
X1319Y-249D01*
X1385Y-293D01*
X1462Y-309D01*
X1540Y-293D01*
X1545Y-290D01*
X1705D01*
X1709Y-289D01*
X1830Y-277D01*
X1951Y-240D01*
X2062Y-181D01*
X2160Y-101D01*
X2240Y-3D01*
X2299Y108D01*
X2336Y229D01*
X2348Y350D01*
X2349Y354D01*
Y440D01*
X2349D01*
X2334Y625D01*
X2291Y806D01*
X2220Y977D01*
X2123Y1136D01*
X2002Y1277D01*
X2002Y1277D01*
X1289Y1990D01*
X1282Y1995D01*
X1185Y2113D01*
X1167Y2146D01*
X1199Y2177D01*
X1205Y2182D01*
X1265Y2170D01*
X1328Y2182D01*
X1380Y2217D01*
X1415Y2270D01*
X1428Y2332D01*
X1415Y2394D01*
X1380Y2446D01*
X1328Y2482D01*
X1265Y2494D01*
X1203Y2482D01*
X1151Y2446D01*
X1118Y2398D01*
X1108Y2396D01*
X1061Y2426D01*
X1048Y2559D01*
X1050Y2567D01*
X1048Y2574D01*
X1063Y2646D01*
X1107Y2712D01*
X1173Y2756D01*
X1245Y2770D01*
X1251Y2769D01*
X1965D01*
X1972Y2771D01*
X2113Y2757D01*
X2255Y2714D01*
X2387Y2643D01*
X2496Y2554D01*
X2500Y2547D01*
X2806Y2242D01*
X2813Y2237D01*
X2909Y2120D01*
X2985Y1978D01*
X3032Y1824D01*
X3046Y1673D01*
X3045Y1665D01*
Y704D01*
X3046Y696D01*
X3032Y544D01*
X2985Y391D01*
X2909Y249D01*
X2813Y131D01*
X2806Y127D01*
X2761Y82D01*
X2755Y81D01*
X2689Y37D01*
X2645Y-29D01*
X2630Y-106D01*
X2645Y-184D01*
X2689Y-249D01*
X2755Y-293D01*
X2832Y-309D01*
X2910Y-293D01*
X2975Y-249D01*
X3019Y-184D01*
X3020Y-178D01*
X3065Y-133D01*
X3065Y-133D01*
X3065Y-133D01*
X3186Y8D01*
X3283Y167D01*
X3354Y338D01*
X3397Y519D01*
X3412Y704D01*
X3412D01*
Y1665D01*
X3412D01*
X3397Y1850D01*
X3354Y2030D01*
X3283Y2202D01*
X3186Y2360D01*
X3065Y2502D01*
X3065Y2501D01*
X2760Y2807D01*
X2759Y2807D01*
X2626Y2921D01*
X2475Y3014D01*
X2312Y3081D01*
X2141Y3122D01*
X1965Y3136D01*
X1965Y3136D01*
X1251D01*
Y3138D01*
D02*
G37*
G36*
X11021Y-93D02*
X10944Y-108D01*
X10878Y-152D01*
X10834Y-218D01*
X10819Y-295D01*
X10834Y-373D01*
X10878Y-438D01*
X10944Y-482D01*
X11021Y-498D01*
X11099Y-482D01*
X11164Y-438D01*
X11208Y-373D01*
X11224Y-295D01*
X11208Y-218D01*
X11164Y-152D01*
X11099Y-108D01*
X11021Y-93D01*
D02*
G37*
G36*
X10234Y-93D02*
X10156Y-108D01*
X10091Y-152D01*
X10047Y-218D01*
X10032Y-295D01*
X10047Y-373D01*
X10091Y-438D01*
X10156Y-482D01*
X10234Y-498D01*
X10311Y-482D01*
X10377Y-438D01*
X10421Y-373D01*
X10436Y-295D01*
X10421Y-218D01*
X10377Y-152D01*
X10311Y-108D01*
X10234Y-93D01*
D02*
G37*
G36*
X-9451Y64D02*
X-9513Y51D01*
X-9566Y16D01*
X-9601Y-36D01*
X-9613Y-98D01*
X-9601Y-160D01*
X-9566Y-213D01*
X-9554Y-221D01*
Y-271D01*
X-9566Y-279D01*
X-9601Y-332D01*
X-9613Y-394D01*
X-9601Y-456D01*
X-9566Y-508D01*
X-9513Y-544D01*
X-9451Y-556D01*
X-9389Y-544D01*
X-9336Y-508D01*
X-9301Y-456D01*
X-9289Y-394D01*
X-9301Y-332D01*
X-9336Y-279D01*
X-9348Y-271D01*
Y-221D01*
X-9336Y-213D01*
X-9301Y-160D01*
X-9289Y-98D01*
X-9301Y-36D01*
X-9336Y16D01*
X-9389Y51D01*
X-9451Y64D01*
D02*
G37*
G36*
X-7663Y-1098D02*
X-7725Y-1110D01*
X-7777Y-1145D01*
X-7812Y-1198D01*
X-7825Y-1260D01*
X-7812Y-1322D01*
X-7777Y-1375D01*
X-7725Y-1410D01*
X-7663Y-1422D01*
X-7600Y-1410D01*
X-7548Y-1375D01*
X-7513Y-1322D01*
X-7500Y-1260D01*
X-7513Y-1198D01*
X-7548Y-1145D01*
X-7600Y-1110D01*
X-7663Y-1098D01*
D02*
G37*
G36*
X864Y-1373D02*
X802Y-1386D01*
X749Y-1421D01*
X714Y-1473D01*
X702Y-1535D01*
X714Y-1597D01*
X749Y-1650D01*
X802Y-1685D01*
X864Y-1698D01*
X926Y-1685D01*
X978Y-1650D01*
X1014Y-1597D01*
X1026Y-1535D01*
X1014Y-1473D01*
X978Y-1421D01*
X926Y-1386D01*
X864Y-1373D01*
D02*
G37*
G36*
X-1056Y-1413D02*
X-1118Y-1425D01*
X-1170Y-1460D01*
X-1206Y-1513D01*
X-1218Y-1575D01*
X-1206Y-1637D01*
X-1170Y-1689D01*
X-1118Y-1725D01*
X-1056Y-1737D01*
X-994Y-1725D01*
X-941Y-1689D01*
X-906Y-1637D01*
X-894Y-1575D01*
X-906Y-1513D01*
X-941Y-1460D01*
X-994Y-1425D01*
X-1056Y-1413D01*
D02*
G37*
G36*
X-4924D02*
X-4986Y-1425D01*
X-5038Y-1460D01*
X-5073Y-1513D01*
X-5086Y-1575D01*
X-5073Y-1637D01*
X-5038Y-1689D01*
X-4986Y-1725D01*
X-4924Y-1737D01*
X-4862Y-1725D01*
X-4809Y-1689D01*
X-4774Y-1637D01*
X-4761Y-1575D01*
X-4774Y-1513D01*
X-4809Y-1460D01*
X-4862Y-1425D01*
X-4924Y-1413D01*
D02*
G37*
G36*
X4916Y-1413D02*
X4854Y-1425D01*
X4801Y-1460D01*
X4766Y-1513D01*
X4754Y-1575D01*
X4766Y-1637D01*
X4801Y-1689D01*
X4854Y-1725D01*
X4916Y-1737D01*
X4978Y-1725D01*
X5031Y-1689D01*
X5066Y-1637D01*
X5078Y-1575D01*
X5066Y-1513D01*
X5031Y-1460D01*
X4978Y-1425D01*
X4916Y-1413D01*
D02*
G37*
G36*
X-713Y-1570D02*
X-775Y-1582D01*
X-827Y-1618D01*
X-862Y-1670D01*
X-875Y-1732D01*
X-862Y-1794D01*
X-827Y-1847D01*
X-775Y-1882D01*
X-713Y-1894D01*
X-650Y-1882D01*
X-598Y-1847D01*
X-563Y-1794D01*
X-550Y-1732D01*
X-563Y-1670D01*
X-598Y-1618D01*
X-650Y-1582D01*
X-713Y-1570D01*
D02*
G37*
G36*
X1258Y-1750D02*
X1195Y-1762D01*
X1143Y-1797D01*
X1108Y-1850D01*
X1095Y-1912D01*
X1108Y-1974D01*
X1143Y-2026D01*
X1195Y-2062D01*
X1258Y-2074D01*
X1320Y-2062D01*
X1372Y-2026D01*
X1407Y-1974D01*
X1420Y-1912D01*
X1407Y-1850D01*
X1372Y-1797D01*
X1320Y-1762D01*
X1258Y-1750D01*
D02*
G37*
G36*
X-2050Y-1964D02*
X-2112Y-1976D01*
X-2164Y-2011D01*
X-2199Y-2064D01*
X-2212Y-2126D01*
X-2199Y-2188D01*
X-2164Y-2241D01*
X-2112Y-2276D01*
X-2050Y-2288D01*
X-1988Y-2276D01*
X-1935Y-2241D01*
X-1900Y-2188D01*
X-1887Y-2126D01*
X-1900Y-2064D01*
X-1935Y-2011D01*
X-1988Y-1976D01*
X-2050Y-1964D01*
D02*
G37*
G36*
X6129Y-2014D02*
X6067Y-2026D01*
X6014Y-2061D01*
X5979Y-2114D01*
X5967Y-2176D01*
X5979Y-2238D01*
X6014Y-2291D01*
X6067Y-2326D01*
X6129Y-2338D01*
X6191Y-2326D01*
X6243Y-2291D01*
X6279Y-2238D01*
X6291Y-2176D01*
X6279Y-2114D01*
X6243Y-2061D01*
X6191Y-2026D01*
X6129Y-2014D01*
D02*
G37*
G36*
X-6797Y-3075D02*
X-6859Y-3087D01*
X-6912Y-3123D01*
X-6947Y-3175D01*
X-6959Y-3237D01*
X-6947Y-3299D01*
X-6912Y-3352D01*
X-6859Y-3387D01*
X-6797Y-3399D01*
X-6735Y-3387D01*
X-6682Y-3352D01*
X-6647Y-3299D01*
X-6635Y-3237D01*
X-6647Y-3175D01*
X-6682Y-3123D01*
X-6735Y-3087D01*
X-6797Y-3075D01*
D02*
G37*
G36*
X-3939Y-3184D02*
X-4001Y-3197D01*
X-4054Y-3232D01*
X-4089Y-3284D01*
X-4102Y-3346D01*
X-4089Y-3409D01*
X-4054Y-3461D01*
X-4001Y-3496D01*
X-3939Y-3509D01*
X-3877Y-3496D01*
X-3825Y-3461D01*
X-3790Y-3409D01*
X-3777Y-3346D01*
X-3790Y-3284D01*
X-3825Y-3232D01*
X-3877Y-3197D01*
X-3939Y-3184D01*
D02*
G37*
G36*
X3935Y-3184D02*
X3873Y-3197D01*
X3820Y-3232D01*
X3785Y-3284D01*
X3772Y-3346D01*
X3785Y-3409D01*
X3820Y-3461D01*
X3873Y-3496D01*
X3935Y-3509D01*
X3997Y-3496D01*
X4049Y-3461D01*
X4085Y-3409D01*
X4097Y-3346D01*
X4085Y-3284D01*
X4049Y-3232D01*
X3997Y-3197D01*
X3935Y-3184D01*
D02*
G37*
G36*
X8870Y-3087D02*
X8808Y-3099D01*
X8755Y-3134D01*
X8720Y-3187D01*
X8708Y-3249D01*
X8720Y-3311D01*
X8728Y-3323D01*
X8709Y-3369D01*
X8695Y-3372D01*
X8642Y-3407D01*
X8607Y-3459D01*
X8595Y-3522D01*
X8607Y-3584D01*
X8642Y-3636D01*
X8695Y-3671D01*
X8757Y-3684D01*
X8819Y-3671D01*
X8871Y-3636D01*
X8907Y-3584D01*
X8919Y-3522D01*
X8907Y-3459D01*
X8899Y-3448D01*
X8918Y-3401D01*
X8932Y-3399D01*
X8984Y-3363D01*
X9020Y-3311D01*
X9032Y-3249D01*
X9020Y-3187D01*
X8984Y-3134D01*
X8932Y-3099D01*
X8870Y-3087D01*
D02*
G37*
G36*
X-9564Y-3439D02*
X-9642Y-3454D01*
X-9707Y-3498D01*
X-9751Y-3564D01*
X-9766Y-3641D01*
X-9751Y-3718D01*
X-9707Y-3784D01*
X-9642Y-3828D01*
X-9564Y-3843D01*
X-9487Y-3828D01*
X-9421Y-3784D01*
X-9377Y-3718D01*
X-9362Y-3641D01*
X-9377Y-3564D01*
X-9421Y-3498D01*
X-9487Y-3454D01*
X-9564Y-3439D01*
D02*
G37*
G36*
X-8686Y-3541D02*
X-8748Y-3554D01*
X-8801Y-3589D01*
X-8836Y-3641D01*
X-8848Y-3703D01*
X-8836Y-3765D01*
X-8801Y-3818D01*
X-8748Y-3853D01*
X-8734Y-3856D01*
X-8715Y-3902D01*
X-8723Y-3914D01*
X-8735Y-3976D01*
X-8723Y-4038D01*
X-8688Y-4091D01*
X-8635Y-4126D01*
X-8573Y-4138D01*
X-8511Y-4126D01*
X-8458Y-4091D01*
X-8423Y-4038D01*
X-8411Y-3976D01*
X-8423Y-3914D01*
X-8458Y-3862D01*
X-8511Y-3826D01*
X-8525Y-3824D01*
X-8544Y-3777D01*
X-8536Y-3765D01*
X-8524Y-3703D01*
X-8536Y-3641D01*
X-8571Y-3589D01*
X-8624Y-3554D01*
X-8686Y-3541D01*
D02*
G37*
G36*
X-10292Y-3740D02*
X-10369Y-3755D01*
X-10435Y-3799D01*
X-10479Y-3865D01*
X-10494Y-3942D01*
X-10479Y-4020D01*
X-10435Y-4085D01*
X-10369Y-4129D01*
X-10292Y-4145D01*
X-10214Y-4129D01*
X-10149Y-4085D01*
X-10105Y-4020D01*
X-10089Y-3942D01*
X-10105Y-3865D01*
X-10149Y-3799D01*
X-10214Y-3755D01*
X-10292Y-3740D01*
D02*
G37*
G36*
X9333Y-3984D02*
X9256Y-4000D01*
X9190Y-4044D01*
X9147Y-4109D01*
X9131Y-4187D01*
X9147Y-4264D01*
X9190Y-4330D01*
X9256Y-4374D01*
X9333Y-4389D01*
X9411Y-4374D01*
X9477Y-4330D01*
X9520Y-4264D01*
X9536Y-4187D01*
X9520Y-4109D01*
X9477Y-4044D01*
X9411Y-4000D01*
X9333Y-3984D01*
D02*
G37*
G36*
X-396Y-4267D02*
X-458Y-4279D01*
X-511Y-4314D01*
X-546Y-4367D01*
X-558Y-4429D01*
X-546Y-4491D01*
X-511Y-4544D01*
X-458Y-4579D01*
X-396Y-4591D01*
X-334Y-4579D01*
X-281Y-4544D01*
X-246Y-4491D01*
X-234Y-4429D01*
X-246Y-4367D01*
X-281Y-4314D01*
X-334Y-4279D01*
X-396Y-4267D01*
D02*
G37*
G36*
X391Y-4267D02*
X329Y-4279D01*
X277Y-4314D01*
X242Y-4367D01*
X229Y-4429D01*
X242Y-4491D01*
X277Y-4544D01*
X329Y-4579D01*
X391Y-4591D01*
X453Y-4579D01*
X506Y-4544D01*
X541Y-4491D01*
X554Y-4429D01*
X541Y-4367D01*
X506Y-4314D01*
X453Y-4279D01*
X391Y-4267D01*
D02*
G37*
G36*
X10061Y-4286D02*
X9984Y-4301D01*
X9918Y-4345D01*
X9874Y-4410D01*
X9859Y-4488D01*
X9874Y-4565D01*
X9918Y-4631D01*
X9984Y-4675D01*
X10061Y-4690D01*
X10138Y-4675D01*
X10204Y-4631D01*
X10248Y-4565D01*
X10263Y-4488D01*
X10248Y-4410D01*
X10204Y-4345D01*
X10138Y-4301D01*
X10061Y-4286D01*
D02*
G37*
G36*
X2261Y-4562D02*
X2199Y-4575D01*
X2147Y-4610D01*
X2112Y-4662D01*
X2099Y-4724D01*
X2112Y-4786D01*
X2147Y-4839D01*
X2199Y-4874D01*
X2261Y-4887D01*
X2324Y-4874D01*
X2376Y-4839D01*
X2411Y-4786D01*
X2424Y-4724D01*
X2411Y-4662D01*
X2376Y-4610D01*
X2324Y-4575D01*
X2261Y-4562D01*
D02*
G37*
G36*
X-2266Y-4562D02*
X-2328Y-4575D01*
X-2381Y-4610D01*
X-2416Y-4662D01*
X-2428Y-4724D01*
X-2416Y-4786D01*
X-2381Y-4839D01*
X-2328Y-4874D01*
X-2266Y-4887D01*
X-2204Y-4874D01*
X-2151Y-4839D01*
X-2116Y-4786D01*
X-2104Y-4724D01*
X-2116Y-4662D01*
X-2151Y-4610D01*
X-2204Y-4575D01*
X-2266Y-4562D01*
D02*
G37*
G36*
X4419Y-4777D02*
X4357Y-4790D01*
X4305Y-4825D01*
X4270Y-4878D01*
X4257Y-4940D01*
X4270Y-5002D01*
X4305Y-5054D01*
X4357Y-5089D01*
X4419Y-5102D01*
X4482Y-5089D01*
X4534Y-5054D01*
X4569Y-5002D01*
X4582Y-4940D01*
X4569Y-4878D01*
X4534Y-4825D01*
X4482Y-4790D01*
X4419Y-4777D01*
D02*
G37*
G36*
X-5008Y-5358D02*
X-5070Y-5370D01*
X-5123Y-5406D01*
X-5158Y-5458D01*
X-5170Y-5520D01*
X-5158Y-5582D01*
X-5123Y-5635D01*
X-5070Y-5670D01*
X-5008Y-5682D01*
X-4946Y-5670D01*
X-4893Y-5635D01*
X-4858Y-5582D01*
X-4846Y-5520D01*
X-4858Y-5458D01*
X-4893Y-5406D01*
X-4946Y-5370D01*
X-5008Y-5358D01*
D02*
G37*
G36*
X6963Y-6247D02*
X6901Y-6259D01*
X6849Y-6294D01*
X6814Y-6347D01*
X6801Y-6409D01*
X6804Y-6423D01*
X6769Y-6458D01*
X6755Y-6456D01*
X6693Y-6468D01*
X6640Y-6503D01*
X6605Y-6556D01*
X6592Y-6618D01*
X6605Y-6680D01*
X6640Y-6732D01*
X6693Y-6768D01*
X6755Y-6780D01*
X6817Y-6768D01*
X6869Y-6732D01*
X6904Y-6680D01*
X6917Y-6618D01*
X6914Y-6604D01*
X6949Y-6568D01*
X6963Y-6571D01*
X7025Y-6559D01*
X7078Y-6524D01*
X7113Y-6471D01*
X7126Y-6409D01*
X7113Y-6347D01*
X7078Y-6294D01*
X7025Y-6259D01*
X6963Y-6247D01*
D02*
G37*
G36*
X-165Y-6222D02*
X-227Y-6234D01*
X-280Y-6270D01*
X-315Y-6322D01*
X-327Y-6384D01*
X-315Y-6446D01*
X-280Y-6499D01*
X-227Y-6534D01*
X-165Y-6546D01*
X-103Y-6534D01*
X-50Y-6499D01*
X-15Y-6446D01*
X-3Y-6384D01*
X-15Y-6322D01*
X-50Y-6270D01*
X-103Y-6234D01*
X-165Y-6222D01*
D02*
G37*
G36*
X1615Y-6682D02*
X1553Y-6694D01*
X1501Y-6729D01*
X1465Y-6782D01*
X1453Y-6844D01*
X1465Y-6906D01*
X1501Y-6959D01*
X1553Y-6994D01*
X1615Y-7006D01*
X1677Y-6994D01*
X1730Y-6959D01*
X1765Y-6906D01*
X1777Y-6844D01*
X1765Y-6782D01*
X1730Y-6729D01*
X1677Y-6694D01*
X1615Y-6682D01*
D02*
G37*
G36*
X-2621Y-6736D02*
X-2683Y-6748D01*
X-2736Y-6784D01*
X-2771Y-6836D01*
X-2783Y-6898D01*
X-2771Y-6960D01*
X-2736Y-7013D01*
X-2683Y-7048D01*
X-2621Y-7060D01*
X-2559Y-7048D01*
X-2507Y-7013D01*
X-2471Y-6960D01*
X-2459Y-6898D01*
X-2471Y-6836D01*
X-2507Y-6784D01*
X-2559Y-6748D01*
X-2621Y-6736D01*
D02*
G37*
G36*
X-6620Y-6595D02*
X-6682Y-6607D01*
X-6735Y-6642D01*
X-6770Y-6695D01*
X-6782Y-6757D01*
X-6770Y-6819D01*
X-6735Y-6872D01*
X-6682Y-6907D01*
X-6620Y-6919D01*
X-6606Y-6916D01*
X-6571Y-6952D01*
X-6573Y-6966D01*
X-6561Y-7028D01*
X-6526Y-7080D01*
X-6473Y-7116D01*
X-6411Y-7128D01*
X-6349Y-7116D01*
X-6297Y-7080D01*
X-6261Y-7028D01*
X-6249Y-6966D01*
X-6261Y-6904D01*
X-6297Y-6851D01*
X-6349Y-6816D01*
X-6411Y-6804D01*
X-6425Y-6806D01*
X-6461Y-6771D01*
X-6458Y-6757D01*
X-6470Y-6695D01*
X-6505Y-6642D01*
X-6558Y-6607D01*
X-6620Y-6595D01*
D02*
G37*
G36*
X-7455Y-6833D02*
X-7533Y-6848D01*
X-7598Y-6892D01*
X-7642Y-6958D01*
X-7658Y-7035D01*
X-7642Y-7113D01*
X-7598Y-7178D01*
X-7533Y-7222D01*
X-7455Y-7238D01*
X-7378Y-7222D01*
X-7312Y-7178D01*
X-7268Y-7113D01*
X-7253Y-7035D01*
X-7268Y-6958D01*
X-7312Y-6892D01*
X-7378Y-6848D01*
X-7455Y-6833D01*
D02*
G37*
G36*
X7033Y-7251D02*
X6956Y-7266D01*
X6890Y-7310D01*
X6846Y-7375D01*
X6831Y-7453D01*
X6846Y-7530D01*
X6890Y-7596D01*
X6956Y-7640D01*
X7033Y-7655D01*
X7110Y-7640D01*
X7176Y-7596D01*
X7220Y-7530D01*
X7235Y-7453D01*
X7220Y-7375D01*
X7176Y-7310D01*
X7110Y-7266D01*
X7033Y-7251D01*
D02*
G37*
G36*
X-8012Y-7390D02*
X-8089Y-7405D01*
X-8155Y-7449D01*
X-8199Y-7515D01*
X-8214Y-7592D01*
X-8199Y-7670D01*
X-8155Y-7735D01*
X-8089Y-7779D01*
X-8012Y-7794D01*
X-7935Y-7779D01*
X-7869Y-7735D01*
X-7825Y-7670D01*
X-7810Y-7592D01*
X-7825Y-7515D01*
X-7869Y-7449D01*
X-7935Y-7405D01*
X-8012Y-7390D01*
D02*
G37*
G36*
X7590Y-7807D02*
X7512Y-7823D01*
X7447Y-7867D01*
X7403Y-7932D01*
X7387Y-8010D01*
X7403Y-8087D01*
X7447Y-8153D01*
X7512Y-8197D01*
X7590Y-8212D01*
X7667Y-8197D01*
X7733Y-8153D01*
X7777Y-8087D01*
X7792Y-8010D01*
X7777Y-7932D01*
X7733Y-7867D01*
X7667Y-7823D01*
X7590Y-7807D01*
D02*
G37*
G36*
X3974Y-8409D02*
X3912Y-8421D01*
X3859Y-8456D01*
X3824Y-8509D01*
X3821Y-8523D01*
X3775Y-8542D01*
X3763Y-8534D01*
X3701Y-8522D01*
X3639Y-8534D01*
X3586Y-8569D01*
X3551Y-8622D01*
X3539Y-8684D01*
X3551Y-8746D01*
X3586Y-8798D01*
X3639Y-8834D01*
X3701Y-8846D01*
X3763Y-8834D01*
X3816Y-8798D01*
X3851Y-8746D01*
X3854Y-8732D01*
X3900Y-8713D01*
X3912Y-8721D01*
X3974Y-8733D01*
X4036Y-8721D01*
X4089Y-8685D01*
X4124Y-8633D01*
X4136Y-8571D01*
X4124Y-8509D01*
X4089Y-8456D01*
X4036Y-8421D01*
X3974Y-8409D01*
D02*
G37*
G36*
X-3524Y-8597D02*
X-3586Y-8609D01*
X-3639Y-8644D01*
X-3674Y-8697D01*
X-3686Y-8759D01*
X-3674Y-8821D01*
X-3639Y-8874D01*
X-3586Y-8909D01*
X-3524Y-8921D01*
X-3462Y-8909D01*
X-3450Y-8901D01*
X-3404Y-8920D01*
X-3401Y-8934D01*
X-3366Y-8987D01*
X-3313Y-9022D01*
X-3251Y-9034D01*
X-3189Y-9022D01*
X-3136Y-8987D01*
X-3101Y-8934D01*
X-3089Y-8872D01*
X-3101Y-8810D01*
X-3136Y-8757D01*
X-3189Y-8722D01*
X-3251Y-8710D01*
X-3313Y-8722D01*
X-3325Y-8730D01*
X-3371Y-8711D01*
X-3374Y-8697D01*
X-3409Y-8644D01*
X-3462Y-8609D01*
X-3524Y-8597D01*
D02*
G37*
G36*
X391Y-9287D02*
X329Y-9299D01*
X277Y-9334D01*
X269Y-9346D01*
X219D01*
X211Y-9334D01*
X158Y-9299D01*
X96Y-9287D01*
X34Y-9299D01*
X-19Y-9334D01*
X-54Y-9387D01*
X-66Y-9449D01*
X-54Y-9511D01*
X-19Y-9564D01*
X34Y-9599D01*
X96Y-9611D01*
X158Y-9599D01*
X211Y-9564D01*
X219Y-9552D01*
X269D01*
X277Y-9564D01*
X329Y-9599D01*
X391Y-9611D01*
X453Y-9599D01*
X506Y-9564D01*
X541Y-9511D01*
X554Y-9449D01*
X541Y-9387D01*
X506Y-9334D01*
X453Y-9299D01*
X391Y-9287D01*
D02*
G37*
G36*
X-4189Y-9134D02*
X-4266Y-9149D01*
X-4332Y-9193D01*
X-4376Y-9258D01*
X-4391Y-9336D01*
X-4376Y-9413D01*
X-4332Y-9479D01*
X-4266Y-9523D01*
X-4189Y-9538D01*
X-4112Y-9523D01*
X-4046Y-9479D01*
X-4002Y-9413D01*
X-3987Y-9336D01*
X-4002Y-9258D01*
X-4046Y-9193D01*
X-4112Y-9149D01*
X-4189Y-9134D01*
D02*
G37*
G36*
X3639Y-9360D02*
X3561Y-9375D01*
X3496Y-9419D01*
X3452Y-9484D01*
X3436Y-9562D01*
X3452Y-9639D01*
X3496Y-9705D01*
X3561Y-9749D01*
X3639Y-9764D01*
X3716Y-9749D01*
X3782Y-9705D01*
X3826Y-9639D01*
X3841Y-9562D01*
X3826Y-9484D01*
X3782Y-9419D01*
X3716Y-9375D01*
X3639Y-9360D01*
D02*
G37*
G36*
X-4490Y-9861D02*
X-4568Y-9876D01*
X-4633Y-9920D01*
X-4677Y-9986D01*
X-4693Y-10063D01*
X-4677Y-10141D01*
X-4633Y-10206D01*
X-4568Y-10250D01*
X-4490Y-10266D01*
X-4413Y-10250D01*
X-4347Y-10206D01*
X-4303Y-10141D01*
X-4288Y-10063D01*
X-4303Y-9986D01*
X-4347Y-9920D01*
X-4413Y-9876D01*
X-4490Y-9861D01*
D02*
G37*
G36*
X-298Y-10034D02*
X-375Y-10049D01*
X-441Y-10093D01*
X-485Y-10159D01*
X-500Y-10236D01*
X-485Y-10314D01*
X-441Y-10379D01*
X-375Y-10423D01*
X-298Y-10439D01*
X-220Y-10423D01*
X-155Y-10379D01*
X-111Y-10314D01*
X-95Y-10236D01*
X-111Y-10159D01*
X-155Y-10093D01*
X-220Y-10049D01*
X-298Y-10034D01*
D02*
G37*
G36*
X3940Y-10087D02*
X3863Y-10102D01*
X3797Y-10146D01*
X3753Y-10212D01*
X3738Y-10289D01*
X3753Y-10367D01*
X3797Y-10432D01*
X3863Y-10476D01*
X3940Y-10492D01*
X4017Y-10476D01*
X4083Y-10432D01*
X4127Y-10367D01*
X4142Y-10289D01*
X4127Y-10212D01*
X4083Y-10146D01*
X4017Y-10102D01*
X3940Y-10087D01*
D02*
G37*
G36*
X-298Y-10821D02*
X-375Y-10837D01*
X-441Y-10881D01*
X-485Y-10946D01*
X-500Y-11024D01*
X-485Y-11101D01*
X-441Y-11167D01*
X-375Y-11211D01*
X-298Y-11226D01*
X-220Y-11211D01*
X-155Y-11167D01*
X-111Y-11101D01*
X-95Y-11024D01*
X-111Y-10946D01*
X-155Y-10881D01*
X-220Y-10837D01*
X-298Y-10821D01*
D02*
G37*
%LPD*%
D83*
X2935Y-3D02*
G03*
X3228Y704I-707J707D01*
G01*
Y1665D02*
G03*
X2935Y2372I-1000J0D01*
G01*
X2630Y2677D02*
G03*
X1965Y2953I-665J-665D01*
G01*
X1251D02*
G03*
X866Y2567I0J-385D01*
G01*
D02*
G03*
X1159Y1860I1000J0D01*
G01*
X2165Y440D02*
G03*
X1872Y1147I-1000J0D01*
G01*
X1705Y-106D02*
G03*
X2165Y354I0J461D01*
G01*
X2832Y-106D02*
X2935Y-3D01*
X3228Y704D02*
Y1665D01*
X2630Y2677D02*
X2935Y2372D01*
X1251Y2953D02*
X1965D01*
X1159Y1860D02*
X1872Y1147D01*
X2165Y354D02*
Y440D01*
X1462Y-106D02*
X1705D01*
D84*
X-2Y-551D02*
D03*
X1462Y-106D02*
D03*
X0Y-157D02*
D03*
X2832Y-106D02*
D03*
X-2Y-354D02*
D03*
X155Y-1746D02*
D03*
X1340Y957D02*
D03*
X-1529Y427D02*
D03*
X-219Y-2539D02*
D03*
X214Y-2539D02*
D03*
X-219Y-2972D02*
D03*
X214Y-2972D02*
D03*
X-2093Y1457D02*
D03*
X-2310Y1082D02*
D03*
X-2468Y1674D02*
D03*
X-2685Y1299D02*
D03*
X2305Y1082D02*
D03*
X2089Y1457D02*
D03*
X2680Y1299D02*
D03*
X2464Y1674D02*
D03*
D85*
X8758Y787D02*
D03*
X-8762Y-787D02*
D03*
X588Y-8661D02*
D03*
X-593Y8661D02*
D03*
D88*
X810Y427D02*
G03*
X1340Y957I0J530D01*
G01*
X-1529Y94D02*
G03*
X-529Y-906I1000J0D01*
G01*
X155Y-1358D02*
G03*
X-298Y-906I-453J0D01*
G01*
X-1529Y94D02*
Y427D01*
X810D01*
X-529Y-906D02*
X-298D01*
X155Y-1746D02*
Y-1358D01*
M02*
